G75*
G70*
%OFA0B0*%
%FSLAX24Y24*%
%IPPOS*%
%LPD*%
%AMOC8*
5,1,8,0,0,1.08239X$1,22.5*
%
%ADD10C,0.0040*%
%ADD11C,0.0030*%
%ADD12C,0.0080*%
%ADD13C,0.0220*%
%ADD14R,0.0180X0.0300*%
%ADD15C,0.0060*%
%ADD16C,0.0050*%
%ADD17C,0.0004*%
%ADD18C,0.0030*%
D10*
X012629Y001005D02*
X012706Y000928D01*
X012782Y000928D01*
X012629Y001005D02*
X012629Y001388D01*
X012936Y001388D02*
X012936Y001158D01*
X012859Y001081D01*
X012629Y001081D01*
X013089Y001388D02*
X013166Y001388D01*
X013319Y001235D01*
X013319Y001388D02*
X013319Y001081D01*
X013473Y001081D02*
X013703Y001081D01*
X013780Y001158D01*
X013703Y001235D01*
X013473Y001235D01*
X013473Y001311D02*
X013473Y001081D01*
X013473Y001311D02*
X013550Y001388D01*
X013703Y001388D01*
X013933Y001388D02*
X014087Y001388D01*
X014010Y001465D02*
X014010Y001158D01*
X013933Y001081D01*
X014240Y001081D02*
X014240Y001311D01*
X014317Y001388D01*
X014547Y001388D01*
X014547Y001081D01*
X014700Y001235D02*
X015007Y001235D01*
X015007Y001311D02*
X014931Y001388D01*
X014777Y001388D01*
X014700Y001311D01*
X014700Y001235D01*
X014777Y001081D02*
X014931Y001081D01*
X015007Y001158D01*
X015007Y001311D01*
X015161Y001311D02*
X015161Y001081D01*
X015314Y001081D02*
X015314Y001311D01*
X015238Y001388D01*
X015161Y001311D01*
X015314Y001311D02*
X015391Y001388D01*
X015468Y001388D01*
X015468Y001081D01*
X015621Y001235D02*
X015928Y001235D01*
X015928Y001311D02*
X015851Y001388D01*
X015698Y001388D01*
X015621Y001311D01*
X015621Y001235D01*
X015698Y001081D02*
X015851Y001081D01*
X015928Y001158D01*
X015928Y001311D01*
X016081Y001081D02*
X016235Y001081D01*
X016158Y001081D02*
X016158Y001542D01*
X016235Y001542D01*
X016465Y001388D02*
X016388Y001311D01*
X016388Y001158D01*
X016465Y001081D01*
X016695Y001081D01*
X016695Y000928D02*
X016695Y001388D01*
X016465Y001388D01*
X016849Y001311D02*
X016849Y001081D01*
X017002Y001081D02*
X017002Y001311D01*
X016925Y001388D01*
X016849Y001311D01*
X017002Y001311D02*
X017079Y001388D01*
X017156Y001388D01*
X017156Y001081D01*
X017309Y001158D02*
X017309Y001311D01*
X017386Y001388D01*
X017539Y001388D01*
X017616Y001311D01*
X017616Y001158D01*
X017539Y001081D01*
X017386Y001081D01*
X017309Y001158D01*
X017769Y001081D02*
X018000Y001081D01*
X018076Y001158D01*
X018076Y001311D01*
X018000Y001388D01*
X017769Y001388D01*
X018690Y001311D02*
X018690Y001081D01*
X018844Y001081D02*
X018844Y001311D01*
X018767Y001388D01*
X018690Y001311D01*
X018844Y001311D02*
X018920Y001388D01*
X018997Y001388D01*
X018997Y001081D01*
X019151Y001158D02*
X019227Y001081D01*
X019304Y001158D01*
X019381Y001081D01*
X019457Y001158D01*
X019457Y001388D01*
X019611Y001311D02*
X019688Y001388D01*
X019918Y001388D01*
X019918Y000928D01*
X019918Y001081D02*
X019688Y001081D01*
X019611Y001158D01*
X019611Y001311D01*
X019151Y001388D02*
X019151Y001158D01*
X020532Y001081D02*
X020608Y001158D01*
X020608Y001465D01*
X020685Y001388D02*
X020532Y001388D01*
X020838Y001388D02*
X021069Y001388D01*
X021145Y001311D01*
X021145Y001158D01*
X021069Y001081D01*
X020838Y001081D01*
X021299Y001235D02*
X021606Y001235D01*
X021606Y001311D02*
X021529Y001388D01*
X021376Y001388D01*
X021299Y001311D01*
X021299Y001235D01*
X021376Y001081D02*
X021529Y001081D01*
X021606Y001158D01*
X021606Y001311D01*
X021759Y001081D02*
X021913Y001081D01*
X021836Y001081D02*
X021836Y001542D01*
X021913Y001542D01*
X022143Y001388D02*
X022066Y001311D01*
X022066Y001235D01*
X022373Y001235D01*
X022373Y001311D02*
X022296Y001388D01*
X022143Y001388D01*
X022373Y001311D02*
X022373Y001158D01*
X022296Y001081D01*
X022143Y001081D01*
X022526Y001158D02*
X022603Y001235D01*
X022757Y001235D01*
X022833Y001311D01*
X022757Y001388D01*
X022526Y001388D01*
X022526Y001158D02*
X022603Y001081D01*
X022833Y001081D01*
X025123Y001010D02*
X025584Y001010D01*
X025584Y001241D01*
X025507Y001317D01*
X025353Y001317D01*
X025277Y001241D01*
X025277Y001010D01*
X025200Y000780D02*
X025123Y000704D01*
X025123Y000627D01*
X025200Y000550D01*
X025200Y000780D02*
X025584Y000780D01*
X025584Y000704D02*
X025584Y000857D01*
X025507Y001471D02*
X025430Y001471D01*
X025353Y001548D01*
X025353Y001701D01*
X025277Y001778D01*
X025200Y001778D01*
X025123Y001701D01*
X025123Y001548D01*
X025200Y001471D01*
X025277Y001471D01*
X025353Y001548D01*
X025353Y001701D02*
X025430Y001778D01*
X025507Y001778D01*
X025584Y001701D01*
X025584Y001548D01*
X025507Y001471D01*
X030903Y002771D02*
X030903Y004551D01*
X032403Y004551D02*
X032403Y002771D01*
X035453Y002771D02*
X035453Y004551D01*
X036953Y004551D02*
X036953Y002771D01*
X038063Y005411D02*
X039843Y005411D01*
X039843Y006911D02*
X038063Y006911D01*
D11*
X024038Y001985D02*
X024038Y001738D01*
X023977Y001676D01*
X023853Y001676D01*
X023791Y001738D01*
X023670Y001676D02*
X023670Y002047D01*
X023791Y001985D02*
X023853Y002047D01*
X023977Y002047D01*
X024038Y001985D01*
X023670Y001861D02*
X023423Y001861D01*
X023302Y001923D02*
X023178Y002047D01*
X023178Y001676D01*
X023055Y001676D02*
X023302Y001676D01*
X023423Y001676D02*
X023423Y002047D01*
X022933Y002047D02*
X022687Y001676D01*
X022687Y002047D01*
X022933Y002047D02*
X022933Y001676D01*
X023117Y001047D02*
X023055Y000985D01*
X023055Y000923D01*
X023302Y000676D01*
X023055Y000676D01*
X023423Y000676D02*
X023423Y001047D01*
X023302Y000985D02*
X023240Y001047D01*
X023117Y001047D01*
X023423Y000861D02*
X023670Y000861D01*
X023791Y000738D02*
X023853Y000676D01*
X023977Y000676D01*
X024038Y000738D01*
X024038Y000985D01*
X023977Y001047D01*
X023853Y001047D01*
X023791Y000985D01*
X023670Y001047D02*
X023670Y000676D01*
D12*
X031260Y003374D02*
X032047Y003374D01*
X031653Y003374D02*
X031260Y003914D01*
X032047Y003914D01*
X031653Y003374D01*
X035810Y003374D02*
X036597Y003374D01*
X036203Y003374D02*
X035810Y003914D01*
X036597Y003914D01*
X036203Y003374D01*
X038286Y004728D02*
X038286Y001972D01*
X038601Y001972D01*
X038601Y004728D01*
X038286Y004728D01*
X038601Y004728D02*
X041042Y004728D01*
X041042Y001972D01*
X038601Y001972D01*
X038700Y005768D02*
X038700Y006555D01*
X039241Y006161D01*
X038700Y005768D01*
X039241Y005768D02*
X039241Y006555D01*
X012203Y005411D02*
X012203Y004911D01*
X011953Y004661D01*
X011453Y004661D01*
X011203Y004911D01*
X010953Y004661D01*
X010453Y004661D01*
X010203Y004911D01*
X009953Y004661D01*
X009453Y004661D01*
X009203Y004911D01*
X009203Y005411D01*
X009453Y005661D01*
X009953Y005661D01*
X010203Y005411D01*
X010453Y005661D01*
X010953Y005661D01*
X011203Y005411D01*
X011453Y005661D01*
X011953Y005661D01*
X012203Y005411D01*
X011953Y004161D02*
X011453Y004161D01*
X011203Y003911D01*
X010953Y004161D01*
X010453Y004161D01*
X010203Y003911D01*
X009953Y004161D01*
X009453Y004161D01*
X009203Y003911D01*
X009203Y003411D01*
X009453Y003161D01*
X009953Y003161D01*
X010203Y003411D01*
X010453Y003161D01*
X010953Y003161D01*
X011203Y003411D01*
X011453Y003161D01*
X011953Y003161D01*
X012203Y003411D01*
X012203Y003911D01*
X011953Y004161D01*
X011953Y002661D02*
X011453Y002661D01*
X011203Y002411D01*
X010953Y002661D01*
X010453Y002661D01*
X010203Y002411D01*
X009953Y002661D01*
X009453Y002661D01*
X009203Y002411D01*
X009203Y001911D01*
X009453Y001661D01*
X009953Y001661D01*
X010203Y001911D01*
X010453Y001661D01*
X010953Y001661D01*
X011203Y001911D01*
X011453Y001661D01*
X011953Y001661D01*
X012203Y001911D01*
X012203Y002411D01*
X011953Y002661D01*
X006703Y007911D02*
X006453Y007661D01*
X005953Y007661D01*
X005703Y007911D01*
X005703Y008411D01*
X005953Y008661D01*
X005703Y008911D01*
X005703Y009411D01*
X005953Y009661D01*
X005703Y009911D01*
X005703Y010411D01*
X005953Y010661D01*
X005703Y010911D01*
X005703Y011411D01*
X005953Y011661D01*
X005703Y011911D01*
X005703Y012411D01*
X005953Y012661D01*
X005703Y012911D01*
X005703Y013411D01*
X005953Y013661D01*
X005703Y013911D01*
X005703Y014411D01*
X005953Y014661D01*
X005703Y014911D01*
X005703Y015411D01*
X005953Y015661D01*
X005703Y015911D01*
X005703Y016411D01*
X005953Y016661D01*
X005703Y016911D01*
X005703Y017411D01*
X005953Y017661D01*
X005703Y017911D01*
X005703Y018411D01*
X005953Y018661D01*
X005703Y018911D01*
X005703Y019411D01*
X005953Y019661D01*
X005703Y019911D01*
X005703Y020411D01*
X005953Y020661D01*
X005703Y020911D01*
X005703Y021411D01*
X005953Y021661D01*
X005703Y021911D01*
X005703Y022411D01*
X005953Y022661D01*
X005703Y022911D01*
X005703Y023411D01*
X005953Y023661D01*
X005703Y023911D01*
X005703Y024411D01*
X005953Y024661D01*
X005703Y024911D01*
X005703Y025411D01*
X005953Y025661D01*
X006453Y025661D01*
X006703Y025411D01*
X006703Y024911D01*
X006453Y024661D01*
X006703Y024411D01*
X006703Y023911D01*
X006453Y023661D01*
X006703Y023411D01*
X006703Y022911D01*
X006453Y022661D01*
X006703Y022411D01*
X006703Y021911D01*
X006453Y021661D01*
X006703Y021411D01*
X006703Y020911D01*
X006453Y020661D01*
X006703Y020411D01*
X006703Y019911D01*
X006453Y019661D01*
X006703Y019411D01*
X006703Y018911D01*
X006453Y018661D01*
X006703Y018411D01*
X006703Y017911D01*
X006453Y017661D01*
X006703Y017411D01*
X006703Y016911D01*
X006453Y016661D01*
X006703Y016411D01*
X006703Y015911D01*
X006453Y015661D01*
X006703Y015411D01*
X006703Y014911D01*
X006453Y014661D01*
X006703Y014411D01*
X006703Y013911D01*
X006453Y013661D01*
X006703Y013411D01*
X006703Y012911D01*
X006453Y012661D01*
X006703Y012411D01*
X006703Y011911D01*
X006453Y011661D01*
X006703Y011411D01*
X006703Y010911D01*
X006453Y010661D01*
X006703Y010411D01*
X006703Y009911D01*
X006453Y009661D01*
X006703Y009411D01*
X006703Y008911D01*
X006453Y008661D01*
X006703Y008411D01*
X006703Y007911D01*
X005703Y007911D02*
X005453Y007661D01*
X004953Y007661D01*
X004703Y007911D01*
X004703Y008411D01*
X004953Y008661D01*
X004703Y008911D01*
X004703Y009411D01*
X004953Y009661D01*
X004703Y009911D01*
X004703Y010411D01*
X004953Y010661D01*
X004703Y010911D01*
X004703Y011411D01*
X004953Y011661D01*
X004703Y011911D01*
X004703Y012411D01*
X004953Y012661D01*
X004703Y012911D01*
X004703Y013411D01*
X004953Y013661D01*
X004703Y013911D01*
X004703Y014411D01*
X004953Y014661D01*
X004703Y014911D01*
X004703Y015411D01*
X004953Y015661D01*
X004703Y015911D01*
X004703Y016411D01*
X004953Y016661D01*
X004703Y016911D01*
X004703Y017411D01*
X004953Y017661D01*
X004703Y017911D01*
X004703Y018411D01*
X004953Y018661D01*
X004703Y018911D01*
X004703Y019411D01*
X004953Y019661D01*
X004703Y019911D01*
X004703Y020411D01*
X004953Y020661D01*
X004703Y020911D01*
X004703Y021411D01*
X004953Y021661D01*
X004703Y021911D01*
X004703Y022411D01*
X004953Y022661D01*
X004703Y022911D01*
X004703Y023411D01*
X004953Y023661D01*
X004703Y023911D01*
X004703Y024411D01*
X004953Y024661D01*
X004703Y024911D01*
X004703Y025411D01*
X004953Y025661D01*
X005453Y025661D01*
X005703Y025411D01*
X005703Y024911D01*
X005453Y024661D01*
X005703Y024411D01*
X005703Y023911D01*
X005453Y023661D01*
X005703Y023411D01*
X005703Y022911D01*
X005453Y022661D01*
X005703Y022411D01*
X005703Y021911D01*
X005453Y021661D01*
X005703Y021411D01*
X005703Y020911D01*
X005453Y020661D01*
X005703Y020411D01*
X005703Y019911D01*
X005453Y019661D01*
X005703Y019411D01*
X005703Y018911D01*
X005453Y018661D01*
X005703Y018411D01*
X005703Y017911D01*
X005453Y017661D01*
X005703Y017411D01*
X005703Y016911D01*
X005453Y016661D01*
X005703Y016411D01*
X005703Y015911D01*
X005453Y015661D01*
X005703Y015411D01*
X005703Y014911D01*
X005453Y014661D01*
X005703Y014411D01*
X005703Y013911D01*
X005453Y013661D01*
X005703Y013411D01*
X005703Y012911D01*
X005453Y012661D01*
X005703Y012411D01*
X005703Y011911D01*
X005453Y011661D01*
X005703Y011411D01*
X005703Y010911D01*
X005453Y010661D01*
X005703Y010411D01*
X005703Y009911D01*
X005453Y009661D01*
X005703Y009411D01*
X005703Y008911D01*
X005453Y008661D01*
X005703Y008411D01*
X005703Y007911D01*
D13*
X031203Y007649D02*
X031203Y007673D01*
X035703Y007649D02*
X035703Y007673D01*
D14*
X028403Y005911D03*
X027003Y006161D03*
X025603Y006161D03*
X024203Y006161D03*
X028903Y001961D03*
X031253Y001461D03*
X035803Y001511D03*
X002703Y018661D03*
X002703Y020011D03*
X002703Y021361D03*
X002703Y022711D03*
D15*
X009703Y023911D02*
X009703Y025411D01*
X009953Y025661D01*
X010453Y025661D01*
X010703Y025411D01*
X010703Y023911D01*
X010453Y023661D01*
X009953Y023661D01*
X009703Y023911D01*
X010703Y023911D02*
X010953Y023661D01*
X011453Y023661D01*
X011703Y023911D01*
X011703Y025411D01*
X011453Y025661D01*
X010953Y025661D01*
X010703Y025411D01*
X011703Y025411D02*
X011953Y025661D01*
X012453Y025661D01*
X012703Y025411D01*
X012703Y023911D01*
X012953Y023661D01*
X013453Y023661D01*
X013703Y023911D01*
X013703Y025411D01*
X013453Y025661D01*
X012953Y025661D01*
X012703Y025411D01*
X013703Y025411D02*
X013953Y025661D01*
X014453Y025661D01*
X014703Y025411D01*
X014703Y023911D01*
X014453Y023661D01*
X013953Y023661D01*
X013703Y023911D01*
X014703Y023911D02*
X014953Y023661D01*
X015453Y023661D01*
X015703Y023911D01*
X015703Y025411D01*
X015453Y025661D01*
X014953Y025661D01*
X014703Y025411D01*
X015703Y025411D02*
X015953Y025661D01*
X016453Y025661D01*
X016703Y025411D01*
X016703Y023911D01*
X016453Y023661D01*
X015953Y023661D01*
X015703Y023911D01*
X016703Y023911D02*
X016953Y023661D01*
X017453Y023661D01*
X017703Y023911D01*
X017703Y025411D01*
X017453Y025661D01*
X016953Y025661D01*
X016703Y025411D01*
X017703Y025411D02*
X017953Y025661D01*
X018453Y025661D01*
X018703Y025411D01*
X018703Y023911D01*
X018453Y023661D01*
X017953Y023661D01*
X017703Y023911D01*
X018703Y023911D02*
X018953Y023661D01*
X019453Y023661D01*
X019703Y023911D01*
X019703Y025411D01*
X019453Y025661D01*
X018953Y025661D01*
X018703Y025411D01*
X012703Y023911D02*
X012453Y023661D01*
X011953Y023661D01*
X011703Y023911D01*
X011453Y009661D02*
X010953Y009661D01*
X010703Y009411D01*
X010703Y007911D01*
X010953Y007661D01*
X011453Y007661D01*
X011703Y007911D01*
X011703Y009411D01*
X011953Y009661D01*
X012453Y009661D01*
X012703Y009411D01*
X012703Y007911D01*
X012953Y007661D01*
X013453Y007661D01*
X013703Y007911D01*
X013703Y009411D01*
X013953Y009661D01*
X014453Y009661D01*
X014703Y009411D01*
X014703Y007911D01*
X014953Y007661D01*
X015453Y007661D01*
X015703Y007911D01*
X015703Y009411D01*
X015953Y009661D01*
X016453Y009661D01*
X016703Y009411D01*
X016703Y007911D01*
X016953Y007661D01*
X017453Y007661D01*
X017703Y007911D01*
X017703Y009411D01*
X017453Y009661D01*
X016953Y009661D01*
X016703Y009411D01*
X015703Y009411D02*
X015453Y009661D01*
X014953Y009661D01*
X014703Y009411D01*
X013703Y009411D02*
X013453Y009661D01*
X012953Y009661D01*
X012703Y009411D01*
X011703Y009411D02*
X011453Y009661D01*
X010703Y009411D02*
X010453Y009661D01*
X009953Y009661D01*
X009703Y009411D01*
X009703Y007911D01*
X009953Y007661D01*
X010453Y007661D01*
X010703Y007911D01*
X011703Y007911D02*
X011953Y007661D01*
X012453Y007661D01*
X012703Y007911D01*
X013703Y007911D02*
X013953Y007661D01*
X014453Y007661D01*
X014703Y007911D01*
X015703Y007911D02*
X015953Y007661D01*
X016453Y007661D01*
X016703Y007911D01*
X017703Y007911D02*
X017953Y007661D01*
X018453Y007661D01*
X018703Y007911D01*
X018953Y007661D01*
X019453Y007661D01*
X019703Y007911D01*
X019703Y009411D01*
X019453Y009661D01*
X018953Y009661D01*
X018703Y009411D01*
X018703Y007911D01*
X018703Y009411D02*
X018453Y009661D01*
X017953Y009661D01*
X017703Y009411D01*
X024303Y001961D02*
X024903Y001961D01*
X024920Y001959D01*
X024937Y001955D01*
X024953Y001948D01*
X024967Y001938D01*
X024980Y001925D01*
X024990Y001911D01*
X024997Y001895D01*
X025001Y001878D01*
X025003Y001861D01*
X025003Y000861D01*
X025001Y000844D01*
X024997Y000827D01*
X024990Y000811D01*
X024980Y000797D01*
X024967Y000784D01*
X024953Y000774D01*
X024937Y000767D01*
X024920Y000763D01*
X024903Y000761D01*
X024303Y000761D01*
X024286Y000763D01*
X024269Y000767D01*
X024253Y000774D01*
X024239Y000784D01*
X024226Y000797D01*
X024216Y000811D01*
X024209Y000827D01*
X024205Y000844D01*
X024203Y000861D01*
X024203Y001861D01*
X024205Y001878D01*
X024209Y001895D01*
X024216Y001911D01*
X024226Y001925D01*
X024239Y001938D01*
X024253Y001948D01*
X024269Y001955D01*
X024286Y001959D01*
X024303Y001961D01*
D16*
X008253Y001405D02*
X003607Y001405D01*
X002830Y002011D02*
X002912Y002199D01*
X002984Y002391D01*
X003047Y002586D01*
X003101Y002784D01*
X003145Y002984D01*
X003180Y003186D01*
X003205Y003390D01*
X003220Y003594D01*
X003225Y003799D01*
X003221Y004004D01*
X003206Y004209D01*
X003182Y004413D01*
X003149Y004615D01*
X003105Y004815D01*
X003053Y005014D01*
X002990Y005209D01*
X002919Y005401D01*
X002838Y005590D01*
X002749Y005774D01*
X002651Y005954D01*
X002544Y006130D01*
X003174Y007035D02*
X008253Y007035D01*
X008253Y004968D01*
X008253Y003994D02*
X008253Y002714D01*
X008253Y001750D02*
X008253Y001405D01*
X018644Y010846D02*
X018644Y011476D01*
X019762Y011476D02*
X019762Y010846D01*
D17*
X019203Y010653D02*
X019203Y010649D01*
D18*
X019703Y010901D02*
X018699Y010901D01*
X018699Y011417D01*
X019703Y011417D01*
X019703Y010901D01*
M02*
