%
M48
M72
T01C0.0236
T02C0.0276
T03C0.0315
T04C0.0354
T05C0.0394
T06C0.0400
T07C0.0472
T08C0.0551
T09C0.1300
%
T01
X4753Y3611
X4853Y4511
X4853Y5861
X2703Y3861
X6153Y1061
X8403Y1061
X12503Y1461
X13203Y3761
X16203Y4511
X17203Y3161
X18703Y6161
X19603Y6511
X21753Y6461
X23103Y5161
X22753Y4211
X23703Y3661
X22053Y3511
X23653Y2311
X23653Y1411
X22203Y1911
X25353Y2161
X25353Y3211
X25353Y4161
X28703Y4661
X30053Y5961
X30703Y5961
X29053Y7161
X28053Y6561
X26703Y6761
X26203Y7761
X24953Y8261
X23703Y7761
X25703Y9611
X24053Y11261
X21103Y11411
X20553Y12861
X19403Y13511
X20803Y14511
X21803Y13211
X18153Y10661
X17103Y11961
X17003Y13561
X17703Y15361
X16453Y15561
X20253Y18511
X19803Y18961
X19253Y19411
X21003Y19211
X21053Y18111
X22803Y19461
X23603Y19461
X23753Y18211
X24503Y18211
X25153Y18211
X29603Y19361
X26953Y22311
X25853Y22311
X25253Y22311
X23403Y22211
X22453Y22011
X21203Y20811
X20453Y20661
X18803Y20711
X18253Y21111
X18253Y21711
X18253Y22311
X17703Y23361
X13853Y21111
X13453Y21711
X12978Y22286
X12103Y22311
X11903Y21361
X10703Y21911
X8953Y22711
X8153Y22711
X7353Y22711
X4203Y20861
X2353Y20611
X2353Y19261
X2953Y17161
X2953Y16361
X3053Y14211
X3053Y12911
X7153Y12861
X7003Y14661
X9553Y13561
X11203Y12111
X11903Y12111
X13903Y11161
X13903Y10461
X14403Y11911
X15653Y10311
X16253Y6411
X17203Y6411
X10553Y6011
X10153Y6511
X8703Y6711
X8053Y7611
X9053Y7911
X9053Y8611
X9153Y9711
X8553Y9661
X9153Y10461
X9153Y11161
X9853Y15811
X10653Y18161
X11953Y18761
X14653Y18861
X8703Y18661
X8703Y19661
X2353Y21961
X2353Y23311
X3003Y24961
X28453Y12811
X28453Y11511
X31503Y9711
X30703Y9211
X31703Y8811
X32453Y8811
X33103Y9061
X34553Y9511
X34553Y10111
X36203Y9011
X33603Y6961
X33453Y5961
X30203Y1661
X30353Y1111
X29253Y1361
X33553Y1561
X34753Y1511
X36953Y1511
X39653Y14961
X37103Y21561
X36503Y22561
X32753Y24611
T02
X29953Y22311
T03
X28753Y22311
X32153Y18611
X33353Y18611
X34653Y18611
X30203Y18361
X31103Y15411
X24203Y15411
X35603Y22361
T04
X33846Y14200
X35382Y13531
X33846Y12861
X35382Y12192
X33846Y11523
T05
X25903Y18661
X27853Y22311
T06
X27653Y24661
X28653Y24661
X28653Y25661
X27653Y25661
X26653Y25661
X25653Y25661
X24653Y25661
X24653Y24661
X25653Y24661
X26653Y24661
X30253Y25661
X31253Y25661
X32253Y25661
X33603Y25661
X34603Y25661
X35603Y25661
X36603Y25661
X36603Y24661
X35603Y24661
X34603Y24661
X38203Y24661
X38203Y25661
X39203Y25661
X39203Y24661
X39203Y23661
X38203Y23661
X38203Y22661
X38203Y21661
X39203Y21661
X39203Y22661
X39203Y20661
X38203Y20661
X38203Y19661
X38203Y18661
X39203Y18661
X39203Y19661
X39203Y17661
X38203Y17661
X38203Y16661
X39203Y16661
X39703Y12811
X38328Y12811
X27703Y5161
X26703Y5161
X26703Y4161
X27703Y4161
X27703Y3161
X26703Y3161
X26703Y2161
X27703Y2161
X21203Y2161
X20203Y2161
X19203Y2161
X18203Y2161
X17203Y2161
X16203Y2161
X15203Y2161
X14203Y2161
X13203Y2161
X11703Y2161
X10703Y2161
X9703Y2161
X9703Y3661
X10703Y3661
X11703Y3661
X11703Y5161
X10703Y5161
X9703Y5161
X10203Y8161
X11203Y8161
X12203Y8161
X13203Y8161
X14203Y8161
X15203Y8161
X16203Y8161
X17203Y8161
X18203Y8161
X19203Y8161
X19203Y9161
X18203Y9161
X17203Y9161
X16203Y9161
X15203Y9161
X14203Y9161
X13203Y9161
X12203Y9161
X11203Y9161
X10203Y9161
X6203Y9161
X5203Y9161
X5203Y8161
X6203Y8161
X6203Y10161
X5203Y10161
X5203Y11161
X6203Y11161
X6203Y12161
X5203Y12161
X5203Y13161
X5203Y14161
X6203Y14161
X6203Y13161
X6203Y15161
X5203Y15161
X5203Y16161
X5203Y17161
X6203Y17161
X6203Y16161
X6203Y18161
X5203Y18161
X5203Y19161
X5203Y20161
X6203Y20161
X6203Y19161
X6203Y21161
X5203Y21161
X5203Y22161
X5203Y23161
X6203Y23161
X6203Y22161
X6203Y24161
X5203Y24161
X5203Y25161
X6203Y25161
X10203Y25161
X10203Y24161
X11203Y24161
X12203Y24161
X12203Y25161
X11203Y25161
X13203Y25161
X14203Y25161
X15203Y25161
X15203Y24161
X14203Y24161
X13203Y24161
X16203Y24161
X17203Y24161
X17203Y25161
X16203Y25161
X18203Y25161
X19203Y25161
X19203Y24161
X18203Y24161
X18203Y3161
X19203Y3161
X20203Y3161
X21203Y3161
T07
X28453Y14311
X39703Y9661
X39703Y8283
X39703Y4039
X39703Y2661
T08
X33453Y7861
T09
X27703Y8261
X24303Y13661
X27703Y19061
X12403Y13661
X8253Y24661
M30
