G75*
G70*
%OFA0B0*%
%FSLAX24Y24*%
%IPPOS*%
%LPD*%
%AMOC8*
5,1,8,0,0,1.08239X$1,22.5*
%
%ADD10C,0.0660*%
%ADD11C,0.0500*%
%ADD12R,0.1025X0.1025*%
%ADD13R,0.0513X0.0474*%
%ADD14R,0.0880X0.0880*%
%ADD15C,0.0880*%
%ADD16C,0.0840*%
%ADD17OC8,0.0840*%
%ADD18OC8,0.0820*%
%ADD19R,0.0820X0.0820*%
%ADD20C,0.0820*%
%ADD21R,0.0828X0.0631*%
%ADD22R,0.0631X0.0789*%
%ADD23R,0.0671X0.0395*%
%ADD24R,0.0352X0.0470*%
%ADD25C,0.0674*%
%ADD26C,0.1380*%
%ADD27R,0.0580X0.0330*%
%ADD28C,0.0595*%
%ADD29C,0.0907*%
%ADD30C,0.0674*%
%ADD31C,0.0789*%
%ADD32C,0.0556*%
D10*
X038353Y008511D02*
X038353Y008761D01*
X038353Y012811D01*
X038353Y008761D02*
X038703Y008411D01*
X039553Y008411D01*
X039703Y008261D01*
D11*
X038353Y008411D02*
X034003Y008411D01*
X033453Y007861D01*
D12*
X038087Y006161D03*
X039819Y006161D03*
X036203Y004527D03*
X036203Y002795D03*
X031653Y002795D03*
X031653Y004527D03*
D13*
X028738Y005911D03*
X028069Y005911D03*
X027338Y006161D03*
X026669Y006161D03*
X025938Y006161D03*
X025269Y006161D03*
X024538Y006161D03*
X023869Y006161D03*
X028569Y001961D03*
X029238Y001961D03*
X030919Y001461D03*
X031588Y001461D03*
X035469Y001511D03*
X036138Y001511D03*
X036038Y007661D03*
X035369Y007661D03*
X031538Y007661D03*
X030869Y007661D03*
X003038Y018661D03*
X002369Y018661D03*
X002369Y020011D03*
X003038Y020011D03*
X003038Y021361D03*
X002369Y021361D03*
X002369Y022711D03*
X003038Y022711D03*
D14*
X039703Y009661D03*
X039703Y002661D03*
D15*
X039703Y004039D03*
X039703Y008283D03*
D16*
X039703Y012811D03*
D17*
X038328Y012811D03*
D18*
X038203Y016661D03*
X039203Y016661D03*
X039203Y017661D03*
X038203Y017661D03*
X038203Y018661D03*
X038203Y019661D03*
X039203Y019661D03*
X039203Y018661D03*
X039203Y020661D03*
X038203Y020661D03*
X038203Y021661D03*
X038203Y022661D03*
X039203Y022661D03*
X039203Y021661D03*
X039203Y023661D03*
X038203Y023661D03*
X038203Y024661D03*
X038203Y025661D03*
X039203Y025661D03*
X039203Y024661D03*
X028653Y024661D03*
X027653Y024661D03*
X026653Y024661D03*
X025653Y024661D03*
X024653Y024661D03*
X024653Y025661D03*
X025653Y025661D03*
X026653Y025661D03*
X027653Y025661D03*
X028653Y025661D03*
X019203Y025161D03*
X018203Y025161D03*
X017203Y025161D03*
X016203Y025161D03*
X015203Y025161D03*
X014203Y025161D03*
X013203Y025161D03*
X012203Y025161D03*
X011203Y025161D03*
X010203Y025161D03*
X010203Y024161D03*
X011203Y024161D03*
X012203Y024161D03*
X013203Y024161D03*
X014203Y024161D03*
X015203Y024161D03*
X016203Y024161D03*
X017203Y024161D03*
X018203Y024161D03*
X019203Y024161D03*
X019203Y009161D03*
X018203Y009161D03*
X017203Y009161D03*
X016203Y009161D03*
X015203Y009161D03*
X014203Y009161D03*
X013203Y009161D03*
X012203Y009161D03*
X011203Y009161D03*
X010203Y009161D03*
X010203Y008161D03*
X011203Y008161D03*
X012203Y008161D03*
X013203Y008161D03*
X014203Y008161D03*
X015203Y008161D03*
X016203Y008161D03*
X017203Y008161D03*
X018203Y008161D03*
X019203Y008161D03*
X026703Y005161D03*
X026703Y004161D03*
X027703Y004161D03*
X027703Y005161D03*
X027703Y003161D03*
X026703Y003161D03*
X026703Y002161D03*
X027703Y002161D03*
D19*
X018203Y003161D03*
X006203Y008161D03*
X005203Y008161D03*
X033603Y025661D03*
D20*
X034603Y025661D03*
X035603Y025661D03*
X036603Y025661D03*
X036603Y024661D03*
X035603Y024661D03*
X034603Y024661D03*
X032253Y025661D03*
X031253Y025661D03*
X030253Y025661D03*
X006203Y025161D03*
X005203Y025161D03*
X005203Y024161D03*
X006203Y024161D03*
X006203Y023161D03*
X005203Y023161D03*
X005203Y022161D03*
X006203Y022161D03*
X006203Y021161D03*
X005203Y021161D03*
X005203Y020161D03*
X005203Y019161D03*
X006203Y019161D03*
X006203Y020161D03*
X006203Y018161D03*
X005203Y018161D03*
X005203Y017161D03*
X005203Y016161D03*
X006203Y016161D03*
X006203Y017161D03*
X006203Y015161D03*
X005203Y015161D03*
X005203Y014161D03*
X005203Y013161D03*
X006203Y013161D03*
X006203Y014161D03*
X006203Y012161D03*
X005203Y012161D03*
X005203Y011161D03*
X005203Y010161D03*
X006203Y010161D03*
X006203Y011161D03*
X006203Y009161D03*
X005203Y009161D03*
X009703Y005161D03*
X010703Y005161D03*
X011703Y005161D03*
X011703Y003661D03*
X010703Y003661D03*
X009703Y003661D03*
X009703Y002161D03*
X010703Y002161D03*
X011703Y002161D03*
X013203Y002161D03*
X014203Y002161D03*
X015203Y002161D03*
X016203Y002161D03*
X017203Y002161D03*
X018203Y002161D03*
X019203Y002161D03*
X020203Y002161D03*
X021203Y002161D03*
X021203Y003161D03*
X020203Y003161D03*
X019203Y003161D03*
D21*
X002918Y001583D03*
X002525Y006858D03*
D22*
X008095Y004457D03*
X008095Y002212D03*
D23*
X004198Y004492D03*
X004040Y004925D03*
X004040Y004059D03*
X003962Y003626D03*
X004040Y003193D03*
X003962Y002760D03*
X004040Y002327D03*
X004040Y001894D03*
D24*
X018829Y010653D03*
X019203Y010653D03*
X019577Y010653D03*
X019577Y011673D03*
X018829Y011673D03*
D25*
X033549Y011523D02*
X034143Y011523D01*
X035084Y012192D02*
X035679Y012192D01*
X034143Y012861D02*
X033549Y012861D01*
X033549Y014200D02*
X034143Y014200D01*
X035084Y013531D02*
X035679Y013531D01*
D26*
X027703Y008261D03*
X024303Y013661D03*
X027703Y019061D03*
X012403Y013661D03*
X008253Y024661D03*
D27*
X024603Y001711D03*
X024603Y001361D03*
X024603Y001011D03*
D28*
X024203Y015411D03*
X030203Y018361D03*
X032153Y018611D03*
X033353Y018611D03*
X034653Y018611D03*
X031103Y015411D03*
X028753Y022311D03*
X035603Y022361D03*
D29*
X033453Y007861D03*
D30*
X025903Y018661D03*
X027853Y022311D03*
D31*
X028453Y014311D03*
D32*
X029953Y022311D03*
M02*
