%
M48
M72
T01C0.0197
T02C0.0236
T03C0.0240
T04C0.0276
T05C0.0354
T06C0.0400
%
T01
X4584Y8554
X4584Y9154
X5284Y9154
X5284Y8554
X5984Y9154
X5384Y10104
X7484Y16804
X4384Y17004
T02
X5984Y18654
X6584Y18654
X6634Y16954
X6834Y16204
X8484Y16804
X10084Y15904
X10534Y16504
X11384Y16854
X10284Y18404
X13634Y16354
X14634Y16854
X15684Y16804
X16134Y15504
X16134Y14654
X15634Y13904
X14334Y15304
X13084Y14204
X12684Y14704
X12284Y13354
X11584Y13804
X10584Y13754
X8884Y13854
X10584Y11954
X10534Y11154
X11584Y10654
X11284Y9454
X12084Y9504
X12734Y9554
X12534Y8454
X12034Y7904
X11434Y7454
X10684Y6704
X10034Y5854
X9434Y6604
X8884Y7054
X8034Y7704
X6634Y7154
X6734Y9154
X7934Y9954
X8634Y10004
X8684Y10604
X9084Y11504
X9234Y9104
X9434Y8254
X7234Y4904
X4234Y8004
X2384Y5704
X1534Y4454
X3834Y3804
X10584Y4604
X14484Y8154
X14484Y8854
X15784Y6654
X15934Y5904
X15834Y5304
X17034Y1054
X6334Y13704
X4534Y14304
X3684Y13404
X1384Y18004
X3384Y19154
X16034Y18904
X18934Y16504
T03
X6591Y5297
X5177Y6711
T04
X1534Y3704
T05
X2468Y17954
X4200Y17954
T06
X1534Y1554
X2534Y1554
X3534Y1554
X4534Y1554
X5534Y1554
X6534Y1554
X7534Y1554
X8534Y1554
X9534Y1554
X10534Y1554
X11534Y1554
X12534Y1554
X13534Y1554
X14534Y1554
X15534Y1554
X16534Y1554
X17534Y1554
X18534Y1554
X18534Y2554
X17534Y2554
X16534Y2554
X15534Y2554
X14534Y2554
X13534Y2554
X12534Y2554
X11534Y2554
X10534Y2554
X9534Y2554
X8534Y2554
X7534Y2554
X6534Y2554
X5534Y2554
X4534Y2554
X3534Y2554
X2534Y2554
X1534Y2554
X1534Y6554
X1534Y7554
X2534Y7554
X2534Y6554
X2534Y8554
X1534Y8554
X1534Y9554
X2534Y9554
X2534Y10554
X1534Y10554
X1534Y11554
X2534Y11554
X2534Y12554
X1534Y12554
X1534Y13554
X2534Y13554
X2534Y14554
X1534Y14554
X1534Y15554
X2534Y15554
X7534Y17854
X8534Y17854
X9534Y17854
X9534Y18854
X8534Y18854
X7534Y18854
X11134Y18854
X11134Y17854
X12134Y17854
X13134Y17854
X14134Y17854
X15134Y17854
X15134Y18854
X14134Y18854
X13134Y18854
X12134Y18854
X16754Y18254
X18714Y18254
X18534Y15554
X18534Y14554
X18534Y13554
X18534Y12554
X18534Y11554
X18534Y10554
X18534Y9554
X18534Y8554
X18534Y7554
X18534Y6554
X17534Y6554
X17534Y7554
X17534Y8554
X17534Y9554
X17534Y10554
X17534Y11554
X17534Y12554
X17534Y13554
X17534Y14554
X17534Y15554
X17534Y5054
X17534Y4054
X16534Y4054
X16534Y5054
X18534Y5054
X18534Y4054
M30
