G75*
G70*
%OFA0B0*%
%FSLAX24Y24*%
%IPPOS*%
%LPD*%
%AMOC8*
5,1,8,0,0,1.08239X$1,22.5*
%
%ADD10R,0.0591X0.0138*%
%ADD11R,0.0138X0.0591*%
%ADD12R,0.0197X0.0984*%
%ADD13R,0.0787X0.0984*%
%ADD14R,0.0433X0.0394*%
%ADD15R,0.0394X0.0433*%
%ADD16R,0.0315X0.0315*%
%ADD17R,0.0984X0.0472*%
D10*
G36*
X007507Y007643D02*
X007091Y007227D01*
X006993Y007325D01*
X007409Y007741D01*
X007507Y007643D01*
G37*
G36*
X007646Y007504D02*
X007230Y007088D01*
X007132Y007186D01*
X007548Y007602D01*
X007646Y007504D01*
G37*
G36*
X007786Y007365D02*
X007370Y006949D01*
X007272Y007047D01*
X007688Y007463D01*
X007786Y007365D01*
G37*
G36*
X007925Y007225D02*
X007509Y006809D01*
X007411Y006907D01*
X007827Y007323D01*
X007925Y007225D01*
G37*
G36*
X008064Y007086D02*
X007648Y006670D01*
X007550Y006768D01*
X007966Y007184D01*
X008064Y007086D01*
G37*
G36*
X008203Y006947D02*
X007787Y006531D01*
X007689Y006629D01*
X008105Y007045D01*
X008203Y006947D01*
G37*
G36*
X008342Y006808D02*
X007926Y006392D01*
X007828Y006490D01*
X008244Y006906D01*
X008342Y006808D01*
G37*
G36*
X008482Y006669D02*
X008066Y006253D01*
X007968Y006351D01*
X008384Y006767D01*
X008482Y006669D01*
G37*
G36*
X008621Y006529D02*
X008205Y006113D01*
X008107Y006211D01*
X008523Y006627D01*
X008621Y006529D01*
G37*
G36*
X008760Y006390D02*
X008344Y005974D01*
X008246Y006072D01*
X008662Y006488D01*
X008760Y006390D01*
G37*
G36*
X008899Y006251D02*
X008483Y005835D01*
X008385Y005933D01*
X008801Y006349D01*
X008899Y006251D01*
G37*
G36*
X009038Y006112D02*
X008622Y005696D01*
X008524Y005794D01*
X008940Y006210D01*
X009038Y006112D01*
G37*
G36*
X009178Y005973D02*
X008762Y005557D01*
X008664Y005655D01*
X009080Y006071D01*
X009178Y005973D01*
G37*
G36*
X009317Y005833D02*
X008901Y005417D01*
X008803Y005515D01*
X009219Y005931D01*
X009317Y005833D01*
G37*
G36*
X009456Y005694D02*
X009040Y005278D01*
X008942Y005376D01*
X009358Y005792D01*
X009456Y005694D01*
G37*
G36*
X009595Y005555D02*
X009179Y005139D01*
X009081Y005237D01*
X009497Y005653D01*
X009595Y005555D01*
G37*
G36*
X009734Y005416D02*
X009318Y005000D01*
X009220Y005098D01*
X009636Y005514D01*
X009734Y005416D01*
G37*
G36*
X007368Y007782D02*
X006952Y007366D01*
X006854Y007464D01*
X007270Y007880D01*
X007368Y007782D01*
G37*
G36*
X007229Y007921D02*
X006813Y007505D01*
X006715Y007603D01*
X007131Y008019D01*
X007229Y007921D01*
G37*
G36*
X007090Y008061D02*
X006674Y007645D01*
X006576Y007743D01*
X006992Y008159D01*
X007090Y008061D01*
G37*
G36*
X006951Y008200D02*
X006535Y007784D01*
X006437Y007882D01*
X006853Y008298D01*
X006951Y008200D01*
G37*
G36*
X006811Y008339D02*
X006395Y007923D01*
X006297Y008021D01*
X006713Y008437D01*
X006811Y008339D01*
G37*
G36*
X006672Y008478D02*
X006256Y008062D01*
X006158Y008160D01*
X006574Y008576D01*
X006672Y008478D01*
G37*
G36*
X006533Y008617D02*
X006117Y008201D01*
X006019Y008299D01*
X006435Y008715D01*
X006533Y008617D01*
G37*
G36*
X006394Y008757D02*
X005978Y008341D01*
X005880Y008439D01*
X006296Y008855D01*
X006394Y008757D01*
G37*
G36*
X010848Y013211D02*
X010432Y012795D01*
X010334Y012893D01*
X010750Y013309D01*
X010848Y013211D01*
G37*
G36*
X010987Y013072D02*
X010571Y012656D01*
X010473Y012754D01*
X010889Y013170D01*
X010987Y013072D01*
G37*
G36*
X011126Y012932D02*
X010710Y012516D01*
X010612Y012614D01*
X011028Y013030D01*
X011126Y012932D01*
G37*
G36*
X011266Y012793D02*
X010850Y012377D01*
X010752Y012475D01*
X011168Y012891D01*
X011266Y012793D01*
G37*
G36*
X011405Y012654D02*
X010989Y012238D01*
X010891Y012336D01*
X011307Y012752D01*
X011405Y012654D01*
G37*
G36*
X011544Y012515D02*
X011128Y012099D01*
X011030Y012197D01*
X011446Y012613D01*
X011544Y012515D01*
G37*
G36*
X011683Y012376D02*
X011267Y011960D01*
X011169Y012058D01*
X011585Y012474D01*
X011683Y012376D01*
G37*
G36*
X011822Y012236D02*
X011406Y011820D01*
X011308Y011918D01*
X011724Y012334D01*
X011822Y012236D01*
G37*
G36*
X011961Y012097D02*
X011545Y011681D01*
X011447Y011779D01*
X011863Y012195D01*
X011961Y012097D01*
G37*
G36*
X012101Y011958D02*
X011685Y011542D01*
X011587Y011640D01*
X012003Y012056D01*
X012101Y011958D01*
G37*
G36*
X012240Y011819D02*
X011824Y011403D01*
X011726Y011501D01*
X012142Y011917D01*
X012240Y011819D01*
G37*
G36*
X012379Y011680D02*
X011963Y011264D01*
X011865Y011362D01*
X012281Y011778D01*
X012379Y011680D01*
G37*
G36*
X012518Y011540D02*
X012102Y011124D01*
X012004Y011222D01*
X012420Y011638D01*
X012518Y011540D01*
G37*
G36*
X012657Y011401D02*
X012241Y010985D01*
X012143Y011083D01*
X012559Y011499D01*
X012657Y011401D01*
G37*
G36*
X012797Y011262D02*
X012381Y010846D01*
X012283Y010944D01*
X012699Y011360D01*
X012797Y011262D01*
G37*
G36*
X012936Y011123D02*
X012520Y010707D01*
X012422Y010805D01*
X012838Y011221D01*
X012936Y011123D01*
G37*
G36*
X013075Y010984D02*
X012659Y010568D01*
X012561Y010666D01*
X012977Y011082D01*
X013075Y010984D01*
G37*
G36*
X013214Y010844D02*
X012798Y010428D01*
X012700Y010526D01*
X013116Y010942D01*
X013214Y010844D01*
G37*
G36*
X013353Y010705D02*
X012937Y010289D01*
X012839Y010387D01*
X013255Y010803D01*
X013353Y010705D01*
G37*
G36*
X013493Y010566D02*
X013077Y010150D01*
X012979Y010248D01*
X013395Y010664D01*
X013493Y010566D01*
G37*
G36*
X013632Y010427D02*
X013216Y010011D01*
X013118Y010109D01*
X013534Y010525D01*
X013632Y010427D01*
G37*
G36*
X013771Y010288D02*
X013355Y009872D01*
X013257Y009970D01*
X013673Y010386D01*
X013771Y010288D01*
G37*
G36*
X013910Y010148D02*
X013494Y009732D01*
X013396Y009830D01*
X013812Y010246D01*
X013910Y010148D01*
G37*
G36*
X014049Y010009D02*
X013633Y009593D01*
X013535Y009691D01*
X013951Y010107D01*
X014049Y010009D01*
G37*
G36*
X014189Y009870D02*
X013773Y009454D01*
X013675Y009552D01*
X014091Y009968D01*
X014189Y009870D01*
G37*
D11*
G36*
X014189Y008439D02*
X014091Y008341D01*
X013675Y008757D01*
X013773Y008855D01*
X014189Y008439D01*
G37*
G36*
X014049Y008299D02*
X013951Y008201D01*
X013535Y008617D01*
X013633Y008715D01*
X014049Y008299D01*
G37*
G36*
X013910Y008160D02*
X013812Y008062D01*
X013396Y008478D01*
X013494Y008576D01*
X013910Y008160D01*
G37*
G36*
X013771Y008021D02*
X013673Y007923D01*
X013257Y008339D01*
X013355Y008437D01*
X013771Y008021D01*
G37*
G36*
X013632Y007882D02*
X013534Y007784D01*
X013118Y008200D01*
X013216Y008298D01*
X013632Y007882D01*
G37*
G36*
X013493Y007743D02*
X013395Y007645D01*
X012979Y008061D01*
X013077Y008159D01*
X013493Y007743D01*
G37*
G36*
X013353Y007603D02*
X013255Y007505D01*
X012839Y007921D01*
X012937Y008019D01*
X013353Y007603D01*
G37*
G36*
X013214Y007464D02*
X013116Y007366D01*
X012700Y007782D01*
X012798Y007880D01*
X013214Y007464D01*
G37*
G36*
X013075Y007325D02*
X012977Y007227D01*
X012561Y007643D01*
X012659Y007741D01*
X013075Y007325D01*
G37*
G36*
X012936Y007186D02*
X012838Y007088D01*
X012422Y007504D01*
X012520Y007602D01*
X012936Y007186D01*
G37*
G36*
X012797Y007047D02*
X012699Y006949D01*
X012283Y007365D01*
X012381Y007463D01*
X012797Y007047D01*
G37*
G36*
X012657Y006907D02*
X012559Y006809D01*
X012143Y007225D01*
X012241Y007323D01*
X012657Y006907D01*
G37*
G36*
X012518Y006768D02*
X012420Y006670D01*
X012004Y007086D01*
X012102Y007184D01*
X012518Y006768D01*
G37*
G36*
X012379Y006629D02*
X012281Y006531D01*
X011865Y006947D01*
X011963Y007045D01*
X012379Y006629D01*
G37*
G36*
X012240Y006490D02*
X012142Y006392D01*
X011726Y006808D01*
X011824Y006906D01*
X012240Y006490D01*
G37*
G36*
X012101Y006351D02*
X012003Y006253D01*
X011587Y006669D01*
X011685Y006767D01*
X012101Y006351D01*
G37*
G36*
X011961Y006211D02*
X011863Y006113D01*
X011447Y006529D01*
X011545Y006627D01*
X011961Y006211D01*
G37*
G36*
X011822Y006072D02*
X011724Y005974D01*
X011308Y006390D01*
X011406Y006488D01*
X011822Y006072D01*
G37*
G36*
X011683Y005933D02*
X011585Y005835D01*
X011169Y006251D01*
X011267Y006349D01*
X011683Y005933D01*
G37*
G36*
X011544Y005794D02*
X011446Y005696D01*
X011030Y006112D01*
X011128Y006210D01*
X011544Y005794D01*
G37*
G36*
X011405Y005655D02*
X011307Y005557D01*
X010891Y005973D01*
X010989Y006071D01*
X011405Y005655D01*
G37*
G36*
X011266Y005515D02*
X011168Y005417D01*
X010752Y005833D01*
X010850Y005931D01*
X011266Y005515D01*
G37*
G36*
X011126Y005376D02*
X011028Y005278D01*
X010612Y005694D01*
X010710Y005792D01*
X011126Y005376D01*
G37*
G36*
X010987Y005237D02*
X010889Y005139D01*
X010473Y005555D01*
X010571Y005653D01*
X010987Y005237D01*
G37*
G36*
X010848Y005098D02*
X010750Y005000D01*
X010334Y005416D01*
X010432Y005514D01*
X010848Y005098D01*
G37*
G36*
X006394Y009552D02*
X006296Y009454D01*
X005880Y009870D01*
X005978Y009968D01*
X006394Y009552D01*
G37*
G36*
X006533Y009691D02*
X006435Y009593D01*
X006019Y010009D01*
X006117Y010107D01*
X006533Y009691D01*
G37*
G36*
X006672Y009830D02*
X006574Y009732D01*
X006158Y010148D01*
X006256Y010246D01*
X006672Y009830D01*
G37*
G36*
X006811Y009970D02*
X006713Y009872D01*
X006297Y010288D01*
X006395Y010386D01*
X006811Y009970D01*
G37*
G36*
X006951Y010109D02*
X006853Y010011D01*
X006437Y010427D01*
X006535Y010525D01*
X006951Y010109D01*
G37*
G36*
X007090Y010248D02*
X006992Y010150D01*
X006576Y010566D01*
X006674Y010664D01*
X007090Y010248D01*
G37*
G36*
X007229Y010387D02*
X007131Y010289D01*
X006715Y010705D01*
X006813Y010803D01*
X007229Y010387D01*
G37*
G36*
X007368Y010526D02*
X007270Y010428D01*
X006854Y010844D01*
X006952Y010942D01*
X007368Y010526D01*
G37*
G36*
X007507Y010666D02*
X007409Y010568D01*
X006993Y010984D01*
X007091Y011082D01*
X007507Y010666D01*
G37*
G36*
X007646Y010805D02*
X007548Y010707D01*
X007132Y011123D01*
X007230Y011221D01*
X007646Y010805D01*
G37*
G36*
X007786Y010944D02*
X007688Y010846D01*
X007272Y011262D01*
X007370Y011360D01*
X007786Y010944D01*
G37*
G36*
X007925Y011083D02*
X007827Y010985D01*
X007411Y011401D01*
X007509Y011499D01*
X007925Y011083D01*
G37*
G36*
X008064Y011222D02*
X007966Y011124D01*
X007550Y011540D01*
X007648Y011638D01*
X008064Y011222D01*
G37*
G36*
X008203Y011362D02*
X008105Y011264D01*
X007689Y011680D01*
X007787Y011778D01*
X008203Y011362D01*
G37*
G36*
X008342Y011501D02*
X008244Y011403D01*
X007828Y011819D01*
X007926Y011917D01*
X008342Y011501D01*
G37*
G36*
X008482Y011640D02*
X008384Y011542D01*
X007968Y011958D01*
X008066Y012056D01*
X008482Y011640D01*
G37*
G36*
X008621Y011779D02*
X008523Y011681D01*
X008107Y012097D01*
X008205Y012195D01*
X008621Y011779D01*
G37*
G36*
X008760Y011918D02*
X008662Y011820D01*
X008246Y012236D01*
X008344Y012334D01*
X008760Y011918D01*
G37*
G36*
X008899Y012058D02*
X008801Y011960D01*
X008385Y012376D01*
X008483Y012474D01*
X008899Y012058D01*
G37*
G36*
X009038Y012197D02*
X008940Y012099D01*
X008524Y012515D01*
X008622Y012613D01*
X009038Y012197D01*
G37*
G36*
X009178Y012336D02*
X009080Y012238D01*
X008664Y012654D01*
X008762Y012752D01*
X009178Y012336D01*
G37*
G36*
X009317Y012475D02*
X009219Y012377D01*
X008803Y012793D01*
X008901Y012891D01*
X009317Y012475D01*
G37*
G36*
X009456Y012614D02*
X009358Y012516D01*
X008942Y012932D01*
X009040Y013030D01*
X009456Y012614D01*
G37*
G36*
X009595Y012754D02*
X009497Y012656D01*
X009081Y013072D01*
X009179Y013170D01*
X009595Y012754D01*
G37*
G36*
X009734Y012893D02*
X009636Y012795D01*
X009220Y013211D01*
X009318Y013309D01*
X009734Y012893D01*
G37*
D12*
X003964Y016970D03*
X003649Y016970D03*
X003334Y016970D03*
X003019Y016970D03*
X002704Y016970D03*
D13*
X001563Y016970D03*
X001563Y019135D03*
X005106Y019135D03*
X005106Y016970D03*
D14*
X002350Y004454D03*
X003019Y004454D03*
G36*
X003961Y005399D02*
X003656Y005704D01*
X003935Y005983D01*
X004240Y005678D01*
X003961Y005399D01*
G37*
G36*
X004434Y004926D02*
X004129Y005231D01*
X004408Y005510D01*
X004713Y005205D01*
X004434Y004926D01*
G37*
G36*
X004985Y004933D02*
X005290Y004628D01*
X005011Y004349D01*
X004706Y004654D01*
X004985Y004933D01*
G37*
G36*
X005458Y004460D02*
X005763Y004155D01*
X005484Y003876D01*
X005179Y004181D01*
X005458Y004460D01*
G37*
X004619Y015054D03*
X003950Y015054D03*
X009150Y016854D03*
X009819Y016854D03*
D15*
X008934Y015439D03*
X008934Y014770D03*
X007884Y014770D03*
X007884Y015439D03*
X013634Y015589D03*
X013634Y014920D03*
D16*
X006579Y019154D03*
X005989Y019154D03*
X002979Y005154D03*
X002389Y005154D03*
D17*
X005734Y014405D03*
X005734Y015704D03*
X014984Y015954D03*
X014984Y014655D03*
M02*
