G75*
G70*
%OFA0B0*%
%FSLAX24Y24*%
%IPPOS*%
%LPD*%
%AMOC8*
5,1,8,0,0,1.08239X$1,22.5*
%
%ADD10C,0.0080*%
%ADD11R,0.0591X0.0138*%
%ADD12R,0.0138X0.0591*%
%ADD13C,0.0480*%
%ADD14C,0.0640*%
%ADD15OC8,0.0640*%
%ADD16R,0.0640X0.0640*%
%ADD17R,0.0197X0.0984*%
%ADD18R,0.0787X0.0984*%
%ADD19C,0.0000*%
%ADD20R,0.0433X0.0394*%
%ADD21R,0.0394X0.0433*%
%ADD22R,0.0315X0.0315*%
%ADD23R,0.0984X0.0472*%
%ADD24C,0.0740*%
%ADD25OC8,0.0740*%
%ADD26R,0.0740X0.0740*%
%ADD27C,0.0437*%
%ADD28C,0.0100*%
%ADD29C,0.0240*%
%ADD30C,0.0436*%
%ADD31C,0.0160*%
%ADD32C,0.0397*%
%ADD33C,0.0476*%
%ADD34C,0.0120*%
%ADD35R,0.0436X0.0436*%
D10*
X001652Y000554D02*
X018827Y000554D01*
X018877Y000556D01*
X018928Y000561D01*
X018977Y000570D01*
X019026Y000583D01*
X019074Y000599D01*
X019121Y000618D01*
X019166Y000640D01*
X019209Y000666D01*
X019251Y000695D01*
X019290Y000727D01*
X019327Y000761D01*
X019361Y000798D01*
X019393Y000837D01*
X019422Y000879D01*
X019448Y000922D01*
X019470Y000967D01*
X019489Y001014D01*
X019505Y001062D01*
X019518Y001111D01*
X019527Y001160D01*
X019532Y001211D01*
X019534Y001261D01*
X019534Y018936D01*
X019532Y019001D01*
X019526Y019066D01*
X019517Y019130D01*
X019504Y019194D01*
X019487Y019257D01*
X019467Y019318D01*
X019443Y019379D01*
X019415Y019438D01*
X019384Y019495D01*
X019350Y019550D01*
X019313Y019604D01*
X019272Y019655D01*
X019229Y019703D01*
X019183Y019749D01*
X019135Y019792D01*
X019084Y019833D01*
X019030Y019870D01*
X018975Y019904D01*
X018918Y019935D01*
X018859Y019963D01*
X018798Y019987D01*
X018737Y020007D01*
X018674Y020024D01*
X018610Y020037D01*
X018546Y020046D01*
X018481Y020052D01*
X018416Y020054D01*
X001241Y020054D01*
X001191Y020052D01*
X001140Y020047D01*
X001091Y020038D01*
X001042Y020025D01*
X000994Y020009D01*
X000947Y019990D01*
X000902Y019968D01*
X000859Y019942D01*
X000817Y019913D01*
X000778Y019881D01*
X000741Y019847D01*
X000707Y019810D01*
X000675Y019771D01*
X000646Y019729D01*
X000620Y019686D01*
X000598Y019641D01*
X000579Y019594D01*
X000563Y019546D01*
X000550Y019497D01*
X000541Y019448D01*
X000536Y019397D01*
X000534Y019347D01*
X000534Y001672D01*
X000536Y001607D01*
X000542Y001542D01*
X000551Y001478D01*
X000564Y001414D01*
X000581Y001351D01*
X000601Y001290D01*
X000625Y001229D01*
X000653Y001170D01*
X000684Y001113D01*
X000718Y001058D01*
X000755Y001004D01*
X000796Y000953D01*
X000839Y000905D01*
X000885Y000859D01*
X000933Y000816D01*
X000984Y000775D01*
X001038Y000738D01*
X001093Y000704D01*
X001150Y000673D01*
X001209Y000645D01*
X001270Y000621D01*
X001331Y000601D01*
X001394Y000584D01*
X001458Y000571D01*
X001522Y000562D01*
X001587Y000556D01*
X001652Y000554D01*
X011426Y012217D02*
X012164Y012954D01*
X012434Y012954D01*
X007434Y016399D02*
X007024Y016804D01*
X006979Y016594D02*
X007229Y016344D01*
D11*
G36*
X010848Y013211D02*
X010432Y012795D01*
X010334Y012893D01*
X010750Y013309D01*
X010848Y013211D01*
G37*
G36*
X010987Y013072D02*
X010571Y012656D01*
X010473Y012754D01*
X010889Y013170D01*
X010987Y013072D01*
G37*
G36*
X011126Y012932D02*
X010710Y012516D01*
X010612Y012614D01*
X011028Y013030D01*
X011126Y012932D01*
G37*
G36*
X011266Y012793D02*
X010850Y012377D01*
X010752Y012475D01*
X011168Y012891D01*
X011266Y012793D01*
G37*
G36*
X011405Y012654D02*
X010989Y012238D01*
X010891Y012336D01*
X011307Y012752D01*
X011405Y012654D01*
G37*
G36*
X011544Y012515D02*
X011128Y012099D01*
X011030Y012197D01*
X011446Y012613D01*
X011544Y012515D01*
G37*
G36*
X011683Y012376D02*
X011267Y011960D01*
X011169Y012058D01*
X011585Y012474D01*
X011683Y012376D01*
G37*
G36*
X011822Y012236D02*
X011406Y011820D01*
X011308Y011918D01*
X011724Y012334D01*
X011822Y012236D01*
G37*
G36*
X011961Y012097D02*
X011545Y011681D01*
X011447Y011779D01*
X011863Y012195D01*
X011961Y012097D01*
G37*
G36*
X012101Y011958D02*
X011685Y011542D01*
X011587Y011640D01*
X012003Y012056D01*
X012101Y011958D01*
G37*
G36*
X012240Y011819D02*
X011824Y011403D01*
X011726Y011501D01*
X012142Y011917D01*
X012240Y011819D01*
G37*
G36*
X012379Y011680D02*
X011963Y011264D01*
X011865Y011362D01*
X012281Y011778D01*
X012379Y011680D01*
G37*
G36*
X012518Y011540D02*
X012102Y011124D01*
X012004Y011222D01*
X012420Y011638D01*
X012518Y011540D01*
G37*
G36*
X012657Y011401D02*
X012241Y010985D01*
X012143Y011083D01*
X012559Y011499D01*
X012657Y011401D01*
G37*
G36*
X012797Y011262D02*
X012381Y010846D01*
X012283Y010944D01*
X012699Y011360D01*
X012797Y011262D01*
G37*
G36*
X012936Y011123D02*
X012520Y010707D01*
X012422Y010805D01*
X012838Y011221D01*
X012936Y011123D01*
G37*
G36*
X013075Y010984D02*
X012659Y010568D01*
X012561Y010666D01*
X012977Y011082D01*
X013075Y010984D01*
G37*
G36*
X013214Y010844D02*
X012798Y010428D01*
X012700Y010526D01*
X013116Y010942D01*
X013214Y010844D01*
G37*
G36*
X013353Y010705D02*
X012937Y010289D01*
X012839Y010387D01*
X013255Y010803D01*
X013353Y010705D01*
G37*
G36*
X013493Y010566D02*
X013077Y010150D01*
X012979Y010248D01*
X013395Y010664D01*
X013493Y010566D01*
G37*
G36*
X013632Y010427D02*
X013216Y010011D01*
X013118Y010109D01*
X013534Y010525D01*
X013632Y010427D01*
G37*
G36*
X013771Y010288D02*
X013355Y009872D01*
X013257Y009970D01*
X013673Y010386D01*
X013771Y010288D01*
G37*
G36*
X013910Y010148D02*
X013494Y009732D01*
X013396Y009830D01*
X013812Y010246D01*
X013910Y010148D01*
G37*
G36*
X014049Y010009D02*
X013633Y009593D01*
X013535Y009691D01*
X013951Y010107D01*
X014049Y010009D01*
G37*
G36*
X014189Y009870D02*
X013773Y009454D01*
X013675Y009552D01*
X014091Y009968D01*
X014189Y009870D01*
G37*
G36*
X009734Y005416D02*
X009318Y005000D01*
X009220Y005098D01*
X009636Y005514D01*
X009734Y005416D01*
G37*
G36*
X009595Y005555D02*
X009179Y005139D01*
X009081Y005237D01*
X009497Y005653D01*
X009595Y005555D01*
G37*
G36*
X009456Y005694D02*
X009040Y005278D01*
X008942Y005376D01*
X009358Y005792D01*
X009456Y005694D01*
G37*
G36*
X009317Y005833D02*
X008901Y005417D01*
X008803Y005515D01*
X009219Y005931D01*
X009317Y005833D01*
G37*
G36*
X009178Y005973D02*
X008762Y005557D01*
X008664Y005655D01*
X009080Y006071D01*
X009178Y005973D01*
G37*
G36*
X009038Y006112D02*
X008622Y005696D01*
X008524Y005794D01*
X008940Y006210D01*
X009038Y006112D01*
G37*
G36*
X008899Y006251D02*
X008483Y005835D01*
X008385Y005933D01*
X008801Y006349D01*
X008899Y006251D01*
G37*
G36*
X008760Y006390D02*
X008344Y005974D01*
X008246Y006072D01*
X008662Y006488D01*
X008760Y006390D01*
G37*
G36*
X008621Y006529D02*
X008205Y006113D01*
X008107Y006211D01*
X008523Y006627D01*
X008621Y006529D01*
G37*
G36*
X008482Y006669D02*
X008066Y006253D01*
X007968Y006351D01*
X008384Y006767D01*
X008482Y006669D01*
G37*
G36*
X008342Y006808D02*
X007926Y006392D01*
X007828Y006490D01*
X008244Y006906D01*
X008342Y006808D01*
G37*
G36*
X008203Y006947D02*
X007787Y006531D01*
X007689Y006629D01*
X008105Y007045D01*
X008203Y006947D01*
G37*
G36*
X008064Y007086D02*
X007648Y006670D01*
X007550Y006768D01*
X007966Y007184D01*
X008064Y007086D01*
G37*
G36*
X007925Y007225D02*
X007509Y006809D01*
X007411Y006907D01*
X007827Y007323D01*
X007925Y007225D01*
G37*
G36*
X007786Y007365D02*
X007370Y006949D01*
X007272Y007047D01*
X007688Y007463D01*
X007786Y007365D01*
G37*
G36*
X007646Y007504D02*
X007230Y007088D01*
X007132Y007186D01*
X007548Y007602D01*
X007646Y007504D01*
G37*
G36*
X007507Y007643D02*
X007091Y007227D01*
X006993Y007325D01*
X007409Y007741D01*
X007507Y007643D01*
G37*
G36*
X007368Y007782D02*
X006952Y007366D01*
X006854Y007464D01*
X007270Y007880D01*
X007368Y007782D01*
G37*
G36*
X007229Y007921D02*
X006813Y007505D01*
X006715Y007603D01*
X007131Y008019D01*
X007229Y007921D01*
G37*
G36*
X007090Y008061D02*
X006674Y007645D01*
X006576Y007743D01*
X006992Y008159D01*
X007090Y008061D01*
G37*
G36*
X006951Y008200D02*
X006535Y007784D01*
X006437Y007882D01*
X006853Y008298D01*
X006951Y008200D01*
G37*
G36*
X006811Y008339D02*
X006395Y007923D01*
X006297Y008021D01*
X006713Y008437D01*
X006811Y008339D01*
G37*
G36*
X006672Y008478D02*
X006256Y008062D01*
X006158Y008160D01*
X006574Y008576D01*
X006672Y008478D01*
G37*
G36*
X006533Y008617D02*
X006117Y008201D01*
X006019Y008299D01*
X006435Y008715D01*
X006533Y008617D01*
G37*
G36*
X006394Y008757D02*
X005978Y008341D01*
X005880Y008439D01*
X006296Y008855D01*
X006394Y008757D01*
G37*
D12*
G36*
X006394Y009552D02*
X006296Y009454D01*
X005880Y009870D01*
X005978Y009968D01*
X006394Y009552D01*
G37*
G36*
X006533Y009691D02*
X006435Y009593D01*
X006019Y010009D01*
X006117Y010107D01*
X006533Y009691D01*
G37*
G36*
X006672Y009830D02*
X006574Y009732D01*
X006158Y010148D01*
X006256Y010246D01*
X006672Y009830D01*
G37*
G36*
X006811Y009970D02*
X006713Y009872D01*
X006297Y010288D01*
X006395Y010386D01*
X006811Y009970D01*
G37*
G36*
X006951Y010109D02*
X006853Y010011D01*
X006437Y010427D01*
X006535Y010525D01*
X006951Y010109D01*
G37*
G36*
X007090Y010248D02*
X006992Y010150D01*
X006576Y010566D01*
X006674Y010664D01*
X007090Y010248D01*
G37*
G36*
X007229Y010387D02*
X007131Y010289D01*
X006715Y010705D01*
X006813Y010803D01*
X007229Y010387D01*
G37*
G36*
X007368Y010526D02*
X007270Y010428D01*
X006854Y010844D01*
X006952Y010942D01*
X007368Y010526D01*
G37*
G36*
X007507Y010666D02*
X007409Y010568D01*
X006993Y010984D01*
X007091Y011082D01*
X007507Y010666D01*
G37*
G36*
X007646Y010805D02*
X007548Y010707D01*
X007132Y011123D01*
X007230Y011221D01*
X007646Y010805D01*
G37*
G36*
X007786Y010944D02*
X007688Y010846D01*
X007272Y011262D01*
X007370Y011360D01*
X007786Y010944D01*
G37*
G36*
X007925Y011083D02*
X007827Y010985D01*
X007411Y011401D01*
X007509Y011499D01*
X007925Y011083D01*
G37*
G36*
X008064Y011222D02*
X007966Y011124D01*
X007550Y011540D01*
X007648Y011638D01*
X008064Y011222D01*
G37*
G36*
X008203Y011362D02*
X008105Y011264D01*
X007689Y011680D01*
X007787Y011778D01*
X008203Y011362D01*
G37*
G36*
X008342Y011501D02*
X008244Y011403D01*
X007828Y011819D01*
X007926Y011917D01*
X008342Y011501D01*
G37*
G36*
X008482Y011640D02*
X008384Y011542D01*
X007968Y011958D01*
X008066Y012056D01*
X008482Y011640D01*
G37*
G36*
X008621Y011779D02*
X008523Y011681D01*
X008107Y012097D01*
X008205Y012195D01*
X008621Y011779D01*
G37*
G36*
X008760Y011918D02*
X008662Y011820D01*
X008246Y012236D01*
X008344Y012334D01*
X008760Y011918D01*
G37*
G36*
X008899Y012058D02*
X008801Y011960D01*
X008385Y012376D01*
X008483Y012474D01*
X008899Y012058D01*
G37*
G36*
X009038Y012197D02*
X008940Y012099D01*
X008524Y012515D01*
X008622Y012613D01*
X009038Y012197D01*
G37*
G36*
X009178Y012336D02*
X009080Y012238D01*
X008664Y012654D01*
X008762Y012752D01*
X009178Y012336D01*
G37*
G36*
X009317Y012475D02*
X009219Y012377D01*
X008803Y012793D01*
X008901Y012891D01*
X009317Y012475D01*
G37*
G36*
X009456Y012614D02*
X009358Y012516D01*
X008942Y012932D01*
X009040Y013030D01*
X009456Y012614D01*
G37*
G36*
X009595Y012754D02*
X009497Y012656D01*
X009081Y013072D01*
X009179Y013170D01*
X009595Y012754D01*
G37*
G36*
X009734Y012893D02*
X009636Y012795D01*
X009220Y013211D01*
X009318Y013309D01*
X009734Y012893D01*
G37*
G36*
X014189Y008439D02*
X014091Y008341D01*
X013675Y008757D01*
X013773Y008855D01*
X014189Y008439D01*
G37*
G36*
X014049Y008299D02*
X013951Y008201D01*
X013535Y008617D01*
X013633Y008715D01*
X014049Y008299D01*
G37*
G36*
X013910Y008160D02*
X013812Y008062D01*
X013396Y008478D01*
X013494Y008576D01*
X013910Y008160D01*
G37*
G36*
X013771Y008021D02*
X013673Y007923D01*
X013257Y008339D01*
X013355Y008437D01*
X013771Y008021D01*
G37*
G36*
X013632Y007882D02*
X013534Y007784D01*
X013118Y008200D01*
X013216Y008298D01*
X013632Y007882D01*
G37*
G36*
X013493Y007743D02*
X013395Y007645D01*
X012979Y008061D01*
X013077Y008159D01*
X013493Y007743D01*
G37*
G36*
X013353Y007603D02*
X013255Y007505D01*
X012839Y007921D01*
X012937Y008019D01*
X013353Y007603D01*
G37*
G36*
X013214Y007464D02*
X013116Y007366D01*
X012700Y007782D01*
X012798Y007880D01*
X013214Y007464D01*
G37*
G36*
X013075Y007325D02*
X012977Y007227D01*
X012561Y007643D01*
X012659Y007741D01*
X013075Y007325D01*
G37*
G36*
X012936Y007186D02*
X012838Y007088D01*
X012422Y007504D01*
X012520Y007602D01*
X012936Y007186D01*
G37*
G36*
X012797Y007047D02*
X012699Y006949D01*
X012283Y007365D01*
X012381Y007463D01*
X012797Y007047D01*
G37*
G36*
X012657Y006907D02*
X012559Y006809D01*
X012143Y007225D01*
X012241Y007323D01*
X012657Y006907D01*
G37*
G36*
X012518Y006768D02*
X012420Y006670D01*
X012004Y007086D01*
X012102Y007184D01*
X012518Y006768D01*
G37*
G36*
X012379Y006629D02*
X012281Y006531D01*
X011865Y006947D01*
X011963Y007045D01*
X012379Y006629D01*
G37*
G36*
X012240Y006490D02*
X012142Y006392D01*
X011726Y006808D01*
X011824Y006906D01*
X012240Y006490D01*
G37*
G36*
X012101Y006351D02*
X012003Y006253D01*
X011587Y006669D01*
X011685Y006767D01*
X012101Y006351D01*
G37*
G36*
X011961Y006211D02*
X011863Y006113D01*
X011447Y006529D01*
X011545Y006627D01*
X011961Y006211D01*
G37*
G36*
X011822Y006072D02*
X011724Y005974D01*
X011308Y006390D01*
X011406Y006488D01*
X011822Y006072D01*
G37*
G36*
X011683Y005933D02*
X011585Y005835D01*
X011169Y006251D01*
X011267Y006349D01*
X011683Y005933D01*
G37*
G36*
X011544Y005794D02*
X011446Y005696D01*
X011030Y006112D01*
X011128Y006210D01*
X011544Y005794D01*
G37*
G36*
X011405Y005655D02*
X011307Y005557D01*
X010891Y005973D01*
X010989Y006071D01*
X011405Y005655D01*
G37*
G36*
X011266Y005515D02*
X011168Y005417D01*
X010752Y005833D01*
X010850Y005931D01*
X011266Y005515D01*
G37*
G36*
X011126Y005376D02*
X011028Y005278D01*
X010612Y005694D01*
X010710Y005792D01*
X011126Y005376D01*
G37*
G36*
X010987Y005237D02*
X010889Y005139D01*
X010473Y005555D01*
X010571Y005653D01*
X010987Y005237D01*
G37*
G36*
X010848Y005098D02*
X010750Y005000D01*
X010334Y005416D01*
X010432Y005514D01*
X010848Y005098D01*
G37*
D13*
X006761Y005467D02*
X006422Y005128D01*
X005007Y006542D02*
X005347Y006881D01*
D14*
X018534Y005054D03*
D15*
X018534Y004054D03*
X017534Y004054D03*
X016534Y004054D03*
X016534Y005054D03*
X017534Y005054D03*
X015134Y017854D03*
X014134Y017854D03*
X013134Y017854D03*
X012134Y017854D03*
X012134Y018854D03*
X011134Y018854D03*
X013134Y018854D03*
X014134Y018854D03*
X015134Y018854D03*
D16*
X011134Y017854D03*
D17*
X003964Y016970D03*
X003649Y016970D03*
X003334Y016970D03*
X003019Y016970D03*
X002704Y016970D03*
D18*
X001563Y016970D03*
X001563Y019135D03*
X005106Y019135D03*
X005106Y016970D03*
D19*
X004023Y017954D02*
X004025Y017980D01*
X004031Y018006D01*
X004041Y018031D01*
X004054Y018054D01*
X004070Y018074D01*
X004090Y018092D01*
X004112Y018107D01*
X004135Y018119D01*
X004161Y018127D01*
X004187Y018131D01*
X004213Y018131D01*
X004239Y018127D01*
X004265Y018119D01*
X004289Y018107D01*
X004310Y018092D01*
X004330Y018074D01*
X004346Y018054D01*
X004359Y018031D01*
X004369Y018006D01*
X004375Y017980D01*
X004377Y017954D01*
X004375Y017928D01*
X004369Y017902D01*
X004359Y017877D01*
X004346Y017854D01*
X004330Y017834D01*
X004310Y017816D01*
X004288Y017801D01*
X004265Y017789D01*
X004239Y017781D01*
X004213Y017777D01*
X004187Y017777D01*
X004161Y017781D01*
X004135Y017789D01*
X004111Y017801D01*
X004090Y017816D01*
X004070Y017834D01*
X004054Y017854D01*
X004041Y017877D01*
X004031Y017902D01*
X004025Y017928D01*
X004023Y017954D01*
X002291Y017954D02*
X002293Y017980D01*
X002299Y018006D01*
X002309Y018031D01*
X002322Y018054D01*
X002338Y018074D01*
X002358Y018092D01*
X002380Y018107D01*
X002403Y018119D01*
X002429Y018127D01*
X002455Y018131D01*
X002481Y018131D01*
X002507Y018127D01*
X002533Y018119D01*
X002557Y018107D01*
X002578Y018092D01*
X002598Y018074D01*
X002614Y018054D01*
X002627Y018031D01*
X002637Y018006D01*
X002643Y017980D01*
X002645Y017954D01*
X002643Y017928D01*
X002637Y017902D01*
X002627Y017877D01*
X002614Y017854D01*
X002598Y017834D01*
X002578Y017816D01*
X002556Y017801D01*
X002533Y017789D01*
X002507Y017781D01*
X002481Y017777D01*
X002455Y017777D01*
X002429Y017781D01*
X002403Y017789D01*
X002379Y017801D01*
X002358Y017816D01*
X002338Y017834D01*
X002322Y017854D01*
X002309Y017877D01*
X002299Y017902D01*
X002293Y017928D01*
X002291Y017954D01*
D20*
X003950Y015054D03*
X004619Y015054D03*
X009150Y016854D03*
X009819Y016854D03*
G36*
X003961Y005399D02*
X003656Y005704D01*
X003935Y005983D01*
X004240Y005678D01*
X003961Y005399D01*
G37*
G36*
X004434Y004926D02*
X004129Y005231D01*
X004408Y005510D01*
X004713Y005205D01*
X004434Y004926D01*
G37*
G36*
X004985Y004933D02*
X005290Y004628D01*
X005011Y004349D01*
X004706Y004654D01*
X004985Y004933D01*
G37*
G36*
X005458Y004460D02*
X005763Y004155D01*
X005484Y003876D01*
X005179Y004181D01*
X005458Y004460D01*
G37*
X003019Y004454D03*
X002350Y004454D03*
D21*
X007884Y014770D03*
X007884Y015439D03*
X008934Y015439D03*
X008934Y014770D03*
X013634Y014920D03*
X013634Y015589D03*
D22*
X006579Y019154D03*
X005989Y019154D03*
X002979Y005154D03*
X002389Y005154D03*
D23*
X005734Y014405D03*
X005734Y015704D03*
X014984Y015954D03*
X014984Y014655D03*
D24*
X016754Y018254D03*
X018714Y018254D03*
X009534Y017854D03*
X008534Y017854D03*
X007534Y017854D03*
X007534Y018854D03*
X008534Y018854D03*
X009534Y018854D03*
X009534Y002554D03*
X009534Y001554D03*
X008534Y001554D03*
X007534Y001554D03*
X006534Y001554D03*
X005534Y001554D03*
X004534Y001554D03*
X003534Y001554D03*
X002534Y001554D03*
X001534Y001554D03*
X001534Y002554D03*
X002534Y002554D03*
X003534Y002554D03*
X004534Y002554D03*
X005534Y002554D03*
X006534Y002554D03*
X007534Y002554D03*
X008534Y002554D03*
X010534Y002554D03*
X010534Y001554D03*
X011534Y001554D03*
X012534Y001554D03*
X013534Y001554D03*
X014534Y001554D03*
X015534Y001554D03*
X016534Y001554D03*
X017534Y001554D03*
X017534Y002554D03*
X016534Y002554D03*
X015534Y002554D03*
X014534Y002554D03*
X013534Y002554D03*
X012534Y002554D03*
X011534Y002554D03*
D25*
X017534Y006554D03*
X017534Y007554D03*
X018534Y007554D03*
X018534Y006554D03*
X018534Y008554D03*
X017534Y008554D03*
X017534Y009554D03*
X018534Y009554D03*
X018534Y010554D03*
X017534Y010554D03*
X017534Y011554D03*
X018534Y011554D03*
X018534Y012554D03*
X017534Y012554D03*
X017534Y013554D03*
X018534Y013554D03*
X018534Y014554D03*
X017534Y014554D03*
X017534Y015554D03*
X018534Y015554D03*
X002534Y015554D03*
X002534Y014554D03*
X002534Y013554D03*
X002534Y012554D03*
X002534Y011554D03*
X002534Y010554D03*
X002534Y009554D03*
X002534Y008554D03*
X002534Y007554D03*
X002534Y006554D03*
X001534Y006554D03*
X001534Y007554D03*
X001534Y008554D03*
X001534Y009554D03*
X001534Y010554D03*
X001534Y011554D03*
X001534Y012554D03*
X001534Y013554D03*
X001534Y014554D03*
X001534Y015554D03*
D26*
X018534Y002554D03*
X018534Y001554D03*
D27*
X005984Y009154D03*
X005284Y009154D03*
X005284Y008554D03*
X004584Y008554D03*
X004584Y009154D03*
D28*
X000843Y001260D02*
X001010Y001030D01*
X001240Y000863D01*
X001510Y000775D01*
X001652Y000764D01*
X016775Y000764D01*
X016705Y000834D01*
X016646Y000977D01*
X016646Y001016D01*
X016642Y001014D01*
X016427Y001014D01*
X016228Y001097D01*
X016076Y001248D01*
X016034Y001350D01*
X015992Y001248D01*
X015840Y001097D01*
X015642Y001014D01*
X015427Y001014D01*
X015228Y001097D01*
X015076Y001248D01*
X015034Y001350D01*
X014992Y001248D01*
X014840Y001097D01*
X014642Y001014D01*
X014427Y001014D01*
X014228Y001097D01*
X014076Y001248D01*
X014034Y001350D01*
X013992Y001248D01*
X013840Y001097D01*
X013642Y001014D01*
X013427Y001014D01*
X013228Y001097D01*
X013076Y001248D01*
X013034Y001350D01*
X012992Y001248D01*
X012840Y001097D01*
X012642Y001014D01*
X012427Y001014D01*
X012228Y001097D01*
X012076Y001248D01*
X012034Y001350D01*
X011992Y001248D01*
X011840Y001097D01*
X011642Y001014D01*
X011427Y001014D01*
X011228Y001097D01*
X011076Y001248D01*
X011034Y001350D01*
X010992Y001248D01*
X010840Y001097D01*
X010642Y001014D01*
X010427Y001014D01*
X010228Y001097D01*
X010076Y001248D01*
X010034Y001350D01*
X009992Y001248D01*
X009840Y001097D01*
X009642Y001014D01*
X009427Y001014D01*
X009228Y001097D01*
X009076Y001248D01*
X009034Y001350D01*
X008992Y001248D01*
X008840Y001097D01*
X008642Y001014D01*
X008427Y001014D01*
X008228Y001097D01*
X008076Y001248D01*
X008034Y001350D01*
X007992Y001248D01*
X007840Y001097D01*
X007642Y001014D01*
X007427Y001014D01*
X007228Y001097D01*
X007076Y001248D01*
X007034Y001350D01*
X006992Y001248D01*
X006840Y001097D01*
X006642Y001014D01*
X006427Y001014D01*
X006228Y001097D01*
X006076Y001248D01*
X006034Y001350D01*
X005992Y001248D01*
X005840Y001097D01*
X005642Y001014D01*
X005427Y001014D01*
X005228Y001097D01*
X005076Y001248D01*
X005023Y001377D01*
X005016Y001355D01*
X004979Y001282D01*
X004931Y001216D01*
X004873Y001158D01*
X004807Y001110D01*
X004734Y001072D01*
X004656Y001047D01*
X004584Y001036D01*
X004584Y001504D01*
X004484Y001504D01*
X004484Y001036D01*
X004412Y001047D01*
X004335Y001072D01*
X004262Y001110D01*
X004195Y001158D01*
X004138Y001216D01*
X004089Y001282D01*
X004052Y001355D01*
X004045Y001377D01*
X003992Y001248D01*
X003840Y001097D01*
X003642Y001014D01*
X003427Y001014D01*
X003228Y001097D01*
X003076Y001248D01*
X003034Y001350D01*
X002992Y001248D01*
X002840Y001097D01*
X002642Y001014D01*
X002427Y001014D01*
X002228Y001097D01*
X002076Y001248D01*
X002023Y001377D01*
X002016Y001355D01*
X001979Y001282D01*
X001931Y001216D01*
X001873Y001158D01*
X001807Y001110D01*
X001734Y001072D01*
X001656Y001047D01*
X001584Y001036D01*
X001584Y001504D01*
X001484Y001504D01*
X001484Y001036D01*
X001412Y001047D01*
X001335Y001072D01*
X001262Y001110D01*
X001195Y001158D01*
X001138Y001216D01*
X001089Y001282D01*
X001052Y001355D01*
X001027Y001433D01*
X001016Y001504D01*
X001484Y001504D01*
X001484Y001604D01*
X001016Y001604D01*
X001027Y001676D01*
X001052Y001754D01*
X001089Y001827D01*
X001138Y001893D01*
X001195Y001951D01*
X001262Y001999D01*
X001335Y002036D01*
X001390Y002054D01*
X001335Y002072D01*
X001262Y002110D01*
X001195Y002158D01*
X001138Y002216D01*
X001089Y002282D01*
X001052Y002355D01*
X001027Y002433D01*
X001016Y002504D01*
X001484Y002504D01*
X001584Y002504D01*
X001584Y002073D01*
X001584Y001604D01*
X001484Y001604D01*
X001484Y002073D01*
X001484Y002504D01*
X001484Y002604D01*
X001016Y002604D01*
X001027Y002676D01*
X001052Y002754D01*
X001089Y002827D01*
X001138Y002893D01*
X001195Y002951D01*
X001262Y002999D01*
X001335Y003036D01*
X001412Y003061D01*
X001484Y003073D01*
X001484Y002604D01*
X001584Y002604D01*
X001584Y003073D01*
X001656Y003061D01*
X001734Y003036D01*
X001807Y002999D01*
X001873Y002951D01*
X001931Y002893D01*
X001979Y002827D01*
X002016Y002754D01*
X002023Y002732D01*
X002076Y002860D01*
X002228Y003012D01*
X002427Y003094D01*
X002642Y003094D01*
X002840Y003012D01*
X002992Y002860D01*
X003034Y002758D01*
X003076Y002860D01*
X003228Y003012D01*
X003427Y003094D01*
X003642Y003094D01*
X003840Y003012D01*
X003992Y002860D01*
X004034Y002758D01*
X004076Y002860D01*
X004228Y003012D01*
X004427Y003094D01*
X004613Y003094D01*
X005264Y003745D01*
X005319Y003800D01*
X005009Y004111D01*
X005009Y004199D01*
X004992Y004199D01*
X004954Y004209D01*
X004919Y004229D01*
X004786Y004361D01*
X004997Y004572D01*
X004929Y004641D01*
X004704Y004866D01*
X004585Y004747D01*
X004565Y004713D01*
X004555Y004675D01*
X004555Y004635D01*
X004565Y004597D01*
X004585Y004563D01*
X004718Y004430D01*
X004929Y004641D01*
X004997Y004710D01*
X004773Y004934D01*
X004891Y005053D01*
X004926Y005073D01*
X004964Y005083D01*
X005003Y005083D01*
X005041Y005073D01*
X005076Y005053D01*
X005208Y004920D01*
X004998Y004710D01*
X005066Y004641D01*
X005277Y004852D01*
X005410Y004719D01*
X005430Y004685D01*
X005440Y004647D01*
X005440Y004630D01*
X005527Y004630D01*
X005570Y004587D01*
X006017Y005034D01*
X006012Y005046D01*
X006012Y005209D01*
X006074Y005360D01*
X006349Y005634D01*
X006125Y005634D01*
X005943Y005634D01*
X005311Y006266D01*
X005240Y006194D01*
X005089Y006132D01*
X004926Y006132D01*
X004914Y006137D01*
X004434Y005658D01*
X004465Y005650D01*
X004499Y005630D01*
X004632Y005497D01*
X004421Y005286D01*
X004489Y005218D01*
X004700Y005429D01*
X004833Y005296D01*
X004853Y005262D01*
X004863Y005224D01*
X004863Y005184D01*
X004853Y005146D01*
X004833Y005112D01*
X004714Y004993D01*
X004489Y005218D01*
X004421Y005149D01*
X004646Y004924D01*
X004527Y004805D01*
X004493Y004786D01*
X004454Y004775D01*
X004415Y004775D01*
X004377Y004786D01*
X004343Y004805D01*
X004210Y004938D01*
X004421Y005149D01*
X004352Y005218D01*
X004141Y005007D01*
X004008Y005139D01*
X003989Y005174D01*
X003979Y005212D01*
X003979Y005229D01*
X003891Y005229D01*
X003485Y005634D01*
X003485Y005775D01*
X003863Y006153D01*
X004004Y006153D01*
X004156Y006001D01*
X004602Y006448D01*
X004597Y006460D01*
X004597Y006623D01*
X004660Y006774D01*
X005114Y007229D01*
X005265Y007291D01*
X005428Y007291D01*
X005579Y007229D01*
X005694Y007113D01*
X005757Y006963D01*
X005757Y006800D01*
X005694Y006649D01*
X005622Y006577D01*
X006125Y006074D01*
X006365Y006074D01*
X007183Y006893D01*
X007101Y006975D01*
X007101Y007003D01*
X007075Y007030D01*
X007101Y007056D01*
X007101Y007056D01*
X007101Y007056D01*
X007074Y007030D01*
X007048Y007056D01*
X007020Y007056D01*
X007016Y007061D01*
X006963Y006934D01*
X006854Y006825D01*
X006711Y006766D01*
X006557Y006766D01*
X006414Y006825D01*
X006305Y006934D01*
X006246Y007077D01*
X006246Y007232D01*
X006305Y007374D01*
X006315Y007384D01*
X005425Y007384D01*
X005243Y007384D01*
X004555Y008072D01*
X004527Y008079D01*
X004495Y008132D01*
X004421Y008202D01*
X004364Y008225D01*
X004255Y008334D01*
X004196Y008477D01*
X004196Y008632D01*
X004255Y008774D01*
X004335Y008854D01*
X004255Y008934D01*
X004196Y009077D01*
X004196Y009205D01*
X004104Y009113D01*
X004104Y008495D01*
X004104Y008313D01*
X003254Y007463D01*
X003254Y007395D01*
X003254Y007213D01*
X002946Y006906D01*
X003074Y006778D01*
X003074Y006331D01*
X002758Y006014D01*
X002623Y006014D01*
X002713Y005924D01*
X002772Y005782D01*
X002772Y005627D01*
X002713Y005484D01*
X002664Y005435D01*
X002699Y005399D01*
X002702Y005404D01*
X002730Y005432D01*
X002764Y005452D01*
X002802Y005462D01*
X002951Y005462D01*
X002951Y005183D01*
X003008Y005183D01*
X003008Y005462D01*
X003157Y005462D01*
X003195Y005452D01*
X003229Y005432D01*
X003257Y005404D01*
X003277Y005370D01*
X003287Y005332D01*
X003287Y005183D01*
X003008Y005183D01*
X003008Y005126D01*
X003287Y005126D01*
X003287Y004977D01*
X003277Y004939D01*
X003257Y004905D01*
X003229Y004877D01*
X003195Y004857D01*
X003157Y004847D01*
X003008Y004847D01*
X003008Y005125D01*
X002951Y005125D01*
X002951Y004847D01*
X002802Y004847D01*
X002764Y004857D01*
X002730Y004877D01*
X002702Y004905D01*
X002699Y004909D01*
X002617Y004827D01*
X002161Y004827D01*
X002061Y004926D01*
X002061Y005382D01*
X002109Y005430D01*
X002055Y005484D01*
X001996Y005627D01*
X001996Y005782D01*
X002055Y005924D01*
X002164Y006033D01*
X002254Y006071D01*
X002020Y006305D01*
X001750Y006034D01*
X001584Y006034D01*
X001584Y006504D01*
X001484Y006504D01*
X001484Y006034D01*
X001319Y006034D01*
X001014Y006339D01*
X001014Y006504D01*
X001484Y006504D01*
X001484Y006604D01*
X001014Y006604D01*
X001014Y006770D01*
X001285Y007040D01*
X000994Y007331D01*
X000994Y007778D01*
X001271Y008054D01*
X000994Y008331D01*
X000994Y008778D01*
X001271Y009054D01*
X000994Y009331D01*
X000994Y009778D01*
X001271Y010054D01*
X000994Y010331D01*
X000994Y010778D01*
X001271Y011054D01*
X000994Y011331D01*
X000994Y011778D01*
X001271Y012054D01*
X000994Y012331D01*
X000994Y012778D01*
X001285Y013068D01*
X001014Y013339D01*
X001014Y013504D01*
X001484Y013504D01*
X001484Y013604D01*
X001014Y013604D01*
X001014Y013770D01*
X001285Y014040D01*
X000994Y014331D01*
X000994Y014778D01*
X001285Y015068D01*
X001014Y015339D01*
X001014Y015504D01*
X001484Y015504D01*
X001484Y015604D01*
X001014Y015604D01*
X001014Y015770D01*
X001319Y016074D01*
X001484Y016074D01*
X001484Y015604D01*
X001584Y015604D01*
X001584Y016074D01*
X001750Y016074D01*
X002020Y015804D01*
X002311Y016094D01*
X002758Y016094D01*
X002858Y015994D01*
X005072Y015994D01*
X005072Y016011D01*
X005096Y016034D01*
X003643Y016034D01*
X003514Y016163D01*
X003514Y016163D01*
X003429Y016248D01*
X003429Y016308D01*
X003188Y016308D01*
X002850Y016308D01*
X002829Y016330D01*
X002822Y016328D01*
X002704Y016328D01*
X002704Y016970D01*
X002456Y016970D01*
X002456Y016458D01*
X002466Y016420D01*
X002486Y016386D01*
X002514Y016358D01*
X002548Y016338D01*
X002586Y016328D01*
X002704Y016328D01*
X002704Y016970D01*
X002704Y016970D01*
X002456Y016970D01*
X002456Y017482D01*
X002466Y017520D01*
X002486Y017554D01*
X002514Y017582D01*
X002548Y017602D01*
X002586Y017612D01*
X002704Y017612D01*
X002704Y016970D01*
X002704Y016970D01*
X002704Y016970D01*
X002704Y017612D01*
X002822Y017612D01*
X002829Y017610D01*
X002850Y017632D01*
X003114Y017632D01*
X003114Y018295D01*
X003114Y018295D01*
X003114Y018318D01*
X003114Y018318D01*
X003201Y018527D01*
X003201Y018527D01*
X003201Y018527D01*
X003361Y018687D01*
X003571Y018774D01*
X003593Y018774D01*
X003593Y018774D01*
X003684Y018774D01*
X003775Y018774D01*
X004443Y018774D01*
X004534Y018774D01*
X004542Y018774D01*
X004542Y019698D01*
X004642Y019798D01*
X005570Y019798D01*
X005669Y019698D01*
X005669Y019390D01*
X005761Y019482D01*
X006217Y019482D01*
X006284Y019414D01*
X006352Y019482D01*
X006807Y019482D01*
X006907Y019382D01*
X006907Y018926D01*
X006884Y018903D01*
X006913Y018874D01*
X006972Y018732D01*
X006972Y018577D01*
X006913Y018434D01*
X006804Y018325D01*
X006677Y018273D01*
X006994Y017955D01*
X006994Y017962D01*
X007076Y018160D01*
X007228Y018312D01*
X007244Y018319D01*
X007244Y018390D01*
X007228Y018397D01*
X007076Y018548D01*
X006994Y018747D01*
X006994Y018962D01*
X007076Y019160D01*
X007228Y019312D01*
X007427Y019394D01*
X007642Y019394D01*
X007840Y019312D01*
X007992Y019160D01*
X008045Y019032D01*
X008052Y019054D01*
X008089Y019127D01*
X008138Y019193D01*
X008195Y019251D01*
X008262Y019299D01*
X008335Y019336D01*
X008412Y019361D01*
X008484Y019373D01*
X008484Y018904D01*
X008584Y018904D01*
X008584Y019373D01*
X008656Y019361D01*
X008734Y019336D01*
X008807Y019299D01*
X008873Y019251D01*
X008931Y019193D01*
X008979Y019127D01*
X009016Y019054D01*
X009023Y019032D01*
X009076Y019160D01*
X009228Y019312D01*
X009427Y019394D01*
X009642Y019394D01*
X009840Y019312D01*
X009992Y019160D01*
X010074Y018962D01*
X010074Y018747D01*
X009992Y018548D01*
X009840Y018397D01*
X009824Y018390D01*
X009824Y018319D01*
X009840Y018312D01*
X009992Y018160D01*
X009999Y018144D01*
X010644Y018144D01*
X010644Y018245D01*
X010744Y018344D01*
X011333Y018344D01*
X011313Y018364D01*
X010931Y018364D01*
X010644Y018651D01*
X010644Y019057D01*
X010931Y019344D01*
X011337Y019344D01*
X011624Y019057D01*
X011624Y018675D01*
X011644Y018655D01*
X011644Y019057D01*
X011931Y019344D01*
X012337Y019344D01*
X012624Y019057D01*
X012624Y018655D01*
X012644Y018675D01*
X012644Y019057D01*
X012931Y019344D01*
X013337Y019344D01*
X013624Y019057D01*
X013624Y018655D01*
X013644Y018675D01*
X013644Y019057D01*
X013931Y019344D01*
X014337Y019344D01*
X014624Y019057D01*
X014624Y018655D01*
X014644Y018675D01*
X014644Y019057D01*
X014931Y019344D01*
X015337Y019344D01*
X015624Y019057D01*
X015624Y018651D01*
X015337Y018364D01*
X014955Y018364D01*
X014854Y018263D01*
X014854Y018239D01*
X014939Y018324D01*
X015084Y018324D01*
X015084Y017904D01*
X015184Y017904D01*
X015604Y017904D01*
X015604Y018049D01*
X015329Y018324D01*
X015184Y018324D01*
X015184Y017904D01*
X015184Y017804D01*
X015184Y017384D01*
X015329Y017384D01*
X015604Y017660D01*
X015604Y017804D01*
X015184Y017804D01*
X015084Y017804D01*
X015084Y017384D01*
X014939Y017384D01*
X014854Y017470D01*
X014854Y017209D01*
X014890Y017147D01*
X014963Y017074D01*
X015022Y016932D01*
X015022Y016777D01*
X014963Y016634D01*
X014854Y016525D01*
X014711Y016466D01*
X014557Y016466D01*
X014414Y016525D01*
X014305Y016634D01*
X014246Y016777D01*
X014246Y016932D01*
X014305Y017074D01*
X014378Y017147D01*
X014414Y017209D01*
X014414Y017470D01*
X014329Y017384D01*
X014184Y017384D01*
X014184Y017804D01*
X014084Y017804D01*
X014084Y017384D01*
X013939Y017384D01*
X013854Y017470D01*
X013854Y017045D01*
X013854Y016863D01*
X013727Y016736D01*
X013854Y016683D01*
X013963Y016574D01*
X014022Y016432D01*
X014022Y016277D01*
X013992Y016204D01*
X014322Y016204D01*
X014322Y016261D01*
X014422Y016360D01*
X015547Y016360D01*
X015646Y016261D01*
X015646Y016204D01*
X017085Y016204D01*
X017184Y016204D01*
X017276Y016166D01*
X017348Y016094D01*
X017758Y016094D01*
X018034Y015818D01*
X018311Y016094D01*
X018758Y016094D01*
X019074Y015778D01*
X019074Y015331D01*
X018798Y015054D01*
X019074Y014778D01*
X019074Y014331D01*
X018798Y014054D01*
X019074Y013778D01*
X019074Y013331D01*
X018798Y013054D01*
X019074Y012778D01*
X019074Y012331D01*
X018798Y012054D01*
X019074Y011778D01*
X019074Y011331D01*
X018798Y011054D01*
X019074Y010778D01*
X019074Y010331D01*
X018798Y010054D01*
X019074Y009778D01*
X019074Y009331D01*
X018946Y009203D01*
X019125Y009024D01*
X019125Y009024D01*
X019254Y008895D01*
X019254Y001014D01*
X019270Y001036D01*
X019318Y001184D01*
X019324Y001261D01*
X019324Y018849D01*
X019324Y018875D01*
X019324Y018936D01*
X019313Y019078D01*
X019225Y019349D01*
X019058Y019578D01*
X018828Y019745D01*
X018558Y019833D01*
X018416Y019844D01*
X001328Y019844D01*
X001311Y019844D01*
X001241Y019844D01*
X001164Y019838D01*
X001016Y019790D01*
X000890Y019699D01*
X000798Y019573D01*
X000750Y019425D01*
X000744Y019347D01*
X000744Y001672D01*
X000755Y001530D01*
X000843Y001260D01*
X000855Y001244D02*
X001117Y001244D01*
X001134Y001204D02*
X001034Y001304D01*
X001034Y006054D01*
X001534Y006554D01*
X001034Y007054D01*
X001034Y013554D01*
X001534Y013554D01*
X001484Y013562D02*
X000744Y013562D01*
X000744Y013464D02*
X001014Y013464D01*
X001034Y013554D02*
X001034Y015054D01*
X001534Y015554D01*
X002034Y015054D01*
X003950Y015054D01*
X003984Y015020D01*
X003984Y014704D01*
X004284Y014405D01*
X005734Y014405D01*
X005684Y014449D02*
X003857Y014449D01*
X003786Y014514D02*
X003725Y014574D01*
X003719Y014574D01*
X003715Y014578D01*
X003629Y014574D01*
X003074Y014574D01*
X003074Y014778D01*
X002798Y015054D01*
X003074Y015331D01*
X003074Y015414D01*
X004325Y015414D01*
X004270Y015359D01*
X004258Y015371D01*
X004224Y015391D01*
X004186Y015401D01*
X003998Y015401D01*
X003998Y015103D01*
X003901Y015103D01*
X003901Y015401D01*
X003713Y015401D01*
X003675Y015391D01*
X003641Y015371D01*
X003613Y015343D01*
X003593Y015309D01*
X003583Y015271D01*
X003583Y015103D01*
X003901Y015103D01*
X003901Y015006D01*
X003583Y015006D01*
X003583Y014838D01*
X003593Y014800D01*
X003613Y014765D01*
X003641Y014737D01*
X003675Y014718D01*
X003713Y014707D01*
X003901Y014707D01*
X003901Y015006D01*
X003998Y015006D01*
X003998Y014707D01*
X004186Y014707D01*
X004224Y014718D01*
X004258Y014737D01*
X004270Y014749D01*
X004332Y014687D01*
X004906Y014687D01*
X005005Y014787D01*
X005005Y015130D01*
X005173Y015298D01*
X006297Y015298D01*
X006396Y015397D01*
X006396Y015459D01*
X006475Y015492D01*
X006800Y015816D01*
X006911Y015816D01*
X007008Y015856D01*
X007004Y014601D01*
X007004Y014600D01*
X007004Y014505D01*
X007004Y014419D01*
X007004Y014419D01*
X007004Y014418D01*
X007069Y014354D01*
X007132Y014290D01*
X007133Y014290D01*
X007417Y014005D01*
X007480Y013941D01*
X007482Y013941D01*
X007483Y013939D01*
X007573Y013939D01*
X007842Y013936D01*
X008203Y013574D01*
X004819Y013574D01*
X003786Y014514D01*
X003752Y014547D02*
X005092Y014547D01*
X005092Y014455D02*
X005092Y014661D01*
X005102Y014699D01*
X005122Y014733D01*
X005150Y014761D01*
X005184Y014781D01*
X005222Y014791D01*
X005684Y014791D01*
X005684Y014455D01*
X005784Y014455D01*
X005784Y014791D01*
X006246Y014791D01*
X006284Y014781D01*
X006318Y014761D01*
X006346Y014733D01*
X006366Y014699D01*
X006376Y014661D01*
X006376Y014455D01*
X005784Y014455D01*
X005784Y014355D01*
X006376Y014355D01*
X006376Y014149D01*
X006366Y014111D01*
X006346Y014076D01*
X006318Y014048D01*
X006284Y014029D01*
X006246Y014019D01*
X005784Y014019D01*
X005784Y014355D01*
X005684Y014355D01*
X005092Y014355D01*
X005092Y014149D01*
X005102Y014111D01*
X005122Y014076D01*
X005150Y014048D01*
X005184Y014029D01*
X005222Y014019D01*
X005684Y014019D01*
X005684Y014355D01*
X005684Y014455D01*
X005092Y014455D01*
X005092Y014350D02*
X003966Y014350D01*
X004074Y014252D02*
X005092Y014252D01*
X005092Y014153D02*
X004182Y014153D01*
X004291Y014055D02*
X005144Y014055D01*
X004724Y013661D02*
X008117Y013661D01*
X008018Y013759D02*
X004616Y013759D01*
X004507Y013858D02*
X007920Y013858D01*
X007934Y014154D02*
X007574Y014159D01*
X007224Y014509D01*
X007229Y016344D01*
X007434Y016399D02*
X007434Y015889D01*
X007884Y015439D01*
X008251Y015434D02*
X008567Y015434D01*
X008567Y015336D02*
X008251Y015336D01*
X008251Y015237D02*
X008567Y015237D01*
X008567Y015152D02*
X008629Y015090D01*
X008617Y015078D01*
X008598Y015044D01*
X008587Y015006D01*
X008587Y014818D01*
X008885Y014818D01*
X008885Y014721D01*
X008587Y014721D01*
X008587Y014533D01*
X008598Y014495D01*
X008617Y014461D01*
X008645Y014433D01*
X008679Y014413D01*
X008718Y014403D01*
X008886Y014403D01*
X008886Y014721D01*
X008983Y014721D01*
X008983Y014818D01*
X009281Y014818D01*
X009281Y015006D01*
X009271Y015044D01*
X009251Y015078D01*
X009239Y015090D01*
X009301Y015152D01*
X009301Y015726D01*
X009201Y015825D01*
X009154Y015825D01*
X009154Y015995D01*
X008754Y016395D01*
X008625Y016524D01*
X008275Y016524D01*
X008104Y016695D01*
X008104Y016791D01*
X007977Y016918D01*
X007971Y016939D01*
X008763Y016939D01*
X008763Y016587D01*
X008863Y016487D01*
X008964Y016487D01*
X008964Y016463D01*
X009093Y016334D01*
X009264Y016163D01*
X009393Y016034D01*
X009718Y016034D01*
X009696Y015982D01*
X009696Y015827D01*
X009755Y015684D01*
X009828Y015611D01*
X009864Y015550D01*
X009864Y015518D01*
X009864Y014545D01*
X009266Y013947D01*
X009213Y014074D01*
X009104Y014183D01*
X008961Y014242D01*
X008858Y014242D01*
X008789Y014261D01*
X008251Y014799D01*
X008251Y015057D01*
X008203Y015104D01*
X008251Y015152D01*
X008251Y015726D01*
X008151Y015825D01*
X007809Y015825D01*
X007654Y015980D01*
X007654Y016476D01*
X007688Y016490D01*
X007793Y016384D01*
X008093Y016084D01*
X008275Y016084D01*
X008443Y016084D01*
X008702Y015825D01*
X008667Y015825D01*
X008567Y015726D01*
X008567Y015152D01*
X008581Y015139D02*
X008238Y015139D01*
X008251Y015040D02*
X008597Y015040D01*
X008587Y014942D02*
X008251Y014942D01*
X008251Y014843D02*
X008587Y014843D01*
X008587Y014646D02*
X008404Y014646D01*
X008502Y014547D02*
X008587Y014547D01*
X008601Y014449D02*
X008629Y014449D01*
X008699Y014350D02*
X009669Y014350D01*
X009571Y014252D02*
X008822Y014252D01*
X008886Y014449D02*
X008983Y014449D01*
X008983Y014403D02*
X009151Y014403D01*
X009189Y014413D01*
X009223Y014433D01*
X009251Y014461D01*
X009271Y014495D01*
X009281Y014533D01*
X009281Y014721D01*
X008983Y014721D01*
X008983Y014403D01*
X008983Y014547D02*
X008886Y014547D01*
X008886Y014646D02*
X008983Y014646D01*
X008983Y014745D02*
X009864Y014745D01*
X009864Y014843D02*
X009281Y014843D01*
X009281Y014942D02*
X009864Y014942D01*
X009864Y015040D02*
X009272Y015040D01*
X009288Y015139D02*
X009864Y015139D01*
X009864Y015237D02*
X009301Y015237D01*
X009301Y015336D02*
X009864Y015336D01*
X009864Y015434D02*
X009301Y015434D01*
X009301Y015533D02*
X009864Y015533D01*
X009808Y015631D02*
X009301Y015631D01*
X009297Y015730D02*
X009736Y015730D01*
X009696Y015829D02*
X009154Y015829D01*
X009154Y015927D02*
X009696Y015927D01*
X009714Y016026D02*
X009124Y016026D01*
X009025Y016124D02*
X009303Y016124D01*
X009205Y016223D02*
X008927Y016223D01*
X008828Y016321D02*
X009106Y016321D01*
X009008Y016420D02*
X008730Y016420D01*
X008631Y016518D02*
X008832Y016518D01*
X008763Y016617D02*
X008183Y016617D01*
X008104Y016715D02*
X008763Y016715D01*
X008763Y016814D02*
X008081Y016814D01*
X007982Y016913D02*
X008763Y016913D01*
X008628Y016769D02*
X008484Y016804D01*
X008382Y016696D01*
X008567Y016521D01*
X008628Y016769D01*
X008484Y016804D02*
X008484Y016604D01*
X008567Y016521D01*
X009534Y015554D01*
X009534Y014954D01*
X009350Y014770D01*
X008934Y014770D01*
X008885Y014745D02*
X008305Y014745D01*
X008034Y014704D02*
X008884Y013854D01*
X008922Y013998D01*
X008675Y014063D01*
X008741Y013816D01*
X008884Y013854D01*
X008675Y014063D01*
X009134Y014153D02*
X009472Y014153D01*
X009374Y014055D02*
X009221Y014055D01*
X009262Y013956D02*
X009275Y013956D01*
X009434Y013504D02*
X010284Y014354D01*
X010284Y015004D01*
X011384Y016104D01*
X011384Y016559D01*
X011256Y016780D01*
X011384Y016854D01*
X011512Y016780D01*
X011384Y016559D01*
X011384Y016854D01*
X011634Y017204D02*
X011634Y018354D01*
X011134Y018854D01*
X010806Y018489D02*
X009933Y018489D01*
X010008Y018588D02*
X010708Y018588D01*
X010644Y018686D02*
X010049Y018686D01*
X010074Y018785D02*
X010644Y018785D01*
X010644Y018883D02*
X010074Y018883D01*
X010066Y018982D02*
X010644Y018982D01*
X010667Y019080D02*
X010025Y019080D01*
X009973Y019179D02*
X010766Y019179D01*
X010864Y019278D02*
X009875Y019278D01*
X009686Y019376D02*
X019205Y019376D01*
X019248Y019278D02*
X015404Y019278D01*
X015502Y019179D02*
X019280Y019179D01*
X019312Y019080D02*
X015601Y019080D01*
X015624Y018982D02*
X019321Y018982D01*
X019324Y018883D02*
X015624Y018883D01*
X015624Y018785D02*
X016624Y018785D01*
X016647Y018794D02*
X016448Y018712D01*
X016296Y018560D01*
X016214Y018362D01*
X016214Y018147D01*
X016296Y017948D01*
X016448Y017797D01*
X016647Y017714D01*
X016862Y017714D01*
X017060Y017797D01*
X017212Y017948D01*
X017294Y018147D01*
X017294Y018362D01*
X017212Y018560D01*
X017060Y018712D01*
X016862Y018794D01*
X016647Y018794D01*
X016422Y018686D02*
X015624Y018686D01*
X015561Y018588D02*
X016324Y018588D01*
X016267Y018489D02*
X015462Y018489D01*
X015363Y018391D02*
X016226Y018391D01*
X016214Y018292D02*
X015361Y018292D01*
X015460Y018194D02*
X016214Y018194D01*
X016236Y018095D02*
X015558Y018095D01*
X015604Y017996D02*
X016276Y017996D01*
X016347Y017898D02*
X015184Y017898D01*
X015184Y017996D02*
X015084Y017996D01*
X015084Y018095D02*
X015184Y018095D01*
X015184Y018194D02*
X015084Y018194D01*
X015084Y018292D02*
X015184Y018292D01*
X014907Y018292D02*
X014883Y018292D01*
X014634Y018354D02*
X014634Y017150D01*
X014762Y016929D01*
X014634Y016854D01*
X014506Y016929D01*
X014634Y017150D01*
X014634Y016854D01*
X014272Y016715D02*
X013776Y016715D01*
X013805Y016814D02*
X014246Y016814D01*
X014246Y016913D02*
X013854Y016913D01*
X013854Y017011D02*
X014279Y017011D01*
X014341Y017110D02*
X013854Y017110D01*
X013854Y017208D02*
X014414Y017208D01*
X014414Y017307D02*
X013854Y017307D01*
X013854Y017405D02*
X013919Y017405D01*
X014084Y017405D02*
X014184Y017405D01*
X014184Y017504D02*
X014084Y017504D01*
X014084Y017602D02*
X014184Y017602D01*
X014184Y017701D02*
X014084Y017701D01*
X014084Y017799D02*
X014184Y017799D01*
X014184Y017904D02*
X014084Y017904D01*
X014084Y018324D01*
X013939Y018324D01*
X013854Y018239D01*
X013854Y018263D01*
X013955Y018364D01*
X014337Y018364D01*
X014414Y018441D01*
X014414Y018239D01*
X014329Y018324D01*
X014184Y018324D01*
X014184Y017904D01*
X014184Y017996D02*
X014084Y017996D01*
X014084Y018095D02*
X014184Y018095D01*
X014184Y018194D02*
X014084Y018194D01*
X014084Y018292D02*
X014184Y018292D01*
X014361Y018292D02*
X014414Y018292D01*
X014414Y018391D02*
X014363Y018391D01*
X014634Y018354D02*
X015134Y018854D01*
X014766Y019179D02*
X014502Y019179D01*
X014404Y019278D02*
X014864Y019278D01*
X014667Y019080D02*
X014601Y019080D01*
X014624Y018982D02*
X014644Y018982D01*
X014644Y018883D02*
X014624Y018883D01*
X014624Y018785D02*
X014644Y018785D01*
X014644Y018686D02*
X014624Y018686D01*
X014134Y018854D02*
X013634Y018354D01*
X013634Y016954D01*
X012684Y016004D01*
X012684Y015000D01*
X012812Y014779D01*
X012684Y014704D01*
X012556Y014779D01*
X012684Y015000D01*
X012684Y014704D01*
X013009Y014333D02*
X013084Y014204D01*
X013009Y014076D01*
X012789Y014204D01*
X012584Y014204D01*
X011809Y013429D01*
X011809Y013154D01*
X011150Y012495D01*
X011148Y012495D01*
X011287Y012357D02*
X011287Y012356D01*
X011287Y012357D02*
X012075Y013146D01*
X012191Y013392D01*
X012284Y013354D01*
X012322Y013261D01*
X012075Y013146D01*
X012284Y013354D01*
X012378Y013366D01*
X012493Y013563D01*
X012246Y013498D01*
X012284Y013354D01*
X012493Y013563D01*
X012734Y013804D01*
X014934Y013804D01*
X015034Y013904D01*
X015339Y013904D01*
X015559Y014033D01*
X015634Y013904D01*
X015559Y013776D01*
X015339Y013904D01*
X015634Y013904D01*
X015505Y014271D02*
X015414Y014233D01*
X015341Y014160D01*
X015280Y014124D01*
X014943Y014124D01*
X014843Y014024D01*
X013430Y014024D01*
X013472Y014127D01*
X013472Y014282D01*
X013413Y014424D01*
X013304Y014533D01*
X013161Y014592D01*
X013058Y014592D01*
X013072Y014627D01*
X013072Y014782D01*
X013013Y014924D01*
X012940Y014997D01*
X012904Y015059D01*
X012904Y015913D01*
X013253Y016262D01*
X013305Y016134D01*
X013384Y016055D01*
X013384Y015975D01*
X013367Y015975D01*
X013267Y015876D01*
X013267Y015302D01*
X013329Y015240D01*
X013317Y015228D01*
X013298Y015194D01*
X013287Y015156D01*
X013287Y014968D01*
X013585Y014968D01*
X013585Y014871D01*
X013287Y014871D01*
X013287Y014683D01*
X013298Y014645D01*
X013317Y014611D01*
X013345Y014583D01*
X013379Y014563D01*
X013418Y014553D01*
X013586Y014553D01*
X013586Y014871D01*
X013683Y014871D01*
X013683Y014968D01*
X013981Y014968D01*
X013981Y015143D01*
X014005Y015084D01*
X014114Y014975D01*
X014257Y014916D01*
X014344Y014916D01*
X014342Y014911D01*
X014342Y014705D01*
X014934Y014705D01*
X014934Y014605D01*
X014342Y014605D01*
X014342Y014399D01*
X014352Y014361D01*
X014372Y014326D01*
X014400Y014298D01*
X014434Y014279D01*
X014472Y014269D01*
X014934Y014269D01*
X014934Y014605D01*
X015034Y014605D01*
X015034Y014705D01*
X015626Y014705D01*
X015626Y014834D01*
X017051Y014834D01*
X016994Y014778D01*
X016994Y014331D01*
X017051Y014274D01*
X016343Y014274D01*
X016214Y014145D01*
X016022Y013953D01*
X016022Y013982D01*
X015963Y014124D01*
X015854Y014233D01*
X015711Y014292D01*
X015558Y014292D01*
X015568Y014298D01*
X015596Y014326D01*
X015616Y014361D01*
X015626Y014399D01*
X015626Y014605D01*
X015034Y014605D01*
X015034Y014269D01*
X015496Y014269D01*
X015505Y014271D01*
X015459Y014252D02*
X013472Y014252D01*
X013472Y014153D02*
X015329Y014153D01*
X015610Y014350D02*
X016994Y014350D01*
X016994Y014449D02*
X015626Y014449D01*
X015626Y014547D02*
X016994Y014547D01*
X016994Y014646D02*
X015034Y014646D01*
X014985Y014654D02*
X014984Y014655D01*
X014985Y014654D02*
X015839Y014654D01*
X016059Y014783D01*
X016134Y014654D01*
X016059Y014526D01*
X015839Y014654D01*
X016134Y014654D01*
X016321Y014252D02*
X015809Y014252D01*
X015934Y014153D02*
X016222Y014153D01*
X016124Y014055D02*
X015992Y014055D01*
X016022Y013956D02*
X016025Y013956D01*
X016434Y014054D02*
X018034Y014054D01*
X018534Y014554D01*
X018910Y014942D02*
X019324Y014942D01*
X019324Y015040D02*
X018812Y015040D01*
X018882Y015139D02*
X019324Y015139D01*
X019324Y015237D02*
X018981Y015237D01*
X019074Y015336D02*
X019324Y015336D01*
X019324Y015434D02*
X019074Y015434D01*
X019074Y015533D02*
X019324Y015533D01*
X019324Y015631D02*
X019074Y015631D01*
X019074Y015730D02*
X019324Y015730D01*
X019324Y015829D02*
X019024Y015829D01*
X018925Y015927D02*
X019324Y015927D01*
X019324Y016026D02*
X018826Y016026D01*
X018534Y015554D02*
X018034Y015054D01*
X014584Y015054D01*
X014543Y015096D01*
X014296Y015161D01*
X014334Y015304D01*
X014478Y015342D01*
X014543Y015096D01*
X014334Y015304D01*
X014196Y014942D02*
X013683Y014942D01*
X013683Y014871D02*
X013981Y014871D01*
X013981Y014683D01*
X013971Y014645D01*
X013951Y014611D01*
X013923Y014583D01*
X013889Y014563D01*
X013851Y014553D01*
X013683Y014553D01*
X013683Y014871D01*
X013683Y014843D02*
X013586Y014843D01*
X013586Y014745D02*
X013683Y014745D01*
X013683Y014646D02*
X013586Y014646D01*
X013388Y014449D02*
X014342Y014449D01*
X014342Y014547D02*
X013270Y014547D01*
X013297Y014646D02*
X013072Y014646D01*
X013072Y014745D02*
X013287Y014745D01*
X013287Y014843D02*
X013047Y014843D01*
X012996Y014942D02*
X013585Y014942D01*
X013287Y015040D02*
X012915Y015040D01*
X012904Y015139D02*
X013287Y015139D01*
X013326Y015237D02*
X012904Y015237D01*
X012904Y015336D02*
X013267Y015336D01*
X013267Y015434D02*
X012904Y015434D01*
X012904Y015533D02*
X013267Y015533D01*
X013267Y015631D02*
X012904Y015631D01*
X012904Y015730D02*
X013267Y015730D01*
X013267Y015829D02*
X012904Y015829D01*
X012918Y015927D02*
X013319Y015927D01*
X013384Y016026D02*
X013017Y016026D01*
X013115Y016124D02*
X013315Y016124D01*
X013269Y016223D02*
X013214Y016223D01*
X012887Y016518D02*
X012504Y016518D01*
X012504Y016420D02*
X012789Y016420D01*
X012690Y016321D02*
X012504Y016321D01*
X012504Y016223D02*
X012591Y016223D01*
X012593Y016224D02*
X012504Y016135D01*
X012504Y016663D01*
X012854Y017013D01*
X012854Y017195D01*
X012854Y017470D01*
X012939Y017384D01*
X013084Y017384D01*
X013084Y017804D01*
X013184Y017804D01*
X013184Y017384D01*
X013329Y017384D01*
X013414Y017470D01*
X013414Y017045D01*
X012593Y016224D01*
X012504Y016617D02*
X012986Y016617D01*
X013084Y016715D02*
X012556Y016715D01*
X012655Y016814D02*
X013183Y016814D01*
X013281Y016913D02*
X012753Y016913D01*
X012852Y017011D02*
X013380Y017011D01*
X013414Y017110D02*
X012854Y017110D01*
X012854Y017208D02*
X013414Y017208D01*
X013414Y017307D02*
X012854Y017307D01*
X012854Y017405D02*
X012919Y017405D01*
X013084Y017405D02*
X013184Y017405D01*
X013184Y017504D02*
X013084Y017504D01*
X013084Y017602D02*
X013184Y017602D01*
X013184Y017701D02*
X013084Y017701D01*
X013084Y017799D02*
X013184Y017799D01*
X013184Y017904D02*
X013084Y017904D01*
X013084Y018324D01*
X012939Y018324D01*
X012854Y018239D01*
X012854Y018263D01*
X012955Y018364D01*
X013337Y018364D01*
X013414Y018441D01*
X013414Y018239D01*
X013329Y018324D01*
X013184Y018324D01*
X013184Y017904D01*
X013184Y017996D02*
X013084Y017996D01*
X013084Y018095D02*
X013184Y018095D01*
X013184Y018194D02*
X013084Y018194D01*
X013084Y018292D02*
X013184Y018292D01*
X013361Y018292D02*
X013414Y018292D01*
X013414Y018391D02*
X013363Y018391D01*
X013624Y018686D02*
X013644Y018686D01*
X013644Y018785D02*
X013624Y018785D01*
X013624Y018883D02*
X013644Y018883D01*
X013644Y018982D02*
X013624Y018982D01*
X013601Y019080D02*
X013667Y019080D01*
X013766Y019179D02*
X013502Y019179D01*
X013404Y019278D02*
X013864Y019278D01*
X013134Y018854D02*
X012634Y018354D01*
X012634Y017104D01*
X012284Y016754D01*
X012284Y015554D01*
X011584Y014854D01*
X011584Y014100D01*
X011712Y013879D01*
X011584Y013804D01*
X011456Y013879D01*
X011584Y014100D01*
X011584Y013804D01*
X011328Y014097D02*
X011255Y014024D01*
X011204Y013901D01*
X011204Y015213D01*
X011925Y015934D01*
X012054Y016063D01*
X012054Y016913D01*
X012054Y017095D01*
X011854Y017295D01*
X011854Y017470D01*
X011939Y017384D01*
X012084Y017384D01*
X012084Y017804D01*
X012184Y017804D01*
X012184Y017384D01*
X012329Y017384D01*
X012414Y017470D01*
X012414Y017195D01*
X012193Y016974D01*
X012064Y016845D01*
X012064Y015645D01*
X011493Y015074D01*
X011364Y014945D01*
X011364Y014159D01*
X011328Y014097D01*
X011286Y014055D02*
X011204Y014055D01*
X011204Y014153D02*
X011361Y014153D01*
X011364Y014252D02*
X011204Y014252D01*
X011204Y014350D02*
X011364Y014350D01*
X011364Y014449D02*
X011204Y014449D01*
X011204Y014547D02*
X011364Y014547D01*
X011364Y014646D02*
X011204Y014646D01*
X011204Y014745D02*
X011364Y014745D01*
X011364Y014843D02*
X011204Y014843D01*
X011204Y014942D02*
X011364Y014942D01*
X011459Y015040D02*
X011204Y015040D01*
X011204Y015139D02*
X011557Y015139D01*
X011656Y015237D02*
X011228Y015237D01*
X011327Y015336D02*
X011755Y015336D01*
X011853Y015434D02*
X011425Y015434D01*
X011524Y015533D02*
X011952Y015533D01*
X012050Y015631D02*
X011622Y015631D01*
X011721Y015730D02*
X012064Y015730D01*
X012064Y015829D02*
X011819Y015829D01*
X011918Y015927D02*
X012064Y015927D01*
X012064Y016026D02*
X012017Y016026D01*
X012054Y016124D02*
X012064Y016124D01*
X012054Y016223D02*
X012064Y016223D01*
X012054Y016321D02*
X012064Y016321D01*
X012054Y016420D02*
X012064Y016420D01*
X012054Y016518D02*
X012064Y016518D01*
X012054Y016617D02*
X012064Y016617D01*
X012054Y016715D02*
X012064Y016715D01*
X012054Y016814D02*
X012064Y016814D01*
X012054Y016913D02*
X012131Y016913D01*
X012054Y017011D02*
X012230Y017011D01*
X012328Y017110D02*
X012040Y017110D01*
X011941Y017208D02*
X012414Y017208D01*
X012414Y017307D02*
X011854Y017307D01*
X011854Y017405D02*
X011919Y017405D01*
X012084Y017405D02*
X012184Y017405D01*
X012184Y017504D02*
X012084Y017504D01*
X012084Y017602D02*
X012184Y017602D01*
X012184Y017701D02*
X012084Y017701D01*
X012084Y017799D02*
X012184Y017799D01*
X012184Y017904D02*
X012084Y017904D01*
X012084Y018324D01*
X011939Y018324D01*
X011854Y018239D01*
X011854Y018263D01*
X011854Y018441D01*
X011931Y018364D01*
X012337Y018364D01*
X012414Y018441D01*
X012414Y018239D01*
X012329Y018324D01*
X012184Y018324D01*
X012184Y017904D01*
X012184Y017996D02*
X012084Y017996D01*
X012084Y018095D02*
X012184Y018095D01*
X012184Y018194D02*
X012084Y018194D01*
X012084Y018292D02*
X012184Y018292D01*
X012361Y018292D02*
X012414Y018292D01*
X012414Y018391D02*
X012363Y018391D01*
X012624Y018686D02*
X012644Y018686D01*
X012644Y018785D02*
X012624Y018785D01*
X012624Y018883D02*
X012644Y018883D01*
X012644Y018982D02*
X012624Y018982D01*
X012601Y019080D02*
X012667Y019080D01*
X012766Y019179D02*
X012502Y019179D01*
X012404Y019278D02*
X012864Y019278D01*
X012883Y018292D02*
X012907Y018292D01*
X013350Y017405D02*
X013414Y017405D01*
X013920Y016617D02*
X014323Y016617D01*
X014431Y016518D02*
X013986Y016518D01*
X014022Y016420D02*
X019324Y016420D01*
X019324Y016518D02*
X014837Y016518D01*
X014946Y016617D02*
X019324Y016617D01*
X019324Y016715D02*
X014997Y016715D01*
X015022Y016814D02*
X019324Y016814D01*
X019324Y016913D02*
X015022Y016913D01*
X014989Y017011D02*
X019324Y017011D01*
X019324Y017110D02*
X014928Y017110D01*
X014855Y017208D02*
X019324Y017208D01*
X019324Y017307D02*
X014854Y017307D01*
X014854Y017405D02*
X014919Y017405D01*
X015084Y017405D02*
X015184Y017405D01*
X015184Y017504D02*
X015084Y017504D01*
X015084Y017602D02*
X015184Y017602D01*
X015184Y017701D02*
X015084Y017701D01*
X015084Y017799D02*
X015184Y017799D01*
X015448Y017504D02*
X019324Y017504D01*
X019324Y017602D02*
X015547Y017602D01*
X015604Y017701D02*
X019324Y017701D01*
X019324Y017799D02*
X019023Y017799D01*
X019020Y017797D02*
X019172Y017948D01*
X019254Y018147D01*
X019254Y018362D01*
X019172Y018560D01*
X019020Y018712D01*
X018822Y018794D01*
X018607Y018794D01*
X018408Y018712D01*
X018256Y018560D01*
X018174Y018362D01*
X018174Y018147D01*
X018256Y017948D01*
X018408Y017797D01*
X018607Y017714D01*
X018822Y017714D01*
X019020Y017797D01*
X019121Y017898D02*
X019324Y017898D01*
X019324Y017996D02*
X019192Y017996D01*
X019233Y018095D02*
X019324Y018095D01*
X019324Y018194D02*
X019254Y018194D01*
X019254Y018292D02*
X019324Y018292D01*
X019324Y018391D02*
X019242Y018391D01*
X019201Y018489D02*
X019324Y018489D01*
X019324Y018588D02*
X019144Y018588D01*
X019046Y018686D02*
X019324Y018686D01*
X019324Y018785D02*
X018844Y018785D01*
X018584Y018785D02*
X016884Y018785D01*
X017086Y018686D02*
X018382Y018686D01*
X018284Y018588D02*
X017184Y018588D01*
X017241Y018489D02*
X018227Y018489D01*
X018186Y018391D02*
X017282Y018391D01*
X017294Y018292D02*
X018174Y018292D01*
X018174Y018194D02*
X017294Y018194D01*
X017273Y018095D02*
X018196Y018095D01*
X018236Y017996D02*
X017232Y017996D01*
X017161Y017898D02*
X018307Y017898D01*
X018405Y017799D02*
X017063Y017799D01*
X016445Y017799D02*
X015604Y017799D01*
X015350Y017405D02*
X019324Y017405D01*
X019324Y016321D02*
X015586Y016321D01*
X015646Y016223D02*
X019324Y016223D01*
X019324Y016124D02*
X017318Y016124D01*
X017826Y016026D02*
X018242Y016026D01*
X018143Y015927D02*
X017925Y015927D01*
X018024Y015829D02*
X018045Y015829D01*
X016994Y015704D02*
X016994Y015331D01*
X017051Y015274D01*
X014723Y015274D01*
X014722Y015278D01*
X014722Y015382D01*
X014663Y015524D01*
X014640Y015548D01*
X015547Y015548D01*
X015646Y015647D01*
X015646Y015704D01*
X016994Y015704D01*
X016994Y015631D02*
X015630Y015631D01*
X015626Y014745D02*
X016994Y014745D01*
X016994Y015336D02*
X014722Y015336D01*
X014700Y015434D02*
X016994Y015434D01*
X016994Y015533D02*
X014654Y015533D01*
X014322Y016223D02*
X014000Y016223D01*
X014022Y016321D02*
X014383Y016321D01*
X013983Y015139D02*
X013981Y015139D01*
X013981Y015040D02*
X014049Y015040D01*
X013981Y014843D02*
X014342Y014843D01*
X014342Y014745D02*
X013981Y014745D01*
X013971Y014646D02*
X014934Y014646D01*
X014934Y014547D02*
X015034Y014547D01*
X015034Y014449D02*
X014934Y014449D01*
X014934Y014350D02*
X015034Y014350D01*
X014874Y014055D02*
X013442Y014055D01*
X013084Y014204D02*
X012789Y014204D01*
X013009Y014333D01*
X013444Y014350D02*
X014358Y014350D01*
X012934Y013454D02*
X015834Y013454D01*
X016434Y014054D01*
X016284Y013554D02*
X017534Y013554D01*
X018034Y013054D02*
X018534Y013554D01*
X018911Y013168D02*
X019324Y013168D01*
X019324Y013266D02*
X019010Y013266D01*
X019074Y013365D02*
X019324Y013365D01*
X019324Y013464D02*
X019074Y013464D01*
X019074Y013562D02*
X019324Y013562D01*
X019324Y013661D02*
X019074Y013661D01*
X019074Y013759D02*
X019324Y013759D01*
X019324Y013858D02*
X018994Y013858D01*
X018896Y013956D02*
X019324Y013956D01*
X019324Y014055D02*
X018798Y014055D01*
X018897Y014153D02*
X019324Y014153D01*
X019324Y014252D02*
X018995Y014252D01*
X019074Y014350D02*
X019324Y014350D01*
X019324Y014449D02*
X019074Y014449D01*
X019074Y014547D02*
X019324Y014547D01*
X019324Y014646D02*
X019074Y014646D01*
X019074Y014745D02*
X019324Y014745D01*
X019324Y014843D02*
X019009Y014843D01*
X018813Y013069D02*
X019324Y013069D01*
X019324Y012971D02*
X018881Y012971D01*
X018980Y012872D02*
X019324Y012872D01*
X019324Y012774D02*
X019074Y012774D01*
X019074Y012675D02*
X019324Y012675D01*
X019324Y012577D02*
X019074Y012577D01*
X019074Y012478D02*
X019324Y012478D01*
X019324Y012380D02*
X019074Y012380D01*
X019024Y012281D02*
X019324Y012281D01*
X019324Y012182D02*
X018926Y012182D01*
X018827Y012084D02*
X019324Y012084D01*
X019324Y011985D02*
X018867Y011985D01*
X018965Y011887D02*
X019324Y011887D01*
X019324Y011788D02*
X019064Y011788D01*
X019074Y011690D02*
X019324Y011690D01*
X019324Y011591D02*
X019074Y011591D01*
X019074Y011493D02*
X019324Y011493D01*
X019324Y011394D02*
X019074Y011394D01*
X019039Y011296D02*
X019324Y011296D01*
X019324Y011197D02*
X018940Y011197D01*
X018842Y011098D02*
X019324Y011098D01*
X019324Y011000D02*
X018852Y011000D01*
X018951Y010901D02*
X019324Y010901D01*
X019324Y010803D02*
X019049Y010803D01*
X019074Y010704D02*
X019324Y010704D01*
X019324Y010606D02*
X019074Y010606D01*
X019074Y010507D02*
X019324Y010507D01*
X019324Y010409D02*
X019074Y010409D01*
X019054Y010310D02*
X019324Y010310D01*
X019324Y010212D02*
X018955Y010212D01*
X018856Y010113D02*
X019324Y010113D01*
X019324Y010014D02*
X018838Y010014D01*
X018936Y009916D02*
X019324Y009916D01*
X019324Y009817D02*
X019035Y009817D01*
X019074Y009719D02*
X019324Y009719D01*
X019324Y009620D02*
X019074Y009620D01*
X019074Y009522D02*
X019324Y009522D01*
X019324Y009423D02*
X019074Y009423D01*
X019068Y009325D02*
X019324Y009325D01*
X019324Y009226D02*
X018970Y009226D01*
X019022Y009128D02*
X019324Y009128D01*
X019324Y009029D02*
X019120Y009029D01*
X019219Y008931D02*
X019324Y008931D01*
X019324Y008832D02*
X019254Y008832D01*
X019254Y008733D02*
X019324Y008733D01*
X019324Y008635D02*
X019254Y008635D01*
X019254Y008536D02*
X019324Y008536D01*
X019324Y008438D02*
X019254Y008438D01*
X019254Y008339D02*
X019324Y008339D01*
X019324Y008241D02*
X019254Y008241D01*
X019254Y008142D02*
X019324Y008142D01*
X019324Y008044D02*
X019254Y008044D01*
X019254Y007945D02*
X019324Y007945D01*
X019324Y007847D02*
X019254Y007847D01*
X019254Y007748D02*
X019324Y007748D01*
X019324Y007649D02*
X019254Y007649D01*
X019254Y007551D02*
X019324Y007551D01*
X019324Y007452D02*
X019254Y007452D01*
X019254Y007354D02*
X019324Y007354D01*
X019324Y007255D02*
X019254Y007255D01*
X019254Y007157D02*
X019324Y007157D01*
X019324Y007058D02*
X019254Y007058D01*
X019254Y006960D02*
X019324Y006960D01*
X019324Y006861D02*
X019254Y006861D01*
X019254Y006763D02*
X019324Y006763D01*
X019324Y006664D02*
X019254Y006664D01*
X019254Y006565D02*
X019324Y006565D01*
X019324Y006467D02*
X019254Y006467D01*
X019254Y006368D02*
X019324Y006368D01*
X019324Y006270D02*
X019254Y006270D01*
X019254Y006171D02*
X019324Y006171D01*
X019324Y006073D02*
X019254Y006073D01*
X019254Y005974D02*
X019324Y005974D01*
X019324Y005876D02*
X019254Y005876D01*
X019254Y005777D02*
X019324Y005777D01*
X019324Y005679D02*
X019254Y005679D01*
X019254Y005580D02*
X019324Y005580D01*
X019324Y005481D02*
X019254Y005481D01*
X019254Y005383D02*
X019324Y005383D01*
X019324Y005284D02*
X019254Y005284D01*
X019254Y005186D02*
X019324Y005186D01*
X019324Y005087D02*
X019254Y005087D01*
X019254Y004989D02*
X019324Y004989D01*
X019324Y004890D02*
X019254Y004890D01*
X019254Y004792D02*
X019324Y004792D01*
X019324Y004693D02*
X019254Y004693D01*
X019254Y004595D02*
X019324Y004595D01*
X019324Y004496D02*
X019254Y004496D01*
X019254Y004398D02*
X019324Y004398D01*
X019324Y004299D02*
X019254Y004299D01*
X019254Y004200D02*
X019324Y004200D01*
X019324Y004102D02*
X019254Y004102D01*
X019254Y004003D02*
X019324Y004003D01*
X019324Y003905D02*
X019254Y003905D01*
X019254Y003806D02*
X019324Y003806D01*
X019324Y003708D02*
X019254Y003708D01*
X019254Y003609D02*
X019324Y003609D01*
X019324Y003511D02*
X019254Y003511D01*
X019254Y003412D02*
X019324Y003412D01*
X019324Y003314D02*
X019254Y003314D01*
X019254Y003215D02*
X019324Y003215D01*
X019324Y003116D02*
X019254Y003116D01*
X019254Y003018D02*
X019324Y003018D01*
X019324Y002919D02*
X019254Y002919D01*
X019254Y002821D02*
X019324Y002821D01*
X019324Y002722D02*
X019254Y002722D01*
X019254Y002624D02*
X019324Y002624D01*
X019324Y002525D02*
X019254Y002525D01*
X019254Y002427D02*
X019324Y002427D01*
X019324Y002328D02*
X019254Y002328D01*
X019254Y002230D02*
X019324Y002230D01*
X019324Y002131D02*
X019254Y002131D01*
X019254Y002032D02*
X019324Y002032D01*
X019324Y001934D02*
X019254Y001934D01*
X019254Y001835D02*
X019324Y001835D01*
X019324Y001737D02*
X019254Y001737D01*
X019254Y001638D02*
X019324Y001638D01*
X019324Y001540D02*
X019254Y001540D01*
X019254Y001441D02*
X019324Y001441D01*
X019324Y001343D02*
X019254Y001343D01*
X019254Y001244D02*
X019323Y001244D01*
X019306Y001146D02*
X019254Y001146D01*
X019254Y001047D02*
X019274Y001047D01*
X019034Y001054D02*
X019034Y008804D01*
X018784Y009054D01*
X018034Y009054D01*
X017534Y008554D01*
X016784Y008304D02*
X017534Y007554D01*
X017284Y007054D02*
X018034Y007054D01*
X018534Y007554D01*
X018534Y006554D02*
X018034Y006054D01*
X017284Y006054D01*
X016184Y007154D01*
X016184Y009254D01*
X015084Y010354D01*
X014034Y010354D01*
X013669Y009989D01*
X013653Y009989D01*
X013792Y009850D02*
X014096Y010154D01*
X014984Y010154D01*
X015984Y009154D01*
X015984Y007054D01*
X017484Y005554D01*
X017784Y005554D01*
X018034Y005304D01*
X018034Y003804D01*
X018534Y003304D01*
X018534Y002554D01*
X018754Y003094D02*
X018754Y003395D01*
X018625Y003524D01*
X018484Y003665D01*
X018484Y004004D01*
X018584Y004004D01*
X018584Y003584D01*
X018729Y003584D01*
X018814Y003670D01*
X018814Y003094D01*
X018754Y003094D01*
X018754Y003116D02*
X018814Y003116D01*
X018814Y003215D02*
X018754Y003215D01*
X018754Y003314D02*
X018814Y003314D01*
X018814Y003412D02*
X018737Y003412D01*
X018814Y003511D02*
X018639Y003511D01*
X018584Y003609D02*
X018540Y003609D01*
X018584Y003708D02*
X018484Y003708D01*
X018484Y003806D02*
X018584Y003806D01*
X018584Y003905D02*
X018484Y003905D01*
X018484Y004003D02*
X018584Y004003D01*
X018584Y004104D02*
X018484Y004104D01*
X018484Y004524D01*
X018339Y004524D01*
X018254Y004439D01*
X018254Y004677D01*
X018288Y004652D01*
X018354Y004619D01*
X018424Y004596D01*
X018484Y004586D01*
X018484Y005004D01*
X018584Y005004D01*
X018584Y004586D01*
X018644Y004596D01*
X018715Y004619D01*
X018780Y004652D01*
X018814Y004677D01*
X018814Y004439D01*
X018729Y004524D01*
X018584Y004524D01*
X018584Y004104D01*
X018584Y004200D02*
X018484Y004200D01*
X018484Y004299D02*
X018584Y004299D01*
X018584Y004398D02*
X018484Y004398D01*
X018484Y004496D02*
X018584Y004496D01*
X018584Y004595D02*
X018484Y004595D01*
X018432Y004595D02*
X018254Y004595D01*
X018254Y004496D02*
X018311Y004496D01*
X018484Y004693D02*
X018584Y004693D01*
X018584Y004792D02*
X018484Y004792D01*
X018484Y004890D02*
X018584Y004890D01*
X018584Y004989D02*
X018484Y004989D01*
X018484Y005104D02*
X018484Y005522D01*
X018424Y005513D01*
X018354Y005490D01*
X018288Y005456D01*
X018233Y005416D01*
X018125Y005524D01*
X017875Y005774D01*
X017693Y005774D01*
X017575Y005774D01*
X017515Y005834D01*
X017943Y005834D01*
X018125Y005834D01*
X018308Y006017D01*
X018311Y006014D01*
X018758Y006014D01*
X018814Y006071D01*
X018814Y005432D01*
X018780Y005456D01*
X018715Y005490D01*
X018644Y005513D01*
X018584Y005522D01*
X018584Y005104D01*
X018484Y005104D01*
X018484Y005186D02*
X018584Y005186D01*
X018584Y005284D02*
X018484Y005284D01*
X018484Y005383D02*
X018584Y005383D01*
X018584Y005481D02*
X018484Y005481D01*
X018337Y005481D02*
X018168Y005481D01*
X018070Y005580D02*
X018814Y005580D01*
X018814Y005481D02*
X018731Y005481D01*
X018814Y005679D02*
X017971Y005679D01*
X018167Y005876D02*
X018814Y005876D01*
X018814Y005974D02*
X018265Y005974D01*
X018814Y005777D02*
X017572Y005777D01*
X017534Y005154D02*
X017534Y005054D01*
X017534Y005154D02*
X016784Y005904D01*
X016229Y005904D01*
X016009Y005776D01*
X015934Y005904D01*
X016009Y006033D01*
X016229Y005904D01*
X015934Y005904D01*
X015890Y005442D02*
X015834Y005304D01*
X015926Y005188D01*
X016126Y005347D01*
X015890Y005442D01*
X015834Y005304D02*
X016126Y005347D01*
X016284Y005554D01*
X016784Y005554D01*
X017034Y005304D01*
X017034Y004554D01*
X017534Y004054D01*
X017034Y003554D02*
X017534Y003054D01*
X017534Y002554D01*
X017034Y002804D02*
X017034Y002054D01*
X017534Y001554D01*
X017329Y001054D02*
X017109Y001183D01*
X017034Y001054D01*
X017109Y000926D01*
X017329Y001054D01*
X019034Y001054D01*
X017329Y001054D02*
X017034Y001054D01*
X016658Y000949D02*
X001123Y000949D01*
X000998Y001047D02*
X001413Y001047D01*
X001484Y001047D02*
X001584Y001047D01*
X001655Y001047D02*
X002348Y001047D01*
X002179Y001146D02*
X001856Y001146D01*
X001952Y001244D02*
X002081Y001244D01*
X002037Y001343D02*
X002010Y001343D01*
X001584Y001343D02*
X001484Y001343D01*
X001484Y001441D02*
X001584Y001441D01*
X001484Y001540D02*
X000755Y001540D01*
X000747Y001638D02*
X001021Y001638D01*
X001047Y001737D02*
X000744Y001737D01*
X000744Y001835D02*
X001096Y001835D01*
X001178Y001934D02*
X000744Y001934D01*
X000744Y002032D02*
X001327Y002032D01*
X001232Y002131D02*
X000744Y002131D01*
X000744Y002230D02*
X001127Y002230D01*
X001066Y002328D02*
X000744Y002328D01*
X000744Y002427D02*
X001029Y002427D01*
X001019Y002624D02*
X000744Y002624D01*
X000744Y002722D02*
X001042Y002722D01*
X001086Y002821D02*
X000744Y002821D01*
X000744Y002919D02*
X001164Y002919D01*
X001299Y003018D02*
X000744Y003018D01*
X000744Y003116D02*
X004635Y003116D01*
X004734Y003215D02*
X000744Y003215D01*
X000744Y003314D02*
X004832Y003314D01*
X004931Y003412D02*
X000744Y003412D01*
X000744Y003511D02*
X005029Y003511D01*
X005128Y003609D02*
X000744Y003609D01*
X000744Y003708D02*
X005226Y003708D01*
X005313Y003806D02*
X000744Y003806D01*
X000744Y003905D02*
X005215Y003905D01*
X005116Y004003D02*
X000744Y004003D01*
X000744Y004102D02*
X001210Y004102D01*
X001246Y004066D02*
X001823Y004066D01*
X001922Y004166D01*
X001922Y004223D01*
X001944Y004234D01*
X001963Y004234D01*
X001963Y004187D01*
X002063Y004087D01*
X002636Y004087D01*
X002698Y004149D01*
X002710Y004137D01*
X002744Y004118D01*
X002783Y004107D01*
X002970Y004107D01*
X002970Y004406D01*
X003067Y004406D01*
X003067Y004107D01*
X003255Y004107D01*
X003293Y004118D01*
X003327Y004137D01*
X003355Y004165D01*
X003375Y004200D01*
X003385Y004238D01*
X003385Y004406D01*
X003067Y004406D01*
X003067Y004503D01*
X002970Y004503D01*
X002970Y004801D01*
X002783Y004801D01*
X002744Y004791D01*
X002710Y004771D01*
X002698Y004759D01*
X002636Y004821D01*
X002063Y004821D01*
X001963Y004722D01*
X001963Y004674D01*
X001944Y004674D01*
X001922Y004686D01*
X001922Y004743D01*
X001823Y004842D01*
X001246Y004842D01*
X001146Y004743D01*
X001146Y004166D01*
X001246Y004066D01*
X001146Y004200D02*
X000744Y004200D01*
X000744Y004299D02*
X001146Y004299D01*
X001146Y004398D02*
X000744Y004398D01*
X000744Y004496D02*
X001146Y004496D01*
X001146Y004595D02*
X000744Y004595D01*
X000744Y004693D02*
X001146Y004693D01*
X001195Y004792D02*
X000744Y004792D01*
X000744Y004890D02*
X002098Y004890D01*
X002061Y004989D02*
X000744Y004989D01*
X000744Y005087D02*
X002061Y005087D01*
X002061Y005186D02*
X000744Y005186D01*
X000744Y005284D02*
X002061Y005284D01*
X002062Y005383D02*
X000744Y005383D01*
X000744Y005481D02*
X002058Y005481D01*
X002016Y005580D02*
X000744Y005580D01*
X000744Y005679D02*
X001996Y005679D01*
X001996Y005777D02*
X000744Y005777D01*
X000744Y005876D02*
X002035Y005876D01*
X002105Y005974D02*
X000744Y005974D01*
X000744Y006073D02*
X001280Y006073D01*
X001182Y006171D02*
X000744Y006171D01*
X000744Y006270D02*
X001083Y006270D01*
X001014Y006368D02*
X000744Y006368D01*
X000744Y006467D02*
X001014Y006467D01*
X001014Y006664D02*
X000744Y006664D01*
X000744Y006565D02*
X001484Y006565D01*
X001534Y006554D02*
X002034Y006054D01*
X002734Y006054D01*
X002979Y005809D01*
X002979Y005154D01*
X003019Y005115D01*
X003019Y004454D01*
X003067Y004496D02*
X004652Y004496D01*
X004567Y004595D02*
X003385Y004595D01*
X003385Y004671D02*
X003375Y004709D01*
X003355Y004743D01*
X003327Y004771D01*
X003293Y004791D01*
X003255Y004801D01*
X003067Y004801D01*
X003067Y004503D01*
X003385Y004503D01*
X003385Y004671D01*
X003379Y004693D02*
X004560Y004693D01*
X004503Y004792D02*
X004630Y004792D01*
X004612Y004890D02*
X004817Y004890D01*
X004827Y004989D02*
X004581Y004989D01*
X004620Y005087D02*
X004483Y005087D01*
X004458Y005186D02*
X004521Y005186D01*
X004421Y005191D02*
X004421Y005218D01*
X004998Y004641D01*
X004975Y004595D02*
X004883Y004595D01*
X004877Y004693D02*
X004981Y004693D01*
X005014Y004693D02*
X005118Y004693D01*
X005080Y004792D02*
X005217Y004792D01*
X005178Y004890D02*
X005873Y004890D01*
X005775Y004792D02*
X005337Y004792D01*
X005425Y004693D02*
X005676Y004693D01*
X005578Y004595D02*
X005563Y004595D01*
X005471Y004177D02*
X006591Y005297D01*
X006591Y005711D01*
X007807Y006927D01*
X007946Y006788D02*
X009215Y008057D01*
X009293Y008300D01*
X009434Y008254D01*
X009465Y008109D01*
X009215Y008057D01*
X009413Y008254D01*
X009434Y008254D01*
X009822Y008241D02*
X010987Y008241D01*
X010993Y008234D02*
X011175Y008234D01*
X012148Y008234D01*
X012179Y008234D01*
X012241Y008199D01*
X012314Y008125D01*
X012457Y008066D01*
X012611Y008066D01*
X012754Y008125D01*
X012863Y008234D01*
X012922Y008377D01*
X012922Y008532D01*
X012863Y008674D01*
X012754Y008783D01*
X012611Y008842D01*
X012457Y008842D01*
X012314Y008783D01*
X012241Y008710D01*
X012180Y008674D01*
X012148Y008674D01*
X011175Y008674D01*
X010025Y009824D01*
X009843Y009824D01*
X009075Y009824D01*
X008980Y009824D01*
X009022Y009927D01*
X009022Y010082D01*
X008963Y010224D01*
X008908Y010279D01*
X009013Y010384D01*
X009072Y010527D01*
X009072Y010682D01*
X009013Y010824D01*
X008904Y010933D01*
X008761Y010992D01*
X008607Y010992D01*
X008464Y010933D01*
X008391Y010860D01*
X008372Y010849D01*
X008152Y011069D01*
X008234Y011151D01*
X008316Y011232D01*
X008513Y011429D01*
X008652Y011569D01*
X008676Y011592D01*
X008696Y011522D01*
X008696Y011427D01*
X008755Y011284D01*
X008864Y011175D01*
X009007Y011116D01*
X009161Y011116D01*
X009304Y011175D01*
X009413Y011284D01*
X009472Y011427D01*
X009472Y011582D01*
X009413Y011724D01*
X009304Y011833D01*
X009161Y011892D01*
X009048Y011892D01*
X008990Y011906D01*
X009070Y011986D01*
X009209Y012125D01*
X009348Y012264D01*
X009487Y012404D01*
X009512Y012428D01*
X009764Y012175D01*
X009764Y011845D01*
X009764Y011663D01*
X010101Y011326D01*
X010099Y011315D01*
X010114Y011289D01*
X010114Y011259D01*
X010115Y011257D01*
X010115Y011256D01*
X010137Y011235D01*
X010146Y011201D01*
X010146Y011077D01*
X010205Y010934D01*
X010314Y010825D01*
X010457Y010766D01*
X010611Y010766D01*
X010754Y010825D01*
X010863Y010934D01*
X010922Y011077D01*
X010922Y011232D01*
X010863Y011374D01*
X010754Y011483D01*
X010611Y011542D01*
X010507Y011542D01*
X010425Y011624D01*
X010204Y011845D01*
X010204Y012358D01*
X010075Y012487D01*
X009823Y012739D01*
X009905Y012821D01*
X009905Y012962D01*
X009654Y013213D01*
X009654Y013413D01*
X010375Y014134D01*
X010504Y014263D01*
X010504Y014913D01*
X010764Y015173D01*
X010764Y014100D01*
X010661Y014142D01*
X010507Y014142D01*
X010364Y014083D01*
X010255Y013974D01*
X010196Y013832D01*
X010196Y013677D01*
X010255Y013534D01*
X010364Y013425D01*
X010383Y013418D01*
X010401Y013395D01*
X010374Y013172D01*
X010163Y012962D01*
X010163Y012821D01*
X010360Y012624D01*
X010389Y012624D01*
X010415Y012598D01*
X010442Y012624D01*
X010415Y012598D01*
X010442Y012571D01*
X010442Y012543D01*
X010639Y012346D01*
X010778Y012207D01*
X010917Y012067D01*
X011056Y011928D01*
X011196Y011789D01*
X011335Y011650D01*
X011474Y011511D01*
X011613Y011372D01*
X011752Y011232D01*
X011752Y011232D01*
X011834Y011151D01*
X012031Y010954D01*
X012112Y010873D01*
X012112Y010873D01*
X012194Y010790D01*
X011993Y010589D01*
X011864Y010460D01*
X011864Y009859D01*
X011828Y009797D01*
X011755Y009724D01*
X011696Y009582D01*
X011696Y009427D01*
X011755Y009284D01*
X011864Y009175D01*
X012007Y009116D01*
X012161Y009116D01*
X012304Y009175D01*
X012413Y009284D01*
X012425Y009314D01*
X012514Y009225D01*
X012657Y009166D01*
X012811Y009166D01*
X012954Y009225D01*
X013063Y009334D01*
X013122Y009477D01*
X013122Y009632D01*
X013063Y009774D01*
X012954Y009883D01*
X012811Y009942D01*
X012708Y009942D01*
X012639Y009961D01*
X012616Y009983D01*
X012554Y010045D01*
X012554Y010250D01*
X012645Y010340D01*
X012669Y010316D01*
X012669Y010316D01*
X012866Y010119D01*
X013005Y009980D01*
X013144Y009840D01*
X013284Y009701D01*
X013423Y009562D01*
X013562Y009423D01*
X013701Y009284D01*
X013842Y009284D01*
X014293Y009734D01*
X014793Y009734D01*
X015564Y008963D01*
X015564Y007009D01*
X015528Y006947D01*
X015455Y006874D01*
X015442Y006842D01*
X014124Y008160D01*
X014134Y008170D01*
X014162Y008170D01*
X014359Y008367D01*
X014359Y008418D01*
X014389Y008448D01*
X014458Y008466D01*
X014561Y008466D01*
X014704Y008525D01*
X014813Y008634D01*
X014872Y008777D01*
X014872Y008932D01*
X014813Y009074D01*
X014704Y009183D01*
X014561Y009242D01*
X014407Y009242D01*
X014264Y009183D01*
X014155Y009074D01*
X014096Y008932D01*
X014096Y008828D01*
X014093Y008817D01*
X014049Y008817D01*
X013842Y009025D01*
X013701Y009025D01*
X013504Y008828D01*
X013504Y008800D01*
X013478Y008773D01*
X013504Y008747D01*
X013504Y008747D01*
X013477Y008773D01*
X013451Y008747D01*
X013423Y008747D01*
X013226Y008550D01*
X013087Y008410D01*
X012947Y008271D01*
X012808Y008132D01*
X012669Y007993D01*
X012530Y007854D01*
X012391Y007714D01*
X012251Y007575D01*
X012112Y007436D01*
X012031Y007355D01*
X012031Y007355D01*
X011938Y007262D01*
X011840Y007359D01*
X011822Y007428D01*
X011822Y007532D01*
X011763Y007674D01*
X011654Y007783D01*
X011511Y007842D01*
X011357Y007842D01*
X011214Y007783D01*
X011105Y007674D01*
X011046Y007532D01*
X011046Y007377D01*
X011105Y007234D01*
X011214Y007125D01*
X011357Y007066D01*
X011461Y007066D01*
X011529Y007048D01*
X011627Y006951D01*
X011555Y006879D01*
X011416Y006740D01*
X011277Y006601D01*
X011138Y006462D01*
X010999Y006322D01*
X010859Y006183D01*
X010720Y006044D01*
X010688Y006012D01*
X010654Y006045D01*
X010654Y006315D01*
X010658Y006316D01*
X010761Y006316D01*
X010904Y006375D01*
X011013Y006484D01*
X011072Y006627D01*
X011072Y006782D01*
X011013Y006924D01*
X010904Y007033D01*
X010761Y007092D01*
X010607Y007092D01*
X010464Y007033D01*
X010391Y006960D01*
X010330Y006924D01*
X010143Y006924D01*
X010014Y006795D01*
X009822Y006603D01*
X009822Y006682D01*
X009763Y006824D01*
X009654Y006933D01*
X009511Y006992D01*
X009357Y006992D01*
X009214Y006933D01*
X009105Y006824D01*
X009046Y006682D01*
X009046Y006529D01*
X009046Y006528D01*
X008941Y006423D01*
X008930Y006433D01*
X008930Y006462D01*
X008733Y006659D01*
X008594Y006798D01*
X008455Y006937D01*
X008431Y006961D01*
X009306Y007837D01*
X009324Y007855D01*
X009379Y007866D01*
X009511Y007866D01*
X009654Y007925D01*
X009763Y008034D01*
X009822Y008177D01*
X009822Y008332D01*
X009763Y008474D01*
X009654Y008583D01*
X009511Y008642D01*
X009357Y008642D01*
X009214Y008583D01*
X009105Y008474D01*
X009046Y008332D01*
X009046Y008251D01*
X009022Y008174D01*
X008995Y008148D01*
X008385Y007538D01*
X008422Y007627D01*
X008422Y007782D01*
X008363Y007924D01*
X008254Y008033D01*
X008111Y008092D01*
X007957Y008092D01*
X007814Y008033D01*
X007705Y007924D01*
X007646Y007782D01*
X007646Y007746D01*
X007481Y007911D01*
X007341Y008051D01*
X007317Y008075D01*
X008127Y008884D01*
X008879Y008884D01*
X008941Y008848D01*
X009014Y008775D01*
X009157Y008716D01*
X009311Y008716D01*
X009454Y008775D01*
X009563Y008884D01*
X009622Y009027D01*
X009622Y009182D01*
X009563Y009324D01*
X009503Y009384D01*
X009843Y009384D01*
X010993Y008234D01*
X010888Y008339D02*
X009819Y008339D01*
X009778Y008438D02*
X010790Y008438D01*
X010691Y008536D02*
X009701Y008536D01*
X009530Y008635D02*
X010592Y008635D01*
X010494Y008733D02*
X009353Y008733D01*
X009339Y008635D02*
X007877Y008635D01*
X007976Y008733D02*
X009115Y008733D01*
X008958Y008832D02*
X008074Y008832D01*
X008035Y009104D02*
X008939Y009104D01*
X009159Y009233D01*
X009234Y009104D01*
X009159Y008976D01*
X008939Y009104D01*
X009234Y009104D01*
X009511Y008832D02*
X010395Y008832D01*
X010297Y008931D02*
X009582Y008931D01*
X009622Y009029D02*
X010198Y009029D01*
X010100Y009128D02*
X009622Y009128D01*
X009604Y009226D02*
X010001Y009226D01*
X009903Y009325D02*
X009563Y009325D01*
X009934Y009604D02*
X008984Y009604D01*
X008734Y009354D01*
X007684Y009354D01*
X007284Y009754D01*
X007284Y010234D01*
X006972Y010546D01*
X006833Y010407D02*
X006385Y010854D01*
X004834Y010854D01*
X003434Y009454D01*
X003434Y008704D01*
X002784Y008054D01*
X002034Y008054D01*
X001534Y007554D01*
X001168Y007157D02*
X000744Y007157D01*
X000744Y007255D02*
X001070Y007255D01*
X000994Y007354D02*
X000744Y007354D01*
X000744Y007452D02*
X000994Y007452D01*
X000994Y007551D02*
X000744Y007551D01*
X000744Y007649D02*
X000994Y007649D01*
X000994Y007748D02*
X000744Y007748D01*
X000744Y007847D02*
X001063Y007847D01*
X001161Y007945D02*
X000744Y007945D01*
X000744Y008044D02*
X001260Y008044D01*
X001183Y008142D02*
X000744Y008142D01*
X000744Y008241D02*
X001084Y008241D01*
X000994Y008339D02*
X000744Y008339D01*
X000744Y008438D02*
X000994Y008438D01*
X000994Y008536D02*
X000744Y008536D01*
X000744Y008635D02*
X000994Y008635D01*
X000994Y008733D02*
X000744Y008733D01*
X000744Y008832D02*
X001048Y008832D01*
X001147Y008931D02*
X000744Y008931D01*
X000744Y009029D02*
X001245Y009029D01*
X001197Y009128D02*
X000744Y009128D01*
X000744Y009226D02*
X001099Y009226D01*
X001000Y009325D02*
X000744Y009325D01*
X000744Y009423D02*
X000994Y009423D01*
X000994Y009522D02*
X000744Y009522D01*
X000744Y009620D02*
X000994Y009620D01*
X000994Y009719D02*
X000744Y009719D01*
X000744Y009817D02*
X001034Y009817D01*
X001132Y009916D02*
X000744Y009916D01*
X000744Y010014D02*
X001231Y010014D01*
X001212Y010113D02*
X000744Y010113D01*
X000744Y010212D02*
X001113Y010212D01*
X001015Y010310D02*
X000744Y010310D01*
X000744Y010409D02*
X000994Y010409D01*
X000994Y010507D02*
X000744Y010507D01*
X000744Y010606D02*
X000994Y010606D01*
X000994Y010704D02*
X000744Y010704D01*
X000744Y010803D02*
X001019Y010803D01*
X001118Y010901D02*
X000744Y010901D01*
X000744Y011000D02*
X001216Y011000D01*
X001226Y011098D02*
X000744Y011098D01*
X000744Y011197D02*
X001128Y011197D01*
X001029Y011296D02*
X000744Y011296D01*
X000744Y011394D02*
X000994Y011394D01*
X000994Y011493D02*
X000744Y011493D01*
X000744Y011591D02*
X000994Y011591D01*
X000994Y011690D02*
X000744Y011690D01*
X000744Y011788D02*
X001004Y011788D01*
X001103Y011887D02*
X000744Y011887D01*
X000744Y011985D02*
X001202Y011985D01*
X001241Y012084D02*
X000744Y012084D01*
X000744Y012182D02*
X001142Y012182D01*
X001044Y012281D02*
X000744Y012281D01*
X000744Y012380D02*
X000994Y012380D01*
X000994Y012478D02*
X000744Y012478D01*
X000744Y012577D02*
X000994Y012577D01*
X000994Y012675D02*
X000744Y012675D01*
X000744Y012774D02*
X000994Y012774D01*
X001088Y012872D02*
X000744Y012872D01*
X000744Y012971D02*
X001187Y012971D01*
X001284Y013069D02*
X000744Y013069D01*
X000744Y013168D02*
X001185Y013168D01*
X001087Y013266D02*
X000744Y013266D01*
X000744Y013365D02*
X001014Y013365D01*
X001014Y013661D02*
X000744Y013661D01*
X000744Y013759D02*
X001014Y013759D01*
X001102Y013858D02*
X000744Y013858D01*
X000744Y013956D02*
X001201Y013956D01*
X001270Y014055D02*
X000744Y014055D01*
X000744Y014153D02*
X001172Y014153D01*
X001073Y014252D02*
X000744Y014252D01*
X000744Y014350D02*
X000994Y014350D01*
X000994Y014449D02*
X000744Y014449D01*
X000744Y014547D02*
X000994Y014547D01*
X000994Y014646D02*
X000744Y014646D01*
X000744Y014745D02*
X000994Y014745D01*
X001059Y014843D02*
X000744Y014843D01*
X000744Y014942D02*
X001158Y014942D01*
X001256Y015040D02*
X000744Y015040D01*
X000744Y015139D02*
X001214Y015139D01*
X001116Y015237D02*
X000744Y015237D01*
X000744Y015336D02*
X001017Y015336D01*
X001014Y015434D02*
X000744Y015434D01*
X000744Y015533D02*
X001484Y015533D01*
X001484Y015631D02*
X001584Y015631D01*
X001584Y015730D02*
X001484Y015730D01*
X001484Y015829D02*
X001584Y015829D01*
X001584Y015927D02*
X001484Y015927D01*
X001484Y016026D02*
X001584Y016026D01*
X001798Y016026D02*
X002242Y016026D01*
X002143Y015927D02*
X001897Y015927D01*
X001995Y015829D02*
X002045Y015829D01*
X002027Y016308D02*
X002126Y016408D01*
X002126Y017533D01*
X002027Y017632D01*
X001098Y017632D01*
X000999Y017533D01*
X000999Y016408D01*
X001098Y016308D01*
X002027Y016308D01*
X002040Y016321D02*
X002837Y016321D01*
X002704Y016420D02*
X002704Y016420D01*
X002704Y016518D02*
X002704Y016518D01*
X002704Y016617D02*
X002704Y016617D01*
X002704Y016715D02*
X002704Y016715D01*
X002704Y016814D02*
X002704Y016814D01*
X002704Y016913D02*
X002704Y016913D01*
X002704Y017011D02*
X002704Y017011D01*
X002704Y017110D02*
X002704Y017110D01*
X002704Y017208D02*
X002704Y017208D01*
X002704Y017307D02*
X002704Y017307D01*
X002704Y017405D02*
X002704Y017405D01*
X002704Y017504D02*
X002704Y017504D01*
X002704Y017602D02*
X002704Y017602D01*
X002665Y017660D02*
X002762Y017758D01*
X002815Y017885D01*
X002815Y018023D01*
X002762Y018151D01*
X002665Y018249D01*
X002537Y018301D01*
X002399Y018301D01*
X002271Y018249D01*
X002174Y018151D01*
X002121Y018023D01*
X002121Y017885D01*
X002174Y017758D01*
X002271Y017660D01*
X002399Y017607D01*
X002537Y017607D01*
X002665Y017660D01*
X002706Y017701D02*
X003114Y017701D01*
X003114Y017799D02*
X002780Y017799D01*
X002815Y017898D02*
X003114Y017898D01*
X003114Y017996D02*
X002815Y017996D01*
X002786Y018095D02*
X003114Y018095D01*
X003114Y018194D02*
X002720Y018194D01*
X002560Y018292D02*
X003114Y018292D01*
X003144Y018391D02*
X000744Y018391D01*
X000744Y018489D02*
X001082Y018489D01*
X001098Y018473D02*
X000999Y018573D01*
X000999Y019698D01*
X001098Y019798D01*
X002027Y019798D01*
X002126Y019698D01*
X002126Y018573D01*
X002027Y018473D01*
X001098Y018473D01*
X000999Y018588D02*
X000744Y018588D01*
X000744Y018686D02*
X000999Y018686D01*
X000999Y018785D02*
X000744Y018785D01*
X000744Y018883D02*
X000999Y018883D01*
X000999Y018982D02*
X000744Y018982D01*
X000744Y019080D02*
X000999Y019080D01*
X000999Y019179D02*
X000744Y019179D01*
X000744Y019278D02*
X000999Y019278D01*
X000999Y019376D02*
X000746Y019376D01*
X000766Y019475D02*
X000999Y019475D01*
X000999Y019573D02*
X000799Y019573D01*
X000870Y019672D02*
X000999Y019672D01*
X000988Y019770D02*
X001071Y019770D01*
X002054Y019770D02*
X004614Y019770D01*
X004542Y019672D02*
X002126Y019672D01*
X002126Y019573D02*
X004542Y019573D01*
X004542Y019475D02*
X002126Y019475D01*
X002126Y019376D02*
X004542Y019376D01*
X004542Y019278D02*
X002126Y019278D01*
X002126Y019179D02*
X004542Y019179D01*
X004542Y019080D02*
X002126Y019080D01*
X002126Y018982D02*
X004542Y018982D01*
X004542Y018883D02*
X002126Y018883D01*
X002126Y018785D02*
X004542Y018785D01*
X004534Y018554D02*
X003684Y018554D01*
X003647Y018552D01*
X003611Y018546D01*
X003576Y018537D01*
X003542Y018524D01*
X003509Y018507D01*
X003478Y018487D01*
X003450Y018464D01*
X003424Y018438D01*
X003401Y018410D01*
X003381Y018379D01*
X003364Y018346D01*
X003351Y018312D01*
X003342Y018277D01*
X003336Y018241D01*
X003334Y018204D01*
X003334Y016970D01*
X003649Y016970D02*
X003649Y016339D01*
X003734Y016254D01*
X006284Y016254D01*
X006634Y016594D01*
X006979Y016594D01*
X007024Y016804D02*
X006889Y016804D01*
X006633Y016806D01*
X006634Y016954D01*
X006764Y017027D01*
X006889Y016804D01*
X006834Y016804D01*
X006734Y016904D01*
X006634Y016954D01*
X007209Y017159D02*
X008880Y017159D01*
X009150Y016854D01*
X009184Y016820D01*
X009184Y016554D01*
X009484Y016254D01*
X010284Y016254D01*
X010325Y016296D01*
X010391Y016542D01*
X010534Y016504D01*
X010572Y016361D01*
X010325Y016296D01*
X010534Y016504D01*
X010212Y015830D02*
X010084Y015904D01*
X009956Y015830D01*
X010084Y015609D01*
X010212Y015830D01*
X010084Y015904D02*
X010084Y015609D01*
X010084Y014454D01*
X009034Y013404D01*
X008684Y013404D01*
X007934Y014154D01*
X007465Y013956D02*
X004399Y013956D01*
X003865Y013562D02*
X003074Y013562D01*
X003074Y013464D02*
X003964Y013464D01*
X004062Y013365D02*
X003074Y013365D01*
X003074Y013355D02*
X003074Y013778D01*
X003018Y013834D01*
X003593Y013834D01*
X004253Y013174D01*
X003270Y013174D01*
X003074Y013355D01*
X003170Y013266D02*
X004161Y013266D01*
X004584Y013154D02*
X003684Y014054D01*
X002034Y014054D01*
X001534Y014554D01*
X001910Y014942D02*
X002158Y014942D01*
X002256Y015040D02*
X001812Y015040D01*
X001784Y015068D02*
X002034Y014818D01*
X002271Y015054D01*
X002020Y015305D01*
X001784Y015068D01*
X001854Y015139D02*
X002186Y015139D01*
X002088Y015237D02*
X001952Y015237D01*
X002009Y014843D02*
X002059Y014843D01*
X002534Y014554D02*
X002734Y014354D01*
X003634Y014354D01*
X004734Y013354D01*
X008434Y013354D01*
X008584Y013204D01*
X008784Y013204D01*
X009199Y012790D01*
X009199Y012773D01*
X009060Y012634D02*
X008690Y013004D01*
X008434Y013004D01*
X008284Y013154D01*
X004584Y013154D01*
X003767Y013661D02*
X003074Y013661D01*
X003074Y013759D02*
X003668Y013759D01*
X003184Y012954D02*
X002534Y013554D01*
X002784Y013054D02*
X002034Y013054D01*
X001534Y012554D01*
X002034Y012054D02*
X001534Y011554D01*
X002034Y011054D02*
X001534Y010554D01*
X002034Y010054D02*
X001534Y009554D01*
X002034Y010054D02*
X002784Y010054D01*
X004434Y011704D01*
X007484Y011704D01*
X007807Y011381D01*
X007668Y011242D02*
X008306Y010604D01*
X008389Y010604D01*
X008609Y010733D01*
X008684Y010604D01*
X008609Y010476D01*
X008389Y010604D01*
X008684Y010604D01*
X008939Y010310D02*
X011864Y010310D01*
X011864Y010212D02*
X008968Y010212D01*
X009009Y010113D02*
X011864Y010113D01*
X011864Y010014D02*
X009022Y010014D01*
X009018Y009916D02*
X011864Y009916D01*
X011840Y009817D02*
X010032Y009817D01*
X010131Y009719D02*
X011753Y009719D01*
X011712Y009620D02*
X010229Y009620D01*
X010328Y009522D02*
X011696Y009522D01*
X011698Y009423D02*
X010426Y009423D01*
X010525Y009325D02*
X011738Y009325D01*
X011813Y009226D02*
X010623Y009226D01*
X010722Y009128D02*
X011979Y009128D01*
X012189Y009128D02*
X014209Y009128D01*
X014136Y009029D02*
X010821Y009029D01*
X010919Y008931D02*
X013607Y008931D01*
X013508Y008832D02*
X012637Y008832D01*
X012804Y008733D02*
X013410Y008733D01*
X013504Y008747D02*
X013504Y008747D01*
X013311Y008635D02*
X012879Y008635D01*
X012920Y008536D02*
X013212Y008536D01*
X013114Y008438D02*
X012922Y008438D01*
X012907Y008339D02*
X013015Y008339D01*
X012917Y008241D02*
X012866Y008241D01*
X012818Y008142D02*
X012771Y008142D01*
X012720Y008044D02*
X009767Y008044D01*
X009808Y008142D02*
X012297Y008142D01*
X012459Y008326D02*
X012534Y008454D01*
X012459Y008583D01*
X012239Y008454D01*
X012459Y008326D01*
X012534Y008454D02*
X012239Y008454D01*
X011084Y008454D01*
X009934Y009604D01*
X009064Y010507D02*
X011911Y010507D01*
X011864Y010409D02*
X009023Y010409D01*
X009072Y010606D02*
X012010Y010606D01*
X012108Y010704D02*
X009063Y010704D01*
X009022Y010803D02*
X010369Y010803D01*
X010238Y010901D02*
X008936Y010901D01*
X008843Y011197D02*
X008281Y011197D01*
X008316Y011232D02*
X008316Y011232D01*
X008379Y011296D02*
X008751Y011296D01*
X008710Y011394D02*
X008478Y011394D01*
X008576Y011493D02*
X008696Y011493D01*
X008675Y011591D02*
X008676Y011591D01*
X008871Y011709D02*
X009119Y011649D01*
X009084Y011504D01*
X008941Y011464D01*
X008871Y011709D01*
X008503Y012077D01*
X008364Y011938D02*
X007798Y012504D01*
X003584Y012504D01*
X003134Y012054D01*
X002034Y012054D01*
X002534Y011554D02*
X002784Y011804D01*
X003234Y011804D01*
X003734Y012304D01*
X007534Y012304D01*
X007734Y012304D01*
X008225Y011814D01*
X008225Y011799D01*
X008085Y011660D02*
X007641Y012104D01*
X003834Y012104D01*
X002784Y011054D01*
X002034Y011054D01*
X002534Y010554D02*
X002584Y010554D01*
X003934Y011904D01*
X007563Y011904D01*
X007946Y011521D01*
X008234Y011151D02*
X008234Y011151D01*
X008182Y011098D02*
X010146Y011098D01*
X010146Y011197D02*
X009326Y011197D01*
X009418Y011296D02*
X010110Y011296D01*
X010033Y011394D02*
X009459Y011394D01*
X009472Y011493D02*
X009935Y011493D01*
X009836Y011591D02*
X009468Y011591D01*
X009427Y011690D02*
X009764Y011690D01*
X009764Y011788D02*
X009349Y011788D01*
X009175Y011887D02*
X009764Y011887D01*
X009764Y011985D02*
X009069Y011985D01*
X009167Y012084D02*
X009764Y012084D01*
X009757Y012182D02*
X009266Y012182D01*
X009365Y012281D02*
X009659Y012281D01*
X009560Y012380D02*
X009463Y012380D01*
X009887Y012675D02*
X010310Y012675D01*
X010211Y012774D02*
X009857Y012774D01*
X009905Y012872D02*
X010163Y012872D01*
X010172Y012971D02*
X009896Y012971D01*
X009798Y013069D02*
X010271Y013069D01*
X010369Y013168D02*
X009699Y013168D01*
X009654Y013266D02*
X010385Y013266D01*
X010397Y013365D02*
X009654Y013365D01*
X009704Y013464D02*
X010326Y013464D01*
X010244Y013562D02*
X009803Y013562D01*
X009902Y013661D02*
X010203Y013661D01*
X010196Y013759D02*
X010000Y013759D01*
X010099Y013858D02*
X010207Y013858D01*
X010197Y013956D02*
X010248Y013956D01*
X010296Y014055D02*
X010336Y014055D01*
X010394Y014153D02*
X010764Y014153D01*
X010764Y014252D02*
X010493Y014252D01*
X010504Y014350D02*
X010764Y014350D01*
X010764Y014449D02*
X010504Y014449D01*
X010504Y014547D02*
X010764Y014547D01*
X010764Y014646D02*
X010504Y014646D01*
X010504Y014745D02*
X010764Y014745D01*
X010764Y014843D02*
X010504Y014843D01*
X010533Y014942D02*
X010764Y014942D01*
X010764Y015040D02*
X010631Y015040D01*
X010730Y015139D02*
X010764Y015139D01*
X010984Y015304D02*
X011834Y016154D01*
X011834Y017004D01*
X011634Y017204D01*
X012350Y017405D02*
X012414Y017405D01*
X011907Y018292D02*
X011854Y018292D01*
X011854Y018391D02*
X011905Y018391D01*
X011644Y018686D02*
X011624Y018686D01*
X011624Y018785D02*
X011644Y018785D01*
X011644Y018883D02*
X011624Y018883D01*
X011624Y018982D02*
X011644Y018982D01*
X011667Y019080D02*
X011601Y019080D01*
X011502Y019179D02*
X011766Y019179D01*
X011864Y019278D02*
X011404Y019278D01*
X010905Y018391D02*
X009826Y018391D01*
X009860Y018292D02*
X010692Y018292D01*
X010644Y018194D02*
X009959Y018194D01*
X009043Y019080D02*
X009003Y019080D01*
X008941Y019179D02*
X009095Y019179D01*
X009194Y019278D02*
X008836Y019278D01*
X008584Y019278D02*
X008484Y019278D01*
X008484Y019179D02*
X008584Y019179D01*
X008584Y019080D02*
X008484Y019080D01*
X008484Y018982D02*
X008584Y018982D01*
X008584Y018804D02*
X008584Y018373D01*
X008584Y017904D01*
X008484Y017904D01*
X008484Y018373D01*
X008484Y018804D01*
X008584Y018804D01*
X008584Y018785D02*
X008484Y018785D01*
X008484Y018686D02*
X008584Y018686D01*
X008584Y018588D02*
X008484Y018588D01*
X008484Y018489D02*
X008584Y018489D01*
X008584Y018391D02*
X008484Y018391D01*
X008484Y018292D02*
X008584Y018292D01*
X008584Y018194D02*
X008484Y018194D01*
X008484Y018095D02*
X008584Y018095D01*
X008584Y017996D02*
X008484Y017996D01*
X008066Y019080D02*
X008025Y019080D01*
X007973Y019179D02*
X008127Y019179D01*
X008232Y019278D02*
X007875Y019278D01*
X007686Y019376D02*
X009383Y019376D01*
X007383Y019376D02*
X006907Y019376D01*
X006907Y019278D02*
X007194Y019278D01*
X007095Y019179D02*
X006907Y019179D01*
X006907Y019080D02*
X007043Y019080D01*
X007003Y018982D02*
X006907Y018982D01*
X006904Y018883D02*
X006994Y018883D01*
X006994Y018785D02*
X006950Y018785D01*
X006972Y018686D02*
X007019Y018686D01*
X007060Y018588D02*
X006972Y018588D01*
X006936Y018489D02*
X007136Y018489D01*
X007242Y018391D02*
X006869Y018391D01*
X006724Y018292D02*
X007208Y018292D01*
X007110Y018194D02*
X006756Y018194D01*
X006855Y018095D02*
X007049Y018095D01*
X007009Y017996D02*
X006953Y017996D01*
X006449Y017909D02*
X007209Y017159D01*
X007284Y017354D02*
X009484Y017354D01*
X009819Y017020D01*
X009819Y016854D01*
X008934Y015904D02*
X008534Y016304D01*
X008184Y016304D01*
X007884Y016604D01*
X007884Y016700D01*
X007779Y016804D01*
X007559Y016676D01*
X007484Y016804D01*
X007559Y016933D01*
X007779Y016804D01*
X007484Y016804D01*
X007654Y016420D02*
X007758Y016420D01*
X007856Y016321D02*
X007654Y016321D01*
X007654Y016223D02*
X007955Y016223D01*
X008053Y016124D02*
X007654Y016124D01*
X007654Y016026D02*
X008502Y016026D01*
X008600Y015927D02*
X007707Y015927D01*
X007806Y015829D02*
X008699Y015829D01*
X008571Y015730D02*
X008247Y015730D01*
X008251Y015631D02*
X008567Y015631D01*
X008567Y015533D02*
X008251Y015533D01*
X008934Y015439D02*
X008934Y015904D01*
X007884Y014770D02*
X007884Y014704D01*
X008034Y014704D01*
X007368Y014055D02*
X006325Y014055D01*
X006376Y014153D02*
X007269Y014153D01*
X007171Y014252D02*
X006376Y014252D01*
X006376Y014350D02*
X007072Y014350D01*
X007004Y014449D02*
X005784Y014449D01*
X005784Y014547D02*
X005684Y014547D01*
X005684Y014646D02*
X005784Y014646D01*
X005784Y014745D02*
X005684Y014745D01*
X005684Y014350D02*
X005784Y014350D01*
X005784Y014252D02*
X005684Y014252D01*
X005684Y014153D02*
X005784Y014153D01*
X005784Y014055D02*
X005684Y014055D01*
X005092Y014646D02*
X003074Y014646D01*
X003074Y014745D02*
X003634Y014745D01*
X003583Y014843D02*
X003009Y014843D01*
X002910Y014942D02*
X003583Y014942D01*
X003583Y015139D02*
X002882Y015139D01*
X002812Y015040D02*
X003901Y015040D01*
X003901Y014942D02*
X003998Y014942D01*
X003998Y014843D02*
X003901Y014843D01*
X003901Y014745D02*
X003998Y014745D01*
X004265Y014745D02*
X004275Y014745D01*
X004619Y015054D02*
X005268Y015704D01*
X005734Y015704D01*
X006335Y015336D02*
X007006Y015336D01*
X007007Y015434D02*
X006396Y015434D01*
X006516Y015533D02*
X007007Y015533D01*
X007007Y015631D02*
X006615Y015631D01*
X006713Y015730D02*
X007008Y015730D01*
X007008Y015829D02*
X006941Y015829D01*
X007006Y015237D02*
X005113Y015237D01*
X005014Y015139D02*
X007006Y015139D01*
X007006Y015040D02*
X005005Y015040D01*
X005005Y014942D02*
X007005Y014942D01*
X007005Y014843D02*
X005005Y014843D01*
X004963Y014745D02*
X005134Y014745D01*
X006335Y014745D02*
X007005Y014745D01*
X007005Y014646D02*
X006376Y014646D01*
X006376Y014547D02*
X007004Y014547D01*
X008183Y012954D02*
X003184Y012954D01*
X003084Y012754D02*
X002784Y013054D01*
X003084Y012754D02*
X008104Y012754D01*
X008642Y012217D01*
X008781Y012356D02*
X008183Y012954D01*
X009338Y012913D02*
X009984Y012267D01*
X009984Y011754D01*
X010334Y011404D01*
X010334Y011350D01*
X010612Y011279D01*
X010534Y011154D01*
X010406Y011079D01*
X010334Y011350D01*
X010534Y011154D01*
X010830Y010901D02*
X012083Y010901D01*
X012031Y010954D02*
X012031Y010954D01*
X011985Y011000D02*
X010890Y011000D01*
X010922Y011098D02*
X011886Y011098D01*
X011834Y011151D02*
X011834Y011151D01*
X011788Y011197D02*
X010922Y011197D01*
X010896Y011296D02*
X011689Y011296D01*
X011591Y011394D02*
X010843Y011394D01*
X010731Y011493D02*
X011492Y011493D01*
X011394Y011591D02*
X010458Y011591D01*
X010360Y011690D02*
X011295Y011690D01*
X011196Y011788D02*
X010261Y011788D01*
X010204Y011887D02*
X011098Y011887D01*
X010999Y011985D02*
X010204Y011985D01*
X010204Y012084D02*
X010901Y012084D01*
X010802Y012182D02*
X010204Y012182D01*
X010249Y012253D02*
X010249Y012432D01*
X010730Y012913D01*
X011009Y012634D02*
X011384Y013010D01*
X011384Y013204D01*
X010984Y013604D01*
X010984Y015304D01*
X011925Y015934D02*
X011925Y015934D01*
X011227Y013956D02*
X011204Y013956D01*
X009864Y014547D02*
X009281Y014547D01*
X009281Y014646D02*
X009864Y014646D01*
X009768Y014449D02*
X009239Y014449D01*
X009434Y013504D02*
X009434Y013095D01*
X009477Y013052D01*
X009985Y012577D02*
X010436Y012577D01*
X010442Y012624D02*
X010442Y012624D01*
X010442Y012624D01*
X010507Y012478D02*
X010084Y012478D01*
X010182Y012380D02*
X010605Y012380D01*
X010704Y012281D02*
X010204Y012281D01*
X010249Y012253D02*
X010548Y011954D01*
X010584Y011954D01*
X010684Y011954D01*
X011084Y011554D01*
X011084Y009672D01*
X011328Y009596D01*
X011284Y009454D01*
X011139Y009422D01*
X011084Y009672D01*
X011084Y009654D01*
X011284Y009454D01*
X011018Y008832D02*
X012432Y008832D01*
X012264Y008733D02*
X011116Y008733D01*
X011956Y009579D02*
X012084Y009504D01*
X012212Y009579D01*
X012084Y009800D01*
X011956Y009579D01*
X012084Y009504D02*
X012084Y009800D01*
X012084Y010369D01*
X012679Y010964D01*
X012540Y011103D02*
X012791Y011354D01*
X015434Y011354D01*
X016734Y010054D01*
X018034Y010054D01*
X018534Y010554D01*
X017984Y011054D02*
X018484Y011554D01*
X018534Y011554D01*
X018034Y012054D02*
X018534Y012554D01*
X018034Y012054D02*
X017034Y012054D01*
X016934Y012154D01*
X012477Y012154D01*
X011983Y011660D01*
X011844Y011799D02*
X012399Y012354D01*
X017334Y012354D01*
X017534Y012554D01*
X018034Y013054D02*
X013134Y013054D01*
X012634Y012554D01*
X012334Y012554D01*
X011718Y011938D01*
X011704Y011938D01*
X011565Y012077D02*
X011565Y012085D01*
X012234Y012754D01*
X012534Y012754D01*
X013034Y013254D01*
X015984Y013254D01*
X016284Y013554D01*
X016734Y011954D02*
X017134Y011554D01*
X017534Y011554D01*
X017284Y011054D02*
X017984Y011054D01*
X017534Y010554D02*
X017384Y010554D01*
X016384Y011554D01*
X012713Y011554D01*
X012400Y011242D01*
X012261Y011381D02*
X012634Y011754D01*
X016584Y011754D01*
X017284Y011054D01*
X016734Y011954D02*
X012556Y011954D01*
X012122Y011521D01*
X012182Y010803D02*
X010700Y010803D01*
X010178Y011000D02*
X008221Y011000D01*
X008320Y010901D02*
X008432Y010901D01*
X007912Y010409D02*
X007492Y010409D01*
X007456Y010373D02*
X007539Y010455D01*
X007678Y010594D01*
X007702Y010619D01*
X008202Y010119D01*
X008226Y010095D01*
X008246Y010023D01*
X008246Y009927D01*
X008305Y009784D01*
X008414Y009675D01*
X008557Y009616D01*
X008685Y009616D01*
X008643Y009574D01*
X007775Y009574D01*
X007504Y009845D01*
X007504Y010143D01*
X007504Y010325D01*
X007456Y010373D01*
X007504Y010310D02*
X008010Y010310D01*
X008109Y010212D02*
X007504Y010212D01*
X007504Y010113D02*
X008208Y010113D01*
X008246Y010014D02*
X007504Y010014D01*
X007504Y009916D02*
X008251Y009916D01*
X008291Y009817D02*
X007532Y009817D01*
X007631Y009719D02*
X008371Y009719D01*
X008547Y009620D02*
X007729Y009620D01*
X008035Y009104D02*
X006833Y007902D01*
X006694Y008041D02*
X006257Y007604D01*
X005334Y007604D01*
X004667Y008271D01*
X004482Y008446D01*
X004584Y008554D01*
X004728Y008519D01*
X004667Y008271D01*
X004584Y008354D01*
X004584Y008554D01*
X004238Y008733D02*
X004104Y008733D01*
X004104Y008635D02*
X004197Y008635D01*
X004196Y008536D02*
X004104Y008536D01*
X004104Y008438D02*
X004212Y008438D01*
X004253Y008339D02*
X004104Y008339D01*
X004032Y008241D02*
X004348Y008241D01*
X004484Y008142D02*
X003933Y008142D01*
X003835Y008044D02*
X004584Y008044D01*
X004584Y008004D02*
X005234Y007404D01*
X005734Y007404D01*
X006384Y006754D01*
X006799Y006754D01*
X007389Y007345D01*
X007529Y007206D02*
X007535Y007206D01*
X007825Y007496D01*
X007891Y007742D01*
X008034Y007704D01*
X008072Y007561D01*
X007825Y007496D01*
X008034Y007704D01*
X008391Y007551D02*
X008398Y007551D01*
X008422Y007649D02*
X008497Y007649D01*
X008422Y007748D02*
X008595Y007748D01*
X008694Y007847D02*
X008395Y007847D01*
X008342Y007945D02*
X008792Y007945D01*
X008891Y008044D02*
X008229Y008044D01*
X007839Y008044D02*
X007349Y008044D01*
X007384Y008142D02*
X008989Y008142D01*
X009043Y008241D02*
X007483Y008241D01*
X007581Y008339D02*
X009049Y008339D01*
X009090Y008438D02*
X007680Y008438D01*
X007779Y008536D02*
X009167Y008536D01*
X009316Y007847D02*
X012523Y007847D01*
X012621Y007945D02*
X009674Y007945D01*
X009217Y007748D02*
X011179Y007748D01*
X011095Y007649D02*
X009119Y007649D01*
X009020Y007551D02*
X011054Y007551D01*
X011046Y007452D02*
X008922Y007452D01*
X008823Y007354D02*
X011056Y007354D01*
X011096Y007255D02*
X008725Y007255D01*
X008626Y007157D02*
X011183Y007157D01*
X011396Y007311D02*
X011434Y007454D01*
X011578Y007492D01*
X011643Y007246D01*
X011396Y007311D01*
X011434Y007454D02*
X011643Y007246D01*
X012101Y006788D01*
X012122Y006788D01*
X011990Y006649D02*
X011983Y006649D01*
X011990Y006649D02*
X012834Y005804D01*
X012834Y003604D01*
X012034Y002804D01*
X012034Y002054D01*
X012534Y001554D01*
X013031Y001343D02*
X013037Y001343D01*
X013081Y001244D02*
X012988Y001244D01*
X012889Y001146D02*
X013179Y001146D01*
X013348Y001047D02*
X012721Y001047D01*
X012348Y001047D02*
X011721Y001047D01*
X011889Y001146D02*
X012179Y001146D01*
X012081Y001244D02*
X011988Y001244D01*
X012031Y001343D02*
X012037Y001343D01*
X011534Y001554D02*
X011034Y002054D01*
X011034Y002804D01*
X011284Y003054D01*
X011434Y003054D01*
X012434Y004054D01*
X012434Y005641D01*
X011704Y006370D01*
X011565Y006231D02*
X012234Y005562D01*
X012234Y004154D01*
X011334Y003254D01*
X011134Y003254D01*
X010534Y002654D01*
X010534Y002554D01*
X010034Y002804D02*
X010034Y002054D01*
X010534Y001554D01*
X010037Y001343D02*
X010031Y001343D01*
X009988Y001244D02*
X010081Y001244D01*
X010179Y001146D02*
X009889Y001146D01*
X009721Y001047D02*
X010348Y001047D01*
X010721Y001047D02*
X011348Y001047D01*
X011179Y001146D02*
X010889Y001146D01*
X010988Y001244D02*
X011081Y001244D01*
X011037Y001343D02*
X011031Y001343D01*
X011534Y002554D02*
X011534Y002704D01*
X012634Y003804D01*
X012634Y005719D01*
X011844Y006510D01*
X011537Y006861D02*
X011039Y006861D01*
X011072Y006763D02*
X011439Y006763D01*
X011340Y006664D02*
X011072Y006664D01*
X011047Y006565D02*
X011242Y006565D01*
X011143Y006467D02*
X010996Y006467D01*
X011045Y006368D02*
X010887Y006368D01*
X010946Y006270D02*
X010654Y006270D01*
X010654Y006171D02*
X010847Y006171D01*
X010749Y006073D02*
X010654Y006073D01*
X010434Y005954D02*
X010853Y005535D01*
X010869Y005535D01*
X010869Y005519D01*
X011034Y005354D01*
X011034Y005404D01*
X011009Y005674D02*
X011334Y005349D01*
X011334Y004654D01*
X010834Y004154D01*
X010334Y004154D01*
X009484Y003304D01*
X009234Y003304D01*
X008534Y002604D01*
X008534Y002554D01*
X008388Y003054D02*
X008284Y003054D01*
X008034Y002804D01*
X008034Y002054D01*
X008534Y001554D01*
X008037Y001343D02*
X008031Y001343D01*
X007988Y001244D02*
X008081Y001244D01*
X008179Y001146D02*
X007889Y001146D01*
X007721Y001047D02*
X008348Y001047D01*
X008721Y001047D02*
X009348Y001047D01*
X009179Y001146D02*
X008889Y001146D01*
X008988Y001244D02*
X009081Y001244D01*
X009037Y001343D02*
X009031Y001343D01*
X009534Y001554D02*
X009034Y002054D01*
X009034Y002804D01*
X009284Y003054D01*
X009584Y003054D01*
X010434Y003904D01*
X010984Y003904D01*
X011584Y004504D01*
X011584Y005377D01*
X011148Y005814D01*
X011287Y005953D02*
X011834Y005406D01*
X011834Y004404D01*
X011084Y003654D01*
X010484Y003654D01*
X009534Y002704D01*
X009534Y002554D01*
X010034Y002804D02*
X010684Y003454D01*
X011184Y003454D01*
X012034Y004304D01*
X012034Y005484D01*
X011426Y006092D01*
X010722Y006561D02*
X010684Y006704D01*
X010609Y006833D01*
X010389Y006704D01*
X010234Y006704D01*
X009684Y006154D01*
X009534Y006154D01*
X009060Y005680D01*
X009060Y005674D01*
X008921Y005814D01*
X008781Y005953D02*
X009233Y006404D01*
X009333Y006653D01*
X009334Y006654D01*
X009434Y006604D01*
X009239Y006409D01*
X009239Y006404D01*
X009534Y006504D01*
X009434Y006604D01*
X009789Y006763D02*
X009981Y006763D01*
X010080Y006861D02*
X009726Y006861D01*
X009590Y006960D02*
X010390Y006960D01*
X010524Y007058D02*
X008527Y007058D01*
X008432Y006960D02*
X009278Y006960D01*
X009142Y006861D02*
X008531Y006861D01*
X008630Y006763D02*
X009080Y006763D01*
X009046Y006664D02*
X008728Y006664D01*
X008827Y006565D02*
X009046Y006565D01*
X008984Y006609D02*
X008984Y006434D01*
X008642Y006092D01*
X008503Y006231D02*
X008234Y005962D01*
X008234Y005554D01*
X008684Y005104D01*
X008684Y004554D01*
X007984Y003854D01*
X007334Y003854D01*
X006534Y003054D01*
X006284Y003054D01*
X006034Y002804D01*
X006034Y002054D01*
X006534Y001554D01*
X006037Y001343D02*
X006031Y001343D01*
X005988Y001244D02*
X006081Y001244D01*
X006179Y001146D02*
X005889Y001146D01*
X005721Y001047D02*
X006348Y001047D01*
X006721Y001047D02*
X007348Y001047D01*
X007179Y001146D02*
X006889Y001146D01*
X006988Y001244D02*
X007081Y001244D01*
X007037Y001343D02*
X007031Y001343D01*
X007534Y001554D02*
X007034Y002054D01*
X007034Y002804D01*
X007684Y003454D01*
X008184Y003454D01*
X009084Y004354D01*
X009084Y005142D01*
X009338Y005396D01*
X009199Y005535D02*
X008884Y005220D01*
X008884Y004454D01*
X008084Y003654D01*
X007484Y003654D01*
X006534Y002704D01*
X006534Y002554D01*
X006434Y003254D02*
X005884Y003254D01*
X005534Y002904D01*
X005534Y002554D01*
X005034Y002804D02*
X005034Y002054D01*
X005534Y001554D01*
X005037Y001343D02*
X005010Y001343D01*
X004952Y001244D02*
X005081Y001244D01*
X005179Y001146D02*
X004856Y001146D01*
X004655Y001047D02*
X005348Y001047D01*
X004584Y001047D02*
X004484Y001047D01*
X004413Y001047D02*
X003721Y001047D01*
X003889Y001146D02*
X004212Y001146D01*
X004117Y001244D02*
X003988Y001244D01*
X004031Y001343D02*
X004058Y001343D01*
X004034Y001054D02*
X004534Y001554D01*
X004484Y001441D02*
X004584Y001441D01*
X004584Y001343D02*
X004484Y001343D01*
X004484Y001244D02*
X004584Y001244D01*
X004584Y001146D02*
X004484Y001146D01*
X004034Y001054D02*
X001284Y001054D01*
X001134Y001204D01*
X001212Y001146D02*
X000926Y001146D01*
X000816Y001343D02*
X001058Y001343D01*
X001026Y001441D02*
X000784Y001441D01*
X001281Y000850D02*
X016699Y000850D01*
X016348Y001047D02*
X015721Y001047D01*
X015889Y001146D02*
X016179Y001146D01*
X016081Y001244D02*
X015988Y001244D01*
X016031Y001343D02*
X016037Y001343D01*
X015534Y001554D02*
X015034Y002054D01*
X015034Y002804D01*
X014434Y003404D01*
X014434Y006146D01*
X012957Y007623D01*
X012818Y007484D02*
X014234Y006068D01*
X014234Y002854D01*
X014534Y002554D01*
X014034Y002054D02*
X014534Y001554D01*
X015031Y001343D02*
X015037Y001343D01*
X015081Y001244D02*
X014988Y001244D01*
X014889Y001146D02*
X015179Y001146D01*
X015348Y001047D02*
X014721Y001047D01*
X014348Y001047D02*
X013721Y001047D01*
X013889Y001146D02*
X014179Y001146D01*
X014081Y001244D02*
X013988Y001244D01*
X014031Y001343D02*
X014037Y001343D01*
X013534Y001554D02*
X013034Y002054D01*
X013034Y002804D01*
X013284Y003054D01*
X013284Y006183D01*
X012400Y007066D01*
X012261Y006927D02*
X013034Y006154D01*
X013034Y003104D01*
X012534Y002604D01*
X012534Y002554D01*
X013534Y002554D02*
X013534Y006211D01*
X012540Y007206D01*
X012679Y007345D02*
X014034Y005989D01*
X014034Y002054D01*
X015534Y002754D02*
X014634Y003654D01*
X014634Y006225D01*
X013096Y007762D01*
X013236Y007902D02*
X014834Y006303D01*
X014834Y003854D01*
X015634Y003054D01*
X015834Y003054D01*
X016034Y002854D01*
X016034Y002054D01*
X016534Y001554D01*
X016534Y002554D02*
X016534Y002804D01*
X016284Y003054D01*
X016134Y003054D01*
X015034Y004154D01*
X015034Y006381D01*
X013375Y008041D01*
X013514Y008180D02*
X015234Y006460D01*
X015234Y004254D01*
X016184Y003304D01*
X016534Y003304D01*
X017034Y002804D01*
X017034Y003554D02*
X016284Y003554D01*
X015434Y004404D01*
X015434Y006538D01*
X013653Y008319D01*
X013792Y008458D02*
X014096Y008154D01*
X014189Y008154D01*
X014409Y008283D01*
X014484Y008154D01*
X014409Y008026D01*
X014189Y008154D01*
X014484Y008154D01*
X014331Y008339D02*
X015564Y008339D01*
X015564Y008241D02*
X014233Y008241D01*
X014141Y008142D02*
X015564Y008142D01*
X015564Y008044D02*
X014240Y008044D01*
X014338Y007945D02*
X015564Y007945D01*
X015564Y007847D02*
X014437Y007847D01*
X014535Y007748D02*
X015564Y007748D01*
X015564Y007649D02*
X014634Y007649D01*
X014732Y007551D02*
X015564Y007551D01*
X015564Y007452D02*
X014831Y007452D01*
X014930Y007354D02*
X015564Y007354D01*
X015564Y007255D02*
X015028Y007255D01*
X015127Y007157D02*
X015564Y007157D01*
X015564Y007058D02*
X015225Y007058D01*
X015324Y006960D02*
X015536Y006960D01*
X015450Y006861D02*
X015422Y006861D01*
X015656Y006729D02*
X015784Y006654D01*
X015912Y006729D01*
X015784Y006950D01*
X015656Y006729D01*
X015784Y006654D02*
X015784Y006950D01*
X015784Y009054D01*
X014884Y009954D01*
X014175Y009954D01*
X013932Y009711D01*
X014080Y009522D02*
X015006Y009522D01*
X015104Y009423D02*
X013982Y009423D01*
X013883Y009325D02*
X015203Y009325D01*
X015301Y009226D02*
X014601Y009226D01*
X014760Y009128D02*
X015400Y009128D01*
X015498Y009029D02*
X014832Y009029D01*
X014872Y008931D02*
X015564Y008931D01*
X015564Y008832D02*
X014872Y008832D01*
X014854Y008733D02*
X015564Y008733D01*
X015564Y008635D02*
X014813Y008635D01*
X014715Y008536D02*
X015564Y008536D01*
X015564Y008438D02*
X014379Y008438D01*
X014227Y008598D02*
X014275Y008646D01*
X014341Y008892D01*
X014484Y008854D01*
X014522Y008711D01*
X014275Y008646D01*
X014484Y008854D01*
X014227Y008598D02*
X013932Y008598D01*
X014035Y008832D02*
X014096Y008832D01*
X014096Y008931D02*
X013936Y008931D01*
X013660Y009325D02*
X013053Y009325D01*
X013100Y009423D02*
X013561Y009423D01*
X013463Y009522D02*
X013122Y009522D01*
X013122Y009620D02*
X013364Y009620D01*
X013266Y009719D02*
X013086Y009719D01*
X013020Y009817D02*
X013167Y009817D01*
X013069Y009916D02*
X012875Y009916D01*
X012970Y010014D02*
X012585Y010014D01*
X012554Y010113D02*
X012872Y010113D01*
X012773Y010212D02*
X012554Y010212D01*
X012615Y010310D02*
X012675Y010310D01*
X012334Y010341D02*
X012334Y009954D01*
X012525Y009763D01*
X012772Y009698D01*
X012734Y009554D01*
X012591Y009516D01*
X012525Y009763D01*
X012734Y009554D01*
X012513Y009226D02*
X012355Y009226D01*
X012955Y009226D02*
X014368Y009226D01*
X014179Y009620D02*
X014907Y009620D01*
X014809Y009719D02*
X014277Y009719D01*
X013514Y010129D02*
X013514Y010134D01*
X013934Y010554D01*
X015184Y010554D01*
X016384Y009354D01*
X016384Y007404D01*
X017234Y006554D01*
X017534Y006554D01*
X017284Y007054D02*
X016584Y007754D01*
X016584Y009454D01*
X015284Y010754D01*
X013861Y010754D01*
X013375Y010268D01*
X013236Y010407D02*
X013783Y010954D01*
X015384Y010954D01*
X016784Y009554D01*
X016784Y008304D01*
X016534Y005054D02*
X016534Y004054D01*
X015534Y002754D02*
X015534Y002554D01*
X018636Y004595D02*
X018814Y004595D01*
X018814Y004496D02*
X018757Y004496D01*
X018754Y003609D02*
X018814Y003609D01*
X012424Y007748D02*
X011689Y007748D01*
X011773Y007649D02*
X012326Y007649D01*
X012227Y007551D02*
X011814Y007551D01*
X011822Y007452D02*
X012129Y007452D01*
X012112Y007436D02*
X012112Y007436D01*
X012030Y007354D02*
X011846Y007354D01*
X011618Y006960D02*
X010978Y006960D01*
X010844Y007058D02*
X011491Y007058D01*
X010684Y006704D02*
X010609Y006576D01*
X010389Y006704D01*
X010684Y006704D01*
X010541Y006742D01*
X010475Y006496D01*
X010722Y006561D01*
X010684Y006704D02*
X010475Y006496D01*
X010434Y006454D01*
X010434Y005954D01*
X010300Y005777D02*
X009615Y005777D01*
X009569Y005824D02*
X009541Y005851D01*
X009625Y005934D01*
X009775Y005934D01*
X010214Y006373D01*
X010214Y006045D01*
X010214Y005863D01*
X010391Y005686D01*
X010389Y005684D01*
X010360Y005684D01*
X010163Y005487D01*
X010163Y005346D01*
X010266Y005244D01*
X009804Y004781D01*
X009804Y005059D01*
X009804Y005241D01*
X009802Y005244D01*
X009905Y005346D01*
X009905Y005487D01*
X009708Y005684D01*
X009569Y005824D01*
X009567Y005876D02*
X010214Y005876D01*
X010214Y005974D02*
X009815Y005974D01*
X009914Y006073D02*
X010214Y006073D01*
X010214Y006171D02*
X010012Y006171D01*
X010111Y006270D02*
X010214Y006270D01*
X010209Y006368D02*
X010214Y006368D01*
X009883Y006664D02*
X009822Y006664D01*
X009062Y006980D02*
X008884Y007054D01*
X008756Y006930D01*
X008984Y006609D01*
X009062Y006980D01*
X008884Y007054D02*
X008984Y006609D01*
X008984Y006467D02*
X008925Y006467D01*
X008364Y006370D02*
X008034Y006041D01*
X008034Y005454D01*
X008484Y005004D01*
X008484Y004654D01*
X007884Y004054D01*
X007234Y004054D01*
X006434Y003254D01*
X006334Y003454D02*
X005684Y003454D01*
X005034Y002804D01*
X004534Y002704D02*
X004534Y002554D01*
X004534Y002704D02*
X005484Y003654D01*
X006234Y003654D01*
X007034Y004454D01*
X007684Y004454D01*
X007884Y004654D01*
X007884Y004904D01*
X007634Y005154D01*
X007634Y006204D01*
X008079Y006649D01*
X008085Y006649D01*
X008225Y006510D02*
X007834Y006119D01*
X007834Y005304D01*
X008234Y004904D01*
X008234Y004704D01*
X007784Y004254D01*
X007134Y004254D01*
X006334Y003454D01*
X006143Y003874D02*
X005724Y003874D01*
X005933Y004083D01*
X005933Y004224D01*
X005881Y004276D01*
X006328Y004723D01*
X006340Y004718D01*
X006503Y004718D01*
X006654Y004780D01*
X007109Y005235D01*
X007171Y005385D01*
X007171Y005548D01*
X007109Y005699D01*
X006999Y005808D01*
X007414Y006223D01*
X007414Y006113D01*
X007414Y005063D01*
X007543Y004934D01*
X007664Y004813D01*
X007664Y004745D01*
X007593Y004674D01*
X006943Y004674D01*
X006814Y004545D01*
X006143Y003874D01*
X006174Y003905D02*
X005754Y003905D01*
X005853Y004003D02*
X006272Y004003D01*
X006371Y004102D02*
X005933Y004102D01*
X005933Y004200D02*
X006469Y004200D01*
X006568Y004299D02*
X005904Y004299D01*
X006003Y004398D02*
X006666Y004398D01*
X006765Y004496D02*
X006101Y004496D01*
X006200Y004595D02*
X006863Y004595D01*
X006666Y004792D02*
X007664Y004792D01*
X007612Y004693D02*
X006298Y004693D01*
X005972Y004989D02*
X005140Y004989D01*
X004915Y004792D02*
X004778Y004792D01*
X004784Y004496D02*
X004921Y004496D01*
X004823Y004398D02*
X003385Y004398D01*
X003385Y004299D02*
X004849Y004299D01*
X004985Y004200D02*
X003375Y004200D01*
X003067Y004200D02*
X002970Y004200D01*
X002970Y004299D02*
X003067Y004299D01*
X003067Y004398D02*
X002970Y004398D01*
X002970Y004595D02*
X003067Y004595D01*
X003067Y004693D02*
X002970Y004693D01*
X002970Y004792D02*
X003067Y004792D01*
X003008Y004890D02*
X002951Y004890D01*
X002951Y004989D02*
X003008Y004989D01*
X003008Y005087D02*
X002951Y005087D01*
X002951Y005186D02*
X003008Y005186D01*
X003008Y005284D02*
X002951Y005284D01*
X002951Y005383D02*
X003008Y005383D01*
X002979Y005154D02*
X002981Y005131D01*
X002986Y005108D01*
X002995Y005086D01*
X003008Y005066D01*
X003023Y005048D01*
X003041Y005033D01*
X003061Y005020D01*
X003083Y005011D01*
X003106Y005006D01*
X003129Y005004D01*
X004234Y005004D01*
X004260Y004989D02*
X003287Y004989D01*
X003287Y005087D02*
X004061Y005087D01*
X003985Y005186D02*
X003287Y005186D01*
X003287Y005284D02*
X003835Y005284D01*
X003737Y005383D02*
X003269Y005383D01*
X003540Y005580D02*
X002753Y005580D01*
X002772Y005679D02*
X003485Y005679D01*
X003487Y005777D02*
X002772Y005777D01*
X002733Y005876D02*
X003586Y005876D01*
X003684Y005974D02*
X002663Y005974D01*
X002816Y006073D02*
X003783Y006073D01*
X004084Y006073D02*
X004227Y006073D01*
X004326Y006171D02*
X002915Y006171D01*
X003013Y006270D02*
X004424Y006270D01*
X004523Y006368D02*
X003074Y006368D01*
X003074Y006467D02*
X004597Y006467D01*
X004597Y006565D02*
X003074Y006565D01*
X003074Y006664D02*
X004614Y006664D01*
X004655Y006763D02*
X003074Y006763D01*
X002991Y006861D02*
X004747Y006861D01*
X004845Y006960D02*
X003001Y006960D01*
X003099Y007058D02*
X004944Y007058D01*
X005043Y007157D02*
X003198Y007157D01*
X003254Y007255D02*
X005179Y007255D01*
X005175Y007452D02*
X003254Y007452D01*
X003254Y007354D02*
X006297Y007354D01*
X006256Y007255D02*
X005515Y007255D01*
X005651Y007157D02*
X006246Y007157D01*
X006254Y007058D02*
X005717Y007058D01*
X005757Y006960D02*
X006295Y006960D01*
X006379Y006861D02*
X005757Y006861D01*
X005741Y006763D02*
X007053Y006763D01*
X007151Y006861D02*
X006890Y006861D01*
X006974Y006960D02*
X007117Y006960D01*
X007018Y007058D02*
X007014Y007058D01*
X006642Y007154D02*
X007111Y007623D01*
X007447Y007945D02*
X007726Y007945D01*
X007673Y007847D02*
X007546Y007847D01*
X007644Y007748D02*
X007646Y007748D01*
X007668Y007066D02*
X006456Y005854D01*
X006034Y005854D01*
X005177Y006711D01*
X005177Y006711D01*
X004157Y005691D01*
X003948Y005691D01*
X003638Y005481D02*
X002710Y005481D01*
X002514Y005632D02*
X002384Y005704D01*
X002257Y005628D01*
X002389Y005409D01*
X002514Y005632D01*
X002389Y005700D02*
X002389Y005409D01*
X002389Y005154D01*
X002680Y004890D02*
X002716Y004890D01*
X002747Y004792D02*
X002666Y004792D01*
X002350Y004454D02*
X001889Y004454D01*
X001614Y004306D01*
X001534Y004454D01*
X001614Y004602D01*
X001889Y004454D01*
X001534Y004454D01*
X001922Y004693D02*
X001963Y004693D01*
X002033Y004792D02*
X001873Y004792D01*
X001922Y004200D02*
X001963Y004200D01*
X002048Y004102D02*
X001858Y004102D01*
X002651Y004102D02*
X005018Y004102D01*
X005471Y004168D02*
X005471Y004177D01*
X006012Y005087D02*
X004809Y005087D01*
X004863Y005186D02*
X006012Y005186D01*
X006043Y005284D02*
X004840Y005284D01*
X004746Y005383D02*
X006097Y005383D01*
X006196Y005481D02*
X004616Y005481D01*
X004655Y005383D02*
X004518Y005383D01*
X004556Y005284D02*
X004423Y005284D01*
X004384Y005186D02*
X004320Y005186D01*
X004421Y005191D02*
X004419Y005164D01*
X004413Y005138D01*
X004404Y005113D01*
X004391Y005090D01*
X004375Y005069D01*
X004356Y005050D01*
X004335Y005034D01*
X004312Y005021D01*
X004287Y005012D01*
X004261Y005006D01*
X004234Y005004D01*
X004222Y005087D02*
X004359Y005087D01*
X004258Y004890D02*
X003242Y004890D01*
X003290Y004792D02*
X004366Y004792D01*
X004549Y005580D02*
X006294Y005580D01*
X005899Y005679D02*
X004455Y005679D01*
X004554Y005777D02*
X005800Y005777D01*
X005702Y005876D02*
X004652Y005876D01*
X004751Y005974D02*
X005603Y005974D01*
X005505Y006073D02*
X004849Y006073D01*
X005184Y006171D02*
X005406Y006171D01*
X005733Y006467D02*
X006757Y006467D01*
X006659Y006368D02*
X005831Y006368D01*
X005930Y006270D02*
X006560Y006270D01*
X006462Y006171D02*
X006028Y006171D01*
X005634Y006565D02*
X006856Y006565D01*
X006954Y006664D02*
X005701Y006664D01*
X005076Y007551D02*
X003342Y007551D01*
X003440Y007649D02*
X004978Y007649D01*
X004879Y007748D02*
X003539Y007748D01*
X003637Y007847D02*
X004781Y007847D01*
X004682Y007945D02*
X003736Y007945D01*
X003884Y008404D02*
X003034Y007554D01*
X003034Y007304D01*
X002534Y006804D01*
X002534Y006554D01*
X002154Y006171D02*
X001886Y006171D01*
X001788Y006073D02*
X002252Y006073D01*
X002055Y006270D02*
X001985Y006270D01*
X001584Y006270D02*
X001484Y006270D01*
X001484Y006368D02*
X001584Y006368D01*
X001584Y006467D02*
X001484Y006467D01*
X001484Y006171D02*
X001584Y006171D01*
X001584Y006073D02*
X001484Y006073D01*
X001014Y006763D02*
X000744Y006763D01*
X000744Y006861D02*
X001106Y006861D01*
X001204Y006960D02*
X000744Y006960D01*
X000744Y007058D02*
X001267Y007058D01*
X002534Y007554D02*
X002634Y007554D01*
X003684Y008604D01*
X003684Y009354D01*
X004984Y010654D01*
X006307Y010654D01*
X006694Y010268D01*
X006554Y010129D02*
X006229Y010454D01*
X005134Y010454D01*
X003884Y009204D01*
X003884Y008404D01*
X004104Y008832D02*
X004313Y008832D01*
X004259Y008931D02*
X004104Y008931D01*
X004104Y009029D02*
X004216Y009029D01*
X004196Y009128D02*
X004119Y009128D01*
X004584Y009154D02*
X004620Y009010D01*
X004867Y009071D01*
X004692Y009256D01*
X004584Y009154D01*
X004784Y009154D01*
X004867Y009071D01*
X004934Y009004D01*
X004934Y008304D01*
X005434Y007804D01*
X006179Y007804D01*
X006554Y008180D01*
X006415Y008319D02*
X006100Y008004D01*
X005684Y008004D01*
X005404Y008284D01*
X005197Y008434D01*
X005284Y008554D01*
X005432Y008538D01*
X005404Y008284D01*
X005334Y008404D01*
X005284Y008554D01*
X005493Y008946D02*
X005246Y009011D01*
X005284Y009154D01*
X005428Y009192D01*
X005493Y008946D01*
X005284Y009154D01*
X005493Y008946D02*
X005684Y008804D01*
X005684Y008354D01*
X005834Y008204D01*
X006022Y008204D01*
X006276Y008458D01*
X006137Y008598D02*
X005987Y008801D01*
X005863Y009074D01*
X005984Y009154D01*
X005983Y009057D01*
X005987Y008801D01*
X006087Y009052D01*
X005984Y009154D01*
X005634Y009324D02*
X005613Y009374D01*
X005504Y009484D01*
X005361Y009543D01*
X005207Y009543D01*
X005064Y009484D01*
X004955Y009374D01*
X004934Y009324D01*
X004913Y009374D01*
X004804Y009484D01*
X004661Y009543D01*
X004534Y009543D01*
X005225Y010234D01*
X006002Y010234D01*
X005988Y010220D01*
X005988Y010192D01*
X005961Y010165D01*
X005935Y010139D01*
X005906Y010139D01*
X005709Y009942D01*
X005709Y009801D01*
X005967Y009543D01*
X005907Y009543D01*
X005764Y009484D01*
X005655Y009374D01*
X005634Y009324D01*
X005634Y009325D02*
X005634Y009325D01*
X005565Y009423D02*
X005704Y009423D01*
X005856Y009522D02*
X005412Y009522D01*
X005156Y009522D02*
X004712Y009522D01*
X004611Y009620D02*
X005890Y009620D01*
X005791Y009719D02*
X004710Y009719D01*
X004808Y009817D02*
X005709Y009817D01*
X005709Y009916D02*
X004907Y009916D01*
X005005Y010014D02*
X005782Y010014D01*
X005881Y010113D02*
X005104Y010113D01*
X005202Y010212D02*
X005988Y010212D01*
X005961Y010165D02*
X005988Y010139D01*
X005988Y010139D01*
X005987Y010139D01*
X005961Y010165D01*
X005922Y010204D02*
X005634Y010204D01*
X005484Y010004D01*
X005384Y010104D01*
X005384Y010254D01*
X005634Y010204D01*
X005484Y010204D01*
X005384Y010104D01*
X005922Y010204D02*
X006276Y009850D01*
X006177Y009711D02*
X006137Y009711D01*
X006177Y009711D02*
X006525Y009363D01*
X006772Y009298D01*
X006734Y009154D01*
X006591Y009116D01*
X006525Y009363D01*
X006734Y009154D01*
X007591Y010507D02*
X007813Y010507D01*
X007715Y010606D02*
X007689Y010606D01*
X007678Y010594D02*
X007678Y010594D01*
X007389Y010964D02*
X006899Y011454D01*
X004484Y011454D01*
X002584Y009554D01*
X002534Y009554D01*
X002784Y009054D02*
X002084Y009054D01*
X001584Y008554D01*
X001534Y008554D01*
X002534Y008554D02*
X002634Y008554D01*
X003234Y009154D01*
X003234Y009554D01*
X004734Y011054D01*
X006742Y011054D01*
X007111Y010685D01*
X007250Y010825D02*
X006821Y011254D01*
X004584Y011254D01*
X003034Y009704D01*
X003034Y009304D01*
X002784Y009054D01*
X004234Y008004D02*
X004584Y008004D01*
X004934Y009325D02*
X004934Y009325D01*
X004865Y009423D02*
X005004Y009423D01*
X006634Y007154D02*
X006642Y007154D01*
X007362Y006171D02*
X007414Y006171D01*
X007414Y006073D02*
X007264Y006073D01*
X007165Y005974D02*
X007414Y005974D01*
X007414Y005876D02*
X007067Y005876D01*
X007030Y005777D02*
X007414Y005777D01*
X007414Y005679D02*
X007117Y005679D01*
X007158Y005580D02*
X007414Y005580D01*
X007414Y005481D02*
X007171Y005481D01*
X007170Y005383D02*
X007414Y005383D01*
X007414Y005284D02*
X007129Y005284D01*
X007060Y005186D02*
X007414Y005186D01*
X007414Y005087D02*
X006961Y005087D01*
X006863Y004989D02*
X007489Y004989D01*
X007587Y004890D02*
X006764Y004890D01*
X008134Y003254D02*
X007534Y002654D01*
X007534Y002554D01*
X008134Y003254D02*
X008284Y003254D01*
X009584Y004554D01*
X009584Y005150D01*
X009477Y005257D01*
X009804Y005186D02*
X010209Y005186D01*
X010226Y005284D02*
X009843Y005284D01*
X009905Y005383D02*
X010163Y005383D01*
X010163Y005481D02*
X009905Y005481D01*
X009812Y005580D02*
X010256Y005580D01*
X010234Y005654D02*
X010034Y005854D01*
X010234Y005654D02*
X010472Y005654D01*
X010730Y005396D01*
X010591Y005257D02*
X008388Y003054D01*
X009169Y003524D02*
X010578Y004932D01*
X010681Y004829D01*
X010821Y004829D01*
X011018Y005026D01*
X011018Y005055D01*
X011045Y005081D01*
X011018Y005107D01*
X011018Y005108D01*
X011019Y005108D01*
X011045Y005081D01*
X011071Y005108D01*
X011100Y005108D01*
X011114Y005122D01*
X011114Y004745D01*
X010743Y004374D01*
X010243Y004374D01*
X010114Y004245D01*
X009393Y003524D01*
X009325Y003524D01*
X009169Y003524D01*
X009254Y003609D02*
X009478Y003609D01*
X009576Y003708D02*
X009353Y003708D01*
X009451Y003806D02*
X009675Y003806D01*
X009774Y003905D02*
X009550Y003905D01*
X009648Y004003D02*
X009872Y004003D01*
X009971Y004102D02*
X009747Y004102D01*
X009846Y004200D02*
X010069Y004200D01*
X010168Y004299D02*
X009944Y004299D01*
X010043Y004398D02*
X010766Y004398D01*
X010865Y004496D02*
X010141Y004496D01*
X010240Y004595D02*
X010963Y004595D01*
X011062Y004693D02*
X010338Y004693D01*
X010437Y004792D02*
X011114Y004792D01*
X011114Y004890D02*
X010882Y004890D01*
X010981Y004989D02*
X011114Y004989D01*
X011114Y005087D02*
X011051Y005087D01*
X011039Y005087D02*
X011039Y005087D01*
X010620Y004890D02*
X010535Y004890D01*
X010110Y005087D02*
X009804Y005087D01*
X009804Y004989D02*
X010012Y004989D01*
X009913Y004890D02*
X009804Y004890D01*
X009804Y004792D02*
X009815Y004792D01*
X009714Y005679D02*
X010355Y005679D01*
X008634Y010004D02*
X008491Y009964D01*
X008422Y010210D01*
X008670Y010148D01*
X008634Y010004D01*
X008627Y010004D01*
X008422Y010210D01*
X007529Y011103D01*
X008871Y011709D02*
X009076Y011504D01*
X009084Y011504D01*
X012334Y010341D02*
X012818Y010825D01*
X012434Y012954D02*
X012934Y013454D01*
X014350Y017405D02*
X014414Y017405D01*
X013907Y018292D02*
X013883Y018292D01*
X018752Y019770D02*
X005597Y019770D01*
X005669Y019672D02*
X018930Y019672D01*
X019062Y019573D02*
X005669Y019573D01*
X005669Y019475D02*
X005754Y019475D01*
X005989Y019154D02*
X005984Y019150D01*
X005984Y018950D01*
X006112Y018729D01*
X005984Y018654D01*
X005946Y018511D01*
X006193Y018446D01*
X006128Y018692D01*
X005984Y018654D01*
X005856Y018729D01*
X005984Y018950D01*
X005984Y018654D01*
X006193Y018446D01*
X007284Y017354D01*
X006449Y017909D02*
X005334Y017904D01*
X005184Y017904D01*
X005158Y017906D01*
X005132Y017911D01*
X005107Y017919D01*
X005084Y017931D01*
X005062Y017945D01*
X005043Y017963D01*
X005025Y017982D01*
X005011Y018004D01*
X004999Y018027D01*
X004991Y018052D01*
X004986Y018078D01*
X004984Y018104D01*
X004982Y018146D01*
X004976Y018187D01*
X004967Y018227D01*
X004954Y018267D01*
X004937Y018305D01*
X004917Y018341D01*
X004893Y018375D01*
X004867Y018407D01*
X004837Y018437D01*
X004805Y018463D01*
X004771Y018487D01*
X004735Y018507D01*
X004697Y018524D01*
X004657Y018537D01*
X004617Y018546D01*
X004576Y018552D01*
X004534Y018554D01*
X003360Y018686D02*
X002126Y018686D01*
X002126Y018588D02*
X003262Y018588D01*
X003185Y018489D02*
X002043Y018489D01*
X002216Y018194D02*
X000744Y018194D01*
X000744Y018292D02*
X002376Y018292D01*
X002151Y018095D02*
X000744Y018095D01*
X000744Y017996D02*
X002121Y017996D01*
X002121Y017898D02*
X000744Y017898D01*
X000744Y017799D02*
X002156Y017799D01*
X002231Y017701D02*
X000744Y017701D01*
X000744Y017602D02*
X001069Y017602D01*
X000999Y017504D02*
X000744Y017504D01*
X000744Y017405D02*
X000999Y017405D01*
X000999Y017307D02*
X000744Y017307D01*
X000744Y017208D02*
X000999Y017208D01*
X000999Y017110D02*
X000744Y017110D01*
X000744Y017011D02*
X000999Y017011D01*
X000999Y016913D02*
X000744Y016913D01*
X000744Y016814D02*
X000999Y016814D01*
X000999Y016715D02*
X000744Y016715D01*
X000744Y016617D02*
X000999Y016617D01*
X000999Y016518D02*
X000744Y016518D01*
X000744Y016420D02*
X000999Y016420D01*
X001085Y016321D02*
X000744Y016321D01*
X000744Y016223D02*
X003455Y016223D01*
X003553Y016124D02*
X000744Y016124D01*
X000744Y016026D02*
X001270Y016026D01*
X001172Y015927D02*
X000744Y015927D01*
X000744Y015829D02*
X001073Y015829D01*
X001014Y015730D02*
X000744Y015730D01*
X000744Y015631D02*
X001014Y015631D01*
X002126Y016420D02*
X002466Y016420D01*
X002456Y016518D02*
X002126Y016518D01*
X002126Y016617D02*
X002456Y016617D01*
X002456Y016715D02*
X002126Y016715D01*
X002126Y016814D02*
X002456Y016814D01*
X002456Y016913D02*
X002126Y016913D01*
X002126Y017011D02*
X002456Y017011D01*
X002456Y017110D02*
X002126Y017110D01*
X002126Y017208D02*
X002456Y017208D01*
X002456Y017307D02*
X002126Y017307D01*
X002126Y017405D02*
X002456Y017405D01*
X002462Y017504D02*
X002126Y017504D01*
X002056Y017602D02*
X002549Y017602D01*
X002826Y016026D02*
X005087Y016026D01*
X003998Y015336D02*
X003901Y015336D01*
X003901Y015237D02*
X003998Y015237D01*
X003998Y015139D02*
X003901Y015139D01*
X003583Y015237D02*
X002981Y015237D01*
X003074Y015336D02*
X003609Y015336D01*
X006455Y018727D02*
X006584Y018654D01*
X006711Y018731D01*
X006579Y018950D01*
X006455Y018727D01*
X006579Y018659D02*
X006584Y018654D01*
X006579Y018659D02*
X006579Y018950D01*
X006579Y019154D01*
X006344Y019475D02*
X006224Y019475D01*
X006814Y019475D02*
X019134Y019475D01*
X004242Y003018D02*
X003826Y003018D01*
X003933Y002919D02*
X004136Y002919D01*
X004060Y002821D02*
X004008Y002821D01*
X003242Y003018D02*
X002826Y003018D01*
X002933Y002919D02*
X003136Y002919D01*
X003060Y002821D02*
X003008Y002821D01*
X002242Y003018D02*
X001770Y003018D01*
X001904Y002919D02*
X002136Y002919D01*
X002060Y002821D02*
X001982Y002821D01*
X001584Y002821D02*
X001484Y002821D01*
X001484Y002919D02*
X001584Y002919D01*
X001584Y003018D02*
X001484Y003018D01*
X001484Y002722D02*
X001584Y002722D01*
X001584Y002624D02*
X001484Y002624D01*
X001484Y002525D02*
X000744Y002525D01*
X001484Y002427D02*
X001584Y002427D01*
X001584Y002328D02*
X001484Y002328D01*
X001484Y002230D02*
X001584Y002230D01*
X001584Y002131D02*
X001484Y002131D01*
X001484Y002032D02*
X001584Y002032D01*
X001584Y001934D02*
X001484Y001934D01*
X001484Y001835D02*
X001584Y001835D01*
X001584Y001737D02*
X001484Y001737D01*
X001484Y001638D02*
X001584Y001638D01*
X001584Y001244D02*
X001484Y001244D01*
X001484Y001146D02*
X001584Y001146D01*
X002721Y001047D02*
X003348Y001047D01*
X003179Y001146D02*
X002889Y001146D01*
X002988Y001244D02*
X003081Y001244D01*
X003037Y001343D02*
X003031Y001343D01*
X002389Y005700D02*
X002384Y005704D01*
D29*
X001534Y002554D02*
X001534Y001554D01*
X001484Y001554D01*
X001134Y001204D01*
X002534Y015554D02*
X002684Y015704D01*
X005734Y015704D01*
X007534Y017854D02*
X007534Y018854D01*
X008534Y018854D02*
X008534Y017854D01*
X009534Y017854D02*
X009534Y018854D01*
X009534Y017854D02*
X011134Y017854D01*
D30*
X010284Y018404D03*
X011384Y016854D03*
X010534Y016504D03*
X010084Y015904D03*
X008484Y016804D03*
X006834Y016204D03*
X006634Y016954D03*
X006584Y018654D03*
X005984Y018654D03*
X003384Y019154D03*
X001384Y018004D03*
X004534Y014304D03*
X003684Y013404D03*
X006334Y013704D03*
X008884Y013854D03*
X010584Y013754D03*
X011584Y013804D03*
X012284Y013354D03*
X013084Y014204D03*
X012684Y014704D03*
X014334Y015304D03*
X013634Y016354D03*
X014634Y016854D03*
X015684Y016804D03*
X016134Y015504D03*
X016134Y014654D03*
X015634Y013904D03*
X018934Y016504D03*
X016034Y018904D03*
X010584Y011954D03*
X010534Y011154D03*
X011584Y010654D03*
X011284Y009454D03*
X012084Y009504D03*
X012734Y009554D03*
X012534Y008454D03*
X012034Y007904D03*
X011434Y007454D03*
X010684Y006704D03*
X010034Y005854D03*
X009434Y006604D03*
X008884Y007054D03*
X008034Y007704D03*
X006634Y007154D03*
X006734Y009154D03*
X007934Y009954D03*
X008634Y010004D03*
X008684Y010604D03*
X009084Y011504D03*
X009234Y009104D03*
X009434Y008254D03*
X007234Y004904D03*
X004234Y008004D03*
X002384Y005704D03*
X003834Y003804D03*
X010584Y004604D03*
X014484Y008154D03*
X014484Y008854D03*
X015784Y006654D03*
X015934Y005904D03*
X015834Y005304D03*
X017034Y001054D03*
D31*
X006334Y013704D02*
X006334Y013805D01*
X005734Y014405D01*
X005734Y015704D02*
X006334Y015704D01*
X006834Y016204D01*
X004384Y017004D02*
X003998Y017004D01*
X003964Y016970D01*
X002704Y016970D02*
X002334Y016600D01*
X002334Y016354D01*
X001534Y015554D01*
X013634Y015589D02*
X013634Y016354D01*
X013999Y015954D02*
X014984Y015954D01*
X017135Y015954D01*
X017534Y015554D01*
X014984Y014655D02*
X013899Y014655D01*
X013634Y014920D01*
X013634Y015589D02*
X013999Y015954D01*
D32*
X007484Y016804D03*
X004384Y017004D03*
X005384Y010104D03*
D33*
X001534Y003704D03*
D34*
X010591Y013052D02*
X010641Y013465D01*
X010477Y013667D01*
X010584Y013754D01*
X010717Y013714D01*
X010641Y013465D01*
X010641Y013698D01*
X010584Y013754D01*
D35*
X001534Y004454D03*
M02*
