G75*
G70*
%OFA0B0*%
%FSLAX24Y24*%
%IPPOS*%
%LPD*%
%AMOC8*
5,1,8,0,0,1.08239X$1,22.5*
%
%ADD10C,0.0480*%
%ADD11C,0.0640*%
%ADD12OC8,0.0640*%
%ADD13R,0.0640X0.0640*%
%ADD14R,0.0433X0.0394*%
%ADD15R,0.0394X0.0433*%
%ADD16R,0.0315X0.0354*%
%ADD17C,0.0740*%
%ADD18OC8,0.0740*%
%ADD19R,0.0740X0.0740*%
%ADD20R,0.0500X0.0579*%
%ADD21R,0.0880X0.0480*%
%ADD22R,0.0866X0.1417*%
%ADD23C,0.0437*%
%ADD24R,0.0748X0.0433*%
%ADD25C,0.0240*%
%ADD26C,0.0436*%
%ADD27C,0.0100*%
%ADD28C,0.0160*%
%ADD29C,0.0397*%
%ADD30C,0.0476*%
%ADD31R,0.0436X0.0436*%
D10*
X006422Y005128D02*
X006761Y005467D01*
X005347Y006881D02*
X005007Y006542D01*
D11*
X018534Y005054D03*
D12*
X018534Y004054D03*
X017534Y004054D03*
X016534Y004054D03*
X016534Y005054D03*
X017534Y005054D03*
X015134Y017854D03*
X014134Y017854D03*
X013134Y017854D03*
X012134Y017854D03*
X012134Y018854D03*
X011134Y018854D03*
X013134Y018854D03*
X014134Y018854D03*
X015134Y018854D03*
D13*
X011134Y017854D03*
D14*
X010950Y015454D03*
X011619Y015454D03*
X011619Y014604D03*
X010950Y014604D03*
G36*
X007511Y008899D02*
X007206Y009204D01*
X007485Y009483D01*
X007790Y009178D01*
X007511Y008899D01*
G37*
G36*
X007984Y008426D02*
X007679Y008731D01*
X007958Y009010D01*
X008263Y008705D01*
X007984Y008426D01*
G37*
G36*
X009985Y008133D02*
X010290Y007828D01*
X010011Y007549D01*
X009706Y007854D01*
X009985Y008133D01*
G37*
G36*
X010458Y007660D02*
X010763Y007355D01*
X010484Y007076D01*
X010179Y007381D01*
X010458Y007660D01*
G37*
G36*
X012656Y005455D02*
X012961Y005760D01*
X013240Y005481D01*
X012935Y005176D01*
X012656Y005455D01*
G37*
G36*
X012129Y004978D02*
X012434Y005283D01*
X012713Y005004D01*
X012408Y004699D01*
X012129Y004978D01*
G37*
G36*
X011656Y004505D02*
X011961Y004810D01*
X012240Y004531D01*
X011935Y004226D01*
X011656Y004505D01*
G37*
G36*
X013129Y005928D02*
X013434Y006233D01*
X013713Y005954D01*
X013408Y005649D01*
X013129Y005928D01*
G37*
G36*
X014190Y006431D02*
X013885Y006126D01*
X013606Y006405D01*
X013911Y006710D01*
X014190Y006431D01*
G37*
G36*
X014663Y006904D02*
X014358Y006599D01*
X014079Y006878D01*
X014384Y007183D01*
X014663Y006904D01*
G37*
X016500Y017254D03*
X017169Y017254D03*
X017950Y017254D03*
X018619Y017254D03*
D15*
X016184Y008939D03*
X016184Y008270D03*
X010034Y012370D03*
X010034Y013039D03*
X004434Y011539D03*
X004434Y010870D03*
X001734Y005739D03*
X001734Y005070D03*
X008534Y004389D03*
X008534Y003720D03*
D16*
X006158Y017261D03*
X005410Y017261D03*
X005784Y018087D03*
D17*
X007534Y017854D03*
X008534Y017854D03*
X009534Y017854D03*
X009534Y018854D03*
X008534Y018854D03*
X007534Y018854D03*
X016754Y018254D03*
X018714Y018254D03*
X017534Y002554D03*
X017534Y001554D03*
X016534Y001554D03*
X015534Y001554D03*
X014534Y001554D03*
X013534Y001554D03*
X012534Y001554D03*
X011534Y001554D03*
X010534Y001554D03*
X009534Y001554D03*
X008534Y001554D03*
X007534Y001554D03*
X006534Y001554D03*
X005534Y001554D03*
X004534Y001554D03*
X003534Y001554D03*
X002534Y001554D03*
X001534Y001554D03*
X001534Y002554D03*
X002534Y002554D03*
X003534Y002554D03*
X004534Y002554D03*
X005534Y002554D03*
X006534Y002554D03*
X007534Y002554D03*
X008534Y002554D03*
X009534Y002554D03*
X010534Y002554D03*
X011534Y002554D03*
X012534Y002554D03*
X013534Y002554D03*
X014534Y002554D03*
X015534Y002554D03*
X016534Y002554D03*
D18*
X017534Y006554D03*
X017534Y007554D03*
X018534Y007554D03*
X018534Y006554D03*
X018534Y008554D03*
X017534Y008554D03*
X017534Y009554D03*
X018534Y009554D03*
X018534Y010554D03*
X017534Y010554D03*
X017534Y011554D03*
X018534Y011554D03*
X018534Y012554D03*
X017534Y012554D03*
X017534Y013554D03*
X018534Y013554D03*
X018534Y014554D03*
X017534Y014554D03*
X017534Y015554D03*
X018534Y015554D03*
X002534Y015554D03*
X002534Y014554D03*
X002534Y013554D03*
X002534Y012554D03*
X002534Y011554D03*
X002534Y010554D03*
X002534Y009554D03*
X002534Y008554D03*
X002534Y007554D03*
X002534Y006554D03*
X001534Y006554D03*
X001534Y007554D03*
X001534Y008554D03*
X001534Y009554D03*
X001534Y010554D03*
X001534Y011554D03*
X001534Y012554D03*
X001534Y013554D03*
X001534Y014554D03*
X001534Y015554D03*
D19*
X018534Y002554D03*
X018534Y001554D03*
D20*
G36*
X011356Y007775D02*
X011002Y008129D01*
X011410Y008537D01*
X011764Y008183D01*
X011356Y007775D01*
G37*
G36*
X010213Y009734D02*
X010567Y009380D01*
X010159Y008972D01*
X009805Y009326D01*
X010213Y009734D01*
G37*
D21*
X007314Y013694D03*
X007314Y014604D03*
X007314Y015514D03*
D22*
X009754Y014604D03*
D23*
X005984Y009154D03*
X005284Y009154D03*
X005284Y008554D03*
X004584Y008554D03*
X004584Y009154D03*
D24*
X004613Y005307D03*
X004613Y004402D03*
X003156Y004402D03*
X003156Y005307D03*
D25*
X001534Y004454D02*
X001484Y004404D01*
X008024Y013694D02*
X008484Y014154D01*
X008484Y016804D01*
X008484Y017804D01*
X008534Y017854D01*
X007934Y017454D02*
X007934Y015954D01*
X007494Y015514D01*
X007934Y017454D02*
X007534Y017854D01*
X009534Y017854D02*
X009534Y014774D01*
X009914Y014774D02*
X010584Y014104D01*
X010584Y013754D02*
X010554Y013754D01*
X012134Y017854D02*
X013134Y017854D01*
X014134Y017854D01*
X015134Y017854D01*
X011948Y004518D02*
X011934Y004504D01*
X011984Y003204D01*
D26*
X010584Y004604D03*
X010034Y005854D03*
X009434Y006604D03*
X008884Y007054D03*
X008034Y007704D03*
X006634Y007154D03*
X006734Y009154D03*
X007934Y009954D03*
X008634Y010004D03*
X008684Y010604D03*
X009084Y011504D03*
X010534Y011154D03*
X010584Y011954D03*
X011584Y010654D03*
X011284Y009454D03*
X012084Y009504D03*
X012734Y009554D03*
X012534Y008454D03*
X012034Y007904D03*
X011434Y007454D03*
X010684Y006704D03*
X009434Y008254D03*
X009234Y009104D03*
X007234Y004904D03*
X004234Y008004D03*
X002384Y005704D03*
X003834Y003804D03*
X003684Y013404D03*
X004534Y014304D03*
X006334Y013704D03*
X006834Y016204D03*
X006634Y016954D03*
X006584Y018654D03*
X005984Y018654D03*
X003384Y019154D03*
X001384Y018004D03*
X008484Y016804D03*
X010084Y015904D03*
X010534Y016504D03*
X011384Y016854D03*
X010284Y018404D03*
X013634Y016354D03*
X014634Y016854D03*
X015684Y016804D03*
X016134Y015504D03*
X016134Y014654D03*
X015634Y013904D03*
X014334Y015304D03*
X013084Y014204D03*
X012684Y014704D03*
X012284Y013354D03*
X011584Y013804D03*
X010584Y013754D03*
X008884Y013854D03*
X014484Y008854D03*
X014484Y008154D03*
X015784Y006654D03*
X015934Y005904D03*
X015834Y005304D03*
X017034Y001054D03*
X018934Y016504D03*
X016034Y018904D03*
D27*
X000755Y001530D02*
X000814Y001349D01*
X000814Y001395D01*
X000814Y004045D01*
X000943Y004174D01*
X001064Y004295D01*
X001089Y004320D01*
X001129Y004454D01*
X001089Y004589D01*
X000814Y004863D01*
X000814Y005045D01*
X000814Y009913D01*
X000814Y010095D01*
X000814Y014945D01*
X000943Y015074D01*
X001014Y015145D01*
X001111Y015242D01*
X001014Y015339D01*
X001014Y015504D01*
X001484Y015504D01*
X001484Y015604D01*
X001014Y015604D01*
X001014Y015770D01*
X001319Y016074D01*
X001484Y016074D01*
X001484Y015604D01*
X001584Y015604D01*
X001584Y016074D01*
X001750Y016074D01*
X002020Y015804D01*
X002311Y016094D01*
X002758Y016094D01*
X003074Y015778D01*
X003074Y015331D01*
X003018Y015274D01*
X006704Y015274D01*
X006704Y015825D01*
X006714Y015834D01*
X006614Y015875D01*
X006535Y015954D01*
X005134Y015954D01*
X005043Y015992D01*
X004972Y016063D01*
X004399Y016636D01*
X004311Y016636D01*
X004175Y016692D01*
X004072Y016796D01*
X004016Y016931D01*
X004016Y017078D01*
X004072Y017213D01*
X004175Y017317D01*
X004311Y017373D01*
X004457Y017373D01*
X004593Y017317D01*
X004696Y017213D01*
X004753Y017078D01*
X004753Y016989D01*
X005288Y016454D01*
X006535Y016454D01*
X006614Y016533D01*
X006694Y016566D01*
X006557Y016566D01*
X006414Y016625D01*
X006305Y016734D01*
X006246Y016877D01*
X006246Y016913D01*
X004829Y016913D01*
X004753Y017011D02*
X005085Y017011D01*
X005083Y017013D02*
X005182Y016913D01*
X005638Y016913D01*
X005738Y017013D01*
X005738Y017508D01*
X005638Y017608D01*
X005374Y017608D01*
X005254Y017728D01*
X005254Y018963D01*
X005425Y019134D01*
X007066Y019134D01*
X006994Y018962D01*
X006994Y018747D01*
X007076Y018548D01*
X007228Y018397D01*
X007330Y018354D01*
X007228Y018312D01*
X007076Y018160D01*
X006994Y017962D01*
X006994Y017747D01*
X007076Y017548D01*
X007228Y017397D01*
X007427Y017314D01*
X007642Y017314D01*
X007644Y017315D01*
X007644Y017143D01*
X007602Y017154D01*
X007557Y017173D01*
X007532Y017173D01*
X007389Y017211D01*
X006804Y017795D01*
X006804Y018268D01*
X006804Y018300D01*
X006840Y018361D01*
X006913Y018434D01*
X006972Y018577D01*
X006972Y018732D01*
X006913Y018874D01*
X006804Y018983D01*
X006661Y019042D01*
X006507Y019042D01*
X006364Y018983D01*
X006284Y018903D01*
X006204Y018983D01*
X006061Y019042D01*
X005907Y019042D01*
X005764Y018983D01*
X005655Y018874D01*
X005596Y018732D01*
X005596Y018605D01*
X005588Y018569D01*
X005564Y018545D01*
X005564Y018491D01*
X005547Y018459D01*
X005555Y018433D01*
X005457Y018335D01*
X005457Y017840D01*
X005556Y017740D01*
X006012Y017740D01*
X006112Y017840D01*
X006112Y018287D01*
X006204Y018325D01*
X006284Y018405D01*
X006328Y018361D01*
X006364Y018300D01*
X006364Y018268D01*
X006364Y017795D01*
X006364Y017613D01*
X006370Y017608D01*
X005930Y017608D01*
X005831Y017508D01*
X005831Y017013D01*
X005930Y016913D01*
X006246Y016913D01*
X006272Y016814D02*
X004928Y016814D01*
X005027Y016715D02*
X006324Y016715D01*
X006435Y016617D02*
X005125Y016617D01*
X005224Y016518D02*
X006599Y016518D01*
X006491Y016916D02*
X006634Y016954D01*
X006672Y017098D01*
X006425Y017163D01*
X006491Y016916D01*
X006634Y016954D02*
X006425Y017163D01*
X006328Y017261D01*
X006158Y017261D01*
X005831Y017307D02*
X005738Y017307D01*
X005738Y017405D02*
X005831Y017405D01*
X005831Y017504D02*
X005738Y017504D01*
X005643Y017602D02*
X005925Y017602D01*
X006071Y017799D02*
X006364Y017799D01*
X006364Y017701D02*
X005281Y017701D01*
X005254Y017799D02*
X005497Y017799D01*
X005457Y017898D02*
X005254Y017898D01*
X005254Y017996D02*
X005457Y017996D01*
X005457Y018095D02*
X005254Y018095D01*
X005254Y018194D02*
X005457Y018194D01*
X005457Y018292D02*
X005254Y018292D01*
X005254Y018391D02*
X005512Y018391D01*
X005563Y018489D02*
X005254Y018489D01*
X005254Y018588D02*
X005592Y018588D01*
X005596Y018686D02*
X005254Y018686D01*
X005254Y018785D02*
X005618Y018785D01*
X005664Y018883D02*
X005254Y018883D01*
X005273Y018982D02*
X005763Y018982D01*
X005839Y018686D02*
X005984Y018654D01*
X006028Y018513D01*
X005784Y018437D01*
X005839Y018686D01*
X005984Y018654D02*
X005784Y018454D01*
X005784Y018437D01*
X005784Y018087D01*
X006112Y018095D02*
X006364Y018095D01*
X006364Y017996D02*
X006112Y017996D01*
X006112Y017898D02*
X006364Y017898D01*
X006584Y017704D02*
X007275Y017013D01*
X007522Y016948D01*
X007484Y016804D01*
X007341Y016766D01*
X007275Y017013D01*
X007484Y016804D01*
X007398Y017208D02*
X007644Y017208D01*
X007644Y017307D02*
X007293Y017307D01*
X007220Y017405D02*
X007194Y017405D01*
X007121Y017504D02*
X007096Y017504D01*
X007054Y017602D02*
X006997Y017602D01*
X007013Y017701D02*
X006899Y017701D01*
X006804Y017799D02*
X006994Y017799D01*
X006994Y017898D02*
X006804Y017898D01*
X006804Y017996D02*
X007009Y017996D01*
X007049Y018095D02*
X006804Y018095D01*
X006804Y018194D02*
X007110Y018194D01*
X007208Y018292D02*
X006804Y018292D01*
X006869Y018391D02*
X007242Y018391D01*
X007136Y018489D02*
X006936Y018489D01*
X006972Y018588D02*
X007060Y018588D01*
X007019Y018686D02*
X006972Y018686D01*
X006950Y018785D02*
X006994Y018785D01*
X006994Y018883D02*
X006904Y018883D01*
X006805Y018982D02*
X007003Y018982D01*
X007043Y019080D02*
X005371Y019080D01*
X005334Y019354D02*
X009034Y019354D01*
X009534Y018854D01*
X009330Y018354D02*
X009228Y018397D01*
X009076Y018548D01*
X009023Y018677D01*
X009016Y018655D01*
X008979Y018582D01*
X008931Y018516D01*
X008873Y018458D01*
X008807Y018410D01*
X008734Y018372D01*
X008678Y018354D01*
X008734Y018336D01*
X008807Y018299D01*
X008873Y018251D01*
X008931Y018193D01*
X008979Y018127D01*
X009016Y018054D01*
X009023Y018032D01*
X009076Y018160D01*
X009228Y018312D01*
X009330Y018354D01*
X009242Y018391D02*
X008770Y018391D01*
X008816Y018292D02*
X009208Y018292D01*
X009110Y018194D02*
X008930Y018194D01*
X008995Y018095D02*
X009049Y018095D01*
X009034Y018354D02*
X008534Y018854D01*
X008484Y018804D02*
X008584Y018804D01*
X008584Y018336D01*
X008584Y017904D01*
X008484Y017904D01*
X008484Y018373D01*
X008484Y018804D01*
X008484Y018785D02*
X008584Y018785D01*
X008584Y018686D02*
X008484Y018686D01*
X008484Y018588D02*
X008584Y018588D01*
X008584Y018489D02*
X008484Y018489D01*
X008484Y018391D02*
X008584Y018391D01*
X008584Y018292D02*
X008484Y018292D01*
X008484Y018194D02*
X008584Y018194D01*
X008584Y018095D02*
X008484Y018095D01*
X008484Y017996D02*
X008584Y017996D01*
X008584Y017804D02*
X008584Y017336D01*
X008656Y017347D01*
X008734Y017372D01*
X008807Y017410D01*
X008873Y017458D01*
X008931Y017516D01*
X008979Y017582D01*
X009016Y017655D01*
X009023Y017677D01*
X009076Y017548D01*
X009228Y017397D01*
X009244Y017390D01*
X009244Y015476D01*
X009151Y015383D01*
X009151Y014136D01*
X009104Y014183D01*
X008961Y014242D01*
X008807Y014242D01*
X008664Y014183D01*
X008555Y014074D01*
X008496Y013932D01*
X008496Y013777D01*
X008555Y013634D01*
X008628Y013561D01*
X008664Y013500D01*
X008664Y013345D01*
X008614Y013295D01*
X008614Y013113D01*
X008614Y012713D01*
X008743Y012584D01*
X009298Y012029D01*
X009179Y011911D01*
X009111Y011892D01*
X009058Y011892D01*
X008989Y011911D01*
X008966Y011933D01*
X008125Y012774D01*
X007943Y012774D01*
X003074Y012774D01*
X003074Y012778D01*
X002798Y013054D01*
X003074Y013331D01*
X003074Y013778D01*
X002798Y014054D01*
X003074Y014331D01*
X003074Y014778D01*
X003018Y014834D01*
X006704Y014834D01*
X006704Y014294D01*
X006804Y014194D01*
X007825Y014194D01*
X007924Y014294D01*
X007924Y014915D01*
X007825Y015014D01*
X007185Y015014D01*
X007095Y015104D01*
X007825Y015104D01*
X007924Y015204D01*
X007924Y015534D01*
X008180Y015790D01*
X008224Y015897D01*
X008224Y016012D01*
X008224Y017437D01*
X008262Y017410D01*
X008335Y017372D01*
X008412Y017347D01*
X008484Y017336D01*
X008484Y017804D01*
X008584Y017804D01*
X008584Y017799D02*
X008484Y017799D01*
X008484Y017701D02*
X008584Y017701D01*
X008584Y017602D02*
X008484Y017602D01*
X008484Y017504D02*
X008584Y017504D01*
X008584Y017405D02*
X008484Y017405D01*
X008270Y017405D02*
X008224Y017405D01*
X008224Y017307D02*
X009244Y017307D01*
X009244Y017208D02*
X008224Y017208D01*
X008224Y017110D02*
X009244Y017110D01*
X009244Y017011D02*
X008224Y017011D01*
X008224Y016913D02*
X009244Y016913D01*
X009244Y016814D02*
X008224Y016814D01*
X008224Y016715D02*
X009244Y016715D01*
X009244Y016617D02*
X008224Y016617D01*
X008224Y016518D02*
X009244Y016518D01*
X009244Y016420D02*
X008224Y016420D01*
X008224Y016321D02*
X009244Y016321D01*
X009244Y016223D02*
X008224Y016223D01*
X008224Y016124D02*
X009244Y016124D01*
X009244Y016026D02*
X008224Y016026D01*
X008224Y015927D02*
X009244Y015927D01*
X009244Y015829D02*
X008196Y015829D01*
X008120Y015730D02*
X009244Y015730D01*
X009244Y015631D02*
X008021Y015631D01*
X007924Y015533D02*
X009244Y015533D01*
X009202Y015434D02*
X007924Y015434D01*
X007924Y015336D02*
X009151Y015336D01*
X009151Y015237D02*
X007924Y015237D01*
X007859Y015139D02*
X009151Y015139D01*
X009151Y015040D02*
X007159Y015040D01*
X007159Y014729D02*
X007314Y014729D01*
X007314Y014604D01*
X007284Y014604D02*
X007159Y014729D01*
X006834Y015054D01*
X001234Y015054D01*
X001034Y014854D01*
X001034Y010004D01*
X001084Y010054D01*
X002784Y010054D01*
X003084Y009754D01*
X004284Y009754D01*
X004434Y009954D01*
X004584Y009754D01*
X006084Y009754D01*
X006502Y009337D01*
X006755Y009301D01*
X006734Y009154D01*
X006596Y009099D01*
X006502Y009337D01*
X006684Y009154D01*
X006734Y009154D01*
X006809Y009026D01*
X007029Y009154D01*
X006809Y009283D01*
X006734Y009154D01*
X007029Y009154D01*
X007461Y009154D01*
X007498Y009191D01*
X007239Y008931D02*
X007082Y008931D01*
X007089Y008934D02*
X007235Y008934D01*
X007441Y008729D01*
X007509Y008729D01*
X007509Y008661D01*
X007914Y008255D01*
X008055Y008255D01*
X008297Y008498D01*
X008880Y008498D01*
X009028Y008350D01*
X009046Y008281D01*
X009046Y008177D01*
X009105Y008034D01*
X009214Y007925D01*
X009357Y007866D01*
X009511Y007866D01*
X009558Y007886D01*
X009555Y007875D01*
X009555Y007835D01*
X009566Y007797D01*
X009585Y007763D01*
X009718Y007630D01*
X009929Y007841D01*
X009997Y007772D01*
X009787Y007561D01*
X009919Y007429D01*
X009954Y007409D01*
X009992Y007399D01*
X010009Y007399D01*
X010009Y007311D01*
X010063Y007257D01*
X009840Y007021D01*
X009717Y006898D01*
X009671Y006917D01*
X009654Y006933D01*
X009511Y006992D01*
X009357Y006992D01*
X009214Y006933D01*
X009105Y006824D01*
X009046Y006682D01*
X009046Y006527D01*
X009105Y006384D01*
X009204Y006285D01*
X009164Y006245D01*
X008314Y005395D01*
X008314Y005213D01*
X008314Y004775D01*
X008267Y004775D01*
X008167Y004676D01*
X008167Y004102D01*
X008229Y004040D01*
X008217Y004028D01*
X008198Y003994D01*
X008187Y003956D01*
X008187Y003768D01*
X008485Y003768D01*
X008485Y003671D01*
X008187Y003671D01*
X008187Y003483D01*
X008198Y003445D01*
X008217Y003411D01*
X008245Y003383D01*
X008279Y003363D01*
X008318Y003353D01*
X008486Y003353D01*
X008486Y003671D01*
X008583Y003671D01*
X008583Y003768D01*
X008881Y003768D01*
X008881Y003956D01*
X008871Y003994D01*
X008851Y004028D01*
X008839Y004040D01*
X008901Y004102D01*
X008901Y004676D01*
X008801Y004775D01*
X008754Y004775D01*
X008754Y005213D01*
X009475Y005934D01*
X009593Y005934D01*
X009775Y005934D01*
X010311Y006470D01*
X010428Y006411D01*
X010464Y006375D01*
X010607Y006316D01*
X010742Y006316D01*
X010795Y006305D01*
X010813Y006287D01*
X012006Y005095D01*
X011959Y005047D01*
X011959Y004960D01*
X011942Y004960D01*
X011904Y004950D01*
X011869Y004930D01*
X011737Y004797D01*
X011947Y004586D01*
X011879Y004518D01*
X011668Y004729D01*
X011535Y004596D01*
X011516Y004562D01*
X011505Y004524D01*
X011505Y004484D01*
X011516Y004446D01*
X011535Y004412D01*
X011654Y004293D01*
X011879Y004518D01*
X011947Y004449D01*
X011723Y004224D01*
X011842Y004105D01*
X011876Y004086D01*
X011914Y004075D01*
X011953Y004075D01*
X011992Y004086D01*
X012026Y004105D01*
X012159Y004238D01*
X011948Y004449D01*
X012016Y004518D01*
X011948Y004586D01*
X012113Y004752D01*
X012182Y004683D01*
X012016Y004518D01*
X012227Y004307D01*
X012360Y004439D01*
X012380Y004474D01*
X012390Y004512D01*
X012390Y004529D01*
X012477Y004529D01*
X012525Y004576D01*
X012814Y004286D01*
X012814Y003023D01*
X012642Y003094D01*
X012427Y003094D01*
X012228Y003012D01*
X012076Y002860D01*
X012034Y002758D01*
X011992Y002860D01*
X011840Y003012D01*
X011642Y003094D01*
X011427Y003094D01*
X011228Y003012D01*
X011076Y002860D01*
X011034Y002758D01*
X010992Y002860D01*
X010840Y003012D01*
X010642Y003094D01*
X010427Y003094D01*
X010228Y003012D01*
X010076Y002860D01*
X010034Y002758D01*
X009992Y002860D01*
X009840Y003012D01*
X009642Y003094D01*
X009427Y003094D01*
X009228Y003012D01*
X009076Y002860D01*
X009034Y002758D01*
X008992Y002860D01*
X008840Y003012D01*
X008642Y003094D01*
X008427Y003094D01*
X008228Y003012D01*
X008076Y002860D01*
X008034Y002758D01*
X007992Y002860D01*
X007840Y003012D01*
X007642Y003094D01*
X007427Y003094D01*
X007228Y003012D01*
X007076Y002860D01*
X007034Y002758D01*
X006992Y002860D01*
X006840Y003012D01*
X006642Y003094D01*
X006427Y003094D01*
X006228Y003012D01*
X006076Y002860D01*
X006034Y002758D01*
X005992Y002860D01*
X005840Y003012D01*
X005642Y003094D01*
X005427Y003094D01*
X005228Y003012D01*
X005076Y002860D01*
X005034Y002758D01*
X004992Y002860D01*
X004840Y003012D01*
X004642Y003094D01*
X004427Y003094D01*
X004228Y003012D01*
X004076Y002860D01*
X004034Y002758D01*
X003992Y002860D01*
X003840Y003012D01*
X003642Y003094D01*
X003427Y003094D01*
X003228Y003012D01*
X003076Y002860D01*
X003034Y002758D01*
X002992Y002860D01*
X002840Y003012D01*
X002642Y003094D01*
X002427Y003094D01*
X002228Y003012D01*
X002076Y002860D01*
X002023Y002732D01*
X002016Y002754D01*
X001979Y002827D01*
X001931Y002893D01*
X001873Y002951D01*
X001807Y002999D01*
X001734Y003036D01*
X001656Y003061D01*
X001584Y003073D01*
X001584Y002604D01*
X001484Y002604D01*
X001484Y003073D01*
X001412Y003061D01*
X001335Y003036D01*
X001262Y002999D01*
X001254Y002994D01*
X001254Y003863D01*
X001375Y003984D01*
X001400Y004009D01*
X001534Y004049D01*
X001657Y004012D01*
X002064Y003518D01*
X002090Y003487D01*
X002180Y003377D01*
X002180Y003377D01*
X002264Y003275D01*
X002264Y003263D01*
X002321Y003206D01*
X002372Y003144D01*
X002384Y003143D01*
X002393Y003134D01*
X002474Y003134D01*
X002554Y003127D01*
X002563Y003134D01*
X007393Y003134D01*
X007575Y003134D01*
X007925Y003484D01*
X008054Y003613D01*
X008054Y005513D01*
X008054Y005695D01*
X007404Y006345D01*
X007404Y006763D01*
X007916Y007276D01*
X007939Y007298D01*
X008008Y007316D01*
X008111Y007316D01*
X008254Y007375D01*
X008363Y007484D01*
X008422Y007627D01*
X008422Y007782D01*
X008363Y007924D01*
X008254Y008033D01*
X008111Y008092D01*
X007957Y008092D01*
X007814Y008033D01*
X007705Y007924D01*
X007646Y007782D01*
X007646Y007678D01*
X007628Y007609D01*
X007605Y007587D01*
X007093Y007074D01*
X006970Y006951D01*
X007022Y007077D01*
X007022Y007232D01*
X006963Y007374D01*
X006854Y007483D01*
X006711Y007542D01*
X006557Y007542D01*
X006414Y007483D01*
X006305Y007374D01*
X006246Y007232D01*
X006246Y007077D01*
X006305Y006934D01*
X006314Y006925D01*
X006314Y006795D01*
X005414Y005895D01*
X005414Y005713D01*
X005414Y004745D01*
X005290Y004622D01*
X005156Y004622D01*
X005156Y004689D01*
X005057Y004788D01*
X004168Y004788D01*
X004069Y004689D01*
X004069Y004115D01*
X004168Y004015D01*
X005057Y004015D01*
X005156Y004115D01*
X005156Y004182D01*
X005290Y004182D01*
X005473Y004182D01*
X005725Y004434D01*
X005854Y004563D01*
X005854Y005713D01*
X006625Y006484D01*
X006754Y006613D01*
X006754Y006784D01*
X006854Y006825D01*
X006963Y006934D01*
X006964Y006937D01*
X006964Y006163D01*
X007093Y006034D01*
X007614Y005513D01*
X007614Y003795D01*
X007393Y003574D01*
X002588Y003574D01*
X002420Y003779D01*
X002088Y004182D01*
X002612Y004182D01*
X002612Y004115D01*
X002711Y004015D01*
X003600Y004015D01*
X003700Y004115D01*
X003700Y004689D01*
X003600Y004788D01*
X002711Y004788D01*
X002612Y004689D01*
X002612Y004622D01*
X001922Y004622D01*
X001922Y004683D01*
X002001Y004683D01*
X002101Y004783D01*
X002101Y005357D01*
X002053Y005404D01*
X002094Y005445D01*
X002164Y005375D01*
X002307Y005316D01*
X002461Y005316D01*
X002604Y005375D01*
X002612Y005383D01*
X002612Y005383D01*
X002612Y005020D01*
X002711Y004921D01*
X003600Y004921D01*
X003700Y005020D01*
X003700Y005594D01*
X003600Y005694D01*
X002772Y005694D01*
X002772Y005782D01*
X002713Y005924D01*
X002623Y006014D01*
X002758Y006014D01*
X003074Y006331D01*
X003074Y006778D01*
X002798Y007054D01*
X003074Y007331D01*
X003074Y007778D01*
X002798Y008054D01*
X003074Y008331D01*
X003074Y008778D01*
X002798Y009054D01*
X003074Y009331D01*
X003074Y009534D01*
X003175Y009534D01*
X004193Y009534D01*
X004211Y009534D01*
X004225Y009524D01*
X004300Y009534D01*
X004393Y009534D01*
X004487Y009534D01*
X004364Y009484D01*
X004255Y009374D01*
X004196Y009232D01*
X004196Y009077D01*
X004255Y008934D01*
X004335Y008854D01*
X004255Y008774D01*
X004196Y008632D01*
X004196Y008477D01*
X004255Y008334D01*
X004364Y008225D01*
X004507Y008166D01*
X004661Y008166D01*
X004804Y008225D01*
X004913Y008334D01*
X004934Y008384D01*
X004955Y008334D01*
X005064Y008225D01*
X005207Y008166D01*
X005361Y008166D01*
X005504Y008225D01*
X005613Y008334D01*
X005673Y008477D01*
X005673Y008632D01*
X005613Y008774D01*
X005533Y008854D01*
X005613Y008934D01*
X005634Y008984D01*
X005655Y008934D01*
X005764Y008825D01*
X005907Y008766D01*
X006061Y008766D01*
X006204Y008825D01*
X006313Y008934D01*
X006359Y009045D01*
X006405Y008934D01*
X006514Y008825D01*
X006657Y008766D01*
X006811Y008766D01*
X006954Y008825D01*
X007027Y008899D01*
X007089Y008934D01*
X006961Y008832D02*
X007338Y008832D01*
X007436Y008733D02*
X005630Y008733D01*
X005671Y008635D02*
X007535Y008635D01*
X007633Y008536D02*
X005673Y008536D01*
X005656Y008438D02*
X007732Y008438D01*
X007830Y008339D02*
X005615Y008339D01*
X005520Y008241D02*
X009046Y008241D01*
X009031Y008339D02*
X008139Y008339D01*
X008238Y008438D02*
X008940Y008438D01*
X008971Y008718D02*
X009225Y008463D01*
X009472Y008398D01*
X009434Y008254D01*
X009291Y008216D01*
X009225Y008463D01*
X009434Y008254D01*
X009822Y008241D02*
X009879Y008241D01*
X009892Y008253D02*
X009822Y008184D01*
X009822Y008332D01*
X009763Y008474D01*
X009654Y008583D01*
X009511Y008642D01*
X009408Y008642D01*
X009339Y008661D01*
X009283Y008716D01*
X009311Y008716D01*
X009454Y008775D01*
X009527Y008849D01*
X009589Y008884D01*
X009846Y008884D01*
X010005Y008884D01*
X010087Y008801D01*
X010228Y008801D01*
X010737Y009310D01*
X010737Y009451D01*
X010404Y009784D01*
X011815Y009784D01*
X011755Y009724D01*
X011696Y009582D01*
X011696Y009427D01*
X011755Y009284D01*
X011864Y009175D01*
X012007Y009116D01*
X012111Y009116D01*
X012179Y009098D01*
X012203Y009074D01*
X011990Y009074D01*
X011861Y008945D01*
X011552Y008636D01*
X011481Y008707D01*
X011340Y008707D01*
X010831Y008198D01*
X010831Y008058D01*
X011160Y007729D01*
X011105Y007674D01*
X011046Y007532D01*
X011046Y007377D01*
X011105Y007234D01*
X011178Y007161D01*
X011214Y007100D01*
X011214Y007068D01*
X011214Y006890D01*
X011343Y006761D01*
X012533Y005571D01*
X012485Y005524D01*
X012485Y005453D01*
X012364Y005453D01*
X012317Y005406D01*
X011124Y006599D01*
X011097Y006626D01*
X011072Y006702D01*
X011072Y006782D01*
X011013Y006924D01*
X010904Y007033D01*
X010761Y007092D01*
X010742Y007092D01*
X010933Y007283D01*
X010933Y007424D01*
X010527Y007830D01*
X010440Y007830D01*
X010440Y007847D01*
X010430Y007885D01*
X010410Y007919D01*
X010277Y008052D01*
X010066Y007841D01*
X009998Y007910D01*
X010209Y008120D01*
X010076Y008253D01*
X010042Y008273D01*
X010003Y008283D01*
X009964Y008283D01*
X009926Y008273D01*
X009892Y008253D01*
X009819Y008339D02*
X010972Y008339D01*
X010874Y008241D02*
X010088Y008241D01*
X010187Y008142D02*
X010831Y008142D01*
X010845Y008044D02*
X010285Y008044D01*
X010269Y008044D02*
X010132Y008044D01*
X010170Y007945D02*
X010033Y007945D01*
X009998Y007968D02*
X011034Y009004D01*
X011211Y009004D01*
X011284Y009078D01*
X011284Y009159D01*
X011156Y009380D01*
X011284Y009454D01*
X011412Y009380D01*
X011284Y009159D01*
X011284Y009454D01*
X011698Y009423D02*
X010737Y009423D01*
X010737Y009325D02*
X011738Y009325D01*
X011813Y009226D02*
X010653Y009226D01*
X010554Y009128D02*
X011979Y009128D01*
X011945Y009029D02*
X010456Y009029D01*
X010357Y008931D02*
X011846Y008931D01*
X011748Y008832D02*
X010259Y008832D01*
X010057Y008832D02*
X009511Y008832D01*
X009353Y008733D02*
X011649Y008733D01*
X011976Y008438D02*
X012146Y008438D01*
X012146Y008377D02*
X012205Y008234D01*
X012278Y008161D01*
X012314Y008100D01*
X012314Y007872D01*
X012314Y007690D01*
X013483Y006521D01*
X013435Y006474D01*
X013435Y006403D01*
X013364Y006403D01*
X012959Y005997D01*
X012959Y005930D01*
X012891Y005930D01*
X012844Y005883D01*
X011654Y007072D01*
X011654Y007100D01*
X011690Y007161D01*
X011763Y007234D01*
X011822Y007377D01*
X011822Y007532D01*
X011763Y007674D01*
X011654Y007783D01*
X011619Y007798D01*
X011934Y008113D01*
X011934Y008254D01*
X011863Y008325D01*
X012172Y008634D01*
X012189Y008634D01*
X012146Y008532D01*
X012146Y008377D01*
X012162Y008339D02*
X011877Y008339D01*
X011934Y008241D02*
X012203Y008241D01*
X012289Y008142D02*
X011934Y008142D01*
X011864Y008044D02*
X012314Y008044D01*
X012314Y007945D02*
X011766Y007945D01*
X011667Y007847D02*
X012314Y007847D01*
X012314Y007748D02*
X011689Y007748D01*
X011773Y007649D02*
X012355Y007649D01*
X012453Y007551D02*
X011814Y007551D01*
X011822Y007452D02*
X012552Y007452D01*
X012650Y007354D02*
X011813Y007354D01*
X011772Y007255D02*
X012749Y007255D01*
X012847Y007157D02*
X011687Y007157D01*
X011668Y007058D02*
X012946Y007058D01*
X013044Y006960D02*
X011767Y006960D01*
X011865Y006861D02*
X013143Y006861D01*
X013242Y006763D02*
X011964Y006763D01*
X012062Y006664D02*
X013340Y006664D01*
X013439Y006565D02*
X012161Y006565D01*
X012259Y006467D02*
X013435Y006467D01*
X013329Y006368D02*
X012358Y006368D01*
X012456Y006270D02*
X013231Y006270D01*
X013132Y006171D02*
X012555Y006171D01*
X012654Y006073D02*
X013034Y006073D01*
X012959Y005974D02*
X012752Y005974D01*
X012426Y005679D02*
X012044Y005679D01*
X011946Y005777D02*
X012327Y005777D01*
X012228Y005876D02*
X011847Y005876D01*
X011749Y005974D02*
X012130Y005974D01*
X012031Y006073D02*
X011650Y006073D01*
X011552Y006171D02*
X011933Y006171D01*
X011834Y006270D02*
X011453Y006270D01*
X011354Y006368D02*
X011736Y006368D01*
X011637Y006467D02*
X011256Y006467D01*
X011157Y006565D02*
X011539Y006565D01*
X011440Y006664D02*
X011085Y006664D01*
X011072Y006763D02*
X011342Y006763D01*
X011243Y006861D02*
X011039Y006861D01*
X010978Y006960D02*
X011214Y006960D01*
X011214Y007058D02*
X010844Y007058D01*
X010806Y007157D02*
X011181Y007157D01*
X011096Y007255D02*
X010905Y007255D01*
X010933Y007354D02*
X011056Y007354D01*
X011046Y007452D02*
X010905Y007452D01*
X010806Y007551D02*
X011054Y007551D01*
X011095Y007649D02*
X010708Y007649D01*
X010609Y007748D02*
X011141Y007748D01*
X011042Y007847D02*
X010440Y007847D01*
X010384Y007945D02*
X010944Y007945D01*
X011383Y008156D02*
X012081Y008854D01*
X014189Y008854D01*
X014409Y008983D01*
X014484Y008854D01*
X014484Y008904D01*
X014784Y009204D01*
X015919Y009204D01*
X016184Y008939D01*
X015879Y008590D02*
X015867Y008578D01*
X015848Y008544D01*
X015837Y008506D01*
X015837Y008318D01*
X016135Y008318D01*
X016135Y008221D01*
X015837Y008221D01*
X015837Y008033D01*
X015848Y007995D01*
X015867Y007961D01*
X015895Y007933D01*
X015929Y007913D01*
X015968Y007903D01*
X016136Y007903D01*
X016136Y008221D01*
X016233Y008221D01*
X016233Y008318D01*
X016531Y008318D01*
X016531Y008506D01*
X016521Y008544D01*
X016501Y008578D01*
X016489Y008590D01*
X016551Y008652D01*
X016551Y009226D01*
X016451Y009325D01*
X016109Y009325D01*
X016050Y009384D01*
X016693Y009384D01*
X016714Y009363D01*
X016714Y009063D01*
X016843Y008934D01*
X016997Y008781D01*
X016994Y008778D01*
X016994Y008331D01*
X017271Y008054D01*
X016994Y007778D01*
X016994Y007331D01*
X017271Y007054D01*
X016994Y006778D01*
X016994Y006331D01*
X017311Y006014D01*
X017758Y006014D01*
X018034Y006291D01*
X018311Y006014D01*
X018758Y006014D01*
X019074Y006331D01*
X019074Y006778D01*
X018798Y007054D01*
X019074Y007331D01*
X019074Y007778D01*
X018784Y008068D01*
X019054Y008339D01*
X019054Y008504D01*
X018584Y008504D01*
X018584Y008604D01*
X019054Y008604D01*
X019054Y008770D01*
X018784Y009040D01*
X019074Y009331D01*
X019074Y009778D01*
X018798Y010054D01*
X019074Y010331D01*
X019074Y010778D01*
X018798Y011054D01*
X019074Y011331D01*
X019074Y011778D01*
X018798Y012054D01*
X019074Y012331D01*
X019074Y012778D01*
X018798Y013054D01*
X019074Y013331D01*
X019074Y013778D01*
X018798Y014054D01*
X019074Y014331D01*
X019074Y014778D01*
X018798Y015054D01*
X019074Y015331D01*
X019074Y015778D01*
X018758Y016094D01*
X018311Y016094D01*
X018034Y015818D01*
X017758Y016094D01*
X017311Y016094D01*
X016994Y015778D01*
X016994Y015331D01*
X017271Y015054D01*
X016994Y014778D01*
X016994Y014333D01*
X015902Y014333D01*
X015875Y014349D01*
X015843Y014341D01*
X015811Y014349D01*
X015784Y014333D01*
X015752Y014333D01*
X015729Y014311D01*
X015661Y014292D01*
X015557Y014292D01*
X015414Y014233D01*
X015305Y014124D01*
X015246Y013982D01*
X015246Y013827D01*
X015305Y013684D01*
X015414Y013575D01*
X015557Y013516D01*
X015711Y013516D01*
X015854Y013575D01*
X015963Y013684D01*
X016022Y013827D01*
X016022Y013893D01*
X017002Y013893D01*
X017109Y013893D01*
X016994Y013778D01*
X016994Y013331D01*
X017271Y013054D01*
X016994Y012778D01*
X016994Y012331D01*
X017271Y012054D01*
X016994Y011778D01*
X016994Y011331D01*
X017271Y011054D01*
X016994Y010778D01*
X016994Y010331D01*
X017051Y010274D01*
X013143Y010274D01*
X013014Y010145D01*
X012829Y009961D01*
X012761Y009942D01*
X012683Y009942D01*
X015075Y012334D01*
X015204Y012463D01*
X015204Y015113D01*
X016591Y016500D01*
X016719Y016629D01*
X016719Y016887D01*
X016786Y016887D01*
X016848Y016949D01*
X016860Y016937D01*
X016894Y016918D01*
X016933Y016907D01*
X017120Y016907D01*
X017120Y017206D01*
X017217Y017206D01*
X017217Y016907D01*
X017405Y016907D01*
X017443Y016918D01*
X017477Y016937D01*
X017505Y016965D01*
X017525Y017000D01*
X017535Y017038D01*
X017535Y017206D01*
X017217Y017206D01*
X017217Y017303D01*
X017120Y017303D01*
X017120Y017601D01*
X016933Y017601D01*
X016894Y017591D01*
X016860Y017571D01*
X016848Y017559D01*
X016786Y017621D01*
X016724Y017621D01*
X016724Y017714D01*
X016862Y017714D01*
X017060Y017797D01*
X017212Y017948D01*
X017294Y018147D01*
X017294Y018362D01*
X017212Y018560D01*
X017060Y018712D01*
X016862Y018794D01*
X016647Y018794D01*
X016448Y018712D01*
X016296Y018560D01*
X016214Y018362D01*
X016214Y018147D01*
X016284Y017978D01*
X016284Y017913D01*
X016284Y017621D01*
X016213Y017621D01*
X016113Y017522D01*
X016113Y016987D01*
X016213Y016887D01*
X016280Y016887D01*
X016280Y016811D01*
X015004Y015535D01*
X015004Y016509D01*
X015004Y016510D01*
X015005Y016510D01*
X015004Y016543D01*
X015021Y016572D01*
X015004Y016630D01*
X015004Y016733D01*
X015022Y016777D01*
X015022Y016932D01*
X014963Y017074D01*
X014854Y017183D01*
X014711Y017242D01*
X014557Y017242D01*
X014414Y017183D01*
X014305Y017074D01*
X014246Y016932D01*
X014246Y016777D01*
X014305Y016634D01*
X014414Y016525D01*
X014557Y016466D01*
X014564Y016466D01*
X014564Y015623D01*
X014554Y015633D01*
X014411Y015692D01*
X014257Y015692D01*
X014114Y015633D01*
X014041Y015560D01*
X013980Y015524D01*
X013948Y015524D01*
X013018Y015524D01*
X012900Y015524D01*
X012750Y015674D01*
X012568Y015674D01*
X012005Y015674D01*
X012005Y015722D01*
X011906Y015821D01*
X011332Y015821D01*
X011284Y015773D01*
X011236Y015821D01*
X010894Y015821D01*
X010754Y015961D01*
X010754Y016150D01*
X010790Y016211D01*
X010863Y016284D01*
X010872Y016306D01*
X010893Y016284D01*
X011043Y016134D01*
X011225Y016134D01*
X013248Y016134D01*
X013279Y016134D01*
X013341Y016098D01*
X013414Y016025D01*
X013557Y015966D01*
X013711Y015966D01*
X013854Y016025D01*
X013963Y016134D01*
X014022Y016277D01*
X014022Y016432D01*
X013963Y016574D01*
X013854Y016683D01*
X013711Y016742D01*
X013557Y016742D01*
X013414Y016683D01*
X013341Y016610D01*
X013280Y016574D01*
X013248Y016574D01*
X011653Y016574D01*
X011713Y016634D01*
X011772Y016777D01*
X011772Y016881D01*
X011790Y016950D01*
X011854Y017013D01*
X011854Y017470D01*
X011939Y017384D01*
X012084Y017384D01*
X012084Y017804D01*
X012184Y017804D01*
X012184Y017384D01*
X012329Y017384D01*
X012604Y017660D01*
X012604Y017804D01*
X012184Y017804D01*
X012184Y017904D01*
X012604Y017904D01*
X012604Y018049D01*
X012329Y018324D01*
X012184Y018324D01*
X012184Y017904D01*
X012084Y017904D01*
X012084Y018324D01*
X011939Y018324D01*
X011854Y018239D01*
X011854Y018263D01*
X011955Y018364D01*
X012337Y018364D01*
X012624Y018651D01*
X012624Y019057D01*
X012337Y019344D01*
X011931Y019344D01*
X011644Y019057D01*
X011644Y018675D01*
X011624Y018655D01*
X011624Y019057D01*
X011337Y019344D01*
X010931Y019344D01*
X010644Y019057D01*
X010644Y018651D01*
X010931Y018364D01*
X011337Y018364D01*
X011414Y018441D01*
X011414Y018344D01*
X010744Y018344D01*
X010644Y018245D01*
X010644Y017464D01*
X010744Y017364D01*
X010764Y017364D01*
X010764Y016823D01*
X010754Y016833D01*
X010611Y016892D01*
X010457Y016892D01*
X010314Y016833D01*
X010205Y016724D01*
X010146Y016582D01*
X010146Y016427D01*
X010205Y016284D01*
X010223Y016267D01*
X010161Y016292D01*
X010007Y016292D01*
X009864Y016233D01*
X009824Y016193D01*
X009824Y017390D01*
X009840Y017397D01*
X009992Y017548D01*
X010074Y017747D01*
X010074Y017962D01*
X009992Y018160D01*
X009840Y018312D01*
X009738Y018354D01*
X009840Y018397D01*
X009992Y018548D01*
X010074Y018747D01*
X010074Y018962D01*
X009992Y019160D01*
X009840Y019312D01*
X009642Y019394D01*
X009427Y019394D01*
X009341Y019359D01*
X009125Y019574D01*
X008943Y019574D01*
X005425Y019574D01*
X005243Y019574D01*
X004814Y019145D01*
X004814Y018963D01*
X004814Y017545D01*
X004943Y017417D01*
X005083Y017277D01*
X005083Y017013D01*
X005083Y017110D02*
X004739Y017110D01*
X004698Y017208D02*
X005083Y017208D01*
X005053Y017307D02*
X004603Y017307D01*
X004856Y017504D02*
X000744Y017504D01*
X000744Y017602D02*
X004814Y017602D01*
X004814Y017701D02*
X004438Y017701D01*
X004397Y017660D02*
X004495Y017758D01*
X004547Y017885D01*
X004547Y018023D01*
X004495Y018151D01*
X004397Y018249D01*
X004269Y018301D01*
X004131Y018301D01*
X004004Y018249D01*
X003906Y018151D01*
X003853Y018023D01*
X003853Y017885D01*
X003906Y017758D01*
X004004Y017660D01*
X004131Y017607D01*
X004269Y017607D01*
X004397Y017660D01*
X004512Y017799D02*
X004814Y017799D01*
X004814Y017898D02*
X004547Y017898D01*
X004547Y017996D02*
X004814Y017996D01*
X004814Y018095D02*
X004518Y018095D01*
X004452Y018194D02*
X004814Y018194D01*
X004814Y018292D02*
X004292Y018292D01*
X004109Y018292D02*
X002560Y018292D01*
X002537Y018301D02*
X002399Y018301D01*
X002271Y018249D01*
X002174Y018151D01*
X002121Y018023D01*
X002121Y017885D01*
X002174Y017758D01*
X002271Y017660D01*
X002399Y017607D01*
X002537Y017607D01*
X002665Y017660D01*
X002762Y017758D01*
X002815Y017885D01*
X002815Y018023D01*
X002762Y018151D01*
X002665Y018249D01*
X002537Y018301D01*
X002376Y018292D02*
X000744Y018292D01*
X000744Y018194D02*
X002216Y018194D01*
X002151Y018095D02*
X000744Y018095D01*
X000744Y017996D02*
X002121Y017996D01*
X002121Y017898D02*
X000744Y017898D01*
X000744Y017799D02*
X002156Y017799D01*
X002231Y017701D02*
X000744Y017701D01*
X000744Y017405D02*
X004954Y017405D01*
X005034Y017637D02*
X005034Y019054D01*
X005334Y019354D01*
X005143Y019475D02*
X000766Y019475D01*
X000750Y019425D02*
X000798Y019573D01*
X000890Y019699D01*
X001016Y019790D01*
X001164Y019838D01*
X001241Y019844D01*
X001311Y019844D01*
X001328Y019844D01*
X018416Y019844D01*
X018558Y019833D01*
X018828Y019745D01*
X019058Y019578D01*
X019225Y019349D01*
X019313Y019078D01*
X019324Y018936D01*
X019324Y018875D01*
X019324Y018849D01*
X019324Y001261D01*
X019318Y001184D01*
X019270Y001036D01*
X019179Y000910D01*
X019053Y000818D01*
X018905Y000770D01*
X018827Y000764D01*
X018791Y000764D01*
X018740Y000764D01*
X017293Y000764D01*
X017363Y000834D01*
X017422Y000977D01*
X017422Y001016D01*
X017427Y001014D01*
X017642Y001014D01*
X017840Y001097D01*
X017992Y001248D01*
X017994Y001254D01*
X017994Y001114D01*
X018094Y001014D01*
X018975Y001014D01*
X019074Y001114D01*
X019074Y001995D01*
X019015Y002054D01*
X019074Y002114D01*
X019074Y002995D01*
X018975Y003094D01*
X018094Y003094D01*
X018075Y003075D01*
X017585Y003564D01*
X017737Y003564D01*
X018024Y003851D01*
X018024Y004257D01*
X017737Y004544D01*
X017331Y004544D01*
X017254Y004467D01*
X017254Y004641D01*
X017331Y004564D01*
X017737Y004564D01*
X018024Y004851D01*
X018024Y005257D01*
X017737Y005544D01*
X017331Y005544D01*
X017254Y005467D01*
X017254Y005495D01*
X017125Y005624D01*
X016213Y006537D01*
X016190Y006559D01*
X016172Y006628D01*
X016172Y006732D01*
X016113Y006874D01*
X016004Y006983D01*
X015861Y007042D01*
X015707Y007042D01*
X015564Y006983D01*
X015455Y006874D01*
X015403Y006747D01*
X015168Y006982D01*
X015039Y007111D01*
X014697Y007111D01*
X014455Y007353D01*
X014314Y007353D01*
X013909Y006947D01*
X013909Y006880D01*
X013841Y006880D01*
X013794Y006833D01*
X012754Y007872D01*
X012754Y008100D01*
X012790Y008161D01*
X012863Y008234D01*
X012922Y008377D01*
X012922Y008532D01*
X012880Y008634D01*
X014129Y008634D01*
X014191Y008598D01*
X014264Y008525D01*
X014407Y008466D01*
X014561Y008466D01*
X014704Y008525D01*
X014813Y008634D01*
X014872Y008777D01*
X014872Y008932D01*
X014869Y008938D01*
X014870Y008939D01*
X014868Y008943D01*
X014858Y008967D01*
X014875Y008984D01*
X015817Y008984D01*
X015817Y008652D01*
X015879Y008590D01*
X015846Y008536D02*
X014715Y008536D01*
X014813Y008635D02*
X015834Y008635D01*
X015817Y008733D02*
X014854Y008733D01*
X014872Y008832D02*
X015817Y008832D01*
X015817Y008931D02*
X014872Y008931D01*
X014634Y008904D02*
X014484Y009154D01*
X014334Y008904D01*
X014484Y008854D01*
X014634Y008904D01*
X014484Y008854D02*
X014484Y009154D01*
X014484Y009304D01*
X014784Y009604D01*
X016784Y009604D01*
X016934Y009454D01*
X016934Y009154D01*
X017534Y008554D01*
X017183Y008142D02*
X016531Y008142D01*
X016531Y008221D02*
X016531Y008033D01*
X016521Y007995D01*
X016501Y007961D01*
X016473Y007933D01*
X016439Y007913D01*
X016401Y007903D01*
X016233Y007903D01*
X016233Y008221D01*
X016531Y008221D01*
X016531Y008339D02*
X016994Y008339D01*
X016994Y008438D02*
X016531Y008438D01*
X016523Y008536D02*
X016994Y008536D01*
X016994Y008635D02*
X016534Y008635D01*
X016551Y008733D02*
X016994Y008733D01*
X016945Y008832D02*
X016551Y008832D01*
X016551Y008931D02*
X016847Y008931D01*
X016748Y009029D02*
X016551Y009029D01*
X016551Y009128D02*
X016714Y009128D01*
X016714Y009226D02*
X016551Y009226D01*
X016452Y009325D02*
X016714Y009325D01*
X017034Y009854D02*
X017334Y009554D01*
X017534Y009554D01*
X017034Y009854D02*
X014634Y009854D01*
X013934Y009154D01*
X012434Y009154D01*
X012293Y009296D01*
X012046Y009361D01*
X012084Y009504D01*
X012228Y009542D01*
X012293Y009296D01*
X012084Y009504D01*
X011696Y009522D02*
X010666Y009522D01*
X010568Y009620D02*
X011712Y009620D01*
X011753Y009719D02*
X010469Y009719D01*
X010186Y009353D02*
X009937Y009104D01*
X009529Y009104D01*
X009309Y008976D01*
X009234Y009104D01*
X009309Y009233D01*
X009529Y009104D01*
X009234Y009104D01*
X008971Y008718D02*
X007971Y008718D01*
X009257Y010004D01*
X012434Y010004D01*
X014984Y012554D01*
X014984Y015204D01*
X016500Y016720D01*
X016500Y017254D01*
X016504Y017259D01*
X016504Y018004D01*
X016754Y018254D01*
X016267Y018489D02*
X015462Y018489D01*
X015363Y018391D02*
X016226Y018391D01*
X016214Y018292D02*
X015361Y018292D01*
X015329Y018324D02*
X015184Y018324D01*
X015184Y017904D01*
X015604Y017904D01*
X015604Y018049D01*
X015329Y018324D01*
X015337Y018364D02*
X015624Y018651D01*
X015624Y019057D01*
X015337Y019344D01*
X014931Y019344D01*
X014644Y019057D01*
X014644Y018651D01*
X014931Y018364D01*
X015337Y018364D01*
X015184Y018292D02*
X015084Y018292D01*
X015084Y018324D02*
X014939Y018324D01*
X014664Y018049D01*
X014664Y017904D01*
X015084Y017904D01*
X015084Y017804D01*
X015184Y017804D01*
X015184Y017384D01*
X015329Y017384D01*
X015604Y017660D01*
X015604Y017804D01*
X015184Y017804D01*
X015184Y017904D01*
X015084Y017904D01*
X015084Y018324D01*
X015084Y018194D02*
X015184Y018194D01*
X015184Y018095D02*
X015084Y018095D01*
X015084Y017996D02*
X015184Y017996D01*
X015184Y017898D02*
X016284Y017898D01*
X016284Y017799D02*
X015604Y017799D01*
X015604Y017701D02*
X016284Y017701D01*
X016194Y017602D02*
X015547Y017602D01*
X015448Y017504D02*
X016113Y017504D01*
X016113Y017405D02*
X015350Y017405D01*
X015184Y017405D02*
X015084Y017405D01*
X015084Y017384D02*
X015084Y017804D01*
X014664Y017804D01*
X014664Y017660D01*
X014939Y017384D01*
X015084Y017384D01*
X015084Y017504D02*
X015184Y017504D01*
X015184Y017602D02*
X015084Y017602D01*
X015084Y017701D02*
X015184Y017701D01*
X015184Y017799D02*
X015084Y017799D01*
X015134Y017854D02*
X016184Y018904D01*
X016984Y018904D01*
X017334Y018554D01*
X017334Y017420D01*
X017169Y017254D01*
X017169Y016339D01*
X016684Y015854D01*
X016684Y015204D01*
X016343Y014863D01*
X016278Y014616D01*
X016134Y014654D01*
X016096Y014798D01*
X016343Y014863D01*
X016134Y014654D01*
X015843Y014113D02*
X017093Y014113D01*
X017534Y014554D01*
X017158Y014942D02*
X015204Y014942D01*
X015204Y015040D02*
X017256Y015040D01*
X017186Y015139D02*
X015230Y015139D01*
X015328Y015237D02*
X017088Y015237D01*
X016994Y015336D02*
X015427Y015336D01*
X015525Y015434D02*
X016994Y015434D01*
X016994Y015533D02*
X015624Y015533D01*
X015722Y015631D02*
X016994Y015631D01*
X016994Y015730D02*
X015821Y015730D01*
X015919Y015829D02*
X017045Y015829D01*
X017143Y015927D02*
X016018Y015927D01*
X016117Y016026D02*
X017242Y016026D01*
X017826Y016026D02*
X018242Y016026D01*
X018143Y015927D02*
X017925Y015927D01*
X018024Y015829D02*
X018045Y015829D01*
X018826Y016026D02*
X019324Y016026D01*
X019324Y016124D02*
X016215Y016124D01*
X016314Y016223D02*
X019324Y016223D01*
X019324Y016321D02*
X016412Y016321D01*
X016511Y016420D02*
X019324Y016420D01*
X019324Y016518D02*
X016609Y016518D01*
X016708Y016617D02*
X019324Y016617D01*
X019324Y016715D02*
X016719Y016715D01*
X016719Y016814D02*
X019324Y016814D01*
X019324Y016913D02*
X018931Y016913D01*
X018906Y016887D02*
X019005Y016987D01*
X019005Y017522D01*
X018906Y017621D01*
X018839Y017621D01*
X018839Y017721D01*
X019020Y017797D01*
X019172Y017948D01*
X019254Y018147D01*
X019254Y018362D01*
X019172Y018560D01*
X019020Y018712D01*
X018822Y018794D01*
X018607Y018794D01*
X018408Y018712D01*
X018256Y018560D01*
X018174Y018362D01*
X018174Y018147D01*
X018256Y017948D01*
X018399Y017806D01*
X018399Y017621D01*
X018332Y017621D01*
X018270Y017559D01*
X018258Y017571D01*
X018224Y017591D01*
X018186Y017601D01*
X017998Y017601D01*
X017998Y017303D01*
X017901Y017303D01*
X017901Y017601D01*
X017713Y017601D01*
X017675Y017591D01*
X017641Y017571D01*
X017613Y017543D01*
X017593Y017509D01*
X017583Y017471D01*
X017583Y017303D01*
X017901Y017303D01*
X017901Y017206D01*
X017583Y017206D01*
X017583Y017038D01*
X017593Y017000D01*
X017613Y016965D01*
X017641Y016937D01*
X017675Y016918D01*
X017713Y016907D01*
X017901Y016907D01*
X017901Y017206D01*
X017998Y017206D01*
X017998Y016907D01*
X018186Y016907D01*
X018224Y016918D01*
X018258Y016937D01*
X018270Y016949D01*
X018332Y016887D01*
X018906Y016887D01*
X019005Y017011D02*
X019324Y017011D01*
X019324Y017110D02*
X019005Y017110D01*
X019005Y017208D02*
X019324Y017208D01*
X019324Y017307D02*
X019005Y017307D01*
X019005Y017405D02*
X019324Y017405D01*
X019324Y017504D02*
X019005Y017504D01*
X018925Y017602D02*
X019324Y017602D01*
X019324Y017701D02*
X018839Y017701D01*
X019023Y017799D02*
X019324Y017799D01*
X019324Y017898D02*
X019121Y017898D01*
X019192Y017996D02*
X019324Y017996D01*
X019324Y018095D02*
X019233Y018095D01*
X019254Y018194D02*
X019324Y018194D01*
X019324Y018292D02*
X019254Y018292D01*
X019242Y018391D02*
X019324Y018391D01*
X019324Y018489D02*
X019201Y018489D01*
X019144Y018588D02*
X019324Y018588D01*
X019324Y018686D02*
X019046Y018686D01*
X018844Y018785D02*
X019324Y018785D01*
X019324Y018883D02*
X015624Y018883D01*
X015624Y018785D02*
X016624Y018785D01*
X016422Y018686D02*
X015624Y018686D01*
X015561Y018588D02*
X016324Y018588D01*
X016214Y018194D02*
X015460Y018194D01*
X015558Y018095D02*
X016236Y018095D01*
X016276Y017996D02*
X015604Y017996D01*
X015084Y017898D02*
X014184Y017898D01*
X014184Y017904D02*
X014604Y017904D01*
X014604Y018049D01*
X014329Y018324D01*
X014184Y018324D01*
X014184Y017904D01*
X014184Y017804D01*
X014184Y017384D01*
X014329Y017384D01*
X014604Y017660D01*
X014604Y017804D01*
X014184Y017804D01*
X014084Y017804D01*
X014084Y017384D01*
X013939Y017384D01*
X013664Y017660D01*
X013664Y017804D01*
X014084Y017804D01*
X014084Y017904D01*
X013664Y017904D01*
X013664Y018049D01*
X013939Y018324D01*
X014084Y018324D01*
X014084Y017904D01*
X014184Y017904D01*
X014184Y017996D02*
X014084Y017996D01*
X014084Y017898D02*
X013184Y017898D01*
X013184Y017904D02*
X013604Y017904D01*
X013604Y018049D01*
X013329Y018324D01*
X013184Y018324D01*
X013184Y017904D01*
X013184Y017804D01*
X013184Y017384D01*
X013329Y017384D01*
X013604Y017660D01*
X013604Y017804D01*
X013184Y017804D01*
X013084Y017804D01*
X013084Y017384D01*
X012939Y017384D01*
X012664Y017660D01*
X012664Y017804D01*
X013084Y017804D01*
X013084Y017904D01*
X012664Y017904D01*
X012664Y018049D01*
X012939Y018324D01*
X013084Y018324D01*
X013084Y017904D01*
X013184Y017904D01*
X013184Y017996D02*
X013084Y017996D01*
X013084Y017898D02*
X012184Y017898D01*
X012134Y017854D02*
X012634Y018354D01*
X012634Y019354D01*
X010634Y019354D01*
X010384Y019104D01*
X010384Y018604D01*
X010134Y018354D01*
X009034Y018354D01*
X009136Y018489D02*
X008904Y018489D01*
X008982Y018588D02*
X009060Y018588D01*
X009826Y018391D02*
X010905Y018391D01*
X010806Y018489D02*
X009933Y018489D01*
X010008Y018588D02*
X010708Y018588D01*
X010644Y018686D02*
X010049Y018686D01*
X010074Y018785D02*
X010644Y018785D01*
X010644Y018883D02*
X010074Y018883D01*
X010066Y018982D02*
X010644Y018982D01*
X010667Y019080D02*
X010025Y019080D01*
X009973Y019179D02*
X010766Y019179D01*
X010864Y019278D02*
X009875Y019278D01*
X009686Y019376D02*
X019205Y019376D01*
X019248Y019278D02*
X015404Y019278D01*
X015502Y019179D02*
X019280Y019179D01*
X019312Y019080D02*
X015601Y019080D01*
X015624Y018982D02*
X019321Y018982D01*
X019134Y019475D02*
X009225Y019475D01*
X009126Y019573D02*
X019062Y019573D01*
X018930Y019672D02*
X000870Y019672D01*
X000799Y019573D02*
X005242Y019573D01*
X005045Y019376D02*
X000746Y019376D01*
X000744Y019347D02*
X000750Y019425D01*
X000744Y019347D02*
X000744Y001672D01*
X000755Y001530D01*
X000755Y001540D02*
X000814Y001540D01*
X000814Y001638D02*
X000747Y001638D01*
X000744Y001737D02*
X000814Y001737D01*
X000814Y001835D02*
X000744Y001835D01*
X000744Y001934D02*
X000814Y001934D01*
X000814Y002032D02*
X000744Y002032D01*
X000744Y002131D02*
X000814Y002131D01*
X000814Y002230D02*
X000744Y002230D01*
X000744Y002328D02*
X000814Y002328D01*
X000814Y002427D02*
X000744Y002427D01*
X000744Y002525D02*
X000814Y002525D01*
X000814Y002624D02*
X000744Y002624D01*
X000744Y002722D02*
X000814Y002722D01*
X000814Y002821D02*
X000744Y002821D01*
X000744Y002919D02*
X000814Y002919D01*
X000814Y003018D02*
X000744Y003018D01*
X000744Y003116D02*
X000814Y003116D01*
X000814Y003215D02*
X000744Y003215D01*
X000744Y003314D02*
X000814Y003314D01*
X000814Y003412D02*
X000744Y003412D01*
X000744Y003511D02*
X000814Y003511D01*
X000814Y003609D02*
X000744Y003609D01*
X000744Y003708D02*
X000814Y003708D01*
X000814Y003806D02*
X000744Y003806D01*
X000744Y003905D02*
X000814Y003905D01*
X000814Y004003D02*
X000744Y004003D01*
X000744Y004102D02*
X000871Y004102D01*
X000969Y004200D02*
X000744Y004200D01*
X000744Y004299D02*
X001068Y004299D01*
X001112Y004398D02*
X000744Y004398D01*
X000744Y004496D02*
X001116Y004496D01*
X001083Y004595D02*
X000744Y004595D01*
X000744Y004693D02*
X000984Y004693D01*
X000886Y004792D02*
X000744Y004792D01*
X000744Y004890D02*
X000814Y004890D01*
X000814Y004989D02*
X000744Y004989D01*
X000744Y005087D02*
X000814Y005087D01*
X000814Y005186D02*
X000744Y005186D01*
X000744Y005284D02*
X000814Y005284D01*
X000814Y005383D02*
X000744Y005383D01*
X000744Y005481D02*
X000814Y005481D01*
X000814Y005580D02*
X000744Y005580D01*
X000744Y005679D02*
X000814Y005679D01*
X000814Y005777D02*
X000744Y005777D01*
X000744Y005876D02*
X000814Y005876D01*
X000814Y005974D02*
X000744Y005974D01*
X000744Y006073D02*
X000814Y006073D01*
X000814Y006171D02*
X000744Y006171D01*
X000744Y006270D02*
X000814Y006270D01*
X000814Y006368D02*
X000744Y006368D01*
X000744Y006467D02*
X000814Y006467D01*
X000814Y006565D02*
X000744Y006565D01*
X000744Y006664D02*
X000814Y006664D01*
X000814Y006763D02*
X000744Y006763D01*
X000744Y006861D02*
X000814Y006861D01*
X000814Y006960D02*
X000744Y006960D01*
X000744Y007058D02*
X000814Y007058D01*
X000814Y007157D02*
X000744Y007157D01*
X000744Y007255D02*
X000814Y007255D01*
X000814Y007354D02*
X000744Y007354D01*
X000744Y007452D02*
X000814Y007452D01*
X000814Y007551D02*
X000744Y007551D01*
X000744Y007649D02*
X000814Y007649D01*
X000814Y007748D02*
X000744Y007748D01*
X000744Y007847D02*
X000814Y007847D01*
X000814Y007945D02*
X000744Y007945D01*
X000744Y008044D02*
X000814Y008044D01*
X000814Y008142D02*
X000744Y008142D01*
X000744Y008241D02*
X000814Y008241D01*
X000814Y008339D02*
X000744Y008339D01*
X000744Y008438D02*
X000814Y008438D01*
X000814Y008536D02*
X000744Y008536D01*
X000744Y008635D02*
X000814Y008635D01*
X000814Y008733D02*
X000744Y008733D01*
X000744Y008832D02*
X000814Y008832D01*
X000814Y008931D02*
X000744Y008931D01*
X000744Y009029D02*
X000814Y009029D01*
X000814Y009128D02*
X000744Y009128D01*
X000744Y009226D02*
X000814Y009226D01*
X000814Y009325D02*
X000744Y009325D01*
X000744Y009423D02*
X000814Y009423D01*
X000814Y009522D02*
X000744Y009522D01*
X000744Y009620D02*
X000814Y009620D01*
X000814Y009719D02*
X000744Y009719D01*
X000744Y009817D02*
X000814Y009817D01*
X000814Y009916D02*
X000744Y009916D01*
X000744Y010014D02*
X000814Y010014D01*
X000814Y010113D02*
X000744Y010113D01*
X000744Y010212D02*
X000814Y010212D01*
X000814Y010310D02*
X000744Y010310D01*
X000744Y010409D02*
X000814Y010409D01*
X000814Y010507D02*
X000744Y010507D01*
X000744Y010606D02*
X000814Y010606D01*
X000814Y010704D02*
X000744Y010704D01*
X000744Y010803D02*
X000814Y010803D01*
X000814Y010901D02*
X000744Y010901D01*
X000744Y011000D02*
X000814Y011000D01*
X000814Y011098D02*
X000744Y011098D01*
X000744Y011197D02*
X000814Y011197D01*
X000814Y011296D02*
X000744Y011296D01*
X000744Y011394D02*
X000814Y011394D01*
X000814Y011493D02*
X000744Y011493D01*
X000744Y011591D02*
X000814Y011591D01*
X000814Y011690D02*
X000744Y011690D01*
X000744Y011788D02*
X000814Y011788D01*
X000814Y011887D02*
X000744Y011887D01*
X000744Y011985D02*
X000814Y011985D01*
X000814Y012084D02*
X000744Y012084D01*
X000744Y012182D02*
X000814Y012182D01*
X000814Y012281D02*
X000744Y012281D01*
X000744Y012380D02*
X000814Y012380D01*
X000814Y012478D02*
X000744Y012478D01*
X000744Y012577D02*
X000814Y012577D01*
X000814Y012675D02*
X000744Y012675D01*
X000744Y012774D02*
X000814Y012774D01*
X000814Y012872D02*
X000744Y012872D01*
X000744Y012971D02*
X000814Y012971D01*
X000814Y013069D02*
X000744Y013069D01*
X000744Y013168D02*
X000814Y013168D01*
X000814Y013266D02*
X000744Y013266D01*
X000744Y013365D02*
X000814Y013365D01*
X000814Y013464D02*
X000744Y013464D01*
X000744Y013562D02*
X000814Y013562D01*
X000814Y013661D02*
X000744Y013661D01*
X000744Y013759D02*
X000814Y013759D01*
X000814Y013858D02*
X000744Y013858D01*
X000744Y013956D02*
X000814Y013956D01*
X000814Y014055D02*
X000744Y014055D01*
X000744Y014153D02*
X000814Y014153D01*
X000814Y014252D02*
X000744Y014252D01*
X000744Y014350D02*
X000814Y014350D01*
X000814Y014449D02*
X000744Y014449D01*
X000744Y014547D02*
X000814Y014547D01*
X000814Y014646D02*
X000744Y014646D01*
X000744Y014745D02*
X000814Y014745D01*
X000814Y014843D02*
X000744Y014843D01*
X000744Y014942D02*
X000814Y014942D01*
X000744Y015040D02*
X000909Y015040D01*
X001007Y015139D02*
X000744Y015139D01*
X000744Y015237D02*
X001106Y015237D01*
X001017Y015336D02*
X000744Y015336D01*
X000744Y015434D02*
X001014Y015434D01*
X001014Y015631D02*
X000744Y015631D01*
X000744Y015533D02*
X001484Y015533D01*
X001484Y015631D02*
X001584Y015631D01*
X001584Y015730D02*
X001484Y015730D01*
X001484Y015829D02*
X001584Y015829D01*
X001584Y015927D02*
X001484Y015927D01*
X001484Y016026D02*
X001584Y016026D01*
X001798Y016026D02*
X002242Y016026D01*
X002143Y015927D02*
X001897Y015927D01*
X001995Y015829D02*
X002045Y015829D01*
X001270Y016026D02*
X000744Y016026D01*
X000744Y016124D02*
X004911Y016124D01*
X005009Y016026D02*
X002826Y016026D01*
X002925Y015927D02*
X006563Y015927D01*
X006708Y015829D02*
X003024Y015829D01*
X003074Y015730D02*
X006704Y015730D01*
X006704Y015631D02*
X003074Y015631D01*
X003074Y015533D02*
X006704Y015533D01*
X006704Y015434D02*
X003074Y015434D01*
X003074Y015336D02*
X006704Y015336D01*
X007184Y015594D02*
X007234Y015594D01*
X007314Y015514D01*
X007494Y015514D01*
X007897Y014942D02*
X009151Y014942D01*
X009151Y014843D02*
X007924Y014843D01*
X007924Y014745D02*
X009151Y014745D01*
X009151Y014646D02*
X007924Y014646D01*
X007924Y014547D02*
X009151Y014547D01*
X009151Y014449D02*
X007924Y014449D01*
X007924Y014350D02*
X009151Y014350D01*
X009151Y014252D02*
X007882Y014252D01*
X007812Y014074D02*
X007774Y014084D01*
X007364Y014084D01*
X007364Y013744D01*
X007904Y013744D01*
X007904Y013954D01*
X007894Y013992D01*
X007874Y014026D01*
X007846Y014054D01*
X007812Y014074D01*
X007846Y014055D02*
X008547Y014055D01*
X008506Y013956D02*
X007904Y013956D01*
X007904Y013858D02*
X008496Y013858D01*
X008503Y013759D02*
X007904Y013759D01*
X007904Y013644D02*
X007364Y013644D01*
X007364Y013304D01*
X007774Y013304D01*
X007812Y013315D01*
X007846Y013334D01*
X007874Y013362D01*
X007894Y013396D01*
X007904Y013435D01*
X007904Y013644D01*
X007904Y013562D02*
X008628Y013562D01*
X008664Y013464D02*
X007904Y013464D01*
X007876Y013365D02*
X008664Y013365D01*
X008614Y013266D02*
X003010Y013266D01*
X003074Y013365D02*
X006753Y013365D01*
X006754Y013362D02*
X006782Y013334D01*
X006816Y013315D01*
X006854Y013304D01*
X007264Y013304D01*
X007264Y013644D01*
X007364Y013644D01*
X007364Y013744D01*
X007264Y013744D01*
X007264Y013644D01*
X006724Y013644D01*
X006724Y013435D01*
X006734Y013396D01*
X006754Y013362D01*
X006724Y013464D02*
X003074Y013464D01*
X003074Y013562D02*
X006724Y013562D01*
X006724Y013744D02*
X006724Y013954D01*
X006734Y013992D01*
X006754Y014026D01*
X006782Y014054D01*
X006816Y014074D01*
X006854Y014084D01*
X007264Y014084D01*
X007264Y013744D01*
X006724Y013744D01*
X006724Y013759D02*
X003074Y013759D01*
X003074Y013661D02*
X007264Y013661D01*
X007314Y013694D02*
X008024Y013694D01*
X008544Y013661D02*
X007364Y013661D01*
X007364Y013759D02*
X007264Y013759D01*
X007264Y013858D02*
X007364Y013858D01*
X007364Y013956D02*
X007264Y013956D01*
X007264Y014055D02*
X007364Y014055D01*
X007364Y013562D02*
X007264Y013562D01*
X007264Y013464D02*
X007364Y013464D01*
X007364Y013365D02*
X007264Y013365D01*
X006724Y013858D02*
X002994Y013858D01*
X002896Y013956D02*
X006725Y013956D01*
X006783Y014055D02*
X002798Y014055D01*
X002897Y014153D02*
X008634Y014153D01*
X008884Y013854D02*
X008756Y013780D01*
X008884Y013559D01*
X008884Y013254D01*
X008834Y013204D01*
X008834Y012804D01*
X009534Y012104D01*
X009534Y011954D01*
X009293Y011713D01*
X009228Y011466D01*
X009084Y011504D01*
X009122Y011648D01*
X008875Y011713D01*
X008941Y011466D01*
X009084Y011504D01*
X009046Y011648D01*
X009293Y011713D01*
X009084Y011504D01*
X008875Y011713D01*
X008034Y012554D01*
X002534Y012554D01*
X002926Y012182D02*
X008095Y012182D01*
X008193Y012084D02*
X002827Y012084D01*
X002798Y012054D02*
X003074Y012331D01*
X003074Y012334D01*
X007943Y012334D01*
X008655Y011622D01*
X008678Y011600D01*
X008696Y011531D01*
X008696Y011427D01*
X008755Y011284D01*
X008864Y011175D01*
X009007Y011116D01*
X009161Y011116D01*
X009304Y011175D01*
X009413Y011284D01*
X009472Y011427D01*
X009472Y011531D01*
X009490Y011600D01*
X009754Y011863D01*
X009754Y012028D01*
X009779Y012013D01*
X009818Y012003D01*
X009986Y012003D01*
X009986Y012321D01*
X010083Y012321D01*
X010083Y012418D01*
X010381Y012418D01*
X010381Y012606D01*
X010371Y012644D01*
X010351Y012678D01*
X010339Y012690D01*
X010401Y012752D01*
X010401Y013320D01*
X010474Y013380D01*
X010507Y013366D01*
X010661Y013366D01*
X010804Y013425D01*
X010913Y013534D01*
X010972Y013677D01*
X010972Y013832D01*
X010913Y013974D01*
X010873Y014015D01*
X010867Y014029D01*
X010874Y014047D01*
X010874Y014162D01*
X010843Y014237D01*
X011236Y014237D01*
X011284Y014285D01*
X011332Y014237D01*
X011906Y014237D01*
X011998Y014330D01*
X012064Y014263D01*
X012064Y013709D01*
X012028Y013647D01*
X011955Y013574D01*
X011896Y013432D01*
X011896Y013277D01*
X011955Y013134D01*
X012064Y013025D01*
X012207Y012966D01*
X012361Y012966D01*
X012504Y013025D01*
X012514Y013036D01*
X012514Y012395D01*
X011493Y011374D01*
X011015Y011374D01*
X011675Y012034D01*
X011804Y012163D01*
X011804Y013450D01*
X011840Y013511D01*
X011913Y013584D01*
X011972Y013727D01*
X011972Y013882D01*
X011913Y014024D01*
X011804Y014133D01*
X011661Y014192D01*
X011507Y014192D01*
X011364Y014133D01*
X011255Y014024D01*
X011196Y013882D01*
X011196Y013727D01*
X011255Y013584D01*
X011328Y013511D01*
X011364Y013450D01*
X011364Y012345D01*
X010793Y011774D01*
X010093Y011774D01*
X009964Y011645D01*
X009143Y010824D01*
X009039Y010824D01*
X008977Y010860D01*
X008904Y010933D01*
X008761Y010992D01*
X008607Y010992D01*
X008464Y010933D01*
X008355Y010824D01*
X008296Y010682D01*
X008296Y010527D01*
X008355Y010384D01*
X008410Y010329D01*
X008305Y010224D01*
X008246Y010082D01*
X008246Y009927D01*
X008305Y009784D01*
X008414Y009675D01*
X008557Y009616D01*
X008558Y009616D01*
X008075Y009133D01*
X008027Y009180D01*
X007960Y009180D01*
X007960Y009247D01*
X007554Y009653D01*
X007413Y009653D01*
X007134Y009374D01*
X007089Y009374D01*
X007027Y009410D01*
X006954Y009483D01*
X006811Y009542D01*
X006657Y009542D01*
X006647Y009538D01*
X006605Y009544D01*
X006593Y009557D01*
X006304Y009845D01*
X006175Y009974D01*
X004694Y009974D01*
X004654Y010028D01*
X004654Y010483D01*
X004701Y010483D01*
X004801Y010583D01*
X004801Y011157D01*
X004739Y011218D01*
X004751Y011230D01*
X004771Y011265D01*
X004781Y011303D01*
X004781Y011490D01*
X004483Y011490D01*
X004483Y011587D01*
X004781Y011587D01*
X004781Y011775D01*
X004771Y011813D01*
X004751Y011848D01*
X004723Y011876D01*
X004689Y011895D01*
X004651Y011905D01*
X004483Y011905D01*
X004483Y011588D01*
X004386Y011588D01*
X004386Y011905D01*
X004218Y011905D01*
X004179Y011895D01*
X004145Y011876D01*
X004117Y011848D01*
X004098Y011813D01*
X004087Y011775D01*
X004087Y011587D01*
X004385Y011587D01*
X004385Y011490D01*
X004087Y011490D01*
X004087Y011303D01*
X004098Y011265D01*
X004117Y011230D01*
X004129Y011218D01*
X004067Y011157D01*
X004067Y010583D01*
X004167Y010483D01*
X004214Y010483D01*
X004214Y010028D01*
X004174Y009974D01*
X003175Y009974D01*
X003004Y010145D01*
X002946Y010203D01*
X003074Y010331D01*
X003074Y010778D01*
X002798Y011054D01*
X003074Y011331D01*
X003074Y011778D01*
X002798Y012054D01*
X002867Y011985D02*
X008292Y011985D01*
X008391Y011887D02*
X004704Y011887D01*
X004778Y011788D02*
X008489Y011788D01*
X008588Y011690D02*
X004781Y011690D01*
X004781Y011591D02*
X008680Y011591D01*
X008696Y011493D02*
X004483Y011493D01*
X004385Y011493D02*
X003074Y011493D01*
X003074Y011591D02*
X004087Y011591D01*
X004087Y011690D02*
X003074Y011690D01*
X003064Y011788D02*
X004091Y011788D01*
X004165Y011887D02*
X002965Y011887D01*
X003024Y012281D02*
X007996Y012281D01*
X008323Y012577D02*
X008751Y012577D01*
X008743Y012584D02*
X008743Y012584D01*
X008652Y012675D02*
X008224Y012675D01*
X008126Y012774D02*
X008614Y012774D01*
X008614Y012872D02*
X002980Y012872D01*
X002881Y012971D02*
X008614Y012971D01*
X008614Y013069D02*
X002813Y013069D01*
X002911Y013168D02*
X008614Y013168D01*
X008884Y013559D02*
X009012Y013780D01*
X008884Y013854D01*
X008884Y013559D01*
X009104Y013500D02*
X009140Y013561D01*
X009213Y013634D01*
X009251Y013726D01*
X010196Y013726D01*
X010196Y013721D01*
X009956Y013524D01*
X009943Y013524D01*
X009886Y013468D01*
X009835Y013425D01*
X009767Y013425D01*
X009667Y013326D01*
X009667Y012752D01*
X009729Y012690D01*
X009717Y012678D01*
X009698Y012644D01*
X009687Y012606D01*
X009687Y012418D01*
X009985Y012418D01*
X009985Y012321D01*
X009687Y012321D01*
X009687Y012262D01*
X009625Y012324D01*
X009054Y012895D01*
X009054Y013113D01*
X009104Y013163D01*
X009104Y013500D01*
X009104Y013464D02*
X009881Y013464D01*
X010002Y013562D02*
X009141Y013562D01*
X009224Y013661D02*
X010122Y013661D01*
X010034Y013304D02*
X010584Y013754D01*
X010712Y013829D01*
X010534Y014250D01*
X010456Y013829D01*
X010584Y013754D01*
X010584Y014104D01*
X010534Y014250D01*
X010874Y014153D02*
X011413Y014153D01*
X011317Y014252D02*
X011251Y014252D01*
X011286Y014055D02*
X010874Y014055D01*
X010921Y013956D02*
X011227Y013956D01*
X011196Y013858D02*
X010961Y013858D01*
X010972Y013759D02*
X011196Y013759D01*
X011224Y013661D02*
X010965Y013661D01*
X010925Y013562D02*
X011278Y013562D01*
X011356Y013464D02*
X010842Y013464D01*
X010456Y013365D02*
X011364Y013365D01*
X011364Y013266D02*
X010401Y013266D01*
X010401Y013168D02*
X011364Y013168D01*
X011364Y013069D02*
X010401Y013069D01*
X010401Y012971D02*
X011364Y012971D01*
X011364Y012872D02*
X010401Y012872D01*
X010401Y012774D02*
X011364Y012774D01*
X011364Y012675D02*
X010353Y012675D01*
X010381Y012577D02*
X011364Y012577D01*
X011364Y012478D02*
X010381Y012478D01*
X010381Y012321D02*
X010083Y012321D01*
X010083Y012003D01*
X010251Y012003D01*
X010289Y012013D01*
X010323Y012033D01*
X010351Y012061D01*
X010371Y012095D01*
X010381Y012133D01*
X010381Y012321D01*
X010381Y012281D02*
X011300Y012281D01*
X011364Y012380D02*
X010083Y012380D01*
X010119Y012370D02*
X010034Y012370D01*
X009985Y012380D02*
X009570Y012380D01*
X009471Y012478D02*
X009687Y012478D01*
X009687Y012577D02*
X009373Y012577D01*
X009274Y012675D02*
X009715Y012675D01*
X009667Y012774D02*
X009176Y012774D01*
X009077Y012872D02*
X009667Y012872D01*
X009667Y012971D02*
X009054Y012971D01*
X009054Y013069D02*
X009667Y013069D01*
X009667Y013168D02*
X009104Y013168D01*
X009104Y013266D02*
X009667Y013266D01*
X009706Y013365D02*
X009104Y013365D01*
X009134Y014153D02*
X009151Y014153D01*
X009534Y014774D02*
X009914Y014774D01*
X010434Y015004D02*
X010434Y015554D01*
X010293Y015696D01*
X010046Y015761D01*
X010084Y015904D01*
X010228Y015942D01*
X010293Y015696D01*
X010084Y015904D01*
X009854Y016223D02*
X009824Y016223D01*
X009824Y016321D02*
X010190Y016321D01*
X010149Y016420D02*
X009824Y016420D01*
X009824Y016518D02*
X010146Y016518D01*
X010161Y016617D02*
X009824Y016617D01*
X009824Y016715D02*
X010202Y016715D01*
X010295Y016814D02*
X009824Y016814D01*
X009824Y016913D02*
X010764Y016913D01*
X010764Y017011D02*
X009824Y017011D01*
X009824Y017110D02*
X010764Y017110D01*
X010764Y017208D02*
X009824Y017208D01*
X009824Y017307D02*
X010764Y017307D01*
X010703Y017405D02*
X009849Y017405D01*
X009947Y017504D02*
X010644Y017504D01*
X010644Y017602D02*
X010014Y017602D01*
X010055Y017701D02*
X010644Y017701D01*
X010644Y017799D02*
X010074Y017799D01*
X010074Y017898D02*
X010644Y017898D01*
X010644Y017996D02*
X010060Y017996D01*
X010019Y018095D02*
X010644Y018095D01*
X010644Y018194D02*
X009959Y018194D01*
X009860Y018292D02*
X010692Y018292D01*
X010984Y017854D02*
X011134Y017854D01*
X010984Y017854D02*
X010984Y016504D01*
X011134Y016354D01*
X013339Y016354D01*
X013559Y016483D01*
X013634Y016354D01*
X013559Y016226D01*
X013339Y016354D01*
X013634Y016354D01*
X013492Y016715D02*
X011747Y016715D01*
X011772Y016814D02*
X014246Y016814D01*
X014246Y016913D02*
X011781Y016913D01*
X011852Y017011D02*
X014279Y017011D01*
X014341Y017110D02*
X011854Y017110D01*
X011854Y017208D02*
X014474Y017208D01*
X014350Y017405D02*
X014919Y017405D01*
X014820Y017504D02*
X014448Y017504D01*
X014547Y017602D02*
X014721Y017602D01*
X014664Y017701D02*
X014604Y017701D01*
X014604Y017799D02*
X014664Y017799D01*
X014664Y017996D02*
X014604Y017996D01*
X014558Y018095D02*
X014710Y018095D01*
X014809Y018194D02*
X014460Y018194D01*
X014361Y018292D02*
X014907Y018292D01*
X014905Y018391D02*
X014363Y018391D01*
X014337Y018364D02*
X014624Y018651D01*
X014624Y019057D01*
X014337Y019344D01*
X013931Y019344D01*
X013644Y019057D01*
X013644Y018651D01*
X013931Y018364D01*
X014337Y018364D01*
X014184Y018292D02*
X014084Y018292D01*
X014084Y018194D02*
X014184Y018194D01*
X014184Y018095D02*
X014084Y018095D01*
X013907Y018292D02*
X013361Y018292D01*
X013337Y018364D02*
X013624Y018651D01*
X013624Y019057D01*
X013337Y019344D01*
X012931Y019344D01*
X012644Y019057D01*
X012644Y018651D01*
X012931Y018364D01*
X013337Y018364D01*
X013363Y018391D02*
X013905Y018391D01*
X013806Y018489D02*
X013462Y018489D01*
X013561Y018588D02*
X013708Y018588D01*
X013644Y018686D02*
X013624Y018686D01*
X013624Y018785D02*
X013644Y018785D01*
X013644Y018883D02*
X013624Y018883D01*
X013624Y018982D02*
X013644Y018982D01*
X013667Y019080D02*
X013601Y019080D01*
X013502Y019179D02*
X013766Y019179D01*
X013864Y019278D02*
X013404Y019278D01*
X012864Y019278D02*
X012404Y019278D01*
X012502Y019179D02*
X012766Y019179D01*
X012667Y019080D02*
X012601Y019080D01*
X012624Y018982D02*
X012644Y018982D01*
X012644Y018883D02*
X012624Y018883D01*
X012624Y018785D02*
X012644Y018785D01*
X012644Y018686D02*
X012624Y018686D01*
X012561Y018588D02*
X012708Y018588D01*
X012806Y018489D02*
X012462Y018489D01*
X012363Y018391D02*
X012905Y018391D01*
X012907Y018292D02*
X012361Y018292D01*
X012460Y018194D02*
X012809Y018194D01*
X012710Y018095D02*
X012558Y018095D01*
X012604Y017996D02*
X012664Y017996D01*
X012664Y017799D02*
X012604Y017799D01*
X012604Y017701D02*
X012664Y017701D01*
X012721Y017602D02*
X012547Y017602D01*
X012448Y017504D02*
X012820Y017504D01*
X012919Y017405D02*
X012350Y017405D01*
X012184Y017405D02*
X012084Y017405D01*
X012084Y017504D02*
X012184Y017504D01*
X012184Y017602D02*
X012084Y017602D01*
X012084Y017701D02*
X012184Y017701D01*
X012184Y017799D02*
X012084Y017799D01*
X012084Y017996D02*
X012184Y017996D01*
X012184Y018095D02*
X012084Y018095D01*
X012084Y018194D02*
X012184Y018194D01*
X012184Y018292D02*
X012084Y018292D01*
X011907Y018292D02*
X011883Y018292D01*
X011634Y018354D02*
X012134Y018854D01*
X011644Y018883D02*
X011624Y018883D01*
X011624Y018785D02*
X011644Y018785D01*
X011644Y018686D02*
X011624Y018686D01*
X011624Y018982D02*
X011644Y018982D01*
X011667Y019080D02*
X011601Y019080D01*
X011502Y019179D02*
X011766Y019179D01*
X011864Y019278D02*
X011404Y019278D01*
X011363Y018391D02*
X011414Y018391D01*
X011634Y018354D02*
X011634Y017104D01*
X011593Y017063D01*
X011528Y016816D01*
X011384Y016854D01*
X011346Y016998D01*
X011593Y017063D01*
X011384Y016854D01*
X011696Y016617D02*
X013348Y016617D01*
X013776Y016715D02*
X014272Y016715D01*
X014323Y016617D02*
X013920Y016617D01*
X013986Y016518D02*
X014431Y016518D01*
X014564Y016420D02*
X014022Y016420D01*
X014022Y016321D02*
X014564Y016321D01*
X014564Y016223D02*
X014000Y016223D01*
X013953Y016124D02*
X014564Y016124D01*
X014564Y016026D02*
X013854Y016026D01*
X014112Y015631D02*
X012793Y015631D01*
X012892Y015533D02*
X013994Y015533D01*
X014039Y015304D02*
X014259Y015433D01*
X014334Y015304D01*
X014259Y015176D01*
X014039Y015304D01*
X014334Y015304D01*
X014196Y014942D02*
X013304Y014942D01*
X013304Y015040D02*
X014049Y015040D01*
X014041Y015049D02*
X014114Y014975D01*
X014257Y014916D01*
X014411Y014916D01*
X014554Y014975D01*
X014564Y014986D01*
X014564Y012945D01*
X012043Y010424D01*
X009365Y010424D01*
X010146Y011205D01*
X010146Y011077D01*
X010205Y010934D01*
X010314Y010825D01*
X010457Y010766D01*
X010611Y010766D01*
X010754Y010825D01*
X010827Y010899D01*
X010889Y010934D01*
X011493Y010934D01*
X011675Y010934D01*
X012825Y012084D01*
X013703Y012084D01*
X013801Y012182D02*
X012923Y012182D01*
X012954Y012213D02*
X012954Y013838D01*
X013007Y013816D01*
X013161Y013816D01*
X013304Y013875D01*
X013413Y013984D01*
X013472Y014127D01*
X013472Y014282D01*
X013413Y014424D01*
X013340Y014497D01*
X013304Y014559D01*
X013304Y015084D01*
X013948Y015084D01*
X013979Y015084D01*
X014041Y015049D01*
X014039Y015304D02*
X013109Y015304D01*
X012809Y015304D01*
X012659Y015454D01*
X011619Y015454D01*
X011997Y015730D02*
X014564Y015730D01*
X014556Y015631D02*
X014564Y015631D01*
X014564Y015829D02*
X010886Y015829D01*
X010788Y015927D02*
X014564Y015927D01*
X015004Y015927D02*
X015396Y015927D01*
X015494Y016026D02*
X015004Y016026D01*
X015004Y016124D02*
X015593Y016124D01*
X015691Y016223D02*
X015004Y016223D01*
X015004Y016321D02*
X015790Y016321D01*
X015889Y016420D02*
X015004Y016420D01*
X015005Y016518D02*
X015987Y016518D01*
X016086Y016617D02*
X015008Y016617D01*
X015004Y016715D02*
X016184Y016715D01*
X016280Y016814D02*
X015022Y016814D01*
X015022Y016913D02*
X016188Y016913D01*
X016113Y017011D02*
X014989Y017011D01*
X014928Y017110D02*
X016113Y017110D01*
X016113Y017208D02*
X014794Y017208D01*
X014783Y016855D02*
X014634Y016854D01*
X014562Y016725D01*
X014784Y016600D01*
X014783Y016855D01*
X014634Y016854D02*
X014784Y016704D01*
X014784Y016600D01*
X014784Y012854D01*
X012134Y010204D01*
X008851Y010204D01*
X008776Y009960D01*
X008634Y010004D01*
X008602Y010149D01*
X008851Y010204D01*
X008834Y010204D01*
X008634Y010004D01*
X008547Y009620D02*
X007587Y009620D01*
X007685Y009522D02*
X008464Y009522D01*
X008365Y009423D02*
X007784Y009423D01*
X007883Y009325D02*
X008267Y009325D01*
X008168Y009226D02*
X007960Y009226D01*
X008371Y009719D02*
X006431Y009719D01*
X006529Y009620D02*
X007380Y009620D01*
X007282Y009522D02*
X006861Y009522D01*
X007014Y009423D02*
X007183Y009423D01*
X006508Y008832D02*
X006211Y008832D01*
X006310Y008931D02*
X006409Y008931D01*
X006366Y009029D02*
X006353Y009029D01*
X005757Y008832D02*
X005556Y008832D01*
X005610Y008931D02*
X005659Y008931D01*
X005048Y008241D02*
X004820Y008241D01*
X004915Y008339D02*
X004953Y008339D01*
X004348Y008241D02*
X002984Y008241D01*
X003074Y008339D02*
X004253Y008339D01*
X004212Y008438D02*
X003074Y008438D01*
X003074Y008536D02*
X004196Y008536D01*
X004197Y008635D02*
X003074Y008635D01*
X003074Y008733D02*
X004238Y008733D01*
X004313Y008832D02*
X003020Y008832D01*
X002922Y008931D02*
X004259Y008931D01*
X004216Y009029D02*
X002823Y009029D01*
X002871Y009128D02*
X004196Y009128D01*
X004196Y009226D02*
X002970Y009226D01*
X003068Y009325D02*
X004234Y009325D01*
X004304Y009423D02*
X003074Y009423D01*
X003074Y009522D02*
X004456Y009522D01*
X004484Y009754D02*
X004284Y009754D01*
X004434Y009804D02*
X004434Y009954D01*
X004434Y010870D01*
X004801Y010901D02*
X008432Y010901D01*
X008346Y010803D02*
X004801Y010803D01*
X004801Y010704D02*
X008306Y010704D01*
X008296Y010606D02*
X004801Y010606D01*
X004725Y010507D02*
X008304Y010507D01*
X008345Y010409D02*
X004654Y010409D01*
X004654Y010310D02*
X008391Y010310D01*
X008300Y010212D02*
X004654Y010212D01*
X004654Y010113D02*
X008259Y010113D01*
X008246Y010014D02*
X004664Y010014D01*
X004584Y009754D02*
X004484Y009754D01*
X004434Y009804D01*
X004204Y010014D02*
X003135Y010014D01*
X003037Y010113D02*
X004214Y010113D01*
X004214Y010212D02*
X002955Y010212D01*
X003054Y010310D02*
X004214Y010310D01*
X004214Y010409D02*
X003074Y010409D01*
X003074Y010507D02*
X004143Y010507D01*
X004067Y010606D02*
X003074Y010606D01*
X003074Y010704D02*
X004067Y010704D01*
X004067Y010803D02*
X003049Y010803D01*
X002951Y010901D02*
X004067Y010901D01*
X004067Y011000D02*
X002852Y011000D01*
X002842Y011098D02*
X004067Y011098D01*
X004108Y011197D02*
X002940Y011197D01*
X003039Y011296D02*
X004089Y011296D01*
X004087Y011394D02*
X003074Y011394D01*
X004386Y011591D02*
X004483Y011591D01*
X004483Y011690D02*
X004386Y011690D01*
X004386Y011788D02*
X004483Y011788D01*
X004483Y011887D02*
X004386Y011887D01*
X004784Y011554D02*
X005384Y010954D01*
X005384Y010604D01*
X005375Y010513D01*
X005522Y010148D01*
X005384Y010104D01*
X005241Y010166D01*
X005375Y010513D01*
X005384Y010104D01*
X004801Y011000D02*
X009319Y011000D01*
X009417Y011098D02*
X004801Y011098D01*
X004761Y011197D02*
X008843Y011197D01*
X008751Y011296D02*
X004779Y011296D01*
X004781Y011394D02*
X008710Y011394D01*
X008936Y010901D02*
X009220Y010901D01*
X009326Y011197D02*
X009516Y011197D01*
X009418Y011296D02*
X009614Y011296D01*
X009713Y011394D02*
X009459Y011394D01*
X009472Y011493D02*
X009811Y011493D01*
X009910Y011591D02*
X009488Y011591D01*
X009581Y011690D02*
X010008Y011690D01*
X010184Y011554D02*
X010884Y011554D01*
X011584Y012254D01*
X011584Y013509D01*
X011456Y013730D01*
X011584Y013804D01*
X011712Y013730D01*
X011584Y013509D01*
X011584Y013804D01*
X011945Y013661D02*
X012036Y013661D01*
X012064Y013759D02*
X011972Y013759D01*
X011972Y013858D02*
X012064Y013858D01*
X012064Y013956D02*
X011941Y013956D01*
X011883Y014055D02*
X012064Y014055D01*
X012064Y014153D02*
X011756Y014153D01*
X011920Y014252D02*
X012064Y014252D01*
X012284Y014354D02*
X012284Y013650D01*
X012412Y013429D01*
X012284Y013354D01*
X012156Y013429D01*
X012284Y013650D01*
X012284Y013354D01*
X012020Y013069D02*
X011804Y013069D01*
X011804Y012971D02*
X012196Y012971D01*
X012372Y012971D02*
X012514Y012971D01*
X012514Y012872D02*
X011804Y012872D01*
X011804Y012774D02*
X012514Y012774D01*
X012514Y012675D02*
X011804Y012675D01*
X011804Y012577D02*
X012514Y012577D01*
X012514Y012478D02*
X011804Y012478D01*
X011804Y012380D02*
X012498Y012380D01*
X012400Y012281D02*
X011804Y012281D01*
X011804Y012182D02*
X012301Y012182D01*
X012203Y012084D02*
X011725Y012084D01*
X011626Y011985D02*
X012104Y011985D01*
X012006Y011887D02*
X011528Y011887D01*
X011429Y011788D02*
X011907Y011788D01*
X011808Y011690D02*
X011331Y011690D01*
X011232Y011591D02*
X011710Y011591D01*
X011611Y011493D02*
X011134Y011493D01*
X011035Y011394D02*
X011513Y011394D01*
X011584Y011154D02*
X012734Y012304D01*
X012734Y013854D01*
X012534Y014054D01*
X012534Y014450D01*
X012536Y014705D01*
X012684Y014704D01*
X012757Y014575D01*
X012534Y014450D01*
X012534Y014554D01*
X012684Y014704D01*
X013084Y014500D02*
X012956Y014279D01*
X013084Y014204D01*
X013212Y014279D01*
X013084Y014500D01*
X013084Y015279D01*
X013109Y015304D01*
X013304Y014843D02*
X014564Y014843D01*
X014564Y014745D02*
X013304Y014745D01*
X013304Y014646D02*
X014564Y014646D01*
X014564Y014547D02*
X013311Y014547D01*
X013388Y014449D02*
X014564Y014449D01*
X014564Y014350D02*
X013444Y014350D01*
X013472Y014252D02*
X014564Y014252D01*
X014564Y014153D02*
X013472Y014153D01*
X013442Y014055D02*
X014564Y014055D01*
X014564Y013956D02*
X013385Y013956D01*
X013261Y013858D02*
X014564Y013858D01*
X014564Y013759D02*
X012954Y013759D01*
X012954Y013661D02*
X014564Y013661D01*
X014564Y013562D02*
X012954Y013562D01*
X012954Y013464D02*
X014564Y013464D01*
X014564Y013365D02*
X012954Y013365D01*
X012954Y013266D02*
X014564Y013266D01*
X014564Y013168D02*
X012954Y013168D01*
X012954Y013069D02*
X014564Y013069D01*
X014564Y012971D02*
X012954Y012971D01*
X012954Y012872D02*
X014491Y012872D01*
X014392Y012774D02*
X012954Y012774D01*
X012954Y012675D02*
X014294Y012675D01*
X014195Y012577D02*
X012954Y012577D01*
X012954Y012478D02*
X014097Y012478D01*
X013998Y012380D02*
X012954Y012380D01*
X012954Y012281D02*
X013900Y012281D01*
X013604Y011985D02*
X012726Y011985D01*
X012628Y011887D02*
X013506Y011887D01*
X013407Y011788D02*
X012529Y011788D01*
X012431Y011690D02*
X013308Y011690D01*
X013210Y011591D02*
X012332Y011591D01*
X012234Y011493D02*
X013111Y011493D01*
X013013Y011394D02*
X012135Y011394D01*
X012036Y011296D02*
X012914Y011296D01*
X012816Y011197D02*
X011938Y011197D01*
X011839Y011098D02*
X012717Y011098D01*
X012619Y011000D02*
X011741Y011000D01*
X011584Y011154D02*
X010829Y011154D01*
X010609Y011026D01*
X010534Y011154D01*
X010609Y011283D01*
X010829Y011154D01*
X010534Y011154D01*
X010238Y010901D02*
X009842Y010901D01*
X009744Y010803D02*
X010369Y010803D01*
X010178Y011000D02*
X009941Y011000D01*
X010039Y011098D02*
X010146Y011098D01*
X010138Y011197D02*
X010146Y011197D01*
X010184Y011554D02*
X009234Y010604D01*
X008979Y010604D01*
X008759Y010476D01*
X008684Y010604D01*
X008759Y010733D01*
X008979Y010604D01*
X008684Y010604D01*
X008251Y009916D02*
X006234Y009916D01*
X006332Y009817D02*
X008291Y009817D01*
X009448Y010507D02*
X012126Y010507D01*
X012224Y010606D02*
X009547Y010606D01*
X009645Y010704D02*
X012323Y010704D01*
X012422Y010803D02*
X010700Y010803D01*
X010832Y010901D02*
X012520Y010901D01*
X013051Y010310D02*
X017015Y010310D01*
X016994Y010409D02*
X013150Y010409D01*
X013248Y010507D02*
X016994Y010507D01*
X016994Y010606D02*
X013347Y010606D01*
X013445Y010704D02*
X016994Y010704D01*
X017019Y010803D02*
X013544Y010803D01*
X013642Y010901D02*
X017118Y010901D01*
X017216Y011000D02*
X013741Y011000D01*
X013839Y011098D02*
X017226Y011098D01*
X017128Y011197D02*
X013938Y011197D01*
X014036Y011296D02*
X017029Y011296D01*
X016994Y011394D02*
X014135Y011394D01*
X014234Y011493D02*
X016994Y011493D01*
X016994Y011591D02*
X014332Y011591D01*
X014431Y011690D02*
X016994Y011690D01*
X017005Y011788D02*
X014529Y011788D01*
X014628Y011887D02*
X017103Y011887D01*
X017202Y011985D02*
X014726Y011985D01*
X014825Y012084D02*
X017241Y012084D01*
X017142Y012182D02*
X014923Y012182D01*
X015022Y012281D02*
X017044Y012281D01*
X016994Y012380D02*
X015120Y012380D01*
X015204Y012478D02*
X016994Y012478D01*
X016994Y012577D02*
X015204Y012577D01*
X015204Y012675D02*
X016994Y012675D01*
X016994Y012774D02*
X015204Y012774D01*
X015204Y012872D02*
X017089Y012872D01*
X017187Y012971D02*
X015204Y012971D01*
X015204Y013069D02*
X017256Y013069D01*
X017157Y013168D02*
X015204Y013168D01*
X015204Y013266D02*
X017058Y013266D01*
X016994Y013365D02*
X015204Y013365D01*
X015204Y013464D02*
X016994Y013464D01*
X016994Y013562D02*
X015822Y013562D01*
X015939Y013661D02*
X016994Y013661D01*
X016994Y013759D02*
X015994Y013759D01*
X016022Y013858D02*
X017074Y013858D01*
X016994Y014350D02*
X015204Y014350D01*
X015204Y014252D02*
X015459Y014252D01*
X015334Y014153D02*
X015204Y014153D01*
X015204Y014055D02*
X015276Y014055D01*
X015246Y013956D02*
X015204Y013956D01*
X015204Y013858D02*
X015246Y013858D01*
X015274Y013759D02*
X015204Y013759D01*
X015204Y013661D02*
X015329Y013661D01*
X015446Y013562D02*
X015204Y013562D01*
X015634Y013904D02*
X015778Y013866D01*
X015843Y014113D01*
X015596Y014048D01*
X015634Y013904D01*
X015843Y014113D01*
X015204Y014449D02*
X016994Y014449D01*
X016994Y014547D02*
X015204Y014547D01*
X015204Y014646D02*
X016994Y014646D01*
X016994Y014745D02*
X015204Y014745D01*
X015204Y014843D02*
X017059Y014843D01*
X018812Y015040D02*
X019324Y015040D01*
X019324Y014942D02*
X018910Y014942D01*
X019009Y014843D02*
X019324Y014843D01*
X019324Y014745D02*
X019074Y014745D01*
X019074Y014646D02*
X019324Y014646D01*
X019324Y014547D02*
X019074Y014547D01*
X019074Y014449D02*
X019324Y014449D01*
X019324Y014350D02*
X019074Y014350D01*
X018995Y014252D02*
X019324Y014252D01*
X019324Y014153D02*
X018897Y014153D01*
X018798Y014055D02*
X019324Y014055D01*
X019324Y013956D02*
X018896Y013956D01*
X018994Y013858D02*
X019324Y013858D01*
X019324Y013759D02*
X019074Y013759D01*
X019074Y013661D02*
X019324Y013661D01*
X019324Y013562D02*
X019074Y013562D01*
X019074Y013464D02*
X019324Y013464D01*
X019324Y013365D02*
X019074Y013365D01*
X019010Y013266D02*
X019324Y013266D01*
X019324Y013168D02*
X018911Y013168D01*
X018813Y013069D02*
X019324Y013069D01*
X019324Y012971D02*
X018881Y012971D01*
X018980Y012872D02*
X019324Y012872D01*
X019324Y012774D02*
X019074Y012774D01*
X019074Y012675D02*
X019324Y012675D01*
X019324Y012577D02*
X019074Y012577D01*
X019074Y012478D02*
X019324Y012478D01*
X019324Y012380D02*
X019074Y012380D01*
X019024Y012281D02*
X019324Y012281D01*
X019324Y012182D02*
X018926Y012182D01*
X018827Y012084D02*
X019324Y012084D01*
X019324Y011985D02*
X018867Y011985D01*
X018965Y011887D02*
X019324Y011887D01*
X019324Y011788D02*
X019064Y011788D01*
X019074Y011690D02*
X019324Y011690D01*
X019324Y011591D02*
X019074Y011591D01*
X019074Y011493D02*
X019324Y011493D01*
X019324Y011394D02*
X019074Y011394D01*
X019039Y011296D02*
X019324Y011296D01*
X019324Y011197D02*
X018940Y011197D01*
X018842Y011098D02*
X019324Y011098D01*
X019324Y011000D02*
X018852Y011000D01*
X018951Y010901D02*
X019324Y010901D01*
X019324Y010803D02*
X019049Y010803D01*
X019074Y010704D02*
X019324Y010704D01*
X019324Y010606D02*
X019074Y010606D01*
X019074Y010507D02*
X019324Y010507D01*
X019324Y010409D02*
X019074Y010409D01*
X019054Y010310D02*
X019324Y010310D01*
X019324Y010212D02*
X018955Y010212D01*
X018856Y010113D02*
X019324Y010113D01*
X019324Y010014D02*
X018838Y010014D01*
X018936Y009916D02*
X019324Y009916D01*
X019324Y009817D02*
X019035Y009817D01*
X019074Y009719D02*
X019324Y009719D01*
X019324Y009620D02*
X019074Y009620D01*
X019074Y009522D02*
X019324Y009522D01*
X019324Y009423D02*
X019074Y009423D01*
X019068Y009325D02*
X019324Y009325D01*
X019324Y009226D02*
X018970Y009226D01*
X018871Y009128D02*
X019324Y009128D01*
X019324Y009029D02*
X018795Y009029D01*
X018893Y008931D02*
X019324Y008931D01*
X019324Y008832D02*
X018992Y008832D01*
X019054Y008733D02*
X019324Y008733D01*
X019324Y008635D02*
X019054Y008635D01*
X019054Y008438D02*
X019324Y008438D01*
X019324Y008536D02*
X018584Y008536D01*
X018534Y008554D02*
X018034Y008054D01*
X017184Y008054D01*
X016684Y007554D01*
X015262Y007554D01*
X014762Y008054D01*
X014511Y008008D01*
X014484Y008154D01*
X016069Y008154D01*
X016184Y008270D01*
X016135Y008241D02*
X012866Y008241D01*
X012907Y008339D02*
X015837Y008339D01*
X015837Y008438D02*
X012922Y008438D01*
X012920Y008536D02*
X014253Y008536D01*
X014409Y008726D02*
X014484Y008854D01*
X014189Y008854D01*
X014409Y008726D01*
X014598Y008250D02*
X014484Y008154D01*
X014584Y008054D01*
X014762Y008054D01*
X014598Y008250D01*
X014553Y007255D02*
X017070Y007255D01*
X016994Y007354D02*
X013272Y007354D01*
X013174Y007452D02*
X016994Y007452D01*
X016994Y007551D02*
X013075Y007551D01*
X012977Y007649D02*
X016994Y007649D01*
X016994Y007748D02*
X012878Y007748D01*
X012780Y007847D02*
X017063Y007847D01*
X017161Y007945D02*
X016485Y007945D01*
X016531Y008044D02*
X017260Y008044D01*
X017084Y008241D02*
X016233Y008241D01*
X016233Y008142D02*
X016136Y008142D01*
X016136Y008044D02*
X016233Y008044D01*
X016233Y007945D02*
X016136Y007945D01*
X015883Y007945D02*
X012754Y007945D01*
X012754Y008044D02*
X015837Y008044D01*
X015837Y008142D02*
X012779Y008142D01*
X012534Y008159D02*
X012534Y007781D01*
X013898Y006418D01*
X013822Y006861D02*
X013765Y006861D01*
X013667Y006960D02*
X013921Y006960D01*
X014019Y007058D02*
X013568Y007058D01*
X013470Y007157D02*
X014118Y007157D01*
X014216Y007255D02*
X013371Y007255D01*
X012534Y008159D02*
X012406Y008380D01*
X012534Y008454D01*
X012662Y008380D01*
X012534Y008159D01*
X012534Y008454D01*
X012148Y008536D02*
X012074Y008536D01*
X011268Y008635D02*
X009530Y008635D01*
X009701Y008536D02*
X011169Y008536D01*
X011071Y008438D02*
X009778Y008438D01*
X009998Y007968D02*
X009998Y007841D01*
X009471Y007341D01*
X009243Y007113D01*
X008978Y006916D01*
X008884Y007054D01*
X008756Y006930D01*
X008984Y006609D01*
X009062Y007030D01*
X008884Y007054D01*
X008996Y007048D01*
X009243Y007113D01*
X008884Y007054D01*
X008984Y006609D01*
X008984Y006404D01*
X008484Y005904D01*
X008696Y005777D02*
X007972Y005777D01*
X008054Y005679D02*
X008597Y005679D01*
X008499Y005580D02*
X008054Y005580D01*
X008054Y005481D02*
X008400Y005481D01*
X008314Y005383D02*
X008054Y005383D01*
X008054Y005284D02*
X008314Y005284D01*
X008314Y005186D02*
X008054Y005186D01*
X008054Y005087D02*
X008314Y005087D01*
X008314Y004989D02*
X008054Y004989D01*
X008054Y004890D02*
X008314Y004890D01*
X008314Y004792D02*
X008054Y004792D01*
X008054Y004693D02*
X008185Y004693D01*
X008167Y004595D02*
X008054Y004595D01*
X008054Y004496D02*
X008167Y004496D01*
X008167Y004398D02*
X008054Y004398D01*
X008054Y004299D02*
X008167Y004299D01*
X008167Y004200D02*
X008054Y004200D01*
X008054Y004102D02*
X008167Y004102D01*
X008203Y004003D02*
X008054Y004003D01*
X008054Y003905D02*
X008187Y003905D01*
X008187Y003806D02*
X008054Y003806D01*
X008054Y003708D02*
X008485Y003708D01*
X008583Y003708D02*
X012814Y003708D01*
X012814Y003806D02*
X008881Y003806D01*
X008881Y003905D02*
X012814Y003905D01*
X012814Y004003D02*
X008865Y004003D01*
X008901Y004102D02*
X011848Y004102D01*
X011746Y004200D02*
X008901Y004200D01*
X008901Y004299D02*
X011648Y004299D01*
X011660Y004299D02*
X011797Y004299D01*
X011759Y004398D02*
X011896Y004398D01*
X011900Y004496D02*
X011857Y004496D01*
X011948Y004518D02*
X010611Y005854D01*
X010329Y005854D01*
X010109Y005726D01*
X010034Y005854D01*
X010109Y005983D01*
X010329Y005854D01*
X010034Y005854D01*
X009914Y006073D02*
X011028Y006073D01*
X010929Y006171D02*
X010012Y006171D01*
X010111Y006270D02*
X010831Y006270D01*
X010904Y006507D02*
X010654Y006559D01*
X010684Y006704D01*
X010634Y006554D01*
X010334Y006704D01*
X010634Y006854D01*
X010684Y006704D01*
X010334Y006704D01*
X010234Y006704D01*
X009684Y006154D01*
X009384Y006154D01*
X008534Y005304D01*
X008534Y004389D01*
X008901Y004398D02*
X011549Y004398D01*
X011505Y004496D02*
X008901Y004496D01*
X008901Y004595D02*
X011535Y004595D01*
X011633Y004693D02*
X008884Y004693D01*
X008754Y004792D02*
X011742Y004792D01*
X011704Y004693D02*
X011841Y004693D01*
X011802Y004595D02*
X011939Y004595D01*
X011956Y004595D02*
X012093Y004595D01*
X012054Y004693D02*
X012172Y004693D01*
X011984Y004554D02*
X011984Y004554D01*
X011948Y004518D01*
X011995Y004496D02*
X012038Y004496D01*
X011999Y004398D02*
X012136Y004398D01*
X012098Y004299D02*
X012802Y004299D01*
X012814Y004200D02*
X012121Y004200D01*
X012020Y004102D02*
X012814Y004102D01*
X012703Y004398D02*
X012318Y004398D01*
X012386Y004496D02*
X012605Y004496D01*
X013034Y004378D02*
X012421Y004991D01*
X010904Y006507D01*
X010825Y006750D01*
X010684Y006704D01*
X010707Y006704D01*
X010904Y006507D01*
X010481Y006368D02*
X010209Y006368D01*
X010308Y006467D02*
X010317Y006467D01*
X009998Y006868D02*
X009734Y006604D01*
X009484Y006454D01*
X009434Y006604D01*
X009484Y006754D01*
X009734Y006654D01*
X009734Y006604D02*
X009434Y006604D01*
X009071Y006467D02*
X007404Y006467D01*
X007404Y006565D02*
X009046Y006565D01*
X009046Y006664D02*
X007404Y006664D01*
X007404Y006763D02*
X009080Y006763D01*
X009142Y006861D02*
X007502Y006861D01*
X007601Y006960D02*
X009278Y006960D01*
X009590Y006960D02*
X009778Y006960D01*
X009875Y007058D02*
X007699Y007058D01*
X007798Y007157D02*
X009968Y007157D01*
X010062Y007255D02*
X007896Y007255D01*
X007825Y007496D02*
X007891Y007742D01*
X008034Y007704D01*
X008072Y007561D01*
X007825Y007496D01*
X008034Y007704D01*
X007825Y007496D02*
X007184Y006854D01*
X007184Y006254D01*
X007834Y005604D01*
X007834Y003704D01*
X007484Y003354D01*
X002484Y003354D01*
X002292Y003587D01*
X001785Y004204D01*
X001486Y004293D01*
X001534Y004454D01*
X001534Y004402D01*
X003156Y004402D01*
X002625Y004102D02*
X002154Y004102D01*
X002235Y004003D02*
X007614Y004003D01*
X007614Y003905D02*
X002316Y003905D01*
X002397Y003806D02*
X007614Y003806D01*
X007526Y003708D02*
X002478Y003708D01*
X002559Y003609D02*
X007428Y003609D01*
X007754Y003314D02*
X012814Y003314D01*
X012814Y003412D02*
X008852Y003412D01*
X008851Y003411D02*
X008871Y003445D01*
X008881Y003483D01*
X008881Y003671D01*
X008583Y003671D01*
X008583Y003353D01*
X008751Y003353D01*
X008789Y003363D01*
X008823Y003383D01*
X008851Y003411D01*
X008881Y003511D02*
X012814Y003511D01*
X012814Y003609D02*
X008881Y003609D01*
X008583Y003609D02*
X008486Y003609D01*
X008486Y003511D02*
X008583Y003511D01*
X008583Y003412D02*
X008486Y003412D01*
X008484Y003204D02*
X011984Y003204D01*
X011826Y003018D02*
X012242Y003018D01*
X012136Y002919D02*
X011933Y002919D01*
X012008Y002821D02*
X012060Y002821D01*
X012814Y003116D02*
X001254Y003116D01*
X001254Y003018D02*
X001299Y003018D01*
X001484Y003018D02*
X001584Y003018D01*
X001584Y002919D02*
X001484Y002919D01*
X001484Y002821D02*
X001584Y002821D01*
X001584Y002722D02*
X001484Y002722D01*
X001484Y002624D02*
X001584Y002624D01*
X001584Y002504D02*
X001584Y002036D01*
X001584Y001604D01*
X001484Y001604D01*
X001484Y002036D01*
X001484Y002504D01*
X001584Y002504D01*
X001584Y002427D02*
X001484Y002427D01*
X001484Y002328D02*
X001584Y002328D01*
X001584Y002230D02*
X001484Y002230D01*
X001484Y002131D02*
X001584Y002131D01*
X001584Y002032D02*
X001484Y002032D01*
X001484Y001934D02*
X001584Y001934D01*
X001584Y001835D02*
X001484Y001835D01*
X001484Y001737D02*
X001584Y001737D01*
X001584Y001638D02*
X001484Y001638D01*
X001034Y001304D02*
X001284Y001054D01*
X013034Y001054D01*
X013034Y004378D01*
X012948Y005468D02*
X011434Y006981D01*
X011434Y007159D01*
X011306Y007380D01*
X011434Y007454D01*
X011562Y007380D01*
X011434Y007159D01*
X011434Y007454D01*
X010471Y007368D02*
X009998Y006868D01*
X010009Y007354D02*
X008202Y007354D01*
X008331Y007452D02*
X009896Y007452D01*
X009797Y007551D02*
X008391Y007551D01*
X008422Y007649D02*
X009698Y007649D01*
X009738Y007649D02*
X009875Y007649D01*
X009836Y007748D02*
X009973Y007748D01*
X010061Y007847D02*
X010072Y007847D01*
X009600Y007748D02*
X008422Y007748D01*
X008395Y007847D02*
X009555Y007847D01*
X009195Y007945D02*
X008342Y007945D01*
X008229Y008044D02*
X009101Y008044D01*
X009061Y008142D02*
X002886Y008142D01*
X002808Y008044D02*
X007839Y008044D01*
X007726Y007945D02*
X002907Y007945D01*
X003006Y007847D02*
X007673Y007847D01*
X007646Y007748D02*
X003074Y007748D01*
X003074Y007649D02*
X007639Y007649D01*
X007570Y007551D02*
X003074Y007551D01*
X003074Y007452D02*
X006383Y007452D01*
X006297Y007354D02*
X003074Y007354D01*
X002999Y007255D02*
X005179Y007255D01*
X005114Y007229D02*
X004660Y006774D01*
X004597Y006623D01*
X004597Y006460D01*
X004660Y006309D01*
X004775Y006194D01*
X004926Y006132D01*
X005089Y006132D01*
X005240Y006194D01*
X005694Y006649D01*
X005757Y006800D01*
X005757Y006963D01*
X005694Y007113D01*
X005579Y007229D01*
X005428Y007291D01*
X005265Y007291D01*
X005114Y007229D01*
X005043Y007157D02*
X002900Y007157D01*
X002802Y007058D02*
X004944Y007058D01*
X004845Y006960D02*
X002892Y006960D01*
X002991Y006861D02*
X004747Y006861D01*
X004655Y006763D02*
X003074Y006763D01*
X003074Y006664D02*
X004614Y006664D01*
X004597Y006565D02*
X003074Y006565D01*
X003074Y006467D02*
X004597Y006467D01*
X004635Y006368D02*
X003074Y006368D01*
X003013Y006270D02*
X004699Y006270D01*
X004830Y006171D02*
X002915Y006171D01*
X002816Y006073D02*
X005591Y006073D01*
X005493Y005974D02*
X002663Y005974D01*
X002733Y005876D02*
X005414Y005876D01*
X005414Y005777D02*
X002772Y005777D01*
X002384Y005704D02*
X002309Y005833D01*
X002089Y005704D01*
X002309Y005576D01*
X002384Y005704D01*
X002089Y005704D01*
X001769Y005704D01*
X001734Y005739D01*
X002075Y005383D02*
X002157Y005383D01*
X002101Y005284D02*
X002612Y005284D01*
X002612Y005186D02*
X002101Y005186D01*
X002101Y005087D02*
X002612Y005087D01*
X002643Y004989D02*
X002101Y004989D01*
X002101Y004890D02*
X005414Y004890D01*
X005414Y004792D02*
X002101Y004792D01*
X002011Y004693D02*
X002616Y004693D01*
X001827Y003806D02*
X001254Y003806D01*
X001254Y003708D02*
X001908Y003708D01*
X001989Y003609D02*
X001254Y003609D01*
X001254Y003511D02*
X002070Y003511D01*
X002064Y003518D02*
X002064Y003518D01*
X002152Y003412D02*
X001254Y003412D01*
X001254Y003314D02*
X002233Y003314D01*
X002312Y003215D02*
X001254Y003215D01*
X001770Y003018D02*
X002242Y003018D01*
X002136Y002919D02*
X001904Y002919D01*
X001982Y002821D02*
X002060Y002821D01*
X002826Y003018D02*
X003242Y003018D01*
X003136Y002919D02*
X002933Y002919D01*
X003008Y002821D02*
X003060Y002821D01*
X003826Y003018D02*
X004242Y003018D01*
X004136Y002919D02*
X003933Y002919D01*
X004008Y002821D02*
X004060Y002821D01*
X004712Y002043D02*
X004840Y002097D01*
X004992Y002248D01*
X005034Y002350D01*
X005076Y002248D01*
X005228Y002097D01*
X005330Y002054D01*
X005228Y002012D01*
X005076Y001860D01*
X005023Y001732D01*
X005016Y001754D01*
X004979Y001827D01*
X004931Y001893D01*
X004873Y001951D01*
X004807Y001999D01*
X004734Y002036D01*
X004712Y002043D01*
X004741Y002032D02*
X005278Y002032D01*
X005194Y002131D02*
X004875Y002131D01*
X004973Y002230D02*
X005095Y002230D01*
X005043Y002328D02*
X005025Y002328D01*
X005034Y002054D02*
X004534Y001554D01*
X004890Y001934D02*
X005150Y001934D01*
X005066Y001835D02*
X004973Y001835D01*
X005022Y001737D02*
X005025Y001737D01*
X005034Y002054D02*
X005034Y002804D01*
X005384Y003154D01*
X007084Y003154D01*
X008484Y003204D01*
X008242Y003018D02*
X007826Y003018D01*
X007933Y002919D02*
X008136Y002919D01*
X008060Y002821D02*
X008008Y002821D01*
X007656Y003215D02*
X012814Y003215D01*
X011242Y003018D02*
X010826Y003018D01*
X010933Y002919D02*
X011136Y002919D01*
X011060Y002821D02*
X011008Y002821D01*
X010242Y003018D02*
X009826Y003018D01*
X009933Y002919D02*
X010136Y002919D01*
X010060Y002821D02*
X010008Y002821D01*
X009242Y003018D02*
X008826Y003018D01*
X008933Y002919D02*
X009136Y002919D01*
X009060Y002821D02*
X009008Y002821D01*
X008217Y003412D02*
X007853Y003412D01*
X007952Y003511D02*
X008187Y003511D01*
X008187Y003609D02*
X008050Y003609D01*
X007614Y004102D02*
X005144Y004102D01*
X005381Y004402D02*
X005634Y004654D01*
X005634Y005804D01*
X006534Y006704D01*
X006534Y007054D01*
X006634Y007154D01*
X006885Y007452D02*
X007471Y007452D01*
X007373Y007354D02*
X006972Y007354D01*
X007012Y007255D02*
X007274Y007255D01*
X007176Y007157D02*
X007022Y007157D01*
X007014Y007058D02*
X007077Y007058D01*
X007093Y007074D02*
X007093Y007074D01*
X006978Y006960D02*
X006974Y006960D01*
X006964Y006861D02*
X006890Y006861D01*
X006964Y006763D02*
X006754Y006763D01*
X006754Y006664D02*
X006964Y006664D01*
X006964Y006565D02*
X006706Y006565D01*
X006608Y006467D02*
X006964Y006467D01*
X006964Y006368D02*
X006509Y006368D01*
X006411Y006270D02*
X006964Y006270D01*
X006964Y006171D02*
X006312Y006171D01*
X006214Y006073D02*
X007055Y006073D01*
X007153Y005974D02*
X006115Y005974D01*
X006017Y005876D02*
X006677Y005876D01*
X006679Y005877D02*
X006529Y005814D01*
X006074Y005360D01*
X006012Y005209D01*
X006012Y005046D01*
X006074Y004895D01*
X006189Y004780D01*
X006340Y004718D01*
X006503Y004718D01*
X006654Y004780D01*
X007109Y005235D01*
X007171Y005385D01*
X007171Y005548D01*
X007109Y005699D01*
X006993Y005814D01*
X006842Y005877D01*
X006679Y005877D01*
X006845Y005876D02*
X007252Y005876D01*
X007350Y005777D02*
X007030Y005777D01*
X007117Y005679D02*
X007449Y005679D01*
X007547Y005580D02*
X007158Y005580D01*
X007171Y005481D02*
X007614Y005481D01*
X007614Y005383D02*
X007170Y005383D01*
X007129Y005284D02*
X007614Y005284D01*
X007614Y005186D02*
X007060Y005186D01*
X006961Y005087D02*
X007614Y005087D01*
X007614Y004989D02*
X006863Y004989D01*
X006764Y004890D02*
X007614Y004890D01*
X007614Y004792D02*
X006666Y004792D01*
X006178Y004792D02*
X005854Y004792D01*
X005854Y004890D02*
X006079Y004890D01*
X006035Y004989D02*
X005854Y004989D01*
X005854Y005087D02*
X006012Y005087D01*
X006012Y005186D02*
X005854Y005186D01*
X005854Y005284D02*
X006043Y005284D01*
X006097Y005383D02*
X005854Y005383D01*
X005854Y005481D02*
X006196Y005481D01*
X006294Y005580D02*
X005854Y005580D01*
X005854Y005679D02*
X006393Y005679D01*
X006491Y005777D02*
X005918Y005777D01*
X005690Y006171D02*
X005184Y006171D01*
X005315Y006270D02*
X005789Y006270D01*
X005887Y006368D02*
X005414Y006368D01*
X005512Y006467D02*
X005986Y006467D01*
X006084Y006565D02*
X005611Y006565D01*
X005701Y006664D02*
X006183Y006664D01*
X006281Y006763D02*
X005741Y006763D01*
X005757Y006861D02*
X006314Y006861D01*
X006295Y006960D02*
X005757Y006960D01*
X005717Y007058D02*
X006254Y007058D01*
X006246Y007157D02*
X005651Y007157D01*
X005515Y007255D02*
X006256Y007255D01*
X007404Y006368D02*
X009121Y006368D01*
X009189Y006270D02*
X007480Y006270D01*
X007578Y006171D02*
X009090Y006171D01*
X008991Y006073D02*
X007677Y006073D01*
X007775Y005974D02*
X008893Y005974D01*
X008794Y005876D02*
X007874Y005876D01*
X008754Y005186D02*
X011915Y005186D01*
X011998Y005087D02*
X008754Y005087D01*
X008754Y004989D02*
X011959Y004989D01*
X011830Y004890D02*
X008754Y004890D01*
X008825Y005284D02*
X011816Y005284D01*
X011718Y005383D02*
X008924Y005383D01*
X009022Y005481D02*
X011619Y005481D01*
X011521Y005580D02*
X009121Y005580D01*
X009220Y005679D02*
X011422Y005679D01*
X011324Y005777D02*
X009318Y005777D01*
X009417Y005876D02*
X011225Y005876D01*
X011126Y005974D02*
X009815Y005974D01*
X007614Y004693D02*
X005854Y004693D01*
X005854Y004595D02*
X007614Y004595D01*
X007614Y004496D02*
X005787Y004496D01*
X005688Y004398D02*
X007614Y004398D01*
X007614Y004299D02*
X005590Y004299D01*
X005491Y004200D02*
X007614Y004200D01*
X007242Y003018D02*
X006826Y003018D01*
X006933Y002919D02*
X007136Y002919D01*
X007060Y002821D02*
X007008Y002821D01*
X006242Y003018D02*
X005826Y003018D01*
X005933Y002919D02*
X006136Y002919D01*
X006060Y002821D02*
X006008Y002821D01*
X005242Y003018D02*
X004826Y003018D01*
X004933Y002919D02*
X005136Y002919D01*
X005060Y002821D02*
X005008Y002821D01*
X004081Y004102D02*
X003687Y004102D01*
X003700Y004200D02*
X004069Y004200D01*
X004069Y004299D02*
X003700Y004299D01*
X003700Y004398D02*
X004069Y004398D01*
X004069Y004496D02*
X003700Y004496D01*
X003700Y004595D02*
X004069Y004595D01*
X004073Y004693D02*
X003695Y004693D01*
X003668Y004989D02*
X004128Y004989D01*
X004118Y004998D02*
X004146Y004971D01*
X004181Y004951D01*
X004219Y004941D01*
X004563Y004941D01*
X004563Y005257D01*
X004662Y005257D01*
X004662Y004941D01*
X005006Y004941D01*
X005044Y004951D01*
X005079Y004971D01*
X005107Y004998D01*
X005126Y005033D01*
X005136Y005071D01*
X005136Y005257D01*
X004663Y005257D01*
X004663Y005357D01*
X005136Y005357D01*
X005136Y005543D01*
X005126Y005581D01*
X005107Y005616D01*
X005079Y005644D01*
X005044Y005663D01*
X005006Y005674D01*
X004662Y005674D01*
X004662Y005357D01*
X004563Y005357D01*
X004563Y005674D01*
X004219Y005674D01*
X004181Y005663D01*
X004146Y005644D01*
X004118Y005616D01*
X004099Y005581D01*
X004089Y005543D01*
X004089Y005357D01*
X004562Y005357D01*
X004562Y005257D01*
X004089Y005257D01*
X004089Y005071D01*
X004099Y005033D01*
X004118Y004998D01*
X004089Y005087D02*
X003700Y005087D01*
X003700Y005186D02*
X004089Y005186D01*
X004089Y005383D02*
X003700Y005383D01*
X003700Y005481D02*
X004089Y005481D01*
X004098Y005580D02*
X003700Y005580D01*
X003615Y005679D02*
X005414Y005679D01*
X005414Y005580D02*
X005127Y005580D01*
X005136Y005481D02*
X005414Y005481D01*
X005414Y005383D02*
X005136Y005383D01*
X005136Y005186D02*
X005414Y005186D01*
X005414Y005284D02*
X004663Y005284D01*
X004662Y005186D02*
X004563Y005186D01*
X004562Y005284D02*
X003700Y005284D01*
X004563Y005383D02*
X004662Y005383D01*
X004662Y005481D02*
X004563Y005481D01*
X004563Y005580D02*
X004662Y005580D01*
X004662Y005087D02*
X004563Y005087D01*
X004563Y004989D02*
X004662Y004989D01*
X005097Y004989D02*
X005414Y004989D01*
X005414Y005087D02*
X005136Y005087D01*
X005152Y004693D02*
X005362Y004693D01*
X005381Y004402D02*
X004613Y004402D01*
X002077Y006861D02*
X001963Y006861D01*
X002020Y006804D02*
X001784Y007040D01*
X002034Y007291D01*
X002271Y007054D01*
X002020Y006804D01*
X001864Y006960D02*
X002176Y006960D01*
X002267Y007058D02*
X001802Y007058D01*
X001900Y007157D02*
X002168Y007157D01*
X002070Y007255D02*
X001999Y007255D01*
X002034Y007054D02*
X001534Y006554D01*
X002034Y007054D02*
X002784Y007054D01*
X003784Y008004D01*
X004234Y008004D01*
X001734Y005070D02*
X001534Y004870D01*
X001534Y004809D01*
X001682Y004534D01*
X001534Y004454D01*
X001695Y004503D01*
X001785Y004204D01*
X001534Y004454D01*
X001373Y004503D01*
X001284Y004204D01*
X001582Y004293D01*
X001534Y004454D01*
X001386Y004534D01*
X001534Y004809D01*
X001534Y004454D01*
X001582Y004615D01*
X001284Y004705D01*
X001373Y004406D01*
X001534Y004454D01*
X001284Y004705D01*
X001034Y004954D01*
X001034Y010004D01*
X002995Y014252D02*
X006746Y014252D01*
X006704Y014350D02*
X003074Y014350D01*
X003074Y014449D02*
X006704Y014449D01*
X006704Y014547D02*
X003074Y014547D01*
X003074Y014646D02*
X006704Y014646D01*
X006704Y014745D02*
X003074Y014745D01*
X004714Y016321D02*
X000744Y016321D01*
X000744Y016223D02*
X004812Y016223D01*
X004615Y016420D02*
X000744Y016420D01*
X000744Y016518D02*
X004517Y016518D01*
X004418Y016617D02*
X000744Y016617D01*
X000744Y016715D02*
X004152Y016715D01*
X004064Y016814D02*
X000744Y016814D01*
X000744Y016913D02*
X004023Y016913D01*
X004016Y017011D02*
X000744Y017011D01*
X000744Y017110D02*
X004029Y017110D01*
X004070Y017208D02*
X000744Y017208D01*
X000744Y017307D02*
X004166Y017307D01*
X003963Y017701D02*
X002706Y017701D01*
X002780Y017799D02*
X003889Y017799D01*
X003853Y017898D02*
X002815Y017898D01*
X002815Y017996D02*
X003853Y017996D01*
X003883Y018095D02*
X002786Y018095D01*
X002720Y018194D02*
X003949Y018194D01*
X004814Y018391D02*
X000744Y018391D01*
X000744Y018489D02*
X004814Y018489D01*
X004814Y018588D02*
X000744Y018588D01*
X000744Y018686D02*
X004814Y018686D01*
X004814Y018785D02*
X000744Y018785D01*
X000744Y018883D02*
X004814Y018883D01*
X004814Y018982D02*
X000744Y018982D01*
X000744Y019080D02*
X004814Y019080D01*
X004848Y019179D02*
X000744Y019179D01*
X000744Y019278D02*
X004946Y019278D01*
X006205Y018982D02*
X006363Y018982D01*
X006584Y018654D02*
X006456Y018580D01*
X006584Y018359D01*
X006712Y018580D01*
X006584Y018654D01*
X006584Y018359D01*
X006584Y017704D01*
X006364Y018194D02*
X006112Y018194D01*
X006124Y018292D02*
X006364Y018292D01*
X006299Y018391D02*
X006269Y018391D01*
X005831Y017208D02*
X005738Y017208D01*
X005738Y017110D02*
X005831Y017110D01*
X005833Y017011D02*
X005736Y017011D01*
X005410Y017261D02*
X005034Y017637D01*
X008798Y017405D02*
X009220Y017405D01*
X009121Y017504D02*
X008919Y017504D01*
X008989Y017602D02*
X009054Y017602D01*
X010406Y016430D02*
X010534Y016504D01*
X010662Y016430D01*
X010534Y016209D01*
X010534Y015870D01*
X010950Y015454D01*
X010434Y015004D02*
X010834Y014604D01*
X010950Y014604D01*
X011619Y014604D02*
X012034Y014604D01*
X012284Y014354D01*
X013084Y014204D02*
X013084Y014500D01*
X011950Y013562D02*
X011891Y013562D01*
X011909Y013464D02*
X011812Y013464D01*
X011804Y013365D02*
X011896Y013365D01*
X011900Y013266D02*
X011804Y013266D01*
X011804Y013168D02*
X011941Y013168D01*
X011201Y012182D02*
X010381Y012182D01*
X010364Y012084D02*
X011103Y012084D01*
X011004Y011985D02*
X009754Y011985D01*
X009754Y011887D02*
X010906Y011887D01*
X010807Y011788D02*
X009679Y011788D01*
X009986Y012084D02*
X010083Y012084D01*
X010083Y012182D02*
X009986Y012182D01*
X009986Y012281D02*
X010083Y012281D01*
X010119Y012370D02*
X010584Y011954D01*
X009687Y012281D02*
X009669Y012281D01*
X009244Y012084D02*
X008816Y012084D01*
X008914Y011985D02*
X009254Y011985D01*
X009145Y012182D02*
X008717Y012182D01*
X008619Y012281D02*
X009046Y012281D01*
X008948Y012380D02*
X008520Y012380D01*
X008421Y012478D02*
X008849Y012478D01*
X010034Y013039D02*
X010034Y013304D01*
X010754Y016026D02*
X013414Y016026D01*
X013297Y016124D02*
X010754Y016124D01*
X010801Y016223D02*
X010955Y016223D01*
X010534Y016209D02*
X010406Y016430D01*
X010534Y016504D02*
X010534Y016209D01*
X011854Y017307D02*
X016113Y017307D01*
X016724Y017701D02*
X018399Y017701D01*
X018399Y017799D02*
X017063Y017799D01*
X017161Y017898D02*
X018307Y017898D01*
X018236Y017996D02*
X017232Y017996D01*
X017273Y018095D02*
X018196Y018095D01*
X018174Y018194D02*
X017294Y018194D01*
X017294Y018292D02*
X018174Y018292D01*
X018186Y018391D02*
X017282Y018391D01*
X017241Y018489D02*
X018227Y018489D01*
X018284Y018588D02*
X017184Y018588D01*
X017086Y018686D02*
X018382Y018686D01*
X018584Y018785D02*
X016884Y018785D01*
X016805Y017602D02*
X018313Y017602D01*
X017998Y017504D02*
X017901Y017504D01*
X017901Y017405D02*
X017998Y017405D01*
X017998Y017307D02*
X017901Y017307D01*
X017884Y017254D02*
X017884Y016954D01*
X019034Y015804D01*
X019034Y009054D01*
X018534Y008554D01*
X019034Y008054D01*
X019034Y005554D01*
X018534Y005054D01*
X018534Y004054D01*
X018484Y004102D02*
X018024Y004102D01*
X018064Y004104D02*
X018484Y004104D01*
X018484Y004004D01*
X018584Y004004D01*
X018584Y003584D01*
X018729Y003584D01*
X019004Y003860D01*
X019004Y004004D01*
X018584Y004004D01*
X018584Y004104D01*
X019004Y004104D01*
X019004Y004249D01*
X018729Y004524D01*
X018584Y004524D01*
X018584Y004104D01*
X018484Y004104D01*
X018484Y004524D01*
X018339Y004524D01*
X018064Y004249D01*
X018064Y004104D01*
X018064Y004200D02*
X018024Y004200D01*
X017982Y004299D02*
X018114Y004299D01*
X018213Y004398D02*
X017884Y004398D01*
X017785Y004496D02*
X018311Y004496D01*
X018354Y004619D02*
X018424Y004596D01*
X018484Y004586D01*
X018484Y005004D01*
X018584Y005004D01*
X018584Y004586D01*
X018644Y004596D01*
X018715Y004619D01*
X018780Y004652D01*
X018840Y004696D01*
X018893Y004748D01*
X018936Y004808D01*
X018970Y004874D01*
X018993Y004944D01*
X019002Y005004D01*
X018584Y005004D01*
X018584Y005104D01*
X019002Y005104D01*
X018993Y005164D01*
X018970Y005235D01*
X018936Y005301D01*
X018893Y005360D01*
X018840Y005413D01*
X018780Y005456D01*
X018715Y005490D01*
X018644Y005513D01*
X018584Y005522D01*
X018584Y005104D01*
X018484Y005104D01*
X018484Y005004D01*
X018066Y005004D01*
X018076Y004944D01*
X018099Y004874D01*
X018132Y004808D01*
X018176Y004748D01*
X018228Y004696D01*
X018288Y004652D01*
X018354Y004619D01*
X018432Y004595D02*
X017767Y004595D01*
X017866Y004693D02*
X018232Y004693D01*
X018144Y004792D02*
X017964Y004792D01*
X018024Y004890D02*
X018093Y004890D01*
X018069Y004989D02*
X018024Y004989D01*
X018024Y005087D02*
X018484Y005087D01*
X018484Y005104D02*
X018066Y005104D01*
X018076Y005164D01*
X018099Y005235D01*
X018132Y005301D01*
X018176Y005360D01*
X018228Y005413D01*
X018288Y005456D01*
X018354Y005490D01*
X018424Y005513D01*
X018484Y005522D01*
X018484Y005104D01*
X018484Y005186D02*
X018584Y005186D01*
X018584Y005284D02*
X018484Y005284D01*
X018484Y005383D02*
X018584Y005383D01*
X018584Y005481D02*
X018484Y005481D01*
X018337Y005481D02*
X017800Y005481D01*
X017898Y005383D02*
X018198Y005383D01*
X018124Y005284D02*
X017997Y005284D01*
X018024Y005186D02*
X018083Y005186D01*
X018484Y004989D02*
X018584Y004989D01*
X018584Y005087D02*
X019324Y005087D01*
X019324Y004989D02*
X019000Y004989D01*
X018975Y004890D02*
X019324Y004890D01*
X019324Y004792D02*
X018924Y004792D01*
X018837Y004693D02*
X019324Y004693D01*
X019324Y004595D02*
X018636Y004595D01*
X018584Y004595D02*
X018484Y004595D01*
X018484Y004693D02*
X018584Y004693D01*
X018584Y004792D02*
X018484Y004792D01*
X018484Y004890D02*
X018584Y004890D01*
X018584Y004496D02*
X018484Y004496D01*
X018484Y004398D02*
X018584Y004398D01*
X018584Y004299D02*
X018484Y004299D01*
X018484Y004200D02*
X018584Y004200D01*
X018584Y004102D02*
X019324Y004102D01*
X019324Y004200D02*
X019004Y004200D01*
X018954Y004299D02*
X019324Y004299D01*
X019324Y004398D02*
X018856Y004398D01*
X018757Y004496D02*
X019324Y004496D01*
X019324Y004003D02*
X019004Y004003D01*
X019004Y003905D02*
X019324Y003905D01*
X019324Y003806D02*
X018951Y003806D01*
X018852Y003708D02*
X019324Y003708D01*
X019324Y003609D02*
X018754Y003609D01*
X018584Y003609D02*
X018484Y003609D01*
X018484Y003584D02*
X018484Y004004D01*
X018064Y004004D01*
X018064Y003860D01*
X018339Y003584D01*
X018484Y003584D01*
X018484Y003708D02*
X018584Y003708D01*
X018584Y003806D02*
X018484Y003806D01*
X018484Y003905D02*
X018584Y003905D01*
X018584Y004003D02*
X018484Y004003D01*
X018216Y003708D02*
X017880Y003708D01*
X017782Y003609D02*
X018315Y003609D01*
X018118Y003806D02*
X017979Y003806D01*
X018024Y003905D02*
X018064Y003905D01*
X018064Y004003D02*
X018024Y004003D01*
X017639Y003511D02*
X019324Y003511D01*
X019324Y003412D02*
X017737Y003412D01*
X017836Y003314D02*
X019324Y003314D01*
X019324Y003215D02*
X017935Y003215D01*
X018033Y003116D02*
X019324Y003116D01*
X019324Y003018D02*
X019051Y003018D01*
X019074Y002919D02*
X019324Y002919D01*
X019324Y002821D02*
X019074Y002821D01*
X019074Y002722D02*
X019324Y002722D01*
X019324Y002624D02*
X019074Y002624D01*
X019074Y002525D02*
X019324Y002525D01*
X019324Y002427D02*
X019074Y002427D01*
X019074Y002328D02*
X019324Y002328D01*
X019324Y002230D02*
X019074Y002230D01*
X019074Y002131D02*
X019324Y002131D01*
X019324Y002032D02*
X019036Y002032D01*
X019074Y001934D02*
X019324Y001934D01*
X019324Y001835D02*
X019074Y001835D01*
X019074Y001737D02*
X019324Y001737D01*
X019324Y001638D02*
X019074Y001638D01*
X019074Y001540D02*
X019324Y001540D01*
X019324Y001441D02*
X019074Y001441D01*
X019074Y001343D02*
X019324Y001343D01*
X019323Y001244D02*
X019074Y001244D01*
X019074Y001146D02*
X019306Y001146D01*
X019274Y001047D02*
X019007Y001047D01*
X019096Y000850D02*
X017370Y000850D01*
X017410Y000949D02*
X019207Y000949D01*
X018534Y001554D02*
X018034Y002054D01*
X018034Y002804D01*
X017034Y003804D01*
X017034Y005404D01*
X015993Y006446D01*
X015746Y006511D01*
X015784Y006654D01*
X015928Y006692D01*
X015993Y006446D01*
X015784Y006654D01*
X015450Y006861D02*
X015288Y006861D01*
X015190Y006960D02*
X015541Y006960D01*
X015409Y006763D02*
X015387Y006763D01*
X015091Y007058D02*
X017267Y007058D01*
X017176Y006960D02*
X016028Y006960D01*
X016119Y006861D02*
X017077Y006861D01*
X016994Y006763D02*
X016159Y006763D01*
X016172Y006664D02*
X016994Y006664D01*
X016994Y006565D02*
X016189Y006565D01*
X016283Y006467D02*
X016994Y006467D01*
X016994Y006368D02*
X016381Y006368D01*
X016480Y006270D02*
X017055Y006270D01*
X017154Y006171D02*
X016578Y006171D01*
X016677Y006073D02*
X017252Y006073D01*
X016972Y005777D02*
X019324Y005777D01*
X019324Y005679D02*
X017071Y005679D01*
X017170Y005580D02*
X019324Y005580D01*
X019324Y005481D02*
X018731Y005481D01*
X018870Y005383D02*
X019324Y005383D01*
X019324Y005284D02*
X018944Y005284D01*
X018986Y005186D02*
X019324Y005186D01*
X019324Y005876D02*
X016874Y005876D01*
X016775Y005974D02*
X019324Y005974D01*
X019324Y006073D02*
X018816Y006073D01*
X018915Y006171D02*
X019324Y006171D01*
X019324Y006270D02*
X019013Y006270D01*
X019074Y006368D02*
X019324Y006368D01*
X019324Y006467D02*
X019074Y006467D01*
X019074Y006565D02*
X019324Y006565D01*
X019324Y006664D02*
X019074Y006664D01*
X019074Y006763D02*
X019324Y006763D01*
X019324Y006861D02*
X018991Y006861D01*
X018892Y006960D02*
X019324Y006960D01*
X019324Y007058D02*
X018802Y007058D01*
X018900Y007157D02*
X019324Y007157D01*
X019324Y007255D02*
X018999Y007255D01*
X019074Y007354D02*
X019324Y007354D01*
X019324Y007452D02*
X019074Y007452D01*
X019074Y007551D02*
X019324Y007551D01*
X019324Y007649D02*
X019074Y007649D01*
X019074Y007748D02*
X019324Y007748D01*
X019324Y007847D02*
X019006Y007847D01*
X018907Y007945D02*
X019324Y007945D01*
X019324Y008044D02*
X018808Y008044D01*
X018857Y008142D02*
X019324Y008142D01*
X019324Y008241D02*
X018956Y008241D01*
X019054Y008339D02*
X019324Y008339D01*
X018285Y008068D02*
X018034Y007818D01*
X017798Y008054D01*
X018048Y008305D01*
X018285Y008068D01*
X018260Y008044D02*
X017808Y008044D01*
X017886Y008142D02*
X018211Y008142D01*
X018112Y008241D02*
X017984Y008241D01*
X017907Y007945D02*
X018161Y007945D01*
X018063Y007847D02*
X018006Y007847D01*
X017168Y007157D02*
X014652Y007157D01*
X014371Y006891D02*
X014948Y006891D01*
X015725Y006113D01*
X015972Y006048D01*
X015934Y005904D01*
X015791Y005866D01*
X015725Y006113D01*
X015934Y005904D01*
X015759Y005433D02*
X015834Y005304D01*
X015759Y005176D01*
X015489Y005304D01*
X015759Y005433D01*
X015834Y005304D02*
X015489Y005304D01*
X014057Y005304D01*
X013421Y005941D01*
X012524Y005580D02*
X012143Y005580D01*
X012241Y005481D02*
X012485Y005481D01*
X010137Y009304D02*
X010186Y009353D01*
X012696Y009698D02*
X012734Y009554D01*
X012878Y009516D01*
X012943Y009763D01*
X012696Y009698D01*
X012734Y009554D02*
X012943Y009763D01*
X013234Y010054D01*
X018034Y010054D01*
X018534Y009554D01*
X018055Y006270D02*
X018013Y006270D01*
X017915Y006171D02*
X018154Y006171D01*
X018252Y006073D02*
X017816Y006073D01*
X017268Y005481D02*
X017254Y005481D01*
X017254Y004595D02*
X017301Y004595D01*
X017283Y004496D02*
X017254Y004496D01*
X016534Y004054D02*
X016534Y003504D01*
X017034Y003004D01*
X017034Y001350D01*
X017162Y001129D01*
X017034Y001054D01*
X016906Y001129D01*
X017034Y001350D01*
X017034Y001054D01*
X016959Y001183D01*
X016739Y001054D01*
X016959Y000926D01*
X017034Y001054D01*
X016739Y001054D01*
X013034Y001054D01*
X017721Y001047D02*
X018061Y001047D01*
X017994Y001146D02*
X017889Y001146D01*
X017988Y001244D02*
X017994Y001244D01*
X012883Y010014D02*
X012755Y010014D01*
X012854Y010113D02*
X012982Y010113D01*
X012952Y010212D02*
X013080Y010212D01*
X012825Y012084D02*
X012954Y012213D01*
X014473Y014942D02*
X014564Y014942D01*
X015004Y015631D02*
X015100Y015631D01*
X015004Y015730D02*
X015199Y015730D01*
X015297Y015829D02*
X015004Y015829D01*
X014184Y017405D02*
X014084Y017405D01*
X014084Y017504D02*
X014184Y017504D01*
X014184Y017602D02*
X014084Y017602D01*
X014084Y017701D02*
X014184Y017701D01*
X014184Y017799D02*
X014084Y017799D01*
X013820Y017504D02*
X013448Y017504D01*
X013350Y017405D02*
X013919Y017405D01*
X013721Y017602D02*
X013547Y017602D01*
X013604Y017701D02*
X013664Y017701D01*
X013664Y017799D02*
X013604Y017799D01*
X013604Y017996D02*
X013664Y017996D01*
X013710Y018095D02*
X013558Y018095D01*
X013460Y018194D02*
X013809Y018194D01*
X013184Y018194D02*
X013084Y018194D01*
X013084Y018292D02*
X013184Y018292D01*
X013184Y018095D02*
X013084Y018095D01*
X013084Y017799D02*
X013184Y017799D01*
X013184Y017701D02*
X013084Y017701D01*
X013084Y017602D02*
X013184Y017602D01*
X013184Y017504D02*
X013084Y017504D01*
X013084Y017405D02*
X013184Y017405D01*
X011919Y017405D02*
X011854Y017405D01*
X014404Y019278D02*
X014864Y019278D01*
X014766Y019179D02*
X014502Y019179D01*
X014601Y019080D02*
X014667Y019080D01*
X014644Y018982D02*
X014624Y018982D01*
X014624Y018883D02*
X014644Y018883D01*
X014644Y018785D02*
X014624Y018785D01*
X014624Y018686D02*
X014644Y018686D01*
X014708Y018588D02*
X014561Y018588D01*
X014462Y018489D02*
X014806Y018489D01*
X016811Y016913D02*
X016914Y016913D01*
X017120Y016913D02*
X017217Y016913D01*
X017217Y017011D02*
X017120Y017011D01*
X017120Y017110D02*
X017217Y017110D01*
X017217Y017208D02*
X017901Y017208D01*
X017884Y017254D02*
X017950Y017254D01*
X017884Y017254D02*
X017169Y017254D01*
X017217Y017303D02*
X017217Y017601D01*
X017405Y017601D01*
X017443Y017591D01*
X017477Y017571D01*
X017505Y017543D01*
X017525Y017509D01*
X017535Y017471D01*
X017535Y017303D01*
X017217Y017303D01*
X017217Y017307D02*
X017120Y017307D01*
X017120Y017405D02*
X017217Y017405D01*
X017217Y017504D02*
X017120Y017504D01*
X017526Y017504D02*
X017592Y017504D01*
X017583Y017405D02*
X017535Y017405D01*
X017535Y017307D02*
X017583Y017307D01*
X017583Y017110D02*
X017535Y017110D01*
X017528Y017011D02*
X017590Y017011D01*
X017694Y016913D02*
X017424Y016913D01*
X017901Y016913D02*
X017998Y016913D01*
X017998Y017011D02*
X017901Y017011D01*
X017901Y017110D02*
X017998Y017110D01*
X018205Y016913D02*
X018307Y016913D01*
X018619Y017254D02*
X018619Y018100D01*
X018714Y018254D01*
X018752Y019770D02*
X000988Y019770D01*
X001172Y015927D02*
X000744Y015927D01*
X000744Y015829D02*
X001073Y015829D01*
X001014Y015730D02*
X000744Y015730D01*
X006334Y013704D02*
X006344Y013694D01*
X009323Y019376D02*
X009383Y019376D01*
X018925Y015927D02*
X019324Y015927D01*
X019324Y015829D02*
X019024Y015829D01*
X019074Y015730D02*
X019324Y015730D01*
X019324Y015631D02*
X019074Y015631D01*
X019074Y015533D02*
X019324Y015533D01*
X019324Y015434D02*
X019074Y015434D01*
X019074Y015336D02*
X019324Y015336D01*
X019324Y015237D02*
X018981Y015237D01*
X018882Y015139D02*
X019324Y015139D01*
X001746Y003905D02*
X001296Y003905D01*
X001394Y004003D02*
X001665Y004003D01*
X001284Y004204D02*
X001484Y004404D01*
X001284Y004204D02*
X001034Y003954D01*
X001034Y001304D01*
X000814Y001441D02*
X000784Y001441D01*
D28*
X006344Y013694D02*
X007314Y013694D01*
X007184Y015594D02*
X007184Y015954D01*
X006934Y016204D01*
X006834Y016204D01*
X005184Y016204D01*
X004384Y017004D01*
D29*
X004384Y017004D03*
X007484Y016804D03*
X005384Y010104D03*
D30*
X001534Y003704D03*
D31*
X001534Y004454D03*
M02*
