%
M48
M72
T01C0.0197
T02C0.0236
T03C0.0354
T04C0.0400
T05C0.0472
T06C0.1300
%
T01
X2001Y3406
X4651Y5256
X7151Y7156
X7151Y8056
X7151Y8556
X7151Y9056
X7501Y9456
X9851Y8206
X10601Y8206
X10701Y8706
X10801Y7506
X11301Y7506
X12851Y7506
X13851Y6306
X14951Y6106
X15801Y6856
X16801Y6856
X16201Y9306
X11301Y6156
X11951Y5656
X11401Y5406
X10651Y5206
X10351Y4806
X9351Y5506
X9851Y6806
X12201Y4906
X12751Y4356
X12401Y3056
X10351Y2756
X9951Y3256
X1901Y7106
X2801Y9056
T02
X16301Y3256
T03
X13651Y3806
X11101Y3806
X7151Y6156
X7151Y1356
T04
X13426Y2556
X14801Y2556
X14351Y8006
X13351Y8006
X12351Y8006
X12351Y9006
X13351Y9006
X14351Y9006
X15351Y9006
X15351Y8006
T05
X17301Y5956
X17301Y4578
X1501Y4556
X1501Y5934
T06
X1251Y1856
X1251Y8656
X17551Y8656
X17551Y1856
M30
