G75*
G70*
%OFA0B0*%
%FSLAX24Y24*%
%IPPOS*%
%LPD*%
%AMOC8*
5,1,8,0,0,1.08239X$1,22.5*
%
%ADD10R,0.0945X0.0945*%
%ADD11R,0.0472X0.0315*%
%ADD12R,0.0315X0.0472*%
%ADD13R,0.0433X0.0394*%
%ADD14R,0.0394X0.0433*%
%ADD15R,0.0800X0.0800*%
%ADD16C,0.0800*%
%ADD17C,0.0760*%
%ADD18OC8,0.0760*%
%ADD19R,0.0250X0.0500*%
%ADD20R,0.0500X0.0250*%
%ADD21OC8,0.0740*%
%ADD22C,0.0100*%
%ADD23C,0.0554*%
%ADD24C,0.0320*%
%ADD25C,0.0240*%
%ADD26C,0.0397*%
%ADD27OC8,0.0436*%
D10*
X003185Y001706D03*
X004917Y001706D03*
X004917Y006506D03*
X003185Y006506D03*
X013385Y005256D03*
X015117Y005256D03*
D11*
X010351Y002110D03*
X010351Y001402D03*
D12*
X010206Y009206D03*
X009497Y009206D03*
D13*
X001386Y007106D03*
X000717Y007106D03*
X000717Y003406D03*
X001386Y003406D03*
X010767Y004406D03*
X011436Y004406D03*
D14*
X008151Y004921D03*
X008151Y005591D03*
D15*
X001501Y004556D03*
X017301Y005956D03*
D16*
X017301Y004578D03*
X001501Y005934D03*
D17*
X014801Y002556D03*
D18*
X013426Y002556D03*
D19*
X011478Y008206D03*
X011124Y008206D03*
X011124Y009106D03*
X011478Y009106D03*
D20*
X013351Y007083D03*
X013351Y006729D03*
X014351Y006729D03*
X014351Y007083D03*
D21*
X014351Y008006D03*
X013351Y008006D03*
X012351Y008006D03*
X012351Y009006D03*
X013351Y009006D03*
X014351Y009006D03*
X015351Y009006D03*
X015351Y008006D03*
D22*
X002601Y000906D02*
X002451Y001056D01*
X002451Y002456D01*
X001901Y003006D01*
X000801Y003006D01*
X000717Y003091D01*
X000717Y003406D01*
X000330Y003417D02*
X000321Y003417D01*
X000321Y003515D02*
X000330Y003515D01*
X000321Y003614D02*
X000330Y003614D01*
X000330Y003673D02*
X000330Y003139D01*
X000430Y003039D01*
X000497Y003039D01*
X000497Y002999D01*
X000581Y002915D01*
X000710Y002786D01*
X001058Y002786D01*
X000774Y002682D01*
X000520Y002469D01*
X000354Y002182D01*
X000321Y001994D01*
X000321Y008517D01*
X000354Y008329D01*
X000520Y008042D01*
X000774Y007829D01*
X001058Y007726D01*
X000860Y007726D01*
X000731Y007597D01*
X000631Y007497D01*
X000631Y007473D01*
X000430Y007473D01*
X000330Y007373D01*
X000330Y006839D01*
X000430Y006739D01*
X001003Y006739D01*
X001051Y006787D01*
X001099Y006739D01*
X001673Y006739D01*
X001717Y006783D01*
X001828Y006737D01*
X001974Y006737D01*
X002110Y006794D01*
X002213Y006897D01*
X002270Y007033D01*
X002270Y007179D01*
X002213Y007315D01*
X002110Y007418D01*
X001979Y007472D01*
X002442Y007936D01*
X002571Y008065D01*
X002571Y009115D01*
X002792Y009336D01*
X006910Y009336D01*
X006839Y009265D01*
X006783Y009129D01*
X006783Y008983D01*
X006839Y008847D01*
X006880Y008806D01*
X006839Y008765D01*
X006783Y008629D01*
X006783Y008483D01*
X006839Y008347D01*
X006880Y008306D01*
X006839Y008265D01*
X006783Y008129D01*
X006783Y007983D01*
X006839Y007847D01*
X006942Y007744D01*
X007078Y007687D01*
X007224Y007687D01*
X007360Y007744D01*
X007463Y007847D01*
X007488Y007908D01*
X007531Y007865D01*
X007531Y007547D01*
X007531Y007376D01*
X007452Y007376D01*
X007360Y007468D01*
X007224Y007524D01*
X007078Y007524D01*
X006942Y007468D01*
X006839Y007365D01*
X006783Y007229D01*
X006783Y007083D01*
X006839Y006947D01*
X006942Y006844D01*
X007078Y006787D01*
X007224Y006787D01*
X007360Y006844D01*
X007452Y006936D01*
X009506Y006936D01*
X009483Y006879D01*
X009483Y006733D01*
X009539Y006597D01*
X009631Y006505D01*
X009631Y006347D01*
X009560Y006276D01*
X009260Y006276D01*
X009131Y006147D01*
X008910Y005926D01*
X008470Y005926D01*
X008418Y005977D01*
X007884Y005977D01*
X007784Y005877D01*
X007784Y005304D01*
X007832Y005256D01*
X007784Y005208D01*
X007784Y004634D01*
X007884Y004535D01*
X008227Y004535D01*
X009586Y003176D01*
X009639Y003047D01*
X009742Y002944D01*
X009838Y002904D01*
X009781Y002847D01*
X008060Y001126D01*
X005494Y001126D01*
X005510Y001141D01*
X005529Y001176D01*
X005540Y001214D01*
X005540Y001656D01*
X004967Y001656D01*
X004967Y001756D01*
X004867Y001756D01*
X004867Y001656D01*
X004295Y001656D01*
X004295Y001214D01*
X004305Y001176D01*
X004325Y001141D01*
X004340Y001126D01*
X003790Y001126D01*
X003827Y001163D01*
X003827Y002249D01*
X003728Y002348D01*
X003405Y002348D01*
X003405Y002781D01*
X003405Y002963D01*
X002071Y004297D01*
X002071Y005026D01*
X001972Y005126D01*
X001031Y005126D01*
X000931Y005026D01*
X000931Y004085D01*
X001031Y003986D01*
X001760Y003986D01*
X001972Y003774D01*
X001928Y003774D01*
X001792Y003718D01*
X001760Y003686D01*
X001673Y003773D01*
X001099Y003773D01*
X001051Y003725D01*
X001003Y003773D01*
X000430Y003773D01*
X000330Y003673D01*
X000321Y003712D02*
X000369Y003712D01*
X000321Y003811D02*
X001935Y003811D01*
X001837Y003909D02*
X000321Y003909D01*
X000321Y004008D02*
X001009Y004008D01*
X000931Y004106D02*
X000321Y004106D01*
X000321Y004205D02*
X000931Y004205D01*
X000931Y004303D02*
X000321Y004303D01*
X000321Y004402D02*
X000931Y004402D01*
X000931Y004501D02*
X000321Y004501D01*
X000321Y004599D02*
X000931Y004599D01*
X000931Y004698D02*
X000321Y004698D01*
X000321Y004796D02*
X000931Y004796D01*
X000931Y004895D02*
X000321Y004895D01*
X000321Y004993D02*
X000931Y004993D01*
X000997Y005092D02*
X000321Y005092D01*
X000321Y005190D02*
X007784Y005190D01*
X007784Y005092D02*
X002006Y005092D01*
X002071Y004993D02*
X007784Y004993D01*
X007784Y004895D02*
X002071Y004895D01*
X002071Y004796D02*
X007784Y004796D01*
X007784Y004698D02*
X002071Y004698D01*
X002071Y004599D02*
X007820Y004599D01*
X008261Y004501D02*
X002071Y004501D01*
X002071Y004402D02*
X008359Y004402D01*
X008458Y004303D02*
X002071Y004303D01*
X002163Y004205D02*
X008556Y004205D01*
X008655Y004106D02*
X002262Y004106D01*
X002360Y004008D02*
X008753Y004008D01*
X008852Y003909D02*
X002459Y003909D01*
X002557Y003811D02*
X008951Y003811D01*
X009049Y003712D02*
X002656Y003712D01*
X002754Y003614D02*
X009148Y003614D01*
X009246Y003515D02*
X002853Y003515D01*
X002952Y003417D02*
X009345Y003417D01*
X009443Y003318D02*
X003050Y003318D01*
X003149Y003219D02*
X009542Y003219D01*
X009608Y003121D02*
X003247Y003121D01*
X003346Y003022D02*
X009664Y003022D01*
X009790Y002924D02*
X003405Y002924D01*
X003405Y002825D02*
X009759Y002825D01*
X009661Y002727D02*
X003405Y002727D01*
X003405Y002628D02*
X009562Y002628D01*
X009464Y002530D02*
X003405Y002530D01*
X003405Y002431D02*
X009365Y002431D01*
X009267Y002333D02*
X003744Y002333D01*
X003827Y002234D02*
X004305Y002234D01*
X004305Y002236D02*
X004295Y002198D01*
X004295Y001756D01*
X004867Y001756D01*
X004867Y002328D01*
X004425Y002328D01*
X004387Y002318D01*
X004353Y002298D01*
X004325Y002270D01*
X004305Y002236D01*
X004295Y002136D02*
X003827Y002136D01*
X003827Y002037D02*
X004295Y002037D01*
X004295Y001938D02*
X003827Y001938D01*
X003827Y001840D02*
X004295Y001840D01*
X004295Y001643D02*
X003827Y001643D01*
X003827Y001741D02*
X004867Y001741D01*
X004917Y001706D02*
X005267Y001356D01*
X007151Y001356D01*
X008084Y001150D02*
X005515Y001150D01*
X005540Y001249D02*
X008183Y001249D01*
X008281Y001347D02*
X005540Y001347D01*
X005540Y001446D02*
X008380Y001446D01*
X008478Y001544D02*
X005540Y001544D01*
X005540Y001643D02*
X008577Y001643D01*
X008676Y001741D02*
X004967Y001741D01*
X004967Y001756D02*
X005540Y001756D01*
X005540Y002198D01*
X005529Y002236D01*
X005510Y002270D01*
X005482Y002298D01*
X005448Y002318D01*
X005409Y002328D01*
X004967Y002328D01*
X004967Y001756D01*
X004967Y001840D02*
X004867Y001840D01*
X004867Y001938D02*
X004967Y001938D01*
X004967Y002037D02*
X004867Y002037D01*
X004867Y002136D02*
X004967Y002136D01*
X004967Y002234D02*
X004867Y002234D01*
X005530Y002234D02*
X009168Y002234D01*
X009070Y002136D02*
X005540Y002136D01*
X005540Y002037D02*
X008971Y002037D01*
X008873Y001938D02*
X005540Y001938D01*
X005540Y001840D02*
X008774Y001840D01*
X009199Y001643D02*
X009990Y001643D01*
X009995Y001651D02*
X009975Y001617D01*
X009965Y001579D01*
X009965Y001430D01*
X010322Y001430D01*
X010322Y001373D01*
X009965Y001373D01*
X009965Y001224D01*
X009975Y001186D01*
X009995Y001152D01*
X010023Y001124D01*
X010057Y001104D01*
X010095Y001094D01*
X010322Y001094D01*
X010322Y001373D01*
X010380Y001373D01*
X010380Y001430D01*
X010737Y001430D01*
X010737Y001579D01*
X010727Y001617D01*
X010707Y001651D01*
X010679Y001679D01*
X010645Y001699D01*
X010607Y001709D01*
X010380Y001709D01*
X010380Y001431D01*
X010322Y001431D01*
X010322Y001709D01*
X010095Y001709D01*
X010057Y001699D01*
X010023Y001679D01*
X009995Y001651D01*
X009965Y001544D02*
X009101Y001544D01*
X009002Y001446D02*
X009965Y001446D01*
X009965Y001347D02*
X008904Y001347D01*
X008805Y001249D02*
X009965Y001249D01*
X009997Y001150D02*
X008706Y001150D01*
X008608Y001052D02*
X017047Y001052D01*
X017074Y001029D02*
X017074Y001029D01*
X017358Y000926D01*
X008482Y000926D01*
X010071Y002515D01*
X010142Y002444D01*
X010157Y002438D01*
X010045Y002438D01*
X009945Y002338D01*
X009945Y001882D01*
X010045Y001783D01*
X010658Y001783D01*
X010757Y001882D01*
X010757Y002199D01*
X011191Y002621D01*
X011192Y002621D01*
X011255Y002684D01*
X011320Y002746D01*
X011320Y002748D01*
X011321Y002749D01*
X011321Y002839D01*
X011322Y002929D01*
X011321Y002930D01*
X011321Y003413D01*
X011354Y003427D01*
X011404Y003476D01*
X013349Y003476D01*
X013398Y003427D01*
X013562Y003359D01*
X013740Y003359D01*
X013904Y003427D01*
X014030Y003553D01*
X014098Y003717D01*
X014098Y003895D01*
X014030Y004059D01*
X013904Y004185D01*
X013740Y004253D01*
X013675Y004253D01*
X013675Y004613D01*
X013928Y004613D01*
X014027Y004713D01*
X014027Y005799D01*
X013928Y005898D01*
X012842Y005898D01*
X012743Y005799D01*
X012743Y004713D01*
X012842Y004613D01*
X013095Y004613D01*
X013095Y004136D01*
X011820Y004136D01*
X011822Y004139D01*
X011822Y004673D01*
X011723Y004773D01*
X011671Y004773D01*
X011671Y004815D01*
X011671Y004825D01*
X011810Y004686D01*
X011900Y004686D01*
X011992Y004594D01*
X012128Y004537D01*
X012274Y004537D01*
X012410Y004594D01*
X012513Y004697D01*
X012570Y004833D01*
X012570Y004979D01*
X012513Y005115D01*
X012410Y005218D01*
X012274Y005274D01*
X012128Y005274D01*
X011992Y005218D01*
X011946Y005172D01*
X011770Y005349D01*
X011770Y005479D01*
X011713Y005615D01*
X011610Y005718D01*
X011474Y005774D01*
X011328Y005774D01*
X011192Y005718D01*
X011089Y005615D01*
X011079Y005590D01*
X010871Y005797D01*
X010871Y006025D01*
X010960Y005936D01*
X011000Y005936D01*
X011092Y005844D01*
X011228Y005787D01*
X011374Y005787D01*
X011510Y005844D01*
X011613Y005947D01*
X011670Y006083D01*
X011670Y006229D01*
X011613Y006365D01*
X011510Y006468D01*
X011374Y006524D01*
X011228Y006524D01*
X011092Y006468D01*
X011071Y006447D01*
X011066Y006452D01*
X011066Y006617D01*
X011068Y006618D01*
X011066Y006708D01*
X011066Y006797D01*
X011065Y006798D01*
X011065Y006800D01*
X011000Y006863D01*
X012931Y006863D01*
X012931Y006533D01*
X013031Y006434D01*
X013335Y006434D01*
X013383Y006386D01*
X013486Y006386D01*
X013483Y006379D01*
X013483Y006233D01*
X013539Y006097D01*
X013642Y005994D01*
X013778Y005937D01*
X013924Y005937D01*
X014060Y005994D01*
X014163Y006097D01*
X014220Y006233D01*
X014220Y006379D01*
X014197Y006434D01*
X014672Y006434D01*
X014747Y006509D01*
X014815Y006509D01*
X014942Y006636D01*
X015071Y006765D01*
X015071Y007551D01*
X015136Y007486D01*
X015301Y007486D01*
X015301Y007956D01*
X015401Y007956D01*
X015401Y007486D01*
X015567Y007486D01*
X015871Y007791D01*
X015871Y007956D01*
X015401Y007956D01*
X015401Y008056D01*
X015871Y008056D01*
X015871Y008221D01*
X015601Y008492D01*
X015891Y008782D01*
X015891Y009095D01*
X015981Y009005D01*
X015981Y008147D01*
X015981Y007965D01*
X016581Y007365D01*
X016581Y007157D01*
X016489Y007065D01*
X016433Y006929D01*
X016433Y006783D01*
X016489Y006647D01*
X016592Y006544D01*
X016728Y006487D01*
X016792Y006487D01*
X016731Y006426D01*
X016731Y005485D01*
X016831Y005386D01*
X017772Y005386D01*
X017871Y005485D01*
X017871Y006426D01*
X017772Y006526D01*
X016967Y006526D01*
X017010Y006544D01*
X017113Y006647D01*
X017170Y006783D01*
X017170Y006929D01*
X017113Y007065D01*
X017021Y007157D01*
X017021Y007547D01*
X016892Y007676D01*
X016421Y008147D01*
X016421Y009005D01*
X016513Y009097D01*
X016570Y009233D01*
X016570Y009379D01*
X016513Y009515D01*
X016442Y009586D01*
X017358Y009586D01*
X017074Y009482D01*
X016820Y009269D01*
X016654Y008982D01*
X016597Y008656D01*
X016654Y008329D01*
X016820Y008042D01*
X017074Y007829D01*
X017385Y007716D01*
X017385Y007716D01*
X017464Y007716D01*
X017551Y007716D01*
X017638Y007716D01*
X017717Y007716D01*
X018028Y007829D01*
X018282Y008042D01*
X018282Y008042D01*
X018448Y008329D01*
X018448Y008329D01*
X018481Y008517D01*
X018481Y001994D01*
X018448Y002182D01*
X018448Y002182D01*
X018282Y002469D01*
X018028Y002682D01*
X017717Y002796D01*
X017717Y002796D01*
X017551Y002796D01*
X017464Y002796D01*
X017385Y002796D01*
X017074Y002682D01*
X016820Y002469D01*
X016654Y002182D01*
X016597Y001856D01*
X016654Y001529D01*
X016820Y001242D01*
X017074Y001029D01*
X016930Y001150D02*
X010706Y001150D01*
X010707Y001152D02*
X010727Y001186D01*
X010737Y001224D01*
X010737Y001373D01*
X010380Y001373D01*
X010380Y001094D01*
X010607Y001094D01*
X010645Y001104D01*
X010679Y001124D01*
X010707Y001152D01*
X010737Y001249D02*
X016816Y001249D01*
X016820Y001242D02*
X016820Y001242D01*
X016759Y001347D02*
X010737Y001347D01*
X010737Y001446D02*
X016703Y001446D01*
X016654Y001529D02*
X016654Y001529D01*
X016652Y001544D02*
X010737Y001544D01*
X010712Y001643D02*
X016634Y001643D01*
X016617Y001741D02*
X009298Y001741D01*
X009396Y001840D02*
X009987Y001840D01*
X009945Y001938D02*
X009495Y001938D01*
X009593Y002037D02*
X009945Y002037D01*
X009945Y002136D02*
X009692Y002136D01*
X009790Y002234D02*
X009945Y002234D01*
X009945Y002333D02*
X009889Y002333D01*
X009987Y002431D02*
X010038Y002431D01*
X010001Y002756D02*
X010351Y002756D01*
X010001Y002756D02*
X008151Y000906D01*
X002601Y000906D01*
X003814Y001150D02*
X004320Y001150D01*
X004295Y001249D02*
X003827Y001249D01*
X003827Y001347D02*
X004295Y001347D01*
X004295Y001446D02*
X003827Y001446D01*
X003827Y001544D02*
X004295Y001544D01*
X003185Y001706D02*
X003185Y002872D01*
X001501Y004556D01*
X001388Y005364D02*
X001615Y005364D01*
X001824Y005451D01*
X001984Y005611D01*
X002027Y005714D01*
X002704Y005714D01*
X002833Y005843D01*
X002854Y005863D01*
X003728Y005863D01*
X003827Y005963D01*
X003827Y007049D01*
X003728Y007148D01*
X002642Y007148D01*
X002543Y007049D01*
X002543Y006175D01*
X002522Y006154D01*
X002027Y006154D01*
X001984Y006257D01*
X001824Y006417D01*
X001615Y006504D01*
X001388Y006504D01*
X001178Y006417D01*
X001018Y006257D01*
X000931Y006047D01*
X000931Y005820D01*
X001018Y005611D01*
X001178Y005451D01*
X001388Y005364D01*
X001331Y005387D02*
X000321Y005387D01*
X000321Y005289D02*
X007799Y005289D01*
X007784Y005387D02*
X001671Y005387D01*
X001859Y005486D02*
X007784Y005486D01*
X007784Y005585D02*
X001958Y005585D01*
X002014Y005683D02*
X007784Y005683D01*
X007784Y005782D02*
X002772Y005782D01*
X002613Y005934D02*
X001501Y005934D01*
X000984Y006176D02*
X000321Y006176D01*
X000321Y006274D02*
X001036Y006274D01*
X001134Y006373D02*
X000321Y006373D01*
X000321Y006471D02*
X001310Y006471D01*
X001071Y006767D02*
X001031Y006767D01*
X000717Y007106D02*
X000851Y007241D01*
X000851Y007406D01*
X000951Y007506D01*
X001701Y007506D01*
X002351Y008156D01*
X002351Y009206D01*
X002701Y009556D01*
X007351Y009556D01*
X007501Y009456D01*
X006904Y009329D02*
X002786Y009329D01*
X002687Y009231D02*
X006825Y009231D01*
X006784Y009132D02*
X002588Y009132D01*
X002571Y009034D02*
X006783Y009034D01*
X006802Y008935D02*
X002571Y008935D01*
X002571Y008836D02*
X006850Y008836D01*
X006828Y008738D02*
X002571Y008738D01*
X002571Y008639D02*
X006787Y008639D01*
X006783Y008541D02*
X002571Y008541D01*
X002571Y008442D02*
X006799Y008442D01*
X006842Y008344D02*
X002571Y008344D01*
X002571Y008245D02*
X006831Y008245D01*
X006790Y008147D02*
X002571Y008147D01*
X002554Y008048D02*
X006783Y008048D01*
X006796Y007950D02*
X002456Y007950D01*
X002357Y007851D02*
X006837Y007851D01*
X006934Y007752D02*
X002259Y007752D01*
X002160Y007654D02*
X007531Y007654D01*
X007531Y007752D02*
X007369Y007752D01*
X007465Y007851D02*
X007531Y007851D01*
X007751Y007956D02*
X007751Y007456D01*
X007851Y007356D01*
X010181Y007351D01*
X010846Y006706D01*
X010846Y006361D01*
X011051Y006156D01*
X011301Y006156D01*
X011651Y006274D02*
X013483Y006274D01*
X013483Y006373D02*
X011605Y006373D01*
X011502Y006471D02*
X012993Y006471D01*
X012931Y006570D02*
X011066Y006570D01*
X011067Y006669D02*
X012931Y006669D01*
X012931Y006767D02*
X011066Y006767D01*
X011000Y006863D02*
X011000Y006863D01*
X010724Y007083D02*
X010201Y007606D01*
X008401Y007606D01*
X007701Y008306D01*
X007701Y008556D01*
X007601Y008656D01*
X007251Y008656D01*
X007151Y008556D01*
X007732Y008836D02*
X009233Y008836D01*
X009269Y008800D01*
X009725Y008800D01*
X009824Y008899D01*
X009824Y009513D01*
X009751Y009586D01*
X010005Y009586D01*
X009990Y009582D01*
X009956Y009562D01*
X009928Y009534D01*
X009908Y009500D01*
X009898Y009462D01*
X009898Y009235D01*
X010176Y009235D01*
X010176Y009177D01*
X009898Y009177D01*
X009898Y008950D01*
X009908Y008912D01*
X009928Y008878D01*
X009956Y008850D01*
X009990Y008830D01*
X010028Y008820D01*
X010177Y008820D01*
X010177Y009177D01*
X010234Y009177D01*
X010234Y008820D01*
X010383Y008820D01*
X010421Y008830D01*
X010455Y008850D01*
X010483Y008878D01*
X010503Y008912D01*
X010513Y008950D01*
X010513Y009177D01*
X010234Y009177D01*
X010234Y009235D01*
X010513Y009235D01*
X010513Y009462D01*
X010503Y009500D01*
X010483Y009534D01*
X010455Y009562D01*
X010421Y009582D01*
X010406Y009586D01*
X011870Y009586D01*
X011742Y009458D01*
X011674Y009526D01*
X011283Y009526D01*
X010929Y009526D01*
X010829Y009426D01*
X010829Y008785D01*
X010904Y008711D01*
X010904Y008601D01*
X010829Y008526D01*
X010829Y008499D01*
X010810Y008518D01*
X010674Y008574D01*
X010528Y008574D01*
X010392Y008518D01*
X010300Y008426D01*
X010152Y008426D01*
X010060Y008518D01*
X009924Y008574D01*
X009778Y008574D01*
X009642Y008518D01*
X009539Y008415D01*
X009483Y008279D01*
X009483Y008133D01*
X009539Y007997D01*
X009642Y007894D01*
X009778Y007837D01*
X009924Y007837D01*
X010060Y007894D01*
X010152Y007986D01*
X010300Y007986D01*
X010392Y007894D01*
X010528Y007837D01*
X010581Y007837D01*
X010581Y007807D01*
X010489Y007715D01*
X010464Y007654D01*
X010292Y007826D01*
X010110Y007826D01*
X008492Y007826D01*
X007921Y008397D01*
X007921Y008647D01*
X007821Y008747D01*
X007732Y008836D01*
X007830Y008738D02*
X010877Y008738D01*
X010904Y008639D02*
X007921Y008639D01*
X007921Y008541D02*
X009697Y008541D01*
X009567Y008442D02*
X007921Y008442D01*
X007974Y008344D02*
X009510Y008344D01*
X009483Y008245D02*
X008073Y008245D01*
X008171Y008147D02*
X009483Y008147D01*
X009518Y008048D02*
X008270Y008048D01*
X008369Y007950D02*
X009586Y007950D01*
X009745Y007851D02*
X008467Y007851D01*
X007751Y007956D02*
X007551Y008156D01*
X007251Y008156D01*
X007151Y008056D01*
X007531Y007555D02*
X002062Y007555D01*
X002017Y007457D02*
X006931Y007457D01*
X006836Y007358D02*
X002170Y007358D01*
X002236Y007260D02*
X006795Y007260D01*
X006783Y007161D02*
X002270Y007161D01*
X002270Y007063D02*
X002557Y007063D01*
X002543Y006964D02*
X002241Y006964D01*
X002182Y006866D02*
X002543Y006866D01*
X002543Y006767D02*
X002046Y006767D01*
X001757Y006767D02*
X001701Y006767D01*
X001693Y006471D02*
X002543Y006471D01*
X002543Y006373D02*
X001868Y006373D01*
X001967Y006274D02*
X002543Y006274D01*
X002543Y006176D02*
X002018Y006176D01*
X002613Y005934D02*
X003185Y006506D01*
X002543Y006570D02*
X000321Y006570D01*
X000321Y006669D02*
X002543Y006669D01*
X001901Y007106D02*
X001386Y007106D01*
X000690Y007555D02*
X000321Y007555D01*
X000321Y007457D02*
X000414Y007457D01*
X000330Y007358D02*
X000321Y007358D01*
X000321Y007260D02*
X000330Y007260D01*
X000321Y007161D02*
X000330Y007161D01*
X000321Y007063D02*
X000330Y007063D01*
X000321Y006964D02*
X000330Y006964D01*
X000321Y006866D02*
X000330Y006866D01*
X000321Y006767D02*
X000402Y006767D01*
X000321Y006077D02*
X000944Y006077D01*
X000931Y005979D02*
X000321Y005979D01*
X000321Y005880D02*
X000931Y005880D01*
X000947Y005782D02*
X000321Y005782D01*
X000321Y005683D02*
X000988Y005683D01*
X001044Y005585D02*
X000321Y005585D01*
X000321Y005486D02*
X001143Y005486D01*
X003745Y005880D02*
X007787Y005880D01*
X008151Y005591D02*
X008267Y005706D01*
X009001Y005706D01*
X009351Y006056D01*
X009651Y006056D01*
X009851Y006256D01*
X009851Y006806D01*
X009509Y006669D02*
X005540Y006669D01*
X005540Y006767D02*
X009483Y006767D01*
X009483Y006866D02*
X007382Y006866D01*
X007151Y007156D02*
X010101Y007156D01*
X010651Y006606D01*
X010651Y005706D01*
X011001Y005356D01*
X011001Y005206D01*
X011201Y005006D01*
X011351Y005006D01*
X011451Y004906D01*
X011451Y004421D01*
X011436Y004406D01*
X011822Y004402D02*
X013095Y004402D01*
X013095Y004303D02*
X011822Y004303D01*
X011822Y004205D02*
X013095Y004205D01*
X012751Y004356D02*
X012651Y004456D01*
X012651Y005056D01*
X012451Y005256D01*
X012101Y005256D01*
X011951Y005406D01*
X011951Y005656D01*
X011726Y005585D02*
X012743Y005585D01*
X012743Y005683D02*
X011645Y005683D01*
X011767Y005486D02*
X012743Y005486D01*
X012743Y005387D02*
X011770Y005387D01*
X011829Y005289D02*
X012743Y005289D01*
X012743Y005190D02*
X012438Y005190D01*
X012523Y005092D02*
X012743Y005092D01*
X012743Y004993D02*
X012564Y004993D01*
X012570Y004895D02*
X012743Y004895D01*
X012743Y004796D02*
X012554Y004796D01*
X012514Y004698D02*
X012758Y004698D01*
X013095Y004599D02*
X012415Y004599D01*
X012201Y004906D02*
X011901Y004906D01*
X011401Y005406D01*
X011157Y005683D02*
X010985Y005683D01*
X010887Y005782D02*
X012743Y005782D01*
X012824Y005880D02*
X011546Y005880D01*
X011626Y005979D02*
X013678Y005979D01*
X013559Y006077D02*
X011667Y006077D01*
X011670Y006176D02*
X013506Y006176D01*
X013851Y006306D02*
X013851Y006456D01*
X013701Y006606D01*
X013474Y006606D01*
X013351Y006729D01*
X013351Y007083D02*
X010724Y007083D01*
X010801Y007506D02*
X010801Y007883D01*
X011124Y008206D01*
X011124Y009106D01*
X010829Y009132D02*
X010513Y009132D01*
X010513Y009034D02*
X010829Y009034D01*
X010829Y008935D02*
X010509Y008935D01*
X010601Y009006D02*
X010601Y008806D01*
X010701Y008706D01*
X010755Y008541D02*
X010844Y008541D01*
X010829Y008836D02*
X010432Y008836D01*
X010234Y008836D02*
X010177Y008836D01*
X010177Y008935D02*
X010234Y008935D01*
X010234Y009034D02*
X010177Y009034D01*
X010177Y009132D02*
X010234Y009132D01*
X010206Y009206D02*
X010401Y009206D01*
X010601Y009006D01*
X010829Y009231D02*
X010234Y009231D01*
X010176Y009231D02*
X009824Y009231D01*
X009824Y009329D02*
X009898Y009329D01*
X009898Y009428D02*
X009824Y009428D01*
X009811Y009526D02*
X009923Y009526D01*
X009497Y009206D02*
X009347Y009056D01*
X007151Y009056D01*
X004901Y007956D02*
X004901Y006522D01*
X004917Y006506D01*
X005134Y006289D01*
X004651Y005806D01*
X004651Y005256D01*
X004867Y005883D02*
X004425Y005883D01*
X004387Y005894D01*
X004353Y005913D01*
X004325Y005941D01*
X004305Y005976D01*
X004295Y006014D01*
X004295Y006456D01*
X004867Y006456D01*
X004867Y006556D01*
X004295Y006556D01*
X004295Y006998D01*
X004305Y007036D01*
X004325Y007070D01*
X004353Y007098D01*
X004387Y007118D01*
X004425Y007128D01*
X004867Y007128D01*
X004867Y006556D01*
X004967Y006556D01*
X004967Y007128D01*
X005409Y007128D01*
X005448Y007118D01*
X005482Y007098D01*
X005510Y007070D01*
X005529Y007036D01*
X005540Y006998D01*
X005540Y006556D01*
X004967Y006556D01*
X004967Y006456D01*
X004967Y005883D01*
X005409Y005883D01*
X005448Y005894D01*
X005482Y005913D01*
X005510Y005941D01*
X005529Y005976D01*
X005540Y006014D01*
X005540Y006456D01*
X004967Y006456D01*
X004867Y006456D01*
X004867Y005883D01*
X004867Y005979D02*
X004967Y005979D01*
X004967Y006077D02*
X004867Y006077D01*
X004867Y006176D02*
X004967Y006176D01*
X004967Y006274D02*
X004867Y006274D01*
X004867Y006373D02*
X004967Y006373D01*
X004967Y006471D02*
X009631Y006471D01*
X009631Y006373D02*
X005540Y006373D01*
X005540Y006274D02*
X009259Y006274D01*
X009160Y006176D02*
X005540Y006176D01*
X005540Y006077D02*
X009061Y006077D01*
X008963Y005979D02*
X005530Y005979D01*
X005267Y006156D02*
X005134Y006289D01*
X005267Y006156D02*
X007151Y006156D01*
X006920Y006866D02*
X005540Y006866D01*
X005540Y006964D02*
X006832Y006964D01*
X006791Y007063D02*
X005514Y007063D01*
X004967Y007063D02*
X004867Y007063D01*
X004867Y006964D02*
X004967Y006964D01*
X004967Y006866D02*
X004867Y006866D01*
X004867Y006767D02*
X004967Y006767D01*
X004967Y006669D02*
X004867Y006669D01*
X004867Y006570D02*
X004967Y006570D01*
X004867Y006471D02*
X003827Y006471D01*
X003827Y006373D02*
X004295Y006373D01*
X004295Y006274D02*
X003827Y006274D01*
X003827Y006176D02*
X004295Y006176D01*
X004295Y006077D02*
X003827Y006077D01*
X003827Y005979D02*
X004304Y005979D01*
X004295Y006570D02*
X003827Y006570D01*
X003827Y006669D02*
X004295Y006669D01*
X004295Y006767D02*
X003827Y006767D01*
X003827Y006866D02*
X004295Y006866D01*
X004295Y006964D02*
X003827Y006964D01*
X003814Y007063D02*
X004320Y007063D01*
X005540Y006570D02*
X009566Y006570D01*
X010871Y005979D02*
X010917Y005979D01*
X010871Y005880D02*
X011056Y005880D01*
X011066Y006471D02*
X011100Y006471D01*
X009651Y005506D02*
X009351Y005506D01*
X009651Y005506D02*
X010351Y004806D01*
X010651Y004987D02*
X010767Y004871D01*
X010767Y004406D01*
X011101Y003806D02*
X011101Y002841D01*
X010351Y002110D01*
X010757Y002136D02*
X013097Y002136D01*
X012999Y002234D02*
X010794Y002234D01*
X010895Y002333D02*
X012900Y002333D01*
X012896Y002336D02*
X013207Y002026D01*
X013376Y002026D01*
X013376Y002506D01*
X012896Y002506D01*
X012896Y002336D01*
X012896Y002431D02*
X010996Y002431D01*
X011097Y002530D02*
X013376Y002530D01*
X013376Y002506D02*
X013376Y002606D01*
X012896Y002606D01*
X012896Y002775D01*
X013207Y003086D01*
X013376Y003086D01*
X013376Y002606D01*
X013476Y002606D01*
X013476Y003086D01*
X013646Y003086D01*
X013956Y002775D01*
X013956Y002606D01*
X013476Y002606D01*
X013476Y002506D01*
X013476Y002026D01*
X013646Y002026D01*
X013956Y002336D01*
X013956Y002506D01*
X013476Y002506D01*
X013376Y002506D01*
X013426Y002556D02*
X012901Y002556D01*
X012401Y003056D01*
X012946Y002825D02*
X011321Y002825D01*
X011322Y002924D02*
X013045Y002924D01*
X013143Y003022D02*
X011321Y003022D01*
X011321Y003121D02*
X018481Y003121D01*
X018481Y003219D02*
X011321Y003219D01*
X011321Y003318D02*
X018481Y003318D01*
X018481Y003417D02*
X013880Y003417D01*
X013993Y003515D02*
X018481Y003515D01*
X018481Y003614D02*
X014056Y003614D01*
X014096Y003712D02*
X018481Y003712D01*
X018481Y003811D02*
X014098Y003811D01*
X014092Y003909D02*
X018481Y003909D01*
X018481Y004008D02*
X014052Y004008D01*
X013983Y004106D02*
X017015Y004106D01*
X017013Y004108D02*
X017090Y004068D01*
X017172Y004041D01*
X017251Y004029D01*
X017251Y004528D01*
X016752Y004528D01*
X016765Y004449D01*
X016791Y004367D01*
X016831Y004290D01*
X016882Y004220D01*
X016943Y004158D01*
X017013Y004108D01*
X016896Y004205D02*
X013856Y004205D01*
X013675Y004303D02*
X016824Y004303D01*
X016780Y004402D02*
X013675Y004402D01*
X013675Y004501D02*
X016757Y004501D01*
X016752Y004628D02*
X017251Y004628D01*
X017251Y004528D01*
X017351Y004528D01*
X017351Y004029D01*
X017430Y004041D01*
X017512Y004068D01*
X017589Y004108D01*
X017659Y004158D01*
X017721Y004220D01*
X017772Y004290D01*
X017811Y004367D01*
X017838Y004449D01*
X017850Y004528D01*
X017351Y004528D01*
X017351Y004628D01*
X017251Y004628D01*
X017251Y005127D01*
X017172Y005114D01*
X017090Y005088D01*
X017013Y005048D01*
X016943Y004997D01*
X016882Y004936D01*
X016831Y004866D01*
X016791Y004789D01*
X016765Y004707D01*
X016752Y004628D01*
X016763Y004698D02*
X015713Y004698D01*
X015710Y004691D02*
X015729Y004726D01*
X015740Y004764D01*
X015740Y005206D01*
X015167Y005206D01*
X015167Y004633D01*
X015609Y004633D01*
X015648Y004644D01*
X015682Y004663D01*
X015710Y004691D01*
X015740Y004796D02*
X016795Y004796D01*
X016852Y004895D02*
X015740Y004895D01*
X015740Y004993D02*
X016939Y004993D01*
X017103Y005092D02*
X015740Y005092D01*
X015740Y005190D02*
X018481Y005190D01*
X018481Y005092D02*
X017499Y005092D01*
X017512Y005088D02*
X017430Y005114D01*
X017351Y005127D01*
X017351Y004628D01*
X017850Y004628D01*
X017838Y004707D01*
X017811Y004789D01*
X017772Y004866D01*
X017721Y004936D01*
X017659Y004997D01*
X017589Y005048D01*
X017512Y005088D01*
X017351Y005092D02*
X017251Y005092D01*
X017251Y004993D02*
X017351Y004993D01*
X017351Y004895D02*
X017251Y004895D01*
X017251Y004796D02*
X017351Y004796D01*
X017351Y004698D02*
X017251Y004698D01*
X017251Y004599D02*
X013675Y004599D01*
X014012Y004698D02*
X014521Y004698D01*
X014525Y004691D02*
X014553Y004663D01*
X014587Y004644D01*
X014625Y004633D01*
X015067Y004633D01*
X015067Y005206D01*
X014495Y005206D01*
X014495Y004764D01*
X014505Y004726D01*
X014525Y004691D01*
X014495Y004796D02*
X014027Y004796D01*
X014027Y004895D02*
X014495Y004895D01*
X014495Y004993D02*
X014027Y004993D01*
X014027Y005092D02*
X014495Y005092D01*
X014495Y005190D02*
X014027Y005190D01*
X014027Y005289D02*
X015067Y005289D01*
X015067Y005306D02*
X015067Y005206D01*
X015167Y005206D01*
X015167Y005306D01*
X015740Y005306D01*
X015740Y005748D01*
X015729Y005786D01*
X015710Y005820D01*
X015682Y005848D01*
X015648Y005868D01*
X015609Y005878D01*
X015245Y005878D01*
X015263Y005897D01*
X015320Y006033D01*
X015320Y006163D01*
X015668Y006512D01*
X015728Y006487D01*
X015874Y006487D01*
X016010Y006544D01*
X016113Y006647D01*
X016170Y006783D01*
X016170Y006929D01*
X016113Y007065D01*
X016010Y007168D01*
X015874Y007224D01*
X015728Y007224D01*
X015592Y007168D01*
X015489Y007065D01*
X015433Y006929D01*
X015433Y006899D01*
X015008Y006474D01*
X014878Y006474D01*
X014742Y006418D01*
X014639Y006315D01*
X014583Y006179D01*
X014583Y006033D01*
X014639Y005897D01*
X014658Y005878D01*
X014625Y005878D01*
X014587Y005868D01*
X014553Y005848D01*
X014525Y005820D01*
X014505Y005786D01*
X014495Y005748D01*
X014495Y005306D01*
X015067Y005306D01*
X015167Y005289D02*
X018481Y005289D01*
X018481Y005387D02*
X017773Y005387D01*
X017871Y005486D02*
X018481Y005486D01*
X018481Y005585D02*
X017871Y005585D01*
X017871Y005683D02*
X018481Y005683D01*
X018481Y005782D02*
X017871Y005782D01*
X017871Y005880D02*
X018481Y005880D01*
X018481Y005979D02*
X017871Y005979D01*
X017871Y006077D02*
X018481Y006077D01*
X018481Y006176D02*
X017871Y006176D01*
X017871Y006274D02*
X018481Y006274D01*
X018481Y006373D02*
X017871Y006373D01*
X017826Y006471D02*
X018481Y006471D01*
X018481Y006570D02*
X017036Y006570D01*
X017122Y006669D02*
X018481Y006669D01*
X018481Y006767D02*
X017163Y006767D01*
X017170Y006866D02*
X018481Y006866D01*
X018481Y006964D02*
X017155Y006964D01*
X017114Y007063D02*
X018481Y007063D01*
X018481Y007161D02*
X017021Y007161D01*
X017021Y007260D02*
X018481Y007260D01*
X018481Y007358D02*
X017021Y007358D01*
X017021Y007457D02*
X018481Y007457D01*
X018481Y007555D02*
X017013Y007555D01*
X016914Y007654D02*
X018481Y007654D01*
X018481Y007752D02*
X017817Y007752D01*
X018054Y007851D02*
X018481Y007851D01*
X018481Y007950D02*
X018172Y007950D01*
X018282Y008042D02*
X018282Y008042D01*
X018286Y008048D02*
X018481Y008048D01*
X018481Y008147D02*
X018343Y008147D01*
X018399Y008245D02*
X018481Y008245D01*
X018481Y008344D02*
X018451Y008344D01*
X018468Y008442D02*
X018481Y008442D01*
X017285Y007752D02*
X016816Y007752D01*
X016717Y007851D02*
X017048Y007851D01*
X017074Y007829D02*
X017074Y007829D01*
X016931Y007950D02*
X016619Y007950D01*
X016520Y008048D02*
X016817Y008048D01*
X016820Y008042D02*
X016820Y008042D01*
X016760Y008147D02*
X016421Y008147D01*
X016421Y008245D02*
X016703Y008245D01*
X016654Y008329D02*
X016654Y008329D01*
X016652Y008344D02*
X016421Y008344D01*
X016421Y008442D02*
X016634Y008442D01*
X016617Y008541D02*
X016421Y008541D01*
X016421Y008639D02*
X016600Y008639D01*
X016597Y008656D02*
X016597Y008656D01*
X016611Y008738D02*
X016421Y008738D01*
X016421Y008836D02*
X016629Y008836D01*
X016646Y008935D02*
X016421Y008935D01*
X016450Y009034D02*
X016684Y009034D01*
X016654Y008982D02*
X016654Y008982D01*
X016741Y009132D02*
X016528Y009132D01*
X016569Y009231D02*
X016798Y009231D01*
X016820Y009269D02*
X016820Y009269D01*
X016820Y009269D01*
X016891Y009329D02*
X016570Y009329D01*
X016549Y009428D02*
X017009Y009428D01*
X017074Y009482D02*
X017074Y009482D01*
X017194Y009526D02*
X016502Y009526D01*
X016201Y009306D02*
X016201Y008056D01*
X016801Y007456D01*
X016801Y006856D01*
X016433Y006866D02*
X016170Y006866D01*
X016163Y006767D02*
X016439Y006767D01*
X016480Y006669D02*
X016122Y006669D01*
X016036Y006570D02*
X016566Y006570D01*
X016776Y006471D02*
X015628Y006471D01*
X015529Y006373D02*
X016731Y006373D01*
X016731Y006274D02*
X015431Y006274D01*
X015332Y006176D02*
X016731Y006176D01*
X016731Y006077D02*
X015320Y006077D01*
X015297Y005979D02*
X016731Y005979D01*
X016731Y005880D02*
X015246Y005880D01*
X014951Y006106D02*
X015701Y006856D01*
X015801Y006856D01*
X016155Y006964D02*
X016447Y006964D01*
X016488Y007063D02*
X016114Y007063D01*
X016017Y007161D02*
X016581Y007161D01*
X016581Y007260D02*
X015071Y007260D01*
X015071Y007358D02*
X016581Y007358D01*
X016489Y007457D02*
X015071Y007457D01*
X015301Y007555D02*
X015401Y007555D01*
X015401Y007654D02*
X015301Y007654D01*
X015301Y007752D02*
X015401Y007752D01*
X015401Y007851D02*
X015301Y007851D01*
X015301Y007950D02*
X015401Y007950D01*
X015401Y008048D02*
X015981Y008048D01*
X015981Y008147D02*
X015871Y008147D01*
X015847Y008245D02*
X015981Y008245D01*
X015981Y008344D02*
X015749Y008344D01*
X015650Y008442D02*
X015981Y008442D01*
X015981Y008541D02*
X015650Y008541D01*
X015748Y008639D02*
X015981Y008639D01*
X015981Y008738D02*
X015847Y008738D01*
X015891Y008836D02*
X015981Y008836D01*
X015981Y008935D02*
X015891Y008935D01*
X015891Y009034D02*
X015953Y009034D01*
X014851Y008506D02*
X014351Y009006D01*
X013851Y008506D01*
X013051Y008506D01*
X012851Y008306D01*
X012851Y007506D01*
X013351Y007083D02*
X014351Y007083D01*
X014724Y006729D02*
X014851Y006856D01*
X014851Y008506D01*
X015871Y007950D02*
X015996Y007950D01*
X016095Y007851D02*
X015871Y007851D01*
X015833Y007752D02*
X016193Y007752D01*
X016292Y007654D02*
X015735Y007654D01*
X015636Y007555D02*
X016391Y007555D01*
X015586Y007161D02*
X015071Y007161D01*
X015071Y007063D02*
X015488Y007063D01*
X015447Y006964D02*
X015071Y006964D01*
X015071Y006866D02*
X015400Y006866D01*
X015301Y006767D02*
X015071Y006767D01*
X014975Y006669D02*
X015203Y006669D01*
X015104Y006570D02*
X014876Y006570D01*
X014871Y006471D02*
X014709Y006471D01*
X014697Y006373D02*
X014220Y006373D01*
X014220Y006274D02*
X014622Y006274D01*
X014583Y006176D02*
X014196Y006176D01*
X014144Y006077D02*
X014583Y006077D01*
X014605Y005979D02*
X014024Y005979D01*
X013946Y005880D02*
X014656Y005880D01*
X014504Y005782D02*
X014027Y005782D01*
X014027Y005683D02*
X014495Y005683D01*
X014495Y005585D02*
X014027Y005585D01*
X014027Y005486D02*
X014495Y005486D01*
X014495Y005387D02*
X014027Y005387D01*
X015067Y005190D02*
X015167Y005190D01*
X015167Y005092D02*
X015067Y005092D01*
X015067Y004993D02*
X015167Y004993D01*
X015167Y004895D02*
X015067Y004895D01*
X015067Y004796D02*
X015167Y004796D01*
X015167Y004698D02*
X015067Y004698D01*
X015740Y005387D02*
X016829Y005387D01*
X016731Y005486D02*
X015740Y005486D01*
X015740Y005585D02*
X016731Y005585D01*
X016731Y005683D02*
X015740Y005683D01*
X015731Y005782D02*
X016731Y005782D01*
X017664Y004993D02*
X018481Y004993D01*
X018481Y004895D02*
X017751Y004895D01*
X017807Y004796D02*
X018481Y004796D01*
X018481Y004698D02*
X017839Y004698D01*
X017846Y004501D02*
X018481Y004501D01*
X018481Y004599D02*
X017351Y004599D01*
X017351Y004501D02*
X017251Y004501D01*
X017251Y004402D02*
X017351Y004402D01*
X017351Y004303D02*
X017251Y004303D01*
X017251Y004205D02*
X017351Y004205D01*
X017351Y004106D02*
X017251Y004106D01*
X017587Y004106D02*
X018481Y004106D01*
X018481Y004205D02*
X017706Y004205D01*
X017779Y004303D02*
X018481Y004303D01*
X018481Y004402D02*
X017822Y004402D01*
X018481Y003022D02*
X015112Y003022D01*
X015113Y003022D02*
X014911Y003106D01*
X014692Y003106D01*
X014490Y003022D01*
X014335Y002867D01*
X014251Y002665D01*
X014251Y002446D01*
X014335Y002244D01*
X014490Y002090D01*
X014692Y002006D01*
X014911Y002006D01*
X015113Y002090D01*
X015267Y002244D01*
X015351Y002446D01*
X015351Y002665D01*
X015267Y002867D01*
X015113Y003022D01*
X015211Y002924D02*
X018481Y002924D01*
X018481Y002825D02*
X015285Y002825D01*
X015326Y002727D02*
X017196Y002727D01*
X017074Y002682D02*
X017074Y002682D01*
X017009Y002628D02*
X015351Y002628D01*
X015351Y002530D02*
X016892Y002530D01*
X016820Y002469D02*
X016820Y002469D01*
X016820Y002469D01*
X016798Y002431D02*
X015345Y002431D01*
X015304Y002333D02*
X016741Y002333D01*
X016684Y002234D02*
X015257Y002234D01*
X015159Y002136D02*
X016646Y002136D01*
X016654Y002182D02*
X016654Y002182D01*
X016629Y002037D02*
X014986Y002037D01*
X014617Y002037D02*
X013657Y002037D01*
X013755Y002136D02*
X014444Y002136D01*
X014345Y002234D02*
X013854Y002234D01*
X013952Y002333D02*
X014298Y002333D01*
X014258Y002431D02*
X013956Y002431D01*
X013956Y002628D02*
X014251Y002628D01*
X014251Y002530D02*
X013476Y002530D01*
X013426Y002556D02*
X012292Y001421D01*
X010351Y001402D01*
X010317Y001421D01*
X010322Y001446D02*
X010380Y001446D01*
X010380Y001544D02*
X010322Y001544D01*
X010322Y001643D02*
X010380Y001643D01*
X010715Y001840D02*
X016599Y001840D01*
X016597Y001856D02*
X016597Y001856D01*
X016611Y001938D02*
X010757Y001938D01*
X010757Y002037D02*
X013196Y002037D01*
X013376Y002037D02*
X013476Y002037D01*
X013476Y002136D02*
X013376Y002136D01*
X013376Y002234D02*
X013476Y002234D01*
X013476Y002333D02*
X013376Y002333D01*
X013376Y002431D02*
X013476Y002431D01*
X013476Y002628D02*
X013376Y002628D01*
X013376Y002727D02*
X013476Y002727D01*
X013476Y002825D02*
X013376Y002825D01*
X013376Y002924D02*
X013476Y002924D01*
X013476Y003022D02*
X013376Y003022D01*
X013709Y003022D02*
X014490Y003022D01*
X014391Y002924D02*
X013808Y002924D01*
X013906Y002825D02*
X014317Y002825D01*
X014277Y002727D02*
X013956Y002727D01*
X012896Y002727D02*
X011300Y002727D01*
X011200Y002628D02*
X012896Y002628D01*
X013423Y003417D02*
X011330Y003417D01*
X009951Y003256D02*
X009817Y003256D01*
X008151Y004921D01*
X010651Y004987D02*
X010651Y005206D01*
X011671Y004796D02*
X011700Y004796D01*
X011798Y004698D02*
X011798Y004698D01*
X011822Y004599D02*
X011987Y004599D01*
X011822Y004501D02*
X013095Y004501D01*
X011965Y005190D02*
X011928Y005190D01*
X014351Y006729D02*
X014724Y006729D01*
X012351Y008006D02*
X012151Y008206D01*
X011478Y008206D01*
X011501Y008183D01*
X011501Y007756D01*
X011401Y007656D01*
X011301Y007506D01*
X010527Y007752D02*
X010366Y007752D01*
X010495Y007851D02*
X009957Y007851D01*
X010116Y007950D02*
X010336Y007950D01*
X010601Y008206D02*
X009851Y008206D01*
X010136Y008442D02*
X010317Y008442D01*
X010447Y008541D02*
X010005Y008541D01*
X009979Y008836D02*
X009761Y008836D01*
X009824Y008935D02*
X009902Y008935D01*
X009898Y009034D02*
X009824Y009034D01*
X009824Y009132D02*
X009898Y009132D01*
X010513Y009329D02*
X010829Y009329D01*
X010830Y009428D02*
X010513Y009428D01*
X010488Y009526D02*
X011810Y009526D01*
X012101Y009506D02*
X012851Y009506D01*
X013351Y009006D01*
X012101Y009506D02*
X011701Y009106D01*
X011478Y009106D01*
X011478Y008206D02*
X011451Y008179D01*
X007531Y007457D02*
X007371Y007457D01*
X004901Y007956D02*
X003801Y009056D01*
X002801Y009056D01*
X000774Y007829D02*
X000774Y007829D01*
X000748Y007851D02*
X000321Y007851D01*
X000321Y007752D02*
X000985Y007752D01*
X000788Y007654D02*
X000321Y007654D01*
X000321Y007950D02*
X000631Y007950D01*
X000520Y008042D02*
X000520Y008042D01*
X000517Y008048D02*
X000321Y008048D01*
X000321Y008147D02*
X000460Y008147D01*
X000403Y008245D02*
X000321Y008245D01*
X000354Y008329D02*
X000354Y008329D01*
X000352Y008344D02*
X000321Y008344D01*
X000321Y008442D02*
X000334Y008442D01*
X001733Y003712D02*
X001787Y003712D01*
X002001Y003406D02*
X001386Y003406D01*
X000572Y002924D02*
X000321Y002924D01*
X000321Y003022D02*
X000497Y003022D01*
X000348Y003121D02*
X000321Y003121D01*
X000321Y003219D02*
X000330Y003219D01*
X000321Y003318D02*
X000330Y003318D01*
X000321Y002825D02*
X000671Y002825D01*
X000774Y002682D02*
X000774Y002682D01*
X000709Y002628D02*
X000321Y002628D01*
X000321Y002530D02*
X000592Y002530D01*
X000520Y002469D02*
X000520Y002469D01*
X000520Y002469D01*
X000498Y002431D02*
X000321Y002431D01*
X000321Y002333D02*
X000441Y002333D01*
X000384Y002234D02*
X000321Y002234D01*
X000354Y002182D02*
X000354Y002182D01*
X000346Y002136D02*
X000321Y002136D01*
X000321Y002037D02*
X000329Y002037D01*
X000321Y002727D02*
X000896Y002727D01*
X008509Y000953D02*
X017284Y000953D01*
X018474Y002037D02*
X018481Y002037D01*
X018481Y002136D02*
X018456Y002136D01*
X018481Y002234D02*
X018418Y002234D01*
X018361Y002333D02*
X018481Y002333D01*
X018481Y002431D02*
X018304Y002431D01*
X018282Y002469D02*
X018282Y002469D01*
X018211Y002530D02*
X018481Y002530D01*
X018481Y002628D02*
X018093Y002628D01*
X018028Y002682D02*
X018028Y002682D01*
X017907Y002727D02*
X018481Y002727D01*
X010380Y001347D02*
X010322Y001347D01*
X010322Y001249D02*
X010380Y001249D01*
X010380Y001150D02*
X010322Y001150D01*
D23*
X007151Y001356D03*
X011101Y003806D03*
X013651Y003806D03*
X007151Y006156D03*
D24*
X007151Y001356D01*
X011101Y003806D02*
X013651Y003806D01*
X015351Y005490D02*
X016301Y006440D01*
X016301Y007356D01*
X015651Y008006D01*
X015351Y008006D01*
D25*
X015351Y005490D02*
X015117Y005256D01*
X015117Y004247D01*
X013426Y002556D01*
X013651Y003806D02*
X013385Y004072D01*
X013385Y005256D01*
X015117Y005256D02*
X015795Y004578D01*
X017301Y004578D01*
D26*
X014951Y006106D03*
X013851Y006306D03*
X011951Y005656D03*
X011401Y005406D03*
X010651Y005206D03*
X010351Y004806D03*
X009351Y005506D03*
X011301Y006156D03*
X009851Y006806D03*
X010801Y007506D03*
X011301Y007506D03*
X010601Y008206D03*
X009851Y008206D03*
X010701Y008706D03*
X012851Y007506D03*
X015801Y006856D03*
X016801Y006856D03*
X016201Y009306D03*
X012201Y004906D03*
X012751Y004356D03*
X012401Y003056D03*
X010351Y002756D03*
X009951Y003256D03*
X004651Y005256D03*
X002001Y003406D03*
X001901Y007106D03*
X002801Y009056D03*
X007151Y009056D03*
X007151Y008556D03*
X007151Y008056D03*
X007151Y007156D03*
X007501Y009456D03*
D27*
X016301Y003256D03*
M02*
