G75*
G70*
%OFA0B0*%
%FSLAX24Y24*%
%IPPOS*%
%LPD*%
%AMOC8*
5,1,8,0,0,1.08239X$1,22.5*
%
%ADD10C,0.0000*%
%ADD11R,0.1181X0.0315*%
%ADD12R,0.3543X0.3937*%
%ADD13R,0.0394X0.0433*%
%ADD14R,0.0433X0.0394*%
%ADD15R,0.0315X0.0315*%
%ADD16R,0.0800X0.0800*%
%ADD17C,0.0800*%
%ADD18C,0.0760*%
%ADD19OC8,0.0760*%
%ADD20OC8,0.0740*%
%ADD21C,0.0400*%
%ADD22C,0.0160*%
%ADD23C,0.0320*%
%ADD24C,0.0240*%
%ADD25C,0.0554*%
%ADD26C,0.0397*%
%ADD27C,0.0100*%
%ADD28OC8,0.0436*%
D10*
X001269Y000756D02*
X017533Y000756D01*
X016901Y001856D02*
X016903Y001906D01*
X016909Y001956D01*
X016919Y002006D01*
X016932Y002054D01*
X016949Y002102D01*
X016970Y002148D01*
X016994Y002192D01*
X017022Y002234D01*
X017053Y002274D01*
X017087Y002311D01*
X017124Y002346D01*
X017163Y002377D01*
X017204Y002406D01*
X017248Y002431D01*
X017294Y002453D01*
X017341Y002471D01*
X017389Y002485D01*
X017438Y002496D01*
X017488Y002503D01*
X017538Y002506D01*
X017589Y002505D01*
X017639Y002500D01*
X017689Y002491D01*
X017737Y002479D01*
X017785Y002462D01*
X017831Y002442D01*
X017876Y002419D01*
X017919Y002392D01*
X017959Y002362D01*
X017997Y002329D01*
X018032Y002293D01*
X018065Y002254D01*
X018094Y002213D01*
X018120Y002170D01*
X018143Y002125D01*
X018162Y002078D01*
X018177Y002030D01*
X018189Y001981D01*
X018197Y001931D01*
X018201Y001881D01*
X018201Y001831D01*
X018197Y001781D01*
X018189Y001731D01*
X018177Y001682D01*
X018162Y001634D01*
X018143Y001587D01*
X018120Y001542D01*
X018094Y001499D01*
X018065Y001458D01*
X018032Y001419D01*
X017997Y001383D01*
X017959Y001350D01*
X017919Y001320D01*
X017876Y001293D01*
X017831Y001270D01*
X017785Y001250D01*
X017737Y001233D01*
X017689Y001221D01*
X017639Y001212D01*
X017589Y001207D01*
X017538Y001206D01*
X017488Y001209D01*
X017438Y001216D01*
X017389Y001227D01*
X017341Y001241D01*
X017294Y001259D01*
X017248Y001281D01*
X017204Y001306D01*
X017163Y001335D01*
X017124Y001366D01*
X017087Y001401D01*
X017053Y001438D01*
X017022Y001478D01*
X016994Y001520D01*
X016970Y001564D01*
X016949Y001610D01*
X016932Y001658D01*
X016919Y001706D01*
X016909Y001756D01*
X016903Y001806D01*
X016901Y001856D01*
X017533Y000756D02*
X017598Y000758D01*
X017663Y000764D01*
X017727Y000773D01*
X017791Y000786D01*
X017854Y000803D01*
X017915Y000823D01*
X017976Y000847D01*
X018035Y000875D01*
X018092Y000906D01*
X018147Y000940D01*
X018201Y000977D01*
X018252Y001018D01*
X018300Y001061D01*
X018346Y001107D01*
X018389Y001155D01*
X018430Y001206D01*
X018467Y001260D01*
X018501Y001315D01*
X018532Y001372D01*
X018560Y001431D01*
X018584Y001492D01*
X018604Y001553D01*
X018621Y001616D01*
X018634Y001680D01*
X018643Y001744D01*
X018649Y001809D01*
X018651Y001874D01*
X018651Y008638D01*
X016901Y008656D02*
X016903Y008706D01*
X016909Y008756D01*
X016919Y008806D01*
X016932Y008854D01*
X016949Y008902D01*
X016970Y008948D01*
X016994Y008992D01*
X017022Y009034D01*
X017053Y009074D01*
X017087Y009111D01*
X017124Y009146D01*
X017163Y009177D01*
X017204Y009206D01*
X017248Y009231D01*
X017294Y009253D01*
X017341Y009271D01*
X017389Y009285D01*
X017438Y009296D01*
X017488Y009303D01*
X017538Y009306D01*
X017589Y009305D01*
X017639Y009300D01*
X017689Y009291D01*
X017737Y009279D01*
X017785Y009262D01*
X017831Y009242D01*
X017876Y009219D01*
X017919Y009192D01*
X017959Y009162D01*
X017997Y009129D01*
X018032Y009093D01*
X018065Y009054D01*
X018094Y009013D01*
X018120Y008970D01*
X018143Y008925D01*
X018162Y008878D01*
X018177Y008830D01*
X018189Y008781D01*
X018197Y008731D01*
X018201Y008681D01*
X018201Y008631D01*
X018197Y008581D01*
X018189Y008531D01*
X018177Y008482D01*
X018162Y008434D01*
X018143Y008387D01*
X018120Y008342D01*
X018094Y008299D01*
X018065Y008258D01*
X018032Y008219D01*
X017997Y008183D01*
X017959Y008150D01*
X017919Y008120D01*
X017876Y008093D01*
X017831Y008070D01*
X017785Y008050D01*
X017737Y008033D01*
X017689Y008021D01*
X017639Y008012D01*
X017589Y008007D01*
X017538Y008006D01*
X017488Y008009D01*
X017438Y008016D01*
X017389Y008027D01*
X017341Y008041D01*
X017294Y008059D01*
X017248Y008081D01*
X017204Y008106D01*
X017163Y008135D01*
X017124Y008166D01*
X017087Y008201D01*
X017053Y008238D01*
X017022Y008278D01*
X016994Y008320D01*
X016970Y008364D01*
X016949Y008410D01*
X016932Y008458D01*
X016919Y008506D01*
X016909Y008556D01*
X016903Y008606D01*
X016901Y008656D01*
X017533Y009756D02*
X017598Y009754D01*
X017663Y009748D01*
X017727Y009739D01*
X017791Y009726D01*
X017854Y009709D01*
X017915Y009689D01*
X017976Y009665D01*
X018035Y009637D01*
X018092Y009606D01*
X018147Y009572D01*
X018201Y009535D01*
X018252Y009494D01*
X018300Y009451D01*
X018346Y009405D01*
X018389Y009357D01*
X018430Y009306D01*
X018467Y009252D01*
X018501Y009197D01*
X018532Y009140D01*
X018560Y009081D01*
X018584Y009020D01*
X018604Y008959D01*
X018621Y008896D01*
X018634Y008832D01*
X018643Y008768D01*
X018649Y008703D01*
X018651Y008638D01*
X017533Y009756D02*
X001269Y009756D01*
X000601Y008656D02*
X000603Y008706D01*
X000609Y008756D01*
X000619Y008806D01*
X000632Y008854D01*
X000649Y008902D01*
X000670Y008948D01*
X000694Y008992D01*
X000722Y009034D01*
X000753Y009074D01*
X000787Y009111D01*
X000824Y009146D01*
X000863Y009177D01*
X000904Y009206D01*
X000948Y009231D01*
X000994Y009253D01*
X001041Y009271D01*
X001089Y009285D01*
X001138Y009296D01*
X001188Y009303D01*
X001238Y009306D01*
X001289Y009305D01*
X001339Y009300D01*
X001389Y009291D01*
X001437Y009279D01*
X001485Y009262D01*
X001531Y009242D01*
X001576Y009219D01*
X001619Y009192D01*
X001659Y009162D01*
X001697Y009129D01*
X001732Y009093D01*
X001765Y009054D01*
X001794Y009013D01*
X001820Y008970D01*
X001843Y008925D01*
X001862Y008878D01*
X001877Y008830D01*
X001889Y008781D01*
X001897Y008731D01*
X001901Y008681D01*
X001901Y008631D01*
X001897Y008581D01*
X001889Y008531D01*
X001877Y008482D01*
X001862Y008434D01*
X001843Y008387D01*
X001820Y008342D01*
X001794Y008299D01*
X001765Y008258D01*
X001732Y008219D01*
X001697Y008183D01*
X001659Y008150D01*
X001619Y008120D01*
X001576Y008093D01*
X001531Y008070D01*
X001485Y008050D01*
X001437Y008033D01*
X001389Y008021D01*
X001339Y008012D01*
X001289Y008007D01*
X001238Y008006D01*
X001188Y008009D01*
X001138Y008016D01*
X001089Y008027D01*
X001041Y008041D01*
X000994Y008059D01*
X000948Y008081D01*
X000904Y008106D01*
X000863Y008135D01*
X000824Y008166D01*
X000787Y008201D01*
X000753Y008238D01*
X000722Y008278D01*
X000694Y008320D01*
X000670Y008364D01*
X000649Y008410D01*
X000632Y008458D01*
X000619Y008506D01*
X000609Y008556D01*
X000603Y008606D01*
X000601Y008656D01*
X000151Y008638D02*
X000151Y001874D01*
X000601Y001856D02*
X000603Y001906D01*
X000609Y001956D01*
X000619Y002006D01*
X000632Y002054D01*
X000649Y002102D01*
X000670Y002148D01*
X000694Y002192D01*
X000722Y002234D01*
X000753Y002274D01*
X000787Y002311D01*
X000824Y002346D01*
X000863Y002377D01*
X000904Y002406D01*
X000948Y002431D01*
X000994Y002453D01*
X001041Y002471D01*
X001089Y002485D01*
X001138Y002496D01*
X001188Y002503D01*
X001238Y002506D01*
X001289Y002505D01*
X001339Y002500D01*
X001389Y002491D01*
X001437Y002479D01*
X001485Y002462D01*
X001531Y002442D01*
X001576Y002419D01*
X001619Y002392D01*
X001659Y002362D01*
X001697Y002329D01*
X001732Y002293D01*
X001765Y002254D01*
X001794Y002213D01*
X001820Y002170D01*
X001843Y002125D01*
X001862Y002078D01*
X001877Y002030D01*
X001889Y001981D01*
X001897Y001931D01*
X001901Y001881D01*
X001901Y001831D01*
X001897Y001781D01*
X001889Y001731D01*
X001877Y001682D01*
X001862Y001634D01*
X001843Y001587D01*
X001820Y001542D01*
X001794Y001499D01*
X001765Y001458D01*
X001732Y001419D01*
X001697Y001383D01*
X001659Y001350D01*
X001619Y001320D01*
X001576Y001293D01*
X001531Y001270D01*
X001485Y001250D01*
X001437Y001233D01*
X001389Y001221D01*
X001339Y001212D01*
X001289Y001207D01*
X001238Y001206D01*
X001188Y001209D01*
X001138Y001216D01*
X001089Y001227D01*
X001041Y001241D01*
X000994Y001259D01*
X000948Y001281D01*
X000904Y001306D01*
X000863Y001335D01*
X000824Y001366D01*
X000787Y001401D01*
X000753Y001438D01*
X000722Y001478D01*
X000694Y001520D01*
X000670Y001564D01*
X000649Y001610D01*
X000632Y001658D01*
X000619Y001706D01*
X000609Y001756D01*
X000603Y001806D01*
X000601Y001856D01*
X000151Y001874D02*
X000153Y001809D01*
X000159Y001744D01*
X000168Y001680D01*
X000181Y001616D01*
X000198Y001553D01*
X000218Y001492D01*
X000242Y001431D01*
X000270Y001372D01*
X000301Y001315D01*
X000335Y001260D01*
X000372Y001206D01*
X000413Y001155D01*
X000456Y001107D01*
X000502Y001061D01*
X000550Y001018D01*
X000601Y000977D01*
X000655Y000940D01*
X000710Y000906D01*
X000767Y000875D01*
X000826Y000847D01*
X000887Y000823D01*
X000948Y000803D01*
X001011Y000786D01*
X001075Y000773D01*
X001139Y000764D01*
X001204Y000758D01*
X001269Y000756D01*
X000151Y008638D02*
X000153Y008703D01*
X000159Y008768D01*
X000168Y008832D01*
X000181Y008896D01*
X000198Y008959D01*
X000218Y009020D01*
X000242Y009081D01*
X000270Y009140D01*
X000301Y009197D01*
X000335Y009252D01*
X000372Y009306D01*
X000413Y009357D01*
X000456Y009405D01*
X000502Y009451D01*
X000550Y009494D01*
X000601Y009535D01*
X000655Y009572D01*
X000710Y009606D01*
X000767Y009637D01*
X000826Y009665D01*
X000887Y009689D01*
X000948Y009709D01*
X001011Y009726D01*
X001075Y009739D01*
X001139Y009748D01*
X001204Y009754D01*
X001269Y009756D01*
D11*
X008976Y009156D03*
X008976Y008656D03*
X008976Y008156D03*
X008976Y007656D03*
X008976Y007156D03*
X008976Y006656D03*
X008976Y006156D03*
X008976Y004356D03*
X008976Y003856D03*
X008976Y003356D03*
X008976Y002856D03*
X008976Y002356D03*
X008976Y001856D03*
X008976Y001356D03*
D12*
X004999Y002856D03*
X004999Y007656D03*
D13*
X014501Y007191D03*
X014501Y006521D03*
D14*
X013186Y006756D03*
X012517Y006756D03*
X011936Y006756D03*
X011267Y006756D03*
X012517Y005906D03*
X013186Y005906D03*
X010936Y002006D03*
X010267Y002006D03*
X005936Y005256D03*
X005267Y005256D03*
D15*
X001396Y007106D03*
X000806Y007106D03*
X000806Y003406D03*
X001396Y003406D03*
D16*
X001501Y004556D03*
X017301Y005956D03*
D17*
X017301Y004578D03*
X001501Y005934D03*
D18*
X014801Y002556D03*
D19*
X013426Y002556D03*
D20*
X013351Y008006D03*
X014351Y008006D03*
X015351Y008006D03*
X015351Y009006D03*
X014351Y009006D03*
X013351Y009006D03*
X012351Y009006D03*
X012351Y008006D03*
D21*
X004999Y007656D02*
X003277Y005934D01*
X001501Y005934D01*
X001501Y004556D02*
X003299Y004556D01*
X004999Y002856D01*
D22*
X008976Y002856D01*
X010276Y006476D02*
X010226Y008571D01*
X010331Y007766D02*
X010276Y006476D01*
X008976Y007656D02*
X004999Y007656D01*
X017301Y006006D02*
X017301Y005956D01*
D23*
X017301Y007056D01*
X015351Y009006D01*
X010226Y008571D02*
X009901Y009156D01*
X008976Y009156D01*
X010331Y007766D02*
X010326Y005826D01*
X010201Y005661D01*
X009901Y005306D01*
X009901Y004406D01*
X009851Y004356D01*
X008976Y004356D01*
X009851Y004356D02*
X010351Y004356D01*
X011101Y003806D01*
X013426Y002556D02*
X012226Y001356D01*
X008976Y001356D01*
X007151Y001356D01*
X013651Y003806D02*
X013951Y003806D01*
X014801Y004656D01*
X016101Y005956D01*
X017301Y005956D01*
X008976Y006156D02*
X007151Y006156D01*
D24*
X014801Y004656D02*
X014801Y002556D01*
D25*
X013651Y003806D03*
X011101Y003806D03*
X007151Y006156D03*
X007151Y001356D03*
D26*
X010351Y002756D03*
X009951Y003256D03*
X012401Y003056D03*
X012751Y004356D03*
X012201Y004906D03*
X011401Y005406D03*
X011951Y005656D03*
X011301Y006156D03*
X009851Y006806D03*
X010801Y007506D03*
X011301Y007506D03*
X010601Y008206D03*
X009851Y008206D03*
X010701Y008706D03*
X012851Y007506D03*
X013851Y006306D03*
X014951Y006106D03*
X015801Y006856D03*
X016801Y006856D03*
X016201Y009306D03*
X009351Y005506D03*
X010351Y004806D03*
X010651Y005206D03*
X007151Y007156D03*
X007151Y008056D03*
X007151Y008556D03*
X007151Y009056D03*
X007501Y009456D03*
X002801Y009056D03*
X001901Y007106D03*
X004651Y005256D03*
X002001Y003406D03*
D27*
X001396Y003406D01*
X001086Y003651D02*
X001083Y003655D01*
X001055Y003683D01*
X001021Y003703D01*
X000983Y003713D01*
X000835Y003713D01*
X000835Y003435D01*
X000777Y003435D01*
X000777Y003713D01*
X000629Y003713D01*
X000591Y003703D01*
X000556Y003683D01*
X000528Y003655D01*
X000509Y003621D01*
X000498Y003583D01*
X000498Y003435D01*
X000777Y003435D01*
X000777Y003377D01*
X000835Y003377D01*
X000835Y003098D01*
X000983Y003098D01*
X001021Y003109D01*
X001055Y003128D01*
X001083Y003156D01*
X001086Y003161D01*
X001169Y003078D01*
X001624Y003078D01*
X001716Y003170D01*
X001792Y003094D01*
X001928Y003037D01*
X002074Y003037D01*
X002210Y003094D01*
X002313Y003197D01*
X002370Y003333D01*
X002370Y003479D01*
X002313Y003615D01*
X002210Y003718D01*
X002074Y003774D01*
X001928Y003774D01*
X001792Y003718D01*
X001716Y003642D01*
X001624Y003733D01*
X001169Y003733D01*
X001086Y003651D01*
X001147Y003712D02*
X000987Y003712D01*
X000835Y003712D02*
X000777Y003712D01*
X000777Y003614D02*
X000835Y003614D01*
X000835Y003515D02*
X000777Y003515D01*
X000777Y003417D02*
X000321Y003417D01*
X000321Y003515D02*
X000498Y003515D01*
X000507Y003614D02*
X000321Y003614D01*
X000321Y003712D02*
X000624Y003712D01*
X000321Y003811D02*
X003057Y003811D01*
X003057Y003909D02*
X000321Y003909D01*
X000321Y004008D02*
X001009Y004008D01*
X001031Y003986D02*
X001972Y003986D01*
X002071Y004085D01*
X002071Y004186D01*
X003057Y004186D01*
X003057Y000926D01*
X001444Y000926D01*
X001728Y001029D01*
X001728Y001029D01*
X001982Y001242D01*
X001982Y001242D01*
X002148Y001529D01*
X002148Y001529D01*
X002206Y001856D01*
X002148Y002182D01*
X002148Y002182D01*
X001982Y002469D01*
X001728Y002682D01*
X001417Y002796D01*
X001417Y002796D01*
X001338Y002796D01*
X001251Y002796D01*
X001229Y002796D01*
X001164Y002796D01*
X001085Y002796D01*
X000774Y002682D01*
X000520Y002469D01*
X000354Y002182D01*
X000321Y001994D01*
X000321Y008517D01*
X000354Y008329D01*
X000520Y008042D01*
X000774Y007829D01*
X001085Y007716D01*
X001085Y007716D01*
X001251Y007716D01*
X001338Y007716D01*
X001417Y007716D01*
X001728Y007829D01*
X001728Y007829D01*
X001982Y008042D01*
X001982Y008042D01*
X002148Y008329D01*
X002148Y008329D01*
X002206Y008656D01*
X002148Y008982D01*
X002148Y008982D01*
X001982Y009269D01*
X001728Y009482D01*
X001444Y009586D01*
X003057Y009586D01*
X003057Y006304D01*
X001937Y006304D01*
X001824Y006417D01*
X001615Y006504D01*
X001388Y006504D01*
X001178Y006417D01*
X001018Y006257D01*
X000931Y006047D01*
X000931Y005820D01*
X001018Y005611D01*
X001178Y005451D01*
X001388Y005364D01*
X001615Y005364D01*
X001824Y005451D01*
X001937Y005564D01*
X003110Y005564D01*
X003157Y005517D01*
X004914Y005517D01*
X004910Y005511D01*
X004900Y005472D01*
X004900Y005304D01*
X005218Y005304D01*
X005218Y005207D01*
X004900Y005207D01*
X004900Y005039D01*
X004910Y005001D01*
X004914Y004994D01*
X003157Y004994D01*
X003088Y004926D01*
X002071Y004926D01*
X002071Y005026D01*
X001972Y005126D01*
X001031Y005126D01*
X000931Y005026D01*
X000931Y004085D01*
X001031Y003986D01*
X000931Y004106D02*
X000321Y004106D01*
X000321Y004205D02*
X000931Y004205D01*
X000931Y004303D02*
X000321Y004303D01*
X000321Y004402D02*
X000931Y004402D01*
X000931Y004501D02*
X000321Y004501D01*
X000321Y004599D02*
X000931Y004599D01*
X000931Y004698D02*
X000321Y004698D01*
X000321Y004796D02*
X000931Y004796D01*
X000931Y004895D02*
X000321Y004895D01*
X000321Y004993D02*
X000931Y004993D01*
X000997Y005092D02*
X000321Y005092D01*
X000321Y005190D02*
X004900Y005190D01*
X004900Y005092D02*
X002006Y005092D01*
X002071Y004993D02*
X003156Y004993D01*
X001859Y005486D02*
X004904Y005486D01*
X004900Y005387D02*
X001671Y005387D01*
X001331Y005387D02*
X000321Y005387D01*
X000321Y005289D02*
X005218Y005289D01*
X005267Y005256D02*
X004651Y005256D01*
X005936Y005256D02*
X007451Y005256D01*
X007601Y005106D01*
X007601Y003506D01*
X007751Y003356D01*
X008976Y003356D01*
X008238Y003606D02*
X008216Y003584D01*
X008216Y003576D01*
X007842Y003576D01*
X007821Y003597D01*
X007821Y005197D01*
X007692Y005326D01*
X007542Y005476D01*
X007360Y005476D01*
X006322Y005476D01*
X006322Y005517D01*
X006841Y005517D01*
X006940Y005617D01*
X006940Y006846D01*
X006942Y006844D01*
X007078Y006787D01*
X007224Y006787D01*
X007360Y006844D01*
X007452Y006936D01*
X008216Y006936D01*
X008216Y006928D01*
X008238Y006906D01*
X008216Y006884D01*
X008216Y006428D01*
X008256Y006388D01*
X008246Y006371D01*
X008236Y006333D01*
X008236Y006185D01*
X008947Y006185D01*
X008947Y006127D01*
X008236Y006127D01*
X008236Y005979D01*
X006940Y005979D01*
X006940Y006077D02*
X008236Y006077D01*
X008236Y005979D02*
X008246Y005941D01*
X008266Y005906D01*
X008294Y005878D01*
X008328Y005859D01*
X008366Y005848D01*
X008947Y005848D01*
X008947Y006127D01*
X009005Y006127D01*
X009005Y005848D01*
X009216Y005848D01*
X009142Y005818D01*
X009039Y005715D01*
X008983Y005579D01*
X008983Y005433D01*
X009039Y005297D01*
X009142Y005194D01*
X009278Y005137D01*
X009424Y005137D01*
X009560Y005194D01*
X009571Y005205D01*
X009571Y004686D01*
X008911Y004686D01*
X008904Y004683D01*
X008315Y004683D01*
X008216Y004584D01*
X008216Y004128D01*
X008238Y004106D01*
X008216Y004084D01*
X008216Y003628D01*
X008238Y003606D01*
X008230Y003614D02*
X007821Y003614D01*
X007821Y003712D02*
X008216Y003712D01*
X008216Y003811D02*
X007821Y003811D01*
X007821Y003909D02*
X008216Y003909D01*
X008216Y004008D02*
X007821Y004008D01*
X007821Y004106D02*
X008237Y004106D01*
X008216Y004205D02*
X007821Y004205D01*
X007821Y004303D02*
X008216Y004303D01*
X008216Y004402D02*
X007821Y004402D01*
X007821Y004501D02*
X008216Y004501D01*
X008231Y004599D02*
X007821Y004599D01*
X007821Y004698D02*
X009571Y004698D01*
X009571Y004796D02*
X007821Y004796D01*
X007821Y004895D02*
X009571Y004895D01*
X009571Y004993D02*
X007821Y004993D01*
X007821Y005092D02*
X009571Y005092D01*
X009571Y005190D02*
X009552Y005190D01*
X009150Y005190D02*
X007821Y005190D01*
X007729Y005289D02*
X009047Y005289D01*
X009001Y005387D02*
X007631Y005387D01*
X006908Y005585D02*
X008985Y005585D01*
X008983Y005486D02*
X006322Y005486D01*
X006940Y005683D02*
X009026Y005683D01*
X009106Y005782D02*
X006940Y005782D01*
X006940Y005880D02*
X008292Y005880D01*
X008947Y005880D02*
X009005Y005880D01*
X009005Y005979D02*
X008947Y005979D01*
X008947Y006077D02*
X009005Y006077D01*
X008947Y006176D02*
X006940Y006176D01*
X006940Y006274D02*
X008236Y006274D01*
X008247Y006373D02*
X006940Y006373D01*
X006940Y006471D02*
X008216Y006471D01*
X008216Y006570D02*
X006940Y006570D01*
X006940Y006669D02*
X008216Y006669D01*
X008216Y006767D02*
X006940Y006767D01*
X007151Y007156D02*
X008976Y007156D01*
X008976Y006656D02*
X009076Y006556D01*
X009601Y006556D01*
X009651Y006506D01*
X009701Y006506D01*
X009851Y006356D01*
X009851Y005756D01*
X009601Y005506D01*
X009351Y005506D01*
X010351Y004806D02*
X010401Y004756D01*
X010701Y004756D01*
X011001Y005056D01*
X011001Y005256D01*
X011151Y005406D01*
X011401Y005406D01*
X011157Y005683D02*
X010871Y005683D01*
X010871Y005585D02*
X011019Y005585D01*
X011060Y005626D02*
X010910Y005476D01*
X010906Y005472D01*
X010871Y005507D01*
X010871Y007137D01*
X010874Y007137D01*
X011010Y007194D01*
X011051Y007235D01*
X011092Y007194D01*
X011228Y007137D01*
X011374Y007137D01*
X011510Y007194D01*
X011613Y007297D01*
X011670Y007433D01*
X011670Y007579D01*
X011613Y007715D01*
X011510Y007818D01*
X011374Y007874D01*
X011275Y007874D01*
X010970Y008231D01*
X010970Y008279D01*
X010913Y008415D01*
X010810Y008518D01*
X010674Y008574D01*
X010558Y008574D01*
X010546Y008674D01*
X010199Y009300D01*
X010181Y009343D01*
X010167Y009356D01*
X010158Y009374D01*
X010142Y009386D01*
X011968Y009386D01*
X011811Y009230D01*
X011811Y008782D01*
X012088Y008506D01*
X011811Y008230D01*
X011811Y007782D01*
X012128Y007466D01*
X012483Y007466D01*
X012483Y007433D01*
X012539Y007297D01*
X012642Y007194D01*
X012778Y007137D01*
X012924Y007137D01*
X012981Y007161D01*
X012981Y007123D01*
X012899Y007123D01*
X012837Y007061D01*
X012825Y007073D01*
X012791Y007092D01*
X012753Y007103D01*
X012565Y007103D01*
X012565Y006805D01*
X012468Y006805D01*
X012468Y007103D01*
X012280Y007103D01*
X012242Y007092D01*
X012226Y007083D01*
X012210Y007092D01*
X012172Y007103D01*
X011984Y007103D01*
X011984Y006805D01*
X011887Y006805D01*
X011887Y007103D01*
X011700Y007103D01*
X011661Y007092D01*
X011627Y007073D01*
X011615Y007061D01*
X011553Y007123D01*
X010980Y007123D01*
X010880Y007023D01*
X010880Y006489D01*
X010980Y006389D01*
X011013Y006389D01*
X010989Y006365D01*
X010933Y006229D01*
X010933Y006083D01*
X010989Y005947D01*
X011092Y005844D01*
X011228Y005787D01*
X011374Y005787D01*
X011510Y005844D01*
X011613Y005947D01*
X011670Y006083D01*
X011670Y006229D01*
X011613Y006365D01*
X011571Y006407D01*
X011615Y006451D01*
X011627Y006439D01*
X011661Y006419D01*
X011700Y006409D01*
X011887Y006409D01*
X011887Y006707D01*
X011984Y006707D01*
X011984Y006409D01*
X012172Y006409D01*
X012210Y006419D01*
X012226Y006429D01*
X012242Y006419D01*
X012280Y006409D01*
X012468Y006409D01*
X012468Y006707D01*
X012565Y006707D01*
X012565Y006409D01*
X012753Y006409D01*
X012791Y006419D01*
X012825Y006439D01*
X012837Y006451D01*
X012899Y006389D01*
X013473Y006389D01*
X013497Y006413D01*
X013483Y006379D01*
X013483Y006263D01*
X013473Y006273D01*
X012899Y006273D01*
X012837Y006211D01*
X012825Y006223D01*
X012791Y006242D01*
X012753Y006253D01*
X012565Y006253D01*
X012565Y005955D01*
X012468Y005955D01*
X012468Y006253D01*
X012280Y006253D01*
X012242Y006242D01*
X012208Y006223D01*
X012180Y006195D01*
X012160Y006161D01*
X012150Y006122D01*
X012150Y005954D01*
X012468Y005954D01*
X012468Y005857D01*
X012565Y005857D01*
X012565Y005596D01*
X012445Y005476D01*
X011910Y005476D01*
X011781Y005347D01*
X011770Y005335D01*
X011770Y005479D01*
X011713Y005615D01*
X011610Y005718D01*
X011474Y005774D01*
X011328Y005774D01*
X011192Y005718D01*
X011100Y005626D01*
X011060Y005626D01*
X010920Y005486D02*
X010892Y005486D01*
X010871Y005782D02*
X012150Y005782D01*
X012150Y005857D02*
X012150Y005689D01*
X012160Y005651D01*
X012180Y005617D01*
X012208Y005589D01*
X012242Y005569D01*
X012280Y005559D01*
X012468Y005559D01*
X012468Y005857D01*
X012150Y005857D01*
X012201Y005906D02*
X011951Y005656D01*
X012152Y005683D02*
X011645Y005683D01*
X011726Y005585D02*
X012216Y005585D01*
X012468Y005585D02*
X012553Y005585D01*
X012565Y005683D02*
X012468Y005683D01*
X012468Y005782D02*
X012565Y005782D01*
X012468Y005880D02*
X011546Y005880D01*
X011626Y005979D02*
X012150Y005979D01*
X012201Y005906D02*
X012517Y005906D01*
X012517Y006756D01*
X011936Y006756D01*
X011936Y006971D01*
X011651Y007256D01*
X011651Y007856D01*
X010701Y008706D01*
X010550Y008639D02*
X011954Y008639D01*
X012053Y008541D02*
X010755Y008541D01*
X010886Y008442D02*
X012024Y008442D01*
X011925Y008344D02*
X010943Y008344D01*
X010970Y008245D02*
X011827Y008245D01*
X011811Y008147D02*
X011042Y008147D01*
X011126Y008048D02*
X011811Y008048D01*
X011811Y007950D02*
X011211Y007950D01*
X011431Y007851D02*
X011811Y007851D01*
X011841Y007752D02*
X011576Y007752D01*
X011639Y007654D02*
X011939Y007654D01*
X012038Y007555D02*
X011670Y007555D01*
X011670Y007457D02*
X012483Y007457D01*
X012514Y007358D02*
X011639Y007358D01*
X011576Y007260D02*
X012576Y007260D01*
X012721Y007161D02*
X011432Y007161D01*
X011614Y007063D02*
X011617Y007063D01*
X011887Y007063D02*
X011984Y007063D01*
X011984Y006964D02*
X011887Y006964D01*
X011887Y006866D02*
X011984Y006866D01*
X011984Y006804D02*
X012150Y006804D01*
X012468Y006804D01*
X012468Y006707D01*
X012150Y006707D01*
X011984Y006707D01*
X011984Y006804D01*
X011984Y006767D02*
X012468Y006767D01*
X012468Y006669D02*
X012565Y006669D01*
X012565Y006570D02*
X012468Y006570D01*
X012468Y006471D02*
X012565Y006471D01*
X012565Y006176D02*
X012468Y006176D01*
X012468Y006077D02*
X012565Y006077D01*
X012565Y005979D02*
X012468Y005979D01*
X012150Y006077D02*
X011667Y006077D01*
X011670Y006176D02*
X012169Y006176D01*
X011984Y006471D02*
X011887Y006471D01*
X011887Y006570D02*
X011984Y006570D01*
X011984Y006669D02*
X011887Y006669D01*
X011605Y006373D02*
X013483Y006373D01*
X013483Y006274D02*
X011651Y006274D01*
X011301Y006156D02*
X011301Y006721D01*
X011267Y006756D01*
X010880Y006767D02*
X010871Y006767D01*
X010871Y006669D02*
X010880Y006669D01*
X010871Y006570D02*
X010880Y006570D01*
X010871Y006471D02*
X010897Y006471D01*
X010871Y006373D02*
X010997Y006373D01*
X010951Y006274D02*
X010871Y006274D01*
X010871Y006176D02*
X010933Y006176D01*
X010935Y006077D02*
X010871Y006077D01*
X010871Y005979D02*
X010976Y005979D01*
X011056Y005880D02*
X010871Y005880D01*
X011767Y005486D02*
X012455Y005486D01*
X012536Y005256D02*
X012001Y005256D01*
X011651Y004906D01*
X011651Y003706D01*
X011301Y003356D01*
X010901Y003356D01*
X010401Y003856D01*
X008976Y003856D01*
X009715Y003606D02*
X009737Y003628D01*
X009737Y003636D01*
X010310Y003636D01*
X010681Y003265D01*
X010810Y003136D01*
X011210Y003136D01*
X011392Y003136D01*
X011871Y003615D01*
X011871Y003797D01*
X011871Y004740D01*
X011889Y004697D01*
X011992Y004594D01*
X012128Y004537D01*
X012274Y004537D01*
X012410Y004594D01*
X012502Y004686D01*
X013092Y004686D01*
X013221Y004815D01*
X014541Y006135D01*
X014583Y006135D01*
X014583Y006033D01*
X014639Y005897D01*
X014742Y005794D01*
X014878Y005737D01*
X015022Y005737D01*
X013760Y004476D01*
X013210Y004476D01*
X013081Y004347D01*
X012531Y003797D01*
X012531Y003615D01*
X012531Y002997D01*
X011760Y002226D01*
X011322Y002226D01*
X011322Y002273D01*
X011223Y002373D01*
X011045Y002373D01*
X011027Y002391D01*
X010720Y002699D01*
X010720Y002829D01*
X010663Y002965D01*
X010560Y003068D01*
X010424Y003124D01*
X010295Y003124D01*
X010320Y003183D01*
X010320Y003329D01*
X010263Y003465D01*
X010160Y003568D01*
X010024Y003624D01*
X009878Y003624D01*
X009742Y003568D01*
X009737Y003562D01*
X009737Y003584D01*
X009715Y003606D01*
X009722Y003614D02*
X009852Y003614D01*
X010050Y003614D02*
X010332Y003614D01*
X010431Y003515D02*
X010213Y003515D01*
X010283Y003417D02*
X010529Y003417D01*
X010628Y003318D02*
X010320Y003318D01*
X010320Y003219D02*
X010726Y003219D01*
X010606Y003022D02*
X012531Y003022D01*
X012531Y003121D02*
X010433Y003121D01*
X010680Y002924D02*
X012458Y002924D01*
X012359Y002825D02*
X010720Y002825D01*
X010720Y002727D02*
X012261Y002727D01*
X012162Y002628D02*
X010790Y002628D01*
X010888Y002530D02*
X012064Y002530D01*
X011965Y002431D02*
X010987Y002431D01*
X011263Y002333D02*
X011867Y002333D01*
X011768Y002234D02*
X011322Y002234D01*
X010936Y002171D02*
X010936Y002006D01*
X011851Y002006D01*
X012751Y002906D01*
X012751Y003706D01*
X013301Y004256D01*
X013851Y004256D01*
X015301Y005706D01*
X015301Y007156D01*
X014851Y007606D01*
X014851Y008506D01*
X012801Y008506D01*
X012351Y008956D01*
X012351Y009006D01*
X011811Y009034D02*
X010347Y009034D01*
X010292Y009132D02*
X011811Y009132D01*
X011812Y009231D02*
X010237Y009231D01*
X010187Y009329D02*
X011911Y009329D01*
X011811Y008935D02*
X010401Y008935D01*
X010456Y008836D02*
X011811Y008836D01*
X011856Y008738D02*
X010511Y008738D01*
X010601Y008206D02*
X010701Y008206D01*
X011301Y007506D01*
X010801Y007506D02*
X010651Y007356D01*
X010651Y005206D01*
X011770Y005387D02*
X011822Y005387D01*
X011781Y005347D02*
X011781Y005347D01*
X012201Y004906D02*
X013001Y004906D01*
X014501Y006406D01*
X014501Y006521D01*
X014484Y006077D02*
X014583Y006077D01*
X014605Y005979D02*
X014385Y005979D01*
X014286Y005880D02*
X014656Y005880D01*
X014771Y005782D02*
X014188Y005782D01*
X014089Y005683D02*
X014967Y005683D01*
X014869Y005585D02*
X013991Y005585D01*
X013892Y005486D02*
X014770Y005486D01*
X014672Y005387D02*
X013794Y005387D01*
X013695Y005289D02*
X014573Y005289D01*
X014475Y005190D02*
X013597Y005190D01*
X013498Y005092D02*
X014376Y005092D01*
X014277Y004993D02*
X013400Y004993D01*
X013301Y004895D02*
X014179Y004895D01*
X014080Y004796D02*
X013203Y004796D01*
X013104Y004698D02*
X013982Y004698D01*
X013883Y004599D02*
X012415Y004599D01*
X012751Y004356D02*
X012751Y004006D01*
X012401Y003656D01*
X012401Y003056D01*
X012531Y003219D02*
X011476Y003219D01*
X011574Y003318D02*
X012531Y003318D01*
X012531Y003417D02*
X011673Y003417D01*
X011771Y003515D02*
X012531Y003515D01*
X012531Y003614D02*
X011870Y003614D01*
X011871Y003712D02*
X012531Y003712D01*
X012545Y003811D02*
X011871Y003811D01*
X011871Y003909D02*
X012643Y003909D01*
X012742Y004008D02*
X011871Y004008D01*
X011871Y004106D02*
X012841Y004106D01*
X012939Y004205D02*
X011871Y004205D01*
X011871Y004303D02*
X013038Y004303D01*
X013136Y004402D02*
X011871Y004402D01*
X011871Y004501D02*
X013785Y004501D01*
X014511Y003899D02*
X014511Y003031D01*
X014490Y003022D01*
X014335Y002867D01*
X014251Y002665D01*
X014251Y002446D01*
X014335Y002244D01*
X014490Y002090D01*
X014692Y002006D01*
X014911Y002006D01*
X015113Y002090D01*
X015267Y002244D01*
X015351Y002446D01*
X015351Y002665D01*
X015267Y002867D01*
X015113Y003022D01*
X015091Y003031D01*
X015091Y004479D01*
X016238Y005626D01*
X016731Y005626D01*
X016731Y005485D01*
X016831Y005386D01*
X017772Y005386D01*
X017871Y005485D01*
X017871Y006426D01*
X017772Y006526D01*
X017631Y006526D01*
X017631Y006990D01*
X017631Y007122D01*
X017581Y007243D01*
X015891Y008933D01*
X015891Y009095D01*
X015992Y008994D01*
X016128Y008937D01*
X016274Y008937D01*
X016410Y008994D01*
X016513Y009097D01*
X016570Y009233D01*
X016570Y009379D01*
X016513Y009515D01*
X016442Y009586D01*
X017358Y009586D01*
X017074Y009482D01*
X016820Y009269D01*
X016654Y008982D01*
X016597Y008656D01*
X016654Y008329D01*
X016820Y008042D01*
X017074Y007829D01*
X017385Y007716D01*
X017385Y007716D01*
X017464Y007716D01*
X017551Y007716D01*
X017717Y007716D01*
X018028Y007829D01*
X018028Y007829D01*
X018282Y008042D01*
X018282Y008042D01*
X018448Y008329D01*
X018448Y008329D01*
X018481Y008517D01*
X018481Y001994D01*
X018448Y002182D01*
X018448Y002182D01*
X018282Y002469D01*
X018028Y002682D01*
X017717Y002796D01*
X017717Y002796D01*
X017638Y002796D01*
X017551Y002796D01*
X017545Y002796D01*
X017464Y002796D01*
X017385Y002796D01*
X017074Y002682D01*
X016820Y002469D01*
X016654Y002182D01*
X016597Y001856D01*
X016654Y001529D01*
X016820Y001242D01*
X017074Y001029D01*
X017358Y000926D01*
X006940Y000926D01*
X006940Y002606D01*
X008238Y002606D01*
X008216Y002584D01*
X008216Y002128D01*
X008238Y002106D01*
X008216Y002084D01*
X008216Y001628D01*
X008256Y001588D01*
X008246Y001571D01*
X008236Y001533D01*
X008236Y001385D01*
X008947Y001385D01*
X008947Y001327D01*
X008236Y001327D01*
X008236Y001179D01*
X008246Y001141D01*
X008266Y001106D01*
X008294Y001078D01*
X008328Y001059D01*
X008366Y001048D01*
X008947Y001048D01*
X008947Y001327D01*
X009005Y001327D01*
X009005Y001048D01*
X009586Y001048D01*
X009625Y001059D01*
X009659Y001078D01*
X009687Y001106D01*
X009706Y001141D01*
X009717Y001179D01*
X009717Y001327D01*
X009005Y001327D01*
X009005Y001385D01*
X009717Y001385D01*
X009717Y001533D01*
X009706Y001571D01*
X009697Y001588D01*
X009737Y001628D01*
X009737Y001636D01*
X010208Y001636D01*
X010211Y001639D01*
X010553Y001639D01*
X010601Y001687D01*
X010649Y001639D01*
X011223Y001639D01*
X011322Y001739D01*
X011322Y001786D01*
X011760Y001786D01*
X011942Y001786D01*
X012842Y002686D01*
X012896Y002740D01*
X012896Y002606D01*
X013376Y002606D01*
X013376Y002506D01*
X012896Y002506D01*
X012896Y002336D01*
X013207Y002026D01*
X013376Y002026D01*
X013376Y002506D01*
X013476Y002506D01*
X013476Y002026D01*
X013646Y002026D01*
X013956Y002336D01*
X013956Y002506D01*
X013476Y002506D01*
X013476Y002606D01*
X013376Y002606D01*
X013376Y003086D01*
X013207Y003086D01*
X012971Y002850D01*
X012971Y003615D01*
X013204Y003848D01*
X013204Y003717D01*
X013272Y003553D01*
X013398Y003427D01*
X013562Y003359D01*
X013740Y003359D01*
X013904Y003427D01*
X013954Y003476D01*
X014017Y003476D01*
X014138Y003526D01*
X014511Y003899D01*
X014511Y003811D02*
X014423Y003811D01*
X014511Y003712D02*
X014324Y003712D01*
X014226Y003614D02*
X014511Y003614D01*
X014511Y003515D02*
X014111Y003515D01*
X013880Y003417D02*
X014511Y003417D01*
X014511Y003318D02*
X012971Y003318D01*
X012971Y003219D02*
X014511Y003219D01*
X014511Y003121D02*
X012971Y003121D01*
X012971Y003022D02*
X013143Y003022D01*
X013045Y002924D02*
X012971Y002924D01*
X012896Y002727D02*
X012883Y002727D01*
X012896Y002628D02*
X012785Y002628D01*
X012686Y002530D02*
X013376Y002530D01*
X013376Y002628D02*
X013476Y002628D01*
X013476Y002606D02*
X013476Y003086D01*
X013646Y003086D01*
X013956Y002775D01*
X013956Y002606D01*
X013476Y002606D01*
X013476Y002530D02*
X014251Y002530D01*
X014251Y002628D02*
X013956Y002628D01*
X013956Y002727D02*
X014277Y002727D01*
X014317Y002825D02*
X013906Y002825D01*
X013808Y002924D02*
X014391Y002924D01*
X014490Y003022D02*
X013709Y003022D01*
X013476Y003022D02*
X013376Y003022D01*
X013376Y002924D02*
X013476Y002924D01*
X013476Y002825D02*
X013376Y002825D01*
X013376Y002727D02*
X013476Y002727D01*
X013476Y002431D02*
X013376Y002431D01*
X013376Y002333D02*
X013476Y002333D01*
X013476Y002234D02*
X013376Y002234D01*
X013376Y002136D02*
X013476Y002136D01*
X013476Y002037D02*
X013376Y002037D01*
X013196Y002037D02*
X012193Y002037D01*
X012095Y001938D02*
X016611Y001938D01*
X016597Y001856D02*
X016597Y001856D01*
X016599Y001840D02*
X011996Y001840D01*
X012292Y002136D02*
X013097Y002136D01*
X012999Y002234D02*
X012390Y002234D01*
X012489Y002333D02*
X012900Y002333D01*
X012896Y002431D02*
X012588Y002431D01*
X013657Y002037D02*
X014617Y002037D01*
X014444Y002136D02*
X013755Y002136D01*
X013854Y002234D02*
X014345Y002234D01*
X014298Y002333D02*
X013952Y002333D01*
X013956Y002431D02*
X014258Y002431D01*
X014986Y002037D02*
X016629Y002037D01*
X016646Y002136D02*
X015159Y002136D01*
X015257Y002234D02*
X016684Y002234D01*
X016654Y002182D02*
X016654Y002182D01*
X016741Y002333D02*
X015304Y002333D01*
X015345Y002431D02*
X016798Y002431D01*
X016820Y002469D02*
X016820Y002469D01*
X016820Y002469D01*
X016892Y002530D02*
X015351Y002530D01*
X015351Y002628D02*
X017009Y002628D01*
X017074Y002682D02*
X017074Y002682D01*
X017196Y002727D02*
X015326Y002727D01*
X015285Y002825D02*
X018481Y002825D01*
X018481Y002727D02*
X017907Y002727D01*
X018028Y002682D02*
X018028Y002682D01*
X018093Y002628D02*
X018481Y002628D01*
X018481Y002530D02*
X018211Y002530D01*
X018282Y002469D02*
X018282Y002469D01*
X018304Y002431D02*
X018481Y002431D01*
X018481Y002333D02*
X018361Y002333D01*
X018418Y002234D02*
X018481Y002234D01*
X018481Y002136D02*
X018456Y002136D01*
X018474Y002037D02*
X018481Y002037D01*
X017385Y002796D02*
X017385Y002796D01*
X018481Y002924D02*
X015211Y002924D01*
X015112Y003022D02*
X018481Y003022D01*
X018481Y003121D02*
X015091Y003121D01*
X015091Y003219D02*
X018481Y003219D01*
X018481Y003318D02*
X015091Y003318D01*
X015091Y003417D02*
X018481Y003417D01*
X018481Y003515D02*
X015091Y003515D01*
X015091Y003614D02*
X018481Y003614D01*
X018481Y003712D02*
X015091Y003712D01*
X015091Y003811D02*
X018481Y003811D01*
X018481Y003909D02*
X015091Y003909D01*
X015091Y004008D02*
X018481Y004008D01*
X018481Y004106D02*
X017587Y004106D01*
X017589Y004108D02*
X017512Y004068D01*
X017430Y004041D01*
X017351Y004029D01*
X017351Y004528D01*
X017251Y004528D01*
X016752Y004528D01*
X016765Y004449D01*
X016791Y004367D01*
X016831Y004290D01*
X016882Y004220D01*
X016943Y004158D01*
X017013Y004108D01*
X017090Y004068D01*
X017172Y004041D01*
X017251Y004029D01*
X017251Y004528D01*
X017251Y004628D01*
X016752Y004628D01*
X016765Y004707D01*
X016791Y004789D01*
X016831Y004866D01*
X016882Y004936D01*
X016943Y004997D01*
X017013Y005048D01*
X017090Y005088D01*
X017172Y005114D01*
X017251Y005127D01*
X017251Y004628D01*
X017351Y004628D01*
X017351Y005127D01*
X017430Y005114D01*
X017512Y005088D01*
X017589Y005048D01*
X017659Y004997D01*
X017721Y004936D01*
X017772Y004866D01*
X017811Y004789D01*
X017838Y004707D01*
X017850Y004628D01*
X017351Y004628D01*
X017351Y004528D01*
X017850Y004528D01*
X017838Y004449D01*
X017811Y004367D01*
X017772Y004290D01*
X017721Y004220D01*
X017659Y004158D01*
X017589Y004108D01*
X017706Y004205D02*
X018481Y004205D01*
X018481Y004303D02*
X017779Y004303D01*
X017822Y004402D02*
X018481Y004402D01*
X018481Y004501D02*
X017846Y004501D01*
X017839Y004698D02*
X018481Y004698D01*
X018481Y004796D02*
X017807Y004796D01*
X017751Y004895D02*
X018481Y004895D01*
X018481Y004993D02*
X017664Y004993D01*
X017499Y005092D02*
X018481Y005092D01*
X018481Y005190D02*
X015802Y005190D01*
X015704Y005092D02*
X017103Y005092D01*
X017251Y005092D02*
X017351Y005092D01*
X017351Y004993D02*
X017251Y004993D01*
X017251Y004895D02*
X017351Y004895D01*
X017351Y004796D02*
X017251Y004796D01*
X017251Y004698D02*
X017351Y004698D01*
X017351Y004599D02*
X018481Y004599D01*
X017351Y004501D02*
X017251Y004501D01*
X017251Y004599D02*
X015211Y004599D01*
X015112Y004501D02*
X016757Y004501D01*
X016780Y004402D02*
X015091Y004402D01*
X015091Y004303D02*
X016824Y004303D01*
X016896Y004205D02*
X015091Y004205D01*
X015091Y004106D02*
X017015Y004106D01*
X017251Y004106D02*
X017351Y004106D01*
X017351Y004205D02*
X017251Y004205D01*
X017251Y004303D02*
X017351Y004303D01*
X017351Y004402D02*
X017251Y004402D01*
X016763Y004698D02*
X015310Y004698D01*
X015408Y004796D02*
X016795Y004796D01*
X016852Y004895D02*
X015507Y004895D01*
X015605Y004993D02*
X016939Y004993D01*
X016829Y005387D02*
X015999Y005387D01*
X015901Y005289D02*
X018481Y005289D01*
X018481Y005387D02*
X017773Y005387D01*
X017871Y005486D02*
X018481Y005486D01*
X018481Y005585D02*
X017871Y005585D01*
X017871Y005683D02*
X018481Y005683D01*
X018481Y005782D02*
X017871Y005782D01*
X017871Y005880D02*
X018481Y005880D01*
X018481Y005979D02*
X017871Y005979D01*
X017871Y006077D02*
X018481Y006077D01*
X018481Y006176D02*
X017871Y006176D01*
X017871Y006274D02*
X018481Y006274D01*
X018481Y006373D02*
X017871Y006373D01*
X017826Y006471D02*
X018481Y006471D01*
X018481Y006570D02*
X017631Y006570D01*
X017631Y006669D02*
X018481Y006669D01*
X018481Y006767D02*
X017631Y006767D01*
X017631Y006866D02*
X018481Y006866D01*
X018481Y006964D02*
X017631Y006964D01*
X017631Y007063D02*
X018481Y007063D01*
X018481Y007161D02*
X017615Y007161D01*
X017564Y007260D02*
X018481Y007260D01*
X018481Y007358D02*
X017465Y007358D01*
X017367Y007457D02*
X018481Y007457D01*
X018481Y007555D02*
X017268Y007555D01*
X017170Y007654D02*
X018481Y007654D01*
X018481Y007752D02*
X017817Y007752D01*
X017717Y007716D02*
X017717Y007716D01*
X018054Y007851D02*
X018481Y007851D01*
X018481Y007950D02*
X018172Y007950D01*
X018282Y008042D02*
X018282Y008042D01*
X018286Y008048D02*
X018481Y008048D01*
X018481Y008147D02*
X018343Y008147D01*
X018399Y008245D02*
X018481Y008245D01*
X018481Y008344D02*
X018451Y008344D01*
X018468Y008442D02*
X018481Y008442D01*
X017285Y007752D02*
X017071Y007752D01*
X017074Y007829D02*
X017074Y007829D01*
X017048Y007851D02*
X016973Y007851D01*
X016931Y007950D02*
X016874Y007950D01*
X016820Y008042D02*
X016820Y008042D01*
X016817Y008048D02*
X016776Y008048D01*
X016760Y008147D02*
X016677Y008147D01*
X016703Y008245D02*
X016579Y008245D01*
X016654Y008329D02*
X016654Y008329D01*
X016652Y008344D02*
X016480Y008344D01*
X016381Y008442D02*
X016634Y008442D01*
X016617Y008541D02*
X016283Y008541D01*
X016184Y008639D02*
X016600Y008639D01*
X016597Y008656D02*
X016597Y008656D01*
X016611Y008738D02*
X016086Y008738D01*
X015987Y008836D02*
X016629Y008836D01*
X016646Y008935D02*
X015891Y008935D01*
X015891Y009034D02*
X015953Y009034D01*
X016201Y009306D02*
X015901Y009606D01*
X007651Y009606D01*
X007501Y009456D01*
X007151Y009056D02*
X008876Y009056D01*
X008976Y009156D01*
X008926Y009206D01*
X008976Y008656D02*
X007251Y008656D01*
X007151Y008556D01*
X007251Y008156D02*
X007151Y008056D01*
X007251Y008156D02*
X008976Y008156D01*
X009851Y008206D02*
X009851Y006806D01*
X010871Y006866D02*
X010880Y006866D01*
X010871Y006964D02*
X010880Y006964D01*
X010871Y007063D02*
X010920Y007063D01*
X010932Y007161D02*
X011171Y007161D01*
X012468Y007063D02*
X012565Y007063D01*
X012565Y006964D02*
X012468Y006964D01*
X012468Y006866D02*
X012565Y006866D01*
X012835Y007063D02*
X012839Y007063D01*
X013201Y007306D02*
X013001Y007506D01*
X012851Y007506D01*
X013201Y007306D02*
X013201Y006771D01*
X013186Y006756D01*
X013851Y006306D02*
X013851Y007506D01*
X013351Y008006D01*
X014351Y008006D02*
X014501Y007856D01*
X014501Y007191D01*
X014586Y007106D01*
X014851Y007106D01*
X014951Y007006D01*
X014951Y006106D01*
X013851Y006306D02*
X013451Y005906D01*
X013186Y005906D01*
X012536Y005256D01*
X011889Y004698D02*
X011871Y004698D01*
X011871Y004599D02*
X011987Y004599D01*
X013167Y003811D02*
X013204Y003811D01*
X013206Y003712D02*
X013069Y003712D01*
X012971Y003614D02*
X013247Y003614D01*
X013310Y003515D02*
X012971Y003515D01*
X012971Y003417D02*
X013423Y003417D01*
X010936Y002171D02*
X010351Y002756D01*
X009951Y002606D02*
X009951Y003256D01*
X009951Y002606D02*
X009701Y002356D01*
X008976Y002356D01*
X008216Y002333D02*
X006940Y002333D01*
X006940Y002431D02*
X008216Y002431D01*
X008216Y002530D02*
X006940Y002530D01*
X006940Y002234D02*
X008216Y002234D01*
X008216Y002136D02*
X006940Y002136D01*
X006940Y002037D02*
X008216Y002037D01*
X008216Y001938D02*
X006940Y001938D01*
X006940Y001840D02*
X008216Y001840D01*
X008216Y001741D02*
X006940Y001741D01*
X006940Y001643D02*
X008216Y001643D01*
X008239Y001544D02*
X006940Y001544D01*
X006940Y001446D02*
X008236Y001446D01*
X008236Y001249D02*
X006940Y001249D01*
X006940Y001347D02*
X008947Y001347D01*
X009005Y001347D02*
X016759Y001347D01*
X016703Y001446D02*
X009717Y001446D01*
X009714Y001544D02*
X016652Y001544D01*
X016654Y001529D02*
X016654Y001529D01*
X016634Y001643D02*
X011226Y001643D01*
X011322Y001741D02*
X016617Y001741D01*
X016816Y001249D02*
X009717Y001249D01*
X009709Y001150D02*
X016930Y001150D01*
X016820Y001242D02*
X016820Y001242D01*
X017047Y001052D02*
X009598Y001052D01*
X009005Y001052D02*
X008947Y001052D01*
X008947Y001150D02*
X009005Y001150D01*
X009005Y001249D02*
X008947Y001249D01*
X008354Y001052D02*
X006940Y001052D01*
X006940Y001150D02*
X008243Y001150D01*
X008976Y001856D02*
X010117Y001856D01*
X010267Y002006D01*
X010557Y001643D02*
X010645Y001643D01*
X008238Y002606D02*
X008238Y002606D01*
X006940Y000953D02*
X017284Y000953D01*
X017074Y001029D02*
X017074Y001029D01*
X016731Y005486D02*
X016098Y005486D01*
X016196Y005585D02*
X016731Y005585D01*
X016801Y006856D02*
X015801Y006856D01*
X015521Y007097D02*
X015521Y007247D01*
X015392Y007376D01*
X015282Y007486D01*
X015301Y007486D01*
X015301Y007956D01*
X015401Y007956D01*
X015401Y007486D01*
X015567Y007486D01*
X015871Y007791D01*
X015871Y007956D01*
X015401Y007956D01*
X015401Y008056D01*
X015835Y008056D01*
X016684Y007206D01*
X016592Y007168D01*
X016500Y007076D01*
X016102Y007076D01*
X016010Y007168D01*
X015874Y007224D01*
X015728Y007224D01*
X015592Y007168D01*
X015521Y007097D01*
X015521Y007161D02*
X015586Y007161D01*
X015508Y007260D02*
X016631Y007260D01*
X016586Y007161D02*
X016017Y007161D01*
X016532Y007358D02*
X015410Y007358D01*
X015311Y007457D02*
X016434Y007457D01*
X016335Y007555D02*
X015636Y007555D01*
X015735Y007654D02*
X016236Y007654D01*
X016138Y007752D02*
X015833Y007752D01*
X015871Y007851D02*
X016039Y007851D01*
X015941Y007950D02*
X015871Y007950D01*
X015842Y008048D02*
X015401Y008048D01*
X015401Y007950D02*
X015301Y007950D01*
X015301Y007851D02*
X015401Y007851D01*
X015401Y007752D02*
X015301Y007752D01*
X015301Y007654D02*
X015401Y007654D01*
X015401Y007555D02*
X015301Y007555D01*
X016450Y009034D02*
X016684Y009034D01*
X016654Y008982D02*
X016654Y008982D01*
X016741Y009132D02*
X016528Y009132D01*
X016569Y009231D02*
X016798Y009231D01*
X016820Y009269D02*
X016820Y009269D01*
X016820Y009269D01*
X016891Y009329D02*
X016570Y009329D01*
X016549Y009428D02*
X017009Y009428D01*
X017074Y009482D02*
X017074Y009482D01*
X017194Y009526D02*
X016502Y009526D01*
X008216Y006866D02*
X007382Y006866D01*
X003057Y006866D02*
X002182Y006866D01*
X002213Y006897D02*
X002270Y007033D01*
X002270Y007179D01*
X002213Y007315D01*
X002110Y007418D01*
X001974Y007474D01*
X001828Y007474D01*
X001692Y007418D01*
X001666Y007392D01*
X001624Y007433D01*
X001169Y007433D01*
X001086Y007351D01*
X001083Y007355D01*
X001055Y007383D01*
X001021Y007403D01*
X000983Y007413D01*
X000835Y007413D01*
X000835Y007135D01*
X000777Y007135D01*
X000777Y007413D01*
X000629Y007413D01*
X000591Y007403D01*
X000556Y007383D01*
X000528Y007355D01*
X000509Y007321D01*
X000498Y007283D01*
X000498Y007135D01*
X000777Y007135D01*
X000777Y007077D01*
X000835Y007077D01*
X000835Y006798D01*
X000983Y006798D01*
X001021Y006809D01*
X001055Y006828D01*
X001083Y006856D01*
X001086Y006861D01*
X001169Y006778D01*
X001624Y006778D01*
X001666Y006820D01*
X001692Y006794D01*
X001828Y006737D01*
X001974Y006737D01*
X002110Y006794D01*
X002213Y006897D01*
X002241Y006964D02*
X003057Y006964D01*
X003057Y007063D02*
X002270Y007063D01*
X002270Y007161D02*
X003057Y007161D01*
X003057Y007260D02*
X002236Y007260D01*
X002170Y007358D02*
X003057Y007358D01*
X003057Y007457D02*
X002017Y007457D01*
X001786Y007457D02*
X000321Y007457D01*
X000321Y007555D02*
X003057Y007555D01*
X003057Y007654D02*
X000321Y007654D01*
X000321Y007752D02*
X000985Y007752D01*
X000774Y007829D02*
X000774Y007829D01*
X000748Y007851D02*
X000321Y007851D01*
X000321Y007950D02*
X000631Y007950D01*
X000520Y008042D02*
X000520Y008042D01*
X000517Y008048D02*
X000321Y008048D01*
X000321Y008147D02*
X000460Y008147D01*
X000403Y008245D02*
X000321Y008245D01*
X000354Y008329D02*
X000354Y008329D01*
X000352Y008344D02*
X000321Y008344D01*
X000321Y008442D02*
X000334Y008442D01*
X001517Y007752D02*
X003057Y007752D01*
X003057Y007851D02*
X001754Y007851D01*
X001872Y007950D02*
X003057Y007950D01*
X003057Y008048D02*
X001986Y008048D01*
X001982Y008042D02*
X001982Y008042D01*
X002043Y008147D02*
X003057Y008147D01*
X003057Y008245D02*
X002099Y008245D01*
X002151Y008344D02*
X003057Y008344D01*
X003057Y008442D02*
X002168Y008442D01*
X002185Y008541D02*
X003057Y008541D01*
X003057Y008639D02*
X002203Y008639D01*
X002206Y008656D02*
X002206Y008656D01*
X002191Y008738D02*
X003057Y008738D01*
X003057Y008836D02*
X002174Y008836D01*
X002156Y008935D02*
X003057Y008935D01*
X003057Y009034D02*
X002119Y009034D01*
X002062Y009132D02*
X003057Y009132D01*
X003057Y009231D02*
X002005Y009231D01*
X001982Y009269D02*
X001982Y009269D01*
X001911Y009329D02*
X003057Y009329D01*
X003057Y009428D02*
X001794Y009428D01*
X001728Y009482D02*
X001728Y009482D01*
X001608Y009526D02*
X003057Y009526D01*
X002801Y009056D02*
X002351Y008606D01*
X002351Y008156D01*
X001701Y007506D01*
X000901Y007506D01*
X000806Y007411D01*
X000806Y007106D01*
X000806Y003406D01*
X000777Y003377D02*
X000777Y003098D01*
X000629Y003098D01*
X000591Y003109D01*
X000556Y003128D01*
X000528Y003156D01*
X000509Y003191D01*
X000498Y003229D01*
X000498Y003377D01*
X000777Y003377D01*
X000777Y003318D02*
X000835Y003318D01*
X000835Y003219D02*
X000777Y003219D01*
X000777Y003121D02*
X000835Y003121D01*
X001043Y003121D02*
X001126Y003121D01*
X000569Y003121D02*
X000321Y003121D01*
X000321Y003219D02*
X000501Y003219D01*
X000498Y003318D02*
X000321Y003318D01*
X000321Y003022D02*
X003057Y003022D01*
X003057Y002924D02*
X000321Y002924D01*
X000321Y002825D02*
X003057Y002825D01*
X003057Y002727D02*
X001607Y002727D01*
X001728Y002682D02*
X001728Y002682D01*
X001793Y002628D02*
X003057Y002628D01*
X003057Y002530D02*
X001911Y002530D01*
X001982Y002469D02*
X001982Y002469D01*
X002004Y002431D02*
X003057Y002431D01*
X003057Y002333D02*
X002061Y002333D01*
X002118Y002234D02*
X003057Y002234D01*
X003057Y002136D02*
X002156Y002136D01*
X002174Y002037D02*
X003057Y002037D01*
X003057Y001938D02*
X002191Y001938D01*
X002206Y001856D02*
X002206Y001856D01*
X002203Y001840D02*
X003057Y001840D01*
X003057Y001741D02*
X002185Y001741D01*
X002168Y001643D02*
X003057Y001643D01*
X003057Y001544D02*
X002151Y001544D01*
X002100Y001446D02*
X003057Y001446D01*
X003057Y001347D02*
X002043Y001347D01*
X001986Y001249D02*
X003057Y001249D01*
X003057Y001150D02*
X001872Y001150D01*
X001982Y001242D02*
X001982Y001242D01*
X001755Y001052D02*
X003057Y001052D01*
X003057Y000953D02*
X001519Y000953D01*
X000329Y002037D02*
X000321Y002037D01*
X000321Y002136D02*
X000346Y002136D01*
X000354Y002182D02*
X000354Y002182D01*
X000384Y002234D02*
X000321Y002234D01*
X000321Y002333D02*
X000441Y002333D01*
X000498Y002431D02*
X000321Y002431D01*
X000321Y002530D02*
X000592Y002530D01*
X000520Y002469D02*
X000520Y002469D01*
X000520Y002469D01*
X000709Y002628D02*
X000321Y002628D01*
X000321Y002727D02*
X000896Y002727D01*
X000774Y002682D02*
X000774Y002682D01*
X001085Y002796D02*
X001085Y002796D01*
X001667Y003121D02*
X001765Y003121D01*
X002237Y003121D02*
X003057Y003121D01*
X003057Y003219D02*
X002323Y003219D01*
X002364Y003318D02*
X003057Y003318D01*
X003057Y003417D02*
X002370Y003417D01*
X002355Y003515D02*
X003057Y003515D01*
X003057Y003614D02*
X002314Y003614D01*
X002216Y003712D02*
X003057Y003712D01*
X003057Y004008D02*
X001994Y004008D01*
X002071Y004106D02*
X003057Y004106D01*
X001787Y003712D02*
X001645Y003712D01*
X001143Y005486D02*
X000321Y005486D01*
X000321Y005585D02*
X001044Y005585D01*
X000988Y005683D02*
X000321Y005683D01*
X000321Y005782D02*
X000947Y005782D01*
X000931Y005880D02*
X000321Y005880D01*
X000321Y005979D02*
X000931Y005979D01*
X000944Y006077D02*
X000321Y006077D01*
X000321Y006176D02*
X000984Y006176D01*
X001036Y006274D02*
X000321Y006274D01*
X000321Y006373D02*
X001134Y006373D01*
X001310Y006471D02*
X000321Y006471D01*
X000321Y006570D02*
X003057Y006570D01*
X003057Y006669D02*
X000321Y006669D01*
X000321Y006767D02*
X001756Y006767D01*
X002046Y006767D02*
X003057Y006767D01*
X003057Y006471D02*
X001693Y006471D01*
X001868Y006373D02*
X003057Y006373D01*
X001901Y007106D02*
X001396Y007106D01*
X001094Y007358D02*
X001081Y007358D01*
X000835Y007358D02*
X000777Y007358D01*
X000777Y007260D02*
X000835Y007260D01*
X000835Y007161D02*
X000777Y007161D01*
X000777Y007077D02*
X000498Y007077D01*
X000498Y006929D01*
X000509Y006891D01*
X000528Y006856D01*
X000556Y006828D01*
X000591Y006809D01*
X000629Y006798D01*
X000777Y006798D01*
X000777Y007077D01*
X000777Y007063D02*
X000835Y007063D01*
X000835Y006964D02*
X000777Y006964D01*
X000777Y006866D02*
X000835Y006866D01*
X000523Y006866D02*
X000321Y006866D01*
X000321Y006964D02*
X000498Y006964D01*
X000498Y007063D02*
X000321Y007063D01*
X000321Y007161D02*
X000498Y007161D01*
X000498Y007260D02*
X000321Y007260D01*
X000321Y007358D02*
X000531Y007358D01*
D28*
X016301Y003256D03*
M02*
